G04 #@! TF.GenerationSoftware,KiCad,Pcbnew,6.0.0-rc1-unknown-e7fa02a~66~ubuntu18.04.1*
G04 #@! TF.CreationDate,2021-10-31T13:50:51-07:00
G04 #@! TF.ProjectId,munin3,6d756e69-6e33-42e6-9b69-6361645f7063,rev?*
G04 #@! TF.SameCoordinates,Original*
G04 #@! TF.FileFunction,Soldermask,Bot*
G04 #@! TF.FilePolarity,Negative*
%FSLAX46Y46*%
G04 Gerber Fmt 4.6, Leading zero omitted, Abs format (unit mm)*
G04 Created by KiCad (PCBNEW 6.0.0-rc1-unknown-e7fa02a~66~ubuntu18.04.1) date Sun 31 Oct 2021 01:50:51 PM PDT*
%MOMM*%
%LPD*%
G04 APERTURE LIST*
%ADD10C,0.100000*%
G04 APERTURE END LIST*
D10*
G36*
X184067158Y-137236722D02*
G01*
X184575991Y-137391075D01*
X185044927Y-137641727D01*
X185455953Y-137979047D01*
X185793273Y-138390073D01*
X186043925Y-138859009D01*
X186198278Y-139367842D01*
X186251000Y-139903140D01*
X186251000Y-145566860D01*
X186198278Y-146102158D01*
X186043925Y-146610991D01*
X185793273Y-147079927D01*
X185455953Y-147490953D01*
X185044927Y-147828273D01*
X184575991Y-148078925D01*
X184067158Y-148233278D01*
X183531860Y-148286000D01*
X177868140Y-148286000D01*
X177332842Y-148233278D01*
X176824009Y-148078925D01*
X176355073Y-147828273D01*
X175944047Y-147490953D01*
X175606727Y-147079927D01*
X175356075Y-146610991D01*
X175201722Y-146102158D01*
X175149000Y-145566860D01*
X175149000Y-139903140D01*
X175201722Y-139367842D01*
X175356075Y-138859009D01*
X175606727Y-138390073D01*
X175944047Y-137979047D01*
X176355073Y-137641727D01*
X176824009Y-137391075D01*
X177332842Y-137236722D01*
X177868140Y-137184000D01*
X183531860Y-137184000D01*
X184067158Y-137236722D01*
X184067158Y-137236722D01*
G37*
G36*
X119047442Y-145893518D02*
G01*
X119113627Y-145900037D01*
X119226853Y-145934384D01*
X119283467Y-145951557D01*
X119320801Y-145971513D01*
X119439991Y-146035222D01*
X119460402Y-146051973D01*
X119577186Y-146147814D01*
X119660448Y-146249271D01*
X119689778Y-146285009D01*
X119689779Y-146285011D01*
X119773443Y-146441533D01*
X119773443Y-146441534D01*
X119824963Y-146611373D01*
X119842359Y-146788000D01*
X119824963Y-146964627D01*
X119790616Y-147077853D01*
X119773443Y-147134467D01*
X119699348Y-147273087D01*
X119689778Y-147290991D01*
X119660448Y-147326729D01*
X119577186Y-147428186D01*
X119506738Y-147486000D01*
X119439991Y-147540778D01*
X119439989Y-147540779D01*
X119283467Y-147624443D01*
X119226853Y-147641616D01*
X119113627Y-147675963D01*
X119047442Y-147682482D01*
X118981260Y-147689000D01*
X118892740Y-147689000D01*
X118826558Y-147682482D01*
X118760373Y-147675963D01*
X118647147Y-147641616D01*
X118590533Y-147624443D01*
X118434011Y-147540779D01*
X118434009Y-147540778D01*
X118367262Y-147486000D01*
X118296814Y-147428186D01*
X118213552Y-147326729D01*
X118184222Y-147290991D01*
X118174652Y-147273087D01*
X118100557Y-147134467D01*
X118083384Y-147077853D01*
X118049037Y-146964627D01*
X118031641Y-146788000D01*
X118049037Y-146611373D01*
X118100557Y-146441534D01*
X118100557Y-146441533D01*
X118184221Y-146285011D01*
X118184222Y-146285009D01*
X118213552Y-146249271D01*
X118296814Y-146147814D01*
X118413598Y-146051973D01*
X118434009Y-146035222D01*
X118553199Y-145971513D01*
X118590533Y-145951557D01*
X118647147Y-145934384D01*
X118760373Y-145900037D01*
X118826558Y-145893518D01*
X118892740Y-145887000D01*
X118981260Y-145887000D01*
X119047442Y-145893518D01*
X119047442Y-145893518D01*
G37*
G36*
X117298000Y-147689000D02*
G01*
X115496000Y-147689000D01*
X115496000Y-145887000D01*
X117298000Y-145887000D01*
X117298000Y-147689000D01*
X117298000Y-147689000D01*
G37*
G36*
X105598252Y-143027818D02*
G01*
X105598254Y-143027819D01*
X105598255Y-143027819D01*
X105971513Y-143182427D01*
X105971514Y-143182428D01*
X106307439Y-143406886D01*
X106593114Y-143692561D01*
X106593116Y-143692564D01*
X106817573Y-144028487D01*
X106845422Y-144095721D01*
X106972182Y-144401748D01*
X107051000Y-144797993D01*
X107051000Y-145202007D01*
X107002326Y-145446710D01*
X106972181Y-145598255D01*
X106817573Y-145971513D01*
X106667578Y-146195996D01*
X106593114Y-146307439D01*
X106307439Y-146593114D01*
X106307436Y-146593116D01*
X105971513Y-146817573D01*
X105598255Y-146972181D01*
X105598254Y-146972181D01*
X105598252Y-146972182D01*
X105202007Y-147051000D01*
X104797993Y-147051000D01*
X104401748Y-146972182D01*
X104401746Y-146972181D01*
X104401745Y-146972181D01*
X104028487Y-146817573D01*
X103692564Y-146593116D01*
X103692561Y-146593114D01*
X103406886Y-146307439D01*
X103332422Y-146195996D01*
X103182427Y-145971513D01*
X103027819Y-145598255D01*
X102997675Y-145446710D01*
X102949000Y-145202007D01*
X102949000Y-144797993D01*
X103027818Y-144401748D01*
X103154578Y-144095721D01*
X103182427Y-144028487D01*
X103406884Y-143692564D01*
X103406886Y-143692561D01*
X103692561Y-143406886D01*
X104028486Y-143182428D01*
X104028487Y-143182427D01*
X104401745Y-143027819D01*
X104401746Y-143027819D01*
X104401748Y-143027818D01*
X104797993Y-142949000D01*
X105202007Y-142949000D01*
X105598252Y-143027818D01*
X105598252Y-143027818D01*
G37*
G36*
X195598252Y-143027818D02*
G01*
X195598254Y-143027819D01*
X195598255Y-143027819D01*
X195971513Y-143182427D01*
X195971514Y-143182428D01*
X196307439Y-143406886D01*
X196593114Y-143692561D01*
X196593116Y-143692564D01*
X196817573Y-144028487D01*
X196845422Y-144095721D01*
X196972182Y-144401748D01*
X197051000Y-144797993D01*
X197051000Y-145202007D01*
X197002326Y-145446710D01*
X196972181Y-145598255D01*
X196817573Y-145971513D01*
X196667578Y-146195996D01*
X196593114Y-146307439D01*
X196307439Y-146593114D01*
X196307436Y-146593116D01*
X195971513Y-146817573D01*
X195598255Y-146972181D01*
X195598254Y-146972181D01*
X195598252Y-146972182D01*
X195202007Y-147051000D01*
X194797993Y-147051000D01*
X194401748Y-146972182D01*
X194401746Y-146972181D01*
X194401745Y-146972181D01*
X194028487Y-146817573D01*
X193692564Y-146593116D01*
X193692561Y-146593114D01*
X193406886Y-146307439D01*
X193332422Y-146195996D01*
X193182427Y-145971513D01*
X193027819Y-145598255D01*
X192997675Y-145446710D01*
X192949000Y-145202007D01*
X192949000Y-144797993D01*
X193027818Y-144401748D01*
X193154578Y-144095721D01*
X193182427Y-144028487D01*
X193406884Y-143692564D01*
X193406886Y-143692561D01*
X193692561Y-143406886D01*
X194028486Y-143182428D01*
X194028487Y-143182427D01*
X194401745Y-143027819D01*
X194401746Y-143027819D01*
X194401748Y-143027818D01*
X194797993Y-142949000D01*
X195202007Y-142949000D01*
X195598252Y-143027818D01*
X195598252Y-143027818D01*
G37*
G36*
X129359000Y-137469000D02*
G01*
X127557000Y-137469000D01*
X127557000Y-135667000D01*
X129359000Y-135667000D01*
X129359000Y-137469000D01*
X129359000Y-137469000D01*
G37*
G36*
X131108443Y-135673519D02*
G01*
X131174627Y-135680037D01*
X131287853Y-135714384D01*
X131344467Y-135731557D01*
X131483087Y-135805652D01*
X131500991Y-135815222D01*
X131536729Y-135844552D01*
X131638186Y-135927814D01*
X131721448Y-136029271D01*
X131750778Y-136065009D01*
X131750779Y-136065011D01*
X131834443Y-136221533D01*
X131834443Y-136221534D01*
X131885963Y-136391373D01*
X131903359Y-136568000D01*
X131885963Y-136744627D01*
X131851616Y-136857853D01*
X131834443Y-136914467D01*
X131760348Y-137053087D01*
X131750778Y-137070991D01*
X131721448Y-137106729D01*
X131638186Y-137208186D01*
X131536729Y-137291448D01*
X131500991Y-137320778D01*
X131500989Y-137320779D01*
X131344467Y-137404443D01*
X131287853Y-137421616D01*
X131174627Y-137455963D01*
X131108443Y-137462481D01*
X131042260Y-137469000D01*
X130953740Y-137469000D01*
X130887557Y-137462481D01*
X130821373Y-137455963D01*
X130708147Y-137421616D01*
X130651533Y-137404443D01*
X130495011Y-137320779D01*
X130495009Y-137320778D01*
X130459271Y-137291448D01*
X130357814Y-137208186D01*
X130274552Y-137106729D01*
X130245222Y-137070991D01*
X130235652Y-137053087D01*
X130161557Y-136914467D01*
X130144384Y-136857853D01*
X130110037Y-136744627D01*
X130092641Y-136568000D01*
X130110037Y-136391373D01*
X130161557Y-136221534D01*
X130161557Y-136221533D01*
X130245221Y-136065011D01*
X130245222Y-136065009D01*
X130274552Y-136029271D01*
X130357814Y-135927814D01*
X130459271Y-135844552D01*
X130495009Y-135815222D01*
X130512913Y-135805652D01*
X130651533Y-135731557D01*
X130708147Y-135714384D01*
X130821373Y-135680037D01*
X130887558Y-135673519D01*
X130953740Y-135667000D01*
X131042260Y-135667000D01*
X131108443Y-135673519D01*
X131108443Y-135673519D01*
G37*
G36*
X106165589Y-126278876D02*
G01*
X106264893Y-126298629D01*
X106405206Y-126356748D01*
X106531484Y-126441125D01*
X106638875Y-126548516D01*
X106723252Y-126674794D01*
X106781371Y-126815107D01*
X106811000Y-126964063D01*
X106811000Y-127115937D01*
X106781371Y-127264893D01*
X106723252Y-127405206D01*
X106638875Y-127531484D01*
X106531484Y-127638875D01*
X106405206Y-127723252D01*
X106264893Y-127781371D01*
X106165589Y-127801124D01*
X106115938Y-127811000D01*
X105964062Y-127811000D01*
X105914411Y-127801124D01*
X105815107Y-127781371D01*
X105674794Y-127723252D01*
X105548516Y-127638875D01*
X105441125Y-127531484D01*
X105356748Y-127405206D01*
X105298629Y-127264893D01*
X105269000Y-127115937D01*
X105269000Y-126964063D01*
X105298629Y-126815107D01*
X105356748Y-126674794D01*
X105441125Y-126548516D01*
X105548516Y-126441125D01*
X105674794Y-126356748D01*
X105815107Y-126298629D01*
X105914411Y-126278876D01*
X105964062Y-126269000D01*
X106115938Y-126269000D01*
X106165589Y-126278876D01*
X106165589Y-126278876D01*
G37*
G36*
X183259252Y-122441818D02*
G01*
X183259254Y-122441819D01*
X183259255Y-122441819D01*
X183632513Y-122596427D01*
X183632514Y-122596428D01*
X183968439Y-122820886D01*
X184254114Y-123106561D01*
X184254116Y-123106564D01*
X184478573Y-123442487D01*
X184597250Y-123729000D01*
X184633182Y-123815748D01*
X184712000Y-124211993D01*
X184712000Y-124616007D01*
X184690342Y-124724891D01*
X184633181Y-125012255D01*
X184478573Y-125385513D01*
X184478572Y-125385514D01*
X184254114Y-125721439D01*
X183968439Y-126007114D01*
X183968436Y-126007116D01*
X183632513Y-126231573D01*
X183259255Y-126386181D01*
X183259254Y-126386181D01*
X183259252Y-126386182D01*
X182863007Y-126465000D01*
X182458993Y-126465000D01*
X182062748Y-126386182D01*
X182062746Y-126386181D01*
X182062745Y-126386181D01*
X181689487Y-126231573D01*
X181353564Y-126007116D01*
X181353561Y-126007114D01*
X181067886Y-125721439D01*
X180843428Y-125385514D01*
X180843427Y-125385513D01*
X180688819Y-125012255D01*
X180631659Y-124724891D01*
X180610000Y-124616007D01*
X180610000Y-124211993D01*
X180688818Y-123815748D01*
X180724750Y-123729000D01*
X180843427Y-123442487D01*
X181067884Y-123106564D01*
X181067886Y-123106561D01*
X181353561Y-122820886D01*
X181689486Y-122596428D01*
X181689487Y-122596427D01*
X182062745Y-122441819D01*
X182062746Y-122441819D01*
X182062748Y-122441818D01*
X182458993Y-122363000D01*
X182863007Y-122363000D01*
X183259252Y-122441818D01*
X183259252Y-122441818D01*
G37*
G36*
X103625589Y-123738876D02*
G01*
X103724893Y-123758629D01*
X103865206Y-123816748D01*
X103991484Y-123901125D01*
X104098875Y-124008516D01*
X104183252Y-124134794D01*
X104241371Y-124275107D01*
X104271000Y-124424063D01*
X104271000Y-124575937D01*
X104241371Y-124724893D01*
X104183252Y-124865206D01*
X104098875Y-124991484D01*
X103991484Y-125098875D01*
X103865206Y-125183252D01*
X103724893Y-125241371D01*
X103625589Y-125261124D01*
X103575938Y-125271000D01*
X103424062Y-125271000D01*
X103374411Y-125261124D01*
X103275107Y-125241371D01*
X103134794Y-125183252D01*
X103008516Y-125098875D01*
X102901125Y-124991484D01*
X102816748Y-124865206D01*
X102758629Y-124724893D01*
X102729000Y-124575937D01*
X102729000Y-124424063D01*
X102758629Y-124275107D01*
X102816748Y-124134794D01*
X102901125Y-124008516D01*
X103008516Y-123901125D01*
X103134794Y-123816748D01*
X103275107Y-123758629D01*
X103374411Y-123738876D01*
X103424062Y-123729000D01*
X103575938Y-123729000D01*
X103625589Y-123738876D01*
X103625589Y-123738876D01*
G37*
G36*
X108705589Y-123738876D02*
G01*
X108804893Y-123758629D01*
X108945206Y-123816748D01*
X109071484Y-123901125D01*
X109178875Y-124008516D01*
X109263252Y-124134794D01*
X109321371Y-124275107D01*
X109351000Y-124424063D01*
X109351000Y-124575937D01*
X109321371Y-124724893D01*
X109263252Y-124865206D01*
X109178875Y-124991484D01*
X109071484Y-125098875D01*
X108945206Y-125183252D01*
X108804893Y-125241371D01*
X108705589Y-125261124D01*
X108655938Y-125271000D01*
X108504062Y-125271000D01*
X108454411Y-125261124D01*
X108355107Y-125241371D01*
X108214794Y-125183252D01*
X108088516Y-125098875D01*
X107981125Y-124991484D01*
X107896748Y-124865206D01*
X107838629Y-124724893D01*
X107809000Y-124575937D01*
X107809000Y-124424063D01*
X107838629Y-124275107D01*
X107896748Y-124134794D01*
X107981125Y-124008516D01*
X108088516Y-123901125D01*
X108214794Y-123816748D01*
X108355107Y-123758629D01*
X108454411Y-123738876D01*
X108504062Y-123729000D01*
X108655938Y-123729000D01*
X108705589Y-123738876D01*
X108705589Y-123738876D01*
G37*
G36*
X183259252Y-114241818D02*
G01*
X183259254Y-114241819D01*
X183259255Y-114241819D01*
X183632513Y-114396427D01*
X183767981Y-114486944D01*
X183968439Y-114620886D01*
X184254114Y-114906561D01*
X184254116Y-114906564D01*
X184478573Y-115242487D01*
X184567427Y-115457000D01*
X184633182Y-115615748D01*
X184712000Y-116011993D01*
X184712000Y-116416007D01*
X184671713Y-116618546D01*
X184633181Y-116812255D01*
X184478573Y-117185513D01*
X184478572Y-117185514D01*
X184254114Y-117521439D01*
X183968439Y-117807114D01*
X183968436Y-117807116D01*
X183632513Y-118031573D01*
X183259255Y-118186181D01*
X183259254Y-118186181D01*
X183259252Y-118186182D01*
X182863007Y-118265000D01*
X182458993Y-118265000D01*
X182062748Y-118186182D01*
X182062746Y-118186181D01*
X182062745Y-118186181D01*
X181689487Y-118031573D01*
X181353564Y-117807116D01*
X181353561Y-117807114D01*
X181067886Y-117521439D01*
X180843428Y-117185514D01*
X180843427Y-117185513D01*
X180688819Y-116812255D01*
X180650288Y-116618546D01*
X180610000Y-116416007D01*
X180610000Y-116011993D01*
X180688818Y-115615748D01*
X180754573Y-115457000D01*
X180843427Y-115242487D01*
X181067884Y-114906564D01*
X181067886Y-114906561D01*
X181353561Y-114620886D01*
X181554019Y-114486944D01*
X181689487Y-114396427D01*
X182062745Y-114241819D01*
X182062746Y-114241819D01*
X182062748Y-114241818D01*
X182458993Y-114163000D01*
X182863007Y-114163000D01*
X183259252Y-114241818D01*
X183259252Y-114241818D01*
G37*
G36*
X117441665Y-116498622D02*
G01*
X117515222Y-116505867D01*
X117656786Y-116548810D01*
X117787252Y-116618546D01*
X117901606Y-116712394D01*
X117995454Y-116826748D01*
X118065190Y-116957214D01*
X118108133Y-117098778D01*
X118122633Y-117246000D01*
X118108133Y-117393222D01*
X118065190Y-117534786D01*
X117995454Y-117665252D01*
X117901606Y-117779606D01*
X117787252Y-117873454D01*
X117656786Y-117943190D01*
X117515222Y-117986133D01*
X117441665Y-117993378D01*
X117404888Y-117997000D01*
X117331112Y-117997000D01*
X117294335Y-117993378D01*
X117220778Y-117986133D01*
X117079214Y-117943190D01*
X116948748Y-117873454D01*
X116834394Y-117779606D01*
X116740546Y-117665252D01*
X116670810Y-117534786D01*
X116627867Y-117393222D01*
X116613367Y-117246000D01*
X116627867Y-117098778D01*
X116670810Y-116957214D01*
X116740546Y-116826748D01*
X116834394Y-116712394D01*
X116948748Y-116618546D01*
X117079214Y-116548810D01*
X117220778Y-116505867D01*
X117294335Y-116498622D01*
X117331112Y-116495000D01*
X117404888Y-116495000D01*
X117441665Y-116498622D01*
X117441665Y-116498622D01*
G37*
G36*
X117500004Y-113966544D02*
G01*
X117587059Y-113983860D01*
X117723732Y-114040472D01*
X117723733Y-114040473D01*
X117846738Y-114122662D01*
X117951338Y-114227262D01*
X117951340Y-114227265D01*
X118033528Y-114350268D01*
X118090140Y-114486941D01*
X118107456Y-114573996D01*
X118116783Y-114620884D01*
X118119000Y-114632033D01*
X118119000Y-114779967D01*
X118090140Y-114925059D01*
X118033528Y-115061732D01*
X118033527Y-115061733D01*
X117951338Y-115184738D01*
X117846738Y-115289338D01*
X117846735Y-115289340D01*
X117723732Y-115371528D01*
X117587059Y-115428140D01*
X117500004Y-115445456D01*
X117441969Y-115457000D01*
X117294031Y-115457000D01*
X117235996Y-115445456D01*
X117148941Y-115428140D01*
X117012268Y-115371528D01*
X116889265Y-115289340D01*
X116889262Y-115289338D01*
X116784662Y-115184738D01*
X116702473Y-115061733D01*
X116702472Y-115061732D01*
X116645860Y-114925059D01*
X116617000Y-114779967D01*
X116617000Y-114632033D01*
X116619218Y-114620884D01*
X116628544Y-114573996D01*
X116645860Y-114486941D01*
X116702472Y-114350268D01*
X116784660Y-114227265D01*
X116784662Y-114227262D01*
X116889262Y-114122662D01*
X117012267Y-114040473D01*
X117012268Y-114040472D01*
X117148941Y-113983860D01*
X117235996Y-113966544D01*
X117294031Y-113955000D01*
X117441969Y-113955000D01*
X117500004Y-113966544D01*
X117500004Y-113966544D01*
G37*
G36*
X161511331Y-110427211D02*
G01*
X161839092Y-110562974D01*
X162134073Y-110760074D01*
X162384926Y-111010927D01*
X162582026Y-111305908D01*
X162717789Y-111633669D01*
X162787000Y-111981616D01*
X162787000Y-112336384D01*
X162717789Y-112684331D01*
X162582026Y-113012092D01*
X162384926Y-113307073D01*
X162134073Y-113557926D01*
X161839092Y-113755026D01*
X161511331Y-113890789D01*
X161163384Y-113960000D01*
X160808616Y-113960000D01*
X160460669Y-113890789D01*
X160132908Y-113755026D01*
X159837927Y-113557926D01*
X159587074Y-113307073D01*
X159389974Y-113012092D01*
X159254211Y-112684331D01*
X159185000Y-112336384D01*
X159185000Y-111981616D01*
X159254211Y-111633669D01*
X159389974Y-111305908D01*
X159587074Y-111010927D01*
X159837927Y-110760074D01*
X160132908Y-110562974D01*
X160460669Y-110427211D01*
X160808616Y-110358000D01*
X161163384Y-110358000D01*
X161511331Y-110427211D01*
X161511331Y-110427211D01*
G37*
G36*
X107477427Y-106107597D02*
G01*
X107591027Y-106130193D01*
X107805045Y-106218842D01*
X107996358Y-106346674D01*
X107997659Y-106347543D01*
X108161457Y-106511341D01*
X108161459Y-106511344D01*
X108290158Y-106703955D01*
X108378807Y-106917973D01*
X108424000Y-107145174D01*
X108424000Y-107376826D01*
X108378807Y-107604027D01*
X108290158Y-107818045D01*
X108162326Y-108009358D01*
X108161457Y-108010659D01*
X107997659Y-108174457D01*
X107997656Y-108174459D01*
X107805045Y-108303158D01*
X107591027Y-108391807D01*
X107477426Y-108414404D01*
X107363827Y-108437000D01*
X107132173Y-108437000D01*
X107018574Y-108414404D01*
X106904973Y-108391807D01*
X106690955Y-108303158D01*
X106498344Y-108174459D01*
X106498341Y-108174457D01*
X106334543Y-108010659D01*
X106333674Y-108009358D01*
X106205842Y-107818045D01*
X106117193Y-107604027D01*
X106072000Y-107376826D01*
X106072000Y-107145174D01*
X106117193Y-106917973D01*
X106205842Y-106703955D01*
X106334541Y-106511344D01*
X106334543Y-106511341D01*
X106498341Y-106347543D01*
X106499642Y-106346674D01*
X106690955Y-106218842D01*
X106904973Y-106130193D01*
X107018573Y-106107597D01*
X107132173Y-106085000D01*
X107363827Y-106085000D01*
X107477427Y-106107597D01*
X107477427Y-106107597D01*
G37*
G36*
X102397427Y-106107597D02*
G01*
X102511027Y-106130193D01*
X102725045Y-106218842D01*
X102916358Y-106346674D01*
X102917659Y-106347543D01*
X103081457Y-106511341D01*
X103081459Y-106511344D01*
X103210158Y-106703955D01*
X103298807Y-106917973D01*
X103344000Y-107145174D01*
X103344000Y-107376826D01*
X103298807Y-107604027D01*
X103210158Y-107818045D01*
X103082326Y-108009358D01*
X103081457Y-108010659D01*
X102917659Y-108174457D01*
X102917656Y-108174459D01*
X102725045Y-108303158D01*
X102511027Y-108391807D01*
X102397426Y-108414404D01*
X102283827Y-108437000D01*
X102052173Y-108437000D01*
X101938574Y-108414404D01*
X101824973Y-108391807D01*
X101610955Y-108303158D01*
X101418344Y-108174459D01*
X101418341Y-108174457D01*
X101254543Y-108010659D01*
X101253674Y-108009358D01*
X101125842Y-107818045D01*
X101037193Y-107604027D01*
X100992000Y-107376826D01*
X100992000Y-107145174D01*
X101037193Y-106917973D01*
X101125842Y-106703955D01*
X101254541Y-106511344D01*
X101254543Y-106511341D01*
X101418341Y-106347543D01*
X101419642Y-106346674D01*
X101610955Y-106218842D01*
X101824973Y-106130193D01*
X101938573Y-106107597D01*
X102052173Y-106085000D01*
X102283827Y-106085000D01*
X102397427Y-106107597D01*
X102397427Y-106107597D01*
G37*
G36*
X104865947Y-103655338D02*
G01*
X105021858Y-103686350D01*
X105217677Y-103767461D01*
X105217678Y-103767462D01*
X105393913Y-103885218D01*
X105543782Y-104035087D01*
X105543784Y-104035090D01*
X105661539Y-104211323D01*
X105742650Y-104407142D01*
X105784000Y-104615023D01*
X105784000Y-104826977D01*
X105742650Y-105034858D01*
X105661539Y-105230677D01*
X105661538Y-105230678D01*
X105543782Y-105406913D01*
X105393913Y-105556782D01*
X105393910Y-105556784D01*
X105217677Y-105674539D01*
X105021858Y-105755650D01*
X104865947Y-105786662D01*
X104813978Y-105797000D01*
X104602022Y-105797000D01*
X104550053Y-105786663D01*
X104394142Y-105755650D01*
X104198323Y-105674539D01*
X104022090Y-105556784D01*
X104022087Y-105556782D01*
X103872218Y-105406913D01*
X103754462Y-105230678D01*
X103754461Y-105230677D01*
X103673350Y-105034858D01*
X103632000Y-104826977D01*
X103632000Y-104615023D01*
X103673350Y-104407142D01*
X103754461Y-104211323D01*
X103872216Y-104035090D01*
X103872218Y-104035087D01*
X104022087Y-103885218D01*
X104198322Y-103767462D01*
X104198323Y-103767461D01*
X104394142Y-103686350D01*
X104550053Y-103655338D01*
X104602022Y-103645000D01*
X104813978Y-103645000D01*
X104865947Y-103655338D01*
X104865947Y-103655338D01*
G37*
G36*
X107477426Y-101027596D02*
G01*
X107591027Y-101050193D01*
X107805045Y-101138842D01*
X107996358Y-101266674D01*
X107997659Y-101267543D01*
X108161457Y-101431341D01*
X108161459Y-101431344D01*
X108290158Y-101623955D01*
X108378807Y-101837973D01*
X108424000Y-102065174D01*
X108424000Y-102296826D01*
X108378807Y-102524027D01*
X108290158Y-102738045D01*
X108162326Y-102929358D01*
X108161457Y-102930659D01*
X107997659Y-103094457D01*
X107997656Y-103094459D01*
X107805045Y-103223158D01*
X107591027Y-103311807D01*
X107477427Y-103334403D01*
X107363827Y-103357000D01*
X107132173Y-103357000D01*
X107018573Y-103334403D01*
X106904973Y-103311807D01*
X106690955Y-103223158D01*
X106498344Y-103094459D01*
X106498341Y-103094457D01*
X106334543Y-102930659D01*
X106333674Y-102929358D01*
X106205842Y-102738045D01*
X106117193Y-102524027D01*
X106072000Y-102296826D01*
X106072000Y-102065174D01*
X106117193Y-101837973D01*
X106205842Y-101623955D01*
X106334541Y-101431344D01*
X106334543Y-101431341D01*
X106498341Y-101267543D01*
X106499642Y-101266674D01*
X106690955Y-101138842D01*
X106904973Y-101050193D01*
X107018574Y-101027596D01*
X107132173Y-101005000D01*
X107363827Y-101005000D01*
X107477426Y-101027596D01*
X107477426Y-101027596D01*
G37*
G36*
X102397426Y-101027596D02*
G01*
X102511027Y-101050193D01*
X102725045Y-101138842D01*
X102916358Y-101266674D01*
X102917659Y-101267543D01*
X103081457Y-101431341D01*
X103081459Y-101431344D01*
X103210158Y-101623955D01*
X103298807Y-101837973D01*
X103344000Y-102065174D01*
X103344000Y-102296826D01*
X103298807Y-102524027D01*
X103210158Y-102738045D01*
X103082326Y-102929358D01*
X103081457Y-102930659D01*
X102917659Y-103094457D01*
X102917656Y-103094459D01*
X102725045Y-103223158D01*
X102511027Y-103311807D01*
X102397427Y-103334403D01*
X102283827Y-103357000D01*
X102052173Y-103357000D01*
X101938573Y-103334403D01*
X101824973Y-103311807D01*
X101610955Y-103223158D01*
X101418344Y-103094459D01*
X101418341Y-103094457D01*
X101254543Y-102930659D01*
X101253674Y-102929358D01*
X101125842Y-102738045D01*
X101037193Y-102524027D01*
X100992000Y-102296826D01*
X100992000Y-102065174D01*
X101037193Y-101837973D01*
X101125842Y-101623955D01*
X101254541Y-101431344D01*
X101254543Y-101431341D01*
X101418341Y-101267543D01*
X101419642Y-101266674D01*
X101610955Y-101138842D01*
X101824973Y-101050193D01*
X101938574Y-101027596D01*
X102052173Y-101005000D01*
X102283827Y-101005000D01*
X102397426Y-101027596D01*
X102397426Y-101027596D01*
G37*
G36*
X101063721Y-99145174D02*
G01*
X101163995Y-99186709D01*
X101254245Y-99247012D01*
X101330988Y-99323755D01*
X101391291Y-99414005D01*
X101432826Y-99514279D01*
X101454000Y-99620730D01*
X101454000Y-99729270D01*
X101432826Y-99835721D01*
X101391291Y-99935995D01*
X101330988Y-100026245D01*
X101254245Y-100102988D01*
X101163995Y-100163291D01*
X101063721Y-100204826D01*
X100957270Y-100226000D01*
X100848730Y-100226000D01*
X100742279Y-100204826D01*
X100642005Y-100163291D01*
X100551755Y-100102988D01*
X100475012Y-100026245D01*
X100414709Y-99935995D01*
X100373174Y-99835721D01*
X100352000Y-99729270D01*
X100352000Y-99620730D01*
X100373174Y-99514279D01*
X100414709Y-99414005D01*
X100475012Y-99323755D01*
X100551755Y-99247012D01*
X100642005Y-99186709D01*
X100742279Y-99145174D01*
X100848730Y-99124000D01*
X100957270Y-99124000D01*
X101063721Y-99145174D01*
X101063721Y-99145174D01*
G37*
G36*
X109063721Y-99145174D02*
G01*
X109163995Y-99186709D01*
X109254245Y-99247012D01*
X109330988Y-99323755D01*
X109391291Y-99414005D01*
X109432826Y-99514279D01*
X109454000Y-99620730D01*
X109454000Y-99729270D01*
X109432826Y-99835721D01*
X109391291Y-99935995D01*
X109330988Y-100026245D01*
X109254245Y-100102988D01*
X109163995Y-100163291D01*
X109063721Y-100204826D01*
X108957270Y-100226000D01*
X108848730Y-100226000D01*
X108742279Y-100204826D01*
X108642005Y-100163291D01*
X108551755Y-100102988D01*
X108475012Y-100026245D01*
X108414709Y-99935995D01*
X108373174Y-99835721D01*
X108352000Y-99729270D01*
X108352000Y-99620730D01*
X108373174Y-99514279D01*
X108414709Y-99414005D01*
X108475012Y-99323755D01*
X108551755Y-99247012D01*
X108642005Y-99186709D01*
X108742279Y-99145174D01*
X108848730Y-99124000D01*
X108957270Y-99124000D01*
X109063721Y-99145174D01*
X109063721Y-99145174D01*
G37*
G36*
X152521250Y-97107843D02*
G01*
X152606322Y-97124765D01*
X152676735Y-97153931D01*
X152846728Y-97224344D01*
X153063092Y-97368914D01*
X153247086Y-97552908D01*
X153391656Y-97769272D01*
X153491235Y-98009679D01*
X153542000Y-98264891D01*
X153542000Y-98525109D01*
X153491235Y-98780321D01*
X153391656Y-99020728D01*
X153247086Y-99237092D01*
X153063092Y-99421086D01*
X152846728Y-99565656D01*
X152713766Y-99620730D01*
X152606322Y-99665235D01*
X152521250Y-99682157D01*
X152351109Y-99716000D01*
X152090891Y-99716000D01*
X151920750Y-99682157D01*
X151835678Y-99665235D01*
X151728234Y-99620730D01*
X151595272Y-99565656D01*
X151378908Y-99421086D01*
X151194914Y-99237092D01*
X151050344Y-99020728D01*
X150950765Y-98780321D01*
X150900000Y-98525109D01*
X150900000Y-98264891D01*
X150950765Y-98009679D01*
X151050344Y-97769272D01*
X151194914Y-97552908D01*
X151378908Y-97368914D01*
X151595272Y-97224344D01*
X151765265Y-97153931D01*
X151835678Y-97124765D01*
X151920750Y-97107843D01*
X152090891Y-97074000D01*
X152351109Y-97074000D01*
X152521250Y-97107843D01*
X152521250Y-97107843D01*
G37*
G36*
X116821250Y-93707843D02*
G01*
X116906322Y-93724765D01*
X116976735Y-93753931D01*
X117146728Y-93824344D01*
X117363092Y-93968914D01*
X117547086Y-94152908D01*
X117691656Y-94369272D01*
X117791235Y-94609679D01*
X117842000Y-94864891D01*
X117842000Y-95125109D01*
X117791235Y-95380321D01*
X117691656Y-95620728D01*
X117547086Y-95837092D01*
X117363092Y-96021086D01*
X117146728Y-96165656D01*
X116976735Y-96236069D01*
X116906322Y-96265235D01*
X116821250Y-96282157D01*
X116651109Y-96316000D01*
X116390891Y-96316000D01*
X116220750Y-96282157D01*
X116135678Y-96265235D01*
X116065265Y-96236069D01*
X115895272Y-96165656D01*
X115678908Y-96021086D01*
X115494914Y-95837092D01*
X115350344Y-95620728D01*
X115250765Y-95380321D01*
X115200000Y-95125109D01*
X115200000Y-94864891D01*
X115250765Y-94609679D01*
X115350344Y-94369272D01*
X115494914Y-94152908D01*
X115678908Y-93968914D01*
X115895272Y-93824344D01*
X116065265Y-93753931D01*
X116135678Y-93724765D01*
X116220750Y-93707843D01*
X116390891Y-93674000D01*
X116651109Y-93674000D01*
X116821250Y-93707843D01*
X116821250Y-93707843D01*
G37*
G36*
X116721250Y-90207843D02*
G01*
X116806322Y-90224765D01*
X116876735Y-90253931D01*
X117046728Y-90324344D01*
X117263092Y-90468914D01*
X117447086Y-90652908D01*
X117591656Y-90869272D01*
X117662069Y-91039265D01*
X117691235Y-91109678D01*
X117698296Y-91145175D01*
X117742000Y-91364891D01*
X117742000Y-91625109D01*
X117691235Y-91880321D01*
X117591656Y-92120728D01*
X117447086Y-92337092D01*
X117263092Y-92521086D01*
X117046728Y-92665656D01*
X116876735Y-92736069D01*
X116806322Y-92765235D01*
X116721250Y-92782157D01*
X116551109Y-92816000D01*
X116290891Y-92816000D01*
X116120750Y-92782157D01*
X116035678Y-92765235D01*
X115965265Y-92736069D01*
X115795272Y-92665656D01*
X115578908Y-92521086D01*
X115394914Y-92337092D01*
X115250344Y-92120728D01*
X115150765Y-91880321D01*
X115100000Y-91625109D01*
X115100000Y-91364891D01*
X115143704Y-91145175D01*
X115150765Y-91109678D01*
X115179931Y-91039265D01*
X115250344Y-90869272D01*
X115394914Y-90652908D01*
X115578908Y-90468914D01*
X115795272Y-90324344D01*
X115965265Y-90253931D01*
X116035678Y-90224765D01*
X116120750Y-90207843D01*
X116290891Y-90174000D01*
X116551109Y-90174000D01*
X116721250Y-90207843D01*
X116721250Y-90207843D01*
G37*
G36*
X101063721Y-91145174D02*
G01*
X101163995Y-91186709D01*
X101254245Y-91247012D01*
X101330988Y-91323755D01*
X101391291Y-91414005D01*
X101432826Y-91514279D01*
X101454000Y-91620730D01*
X101454000Y-91729270D01*
X101432826Y-91835721D01*
X101391291Y-91935995D01*
X101330988Y-92026245D01*
X101254245Y-92102988D01*
X101163995Y-92163291D01*
X101063721Y-92204826D01*
X100957270Y-92226000D01*
X100848730Y-92226000D01*
X100742279Y-92204826D01*
X100642005Y-92163291D01*
X100551755Y-92102988D01*
X100475012Y-92026245D01*
X100414709Y-91935995D01*
X100373174Y-91835721D01*
X100352000Y-91729270D01*
X100352000Y-91620730D01*
X100373174Y-91514279D01*
X100414709Y-91414005D01*
X100475012Y-91323755D01*
X100551755Y-91247012D01*
X100642005Y-91186709D01*
X100742279Y-91145174D01*
X100848730Y-91124000D01*
X100957270Y-91124000D01*
X101063721Y-91145174D01*
X101063721Y-91145174D01*
G37*
G36*
X109063721Y-91145174D02*
G01*
X109163995Y-91186709D01*
X109254245Y-91247012D01*
X109330988Y-91323755D01*
X109391291Y-91414005D01*
X109432826Y-91514279D01*
X109454000Y-91620730D01*
X109454000Y-91729270D01*
X109432826Y-91835721D01*
X109391291Y-91935995D01*
X109330988Y-92026245D01*
X109254245Y-92102988D01*
X109163995Y-92163291D01*
X109063721Y-92204826D01*
X108957270Y-92226000D01*
X108848730Y-92226000D01*
X108742279Y-92204826D01*
X108642005Y-92163291D01*
X108551755Y-92102988D01*
X108475012Y-92026245D01*
X108414709Y-91935995D01*
X108373174Y-91835721D01*
X108352000Y-91729270D01*
X108352000Y-91620730D01*
X108373174Y-91514279D01*
X108414709Y-91414005D01*
X108475012Y-91323755D01*
X108551755Y-91247012D01*
X108642005Y-91186709D01*
X108742279Y-91145174D01*
X108848730Y-91124000D01*
X108957270Y-91124000D01*
X109063721Y-91145174D01*
X109063721Y-91145174D01*
G37*
G36*
X152521250Y-87107843D02*
G01*
X152606322Y-87124765D01*
X152676735Y-87153931D01*
X152846728Y-87224344D01*
X153063092Y-87368914D01*
X153247086Y-87552908D01*
X153391656Y-87769272D01*
X153491235Y-88009679D01*
X153542000Y-88264891D01*
X153542000Y-88525109D01*
X153491235Y-88780321D01*
X153391656Y-89020728D01*
X153247086Y-89237092D01*
X153063092Y-89421086D01*
X152846728Y-89565656D01*
X152676735Y-89636069D01*
X152606322Y-89665235D01*
X152521250Y-89682157D01*
X152351109Y-89716000D01*
X152090891Y-89716000D01*
X151920750Y-89682157D01*
X151835678Y-89665235D01*
X151765265Y-89636069D01*
X151595272Y-89565656D01*
X151378908Y-89421086D01*
X151194914Y-89237092D01*
X151050344Y-89020728D01*
X150950765Y-88780321D01*
X150900000Y-88525109D01*
X150900000Y-88264891D01*
X150950765Y-88009679D01*
X151050344Y-87769272D01*
X151194914Y-87552908D01*
X151378908Y-87368914D01*
X151595272Y-87224344D01*
X151765265Y-87153931D01*
X151835678Y-87124765D01*
X151920750Y-87107843D01*
X152090891Y-87074000D01*
X152351109Y-87074000D01*
X152521250Y-87107843D01*
X152521250Y-87107843D01*
G37*
G36*
X161511331Y-72427211D02*
G01*
X161839092Y-72562974D01*
X162134073Y-72760074D01*
X162384926Y-73010927D01*
X162582026Y-73305908D01*
X162717789Y-73633669D01*
X162787000Y-73981616D01*
X162787000Y-74336384D01*
X162717789Y-74684331D01*
X162582026Y-75012092D01*
X162384926Y-75307073D01*
X162134073Y-75557926D01*
X161839092Y-75755026D01*
X161511331Y-75890789D01*
X161163384Y-75960000D01*
X160808616Y-75960000D01*
X160460669Y-75890789D01*
X160132908Y-75755026D01*
X159837927Y-75557926D01*
X159587074Y-75307073D01*
X159389974Y-75012092D01*
X159254211Y-74684331D01*
X159185000Y-74336384D01*
X159185000Y-73981616D01*
X159254211Y-73633669D01*
X159389974Y-73305908D01*
X159587074Y-73010927D01*
X159837927Y-72760074D01*
X160132908Y-72562974D01*
X160460669Y-72427211D01*
X160808616Y-72358000D01*
X161163384Y-72358000D01*
X161511331Y-72427211D01*
X161511331Y-72427211D01*
G37*
G36*
X190423426Y-72697596D02*
G01*
X190537027Y-72720193D01*
X190751045Y-72808842D01*
X190942358Y-72936674D01*
X190943659Y-72937543D01*
X191107457Y-73101341D01*
X191107459Y-73101344D01*
X191236158Y-73293955D01*
X191324807Y-73507973D01*
X191370000Y-73735174D01*
X191370000Y-73966826D01*
X191324807Y-74194027D01*
X191236158Y-74408045D01*
X191108326Y-74599358D01*
X191107457Y-74600659D01*
X190943659Y-74764457D01*
X190943656Y-74764459D01*
X190751045Y-74893158D01*
X190537027Y-74981807D01*
X190423426Y-75004404D01*
X190309827Y-75027000D01*
X190078173Y-75027000D01*
X189964574Y-75004404D01*
X189850973Y-74981807D01*
X189636955Y-74893158D01*
X189444344Y-74764459D01*
X189444341Y-74764457D01*
X189280543Y-74600659D01*
X189279674Y-74599358D01*
X189151842Y-74408045D01*
X189063193Y-74194027D01*
X189018000Y-73966826D01*
X189018000Y-73735174D01*
X189063193Y-73507973D01*
X189151842Y-73293955D01*
X189280541Y-73101344D01*
X189280543Y-73101341D01*
X189444341Y-72937543D01*
X189445642Y-72936674D01*
X189636955Y-72808842D01*
X189850973Y-72720193D01*
X189964574Y-72697596D01*
X190078173Y-72675000D01*
X190309827Y-72675000D01*
X190423426Y-72697596D01*
X190423426Y-72697596D01*
G37*
G36*
X195503426Y-72697596D02*
G01*
X195617027Y-72720193D01*
X195831045Y-72808842D01*
X196022358Y-72936674D01*
X196023659Y-72937543D01*
X196187457Y-73101341D01*
X196187459Y-73101344D01*
X196316158Y-73293955D01*
X196404807Y-73507973D01*
X196450000Y-73735174D01*
X196450000Y-73966826D01*
X196404807Y-74194027D01*
X196316158Y-74408045D01*
X196188326Y-74599358D01*
X196187457Y-74600659D01*
X196023659Y-74764457D01*
X196023656Y-74764459D01*
X195831045Y-74893158D01*
X195617027Y-74981807D01*
X195503426Y-75004404D01*
X195389827Y-75027000D01*
X195158173Y-75027000D01*
X195044574Y-75004404D01*
X194930973Y-74981807D01*
X194716955Y-74893158D01*
X194524344Y-74764459D01*
X194524341Y-74764457D01*
X194360543Y-74600659D01*
X194359674Y-74599358D01*
X194231842Y-74408045D01*
X194143193Y-74194027D01*
X194098000Y-73966826D01*
X194098000Y-73735174D01*
X194143193Y-73507973D01*
X194231842Y-73293955D01*
X194360541Y-73101344D01*
X194360543Y-73101341D01*
X194524341Y-72937543D01*
X194525642Y-72936674D01*
X194716955Y-72808842D01*
X194930973Y-72720193D01*
X195044574Y-72697596D01*
X195158173Y-72675000D01*
X195389827Y-72675000D01*
X195503426Y-72697596D01*
X195503426Y-72697596D01*
G37*
G36*
X107672589Y-71036876D02*
G01*
X107771893Y-71056629D01*
X107912206Y-71114748D01*
X108038484Y-71199125D01*
X108145875Y-71306516D01*
X108230252Y-71432794D01*
X108288371Y-71573107D01*
X108318000Y-71722063D01*
X108318000Y-71873937D01*
X108288371Y-72022893D01*
X108230252Y-72163206D01*
X108145875Y-72289484D01*
X108038484Y-72396875D01*
X107912206Y-72481252D01*
X107771893Y-72539371D01*
X107672589Y-72559124D01*
X107622938Y-72569000D01*
X107471062Y-72569000D01*
X107421411Y-72559124D01*
X107322107Y-72539371D01*
X107181794Y-72481252D01*
X107055516Y-72396875D01*
X106948125Y-72289484D01*
X106863748Y-72163206D01*
X106805629Y-72022893D01*
X106776000Y-71873937D01*
X106776000Y-71722063D01*
X106805629Y-71573107D01*
X106863748Y-71432794D01*
X106948125Y-71306516D01*
X107055516Y-71199125D01*
X107181794Y-71114748D01*
X107322107Y-71056629D01*
X107421411Y-71036876D01*
X107471062Y-71027000D01*
X107622938Y-71027000D01*
X107672589Y-71036876D01*
X107672589Y-71036876D01*
G37*
G36*
X192891947Y-70245338D02*
G01*
X193047858Y-70276350D01*
X193243677Y-70357461D01*
X193243678Y-70357462D01*
X193419913Y-70475218D01*
X193569782Y-70625087D01*
X193569784Y-70625090D01*
X193687539Y-70801323D01*
X193768650Y-70997142D01*
X193810000Y-71205023D01*
X193810000Y-71416977D01*
X193768650Y-71624858D01*
X193687539Y-71820677D01*
X193687538Y-71820678D01*
X193569782Y-71996913D01*
X193419913Y-72146782D01*
X193419910Y-72146784D01*
X193243677Y-72264539D01*
X193047858Y-72345650D01*
X192891947Y-72376662D01*
X192839978Y-72387000D01*
X192628022Y-72387000D01*
X192576053Y-72376662D01*
X192420142Y-72345650D01*
X192224323Y-72264539D01*
X192048090Y-72146784D01*
X192048087Y-72146782D01*
X191898218Y-71996913D01*
X191780462Y-71820678D01*
X191780461Y-71820677D01*
X191699350Y-71624858D01*
X191658000Y-71416977D01*
X191658000Y-71205023D01*
X191699350Y-70997142D01*
X191780461Y-70801323D01*
X191898216Y-70625090D01*
X191898218Y-70625087D01*
X192048087Y-70475218D01*
X192224322Y-70357462D01*
X192224323Y-70357461D01*
X192420142Y-70276350D01*
X192576053Y-70245338D01*
X192628022Y-70235000D01*
X192839978Y-70235000D01*
X192891947Y-70245338D01*
X192891947Y-70245338D01*
G37*
G36*
X105132589Y-68496876D02*
G01*
X105231893Y-68516629D01*
X105372206Y-68574748D01*
X105498484Y-68659125D01*
X105605875Y-68766516D01*
X105690252Y-68892794D01*
X105748371Y-69033107D01*
X105778000Y-69182063D01*
X105778000Y-69333937D01*
X105748371Y-69482893D01*
X105690252Y-69623206D01*
X105605875Y-69749484D01*
X105498484Y-69856875D01*
X105372206Y-69941252D01*
X105231893Y-69999371D01*
X105132589Y-70019124D01*
X105082938Y-70029000D01*
X104931062Y-70029000D01*
X104881411Y-70019124D01*
X104782107Y-69999371D01*
X104641794Y-69941252D01*
X104515516Y-69856875D01*
X104408125Y-69749484D01*
X104323748Y-69623206D01*
X104265629Y-69482893D01*
X104236000Y-69333937D01*
X104236000Y-69182063D01*
X104265629Y-69033107D01*
X104323748Y-68892794D01*
X104408125Y-68766516D01*
X104515516Y-68659125D01*
X104641794Y-68574748D01*
X104782107Y-68516629D01*
X104881411Y-68496876D01*
X104931062Y-68487000D01*
X105082938Y-68487000D01*
X105132589Y-68496876D01*
X105132589Y-68496876D01*
G37*
G36*
X110212589Y-68496876D02*
G01*
X110311893Y-68516629D01*
X110452206Y-68574748D01*
X110578484Y-68659125D01*
X110685875Y-68766516D01*
X110770252Y-68892794D01*
X110828371Y-69033107D01*
X110858000Y-69182063D01*
X110858000Y-69333937D01*
X110828371Y-69482893D01*
X110770252Y-69623206D01*
X110685875Y-69749484D01*
X110578484Y-69856875D01*
X110452206Y-69941252D01*
X110311893Y-69999371D01*
X110212589Y-70019124D01*
X110162938Y-70029000D01*
X110011062Y-70029000D01*
X109961411Y-70019124D01*
X109862107Y-69999371D01*
X109721794Y-69941252D01*
X109595516Y-69856875D01*
X109488125Y-69749484D01*
X109403748Y-69623206D01*
X109345629Y-69482893D01*
X109316000Y-69333937D01*
X109316000Y-69182063D01*
X109345629Y-69033107D01*
X109403748Y-68892794D01*
X109488125Y-68766516D01*
X109595516Y-68659125D01*
X109721794Y-68574748D01*
X109862107Y-68516629D01*
X109961411Y-68496876D01*
X110011062Y-68487000D01*
X110162938Y-68487000D01*
X110212589Y-68496876D01*
X110212589Y-68496876D01*
G37*
G36*
X190423427Y-67617597D02*
G01*
X190537027Y-67640193D01*
X190751045Y-67728842D01*
X190942358Y-67856674D01*
X190943659Y-67857543D01*
X191107457Y-68021341D01*
X191107459Y-68021344D01*
X191236158Y-68213955D01*
X191324807Y-68427973D01*
X191370000Y-68655174D01*
X191370000Y-68886826D01*
X191324807Y-69114027D01*
X191236158Y-69328045D01*
X191108326Y-69519358D01*
X191107457Y-69520659D01*
X190943659Y-69684457D01*
X190943656Y-69684459D01*
X190751045Y-69813158D01*
X190537027Y-69901807D01*
X190423426Y-69924404D01*
X190309827Y-69947000D01*
X190078173Y-69947000D01*
X189964573Y-69924403D01*
X189850973Y-69901807D01*
X189636955Y-69813158D01*
X189444344Y-69684459D01*
X189444341Y-69684457D01*
X189280543Y-69520659D01*
X189279674Y-69519358D01*
X189151842Y-69328045D01*
X189063193Y-69114027D01*
X189018000Y-68886826D01*
X189018000Y-68655174D01*
X189063193Y-68427973D01*
X189151842Y-68213955D01*
X189280541Y-68021344D01*
X189280543Y-68021341D01*
X189444341Y-67857543D01*
X189445642Y-67856674D01*
X189636955Y-67728842D01*
X189850973Y-67640193D01*
X189964573Y-67617597D01*
X190078173Y-67595000D01*
X190309827Y-67595000D01*
X190423427Y-67617597D01*
X190423427Y-67617597D01*
G37*
G36*
X195503427Y-67617597D02*
G01*
X195617027Y-67640193D01*
X195831045Y-67728842D01*
X196022358Y-67856674D01*
X196023659Y-67857543D01*
X196187457Y-68021341D01*
X196187459Y-68021344D01*
X196316158Y-68213955D01*
X196404807Y-68427973D01*
X196450000Y-68655174D01*
X196450000Y-68886826D01*
X196404807Y-69114027D01*
X196316158Y-69328045D01*
X196188326Y-69519358D01*
X196187457Y-69520659D01*
X196023659Y-69684457D01*
X196023656Y-69684459D01*
X195831045Y-69813158D01*
X195617027Y-69901807D01*
X195503426Y-69924404D01*
X195389827Y-69947000D01*
X195158173Y-69947000D01*
X195044573Y-69924403D01*
X194930973Y-69901807D01*
X194716955Y-69813158D01*
X194524344Y-69684459D01*
X194524341Y-69684457D01*
X194360543Y-69520659D01*
X194359674Y-69519358D01*
X194231842Y-69328045D01*
X194143193Y-69114027D01*
X194098000Y-68886826D01*
X194098000Y-68655174D01*
X194143193Y-68427973D01*
X194231842Y-68213955D01*
X194360541Y-68021344D01*
X194360543Y-68021341D01*
X194524341Y-67857543D01*
X194525642Y-67856674D01*
X194716955Y-67728842D01*
X194930973Y-67640193D01*
X195044573Y-67617597D01*
X195158173Y-67595000D01*
X195389827Y-67595000D01*
X195503427Y-67617597D01*
X195503427Y-67617597D01*
G37*
G36*
X184403158Y-51662722D02*
G01*
X184911991Y-51817075D01*
X185380927Y-52067727D01*
X185791953Y-52405047D01*
X186129273Y-52816073D01*
X186379925Y-53285009D01*
X186534278Y-53793842D01*
X186587000Y-54329140D01*
X186587000Y-59992860D01*
X186534278Y-60528158D01*
X186379925Y-61036991D01*
X186129273Y-61505927D01*
X185791953Y-61916953D01*
X185380927Y-62254273D01*
X184911991Y-62504925D01*
X184403158Y-62659278D01*
X183867860Y-62712000D01*
X178204140Y-62712000D01*
X177668842Y-62659278D01*
X177160009Y-62504925D01*
X176691073Y-62254273D01*
X176280047Y-61916953D01*
X175942727Y-61505927D01*
X175692075Y-61036991D01*
X175537722Y-60528158D01*
X175485000Y-59992860D01*
X175485000Y-54329140D01*
X175537722Y-53793842D01*
X175692075Y-53285009D01*
X175942727Y-52816073D01*
X176280047Y-52405047D01*
X176691073Y-52067727D01*
X177160009Y-51817075D01*
X177668842Y-51662722D01*
X178204140Y-51610000D01*
X183867860Y-51610000D01*
X184403158Y-51662722D01*
X184403158Y-51662722D01*
G37*
G36*
X195598252Y-53027818D02*
G01*
X195598254Y-53027819D01*
X195598255Y-53027819D01*
X195971513Y-53182427D01*
X196157547Y-53306731D01*
X196307439Y-53406886D01*
X196593114Y-53692561D01*
X196593116Y-53692564D01*
X196817573Y-54028487D01*
X196972181Y-54401745D01*
X197051000Y-54797994D01*
X197051000Y-55202006D01*
X196972181Y-55598255D01*
X196817573Y-55971513D01*
X196817572Y-55971514D01*
X196593114Y-56307439D01*
X196307439Y-56593114D01*
X196307436Y-56593116D01*
X195971513Y-56817573D01*
X195598255Y-56972181D01*
X195598254Y-56972181D01*
X195598252Y-56972182D01*
X195202007Y-57051000D01*
X194797993Y-57051000D01*
X194401748Y-56972182D01*
X194401746Y-56972181D01*
X194401745Y-56972181D01*
X194028487Y-56817573D01*
X193692564Y-56593116D01*
X193692561Y-56593114D01*
X193406886Y-56307439D01*
X193182428Y-55971514D01*
X193182427Y-55971513D01*
X193027819Y-55598255D01*
X192949000Y-55202006D01*
X192949000Y-54797994D01*
X193027819Y-54401745D01*
X193182427Y-54028487D01*
X193406884Y-53692564D01*
X193406886Y-53692561D01*
X193692561Y-53406886D01*
X193842453Y-53306731D01*
X194028487Y-53182427D01*
X194401745Y-53027819D01*
X194401746Y-53027819D01*
X194401748Y-53027818D01*
X194797993Y-52949000D01*
X195202007Y-52949000D01*
X195598252Y-53027818D01*
X195598252Y-53027818D01*
G37*
G36*
X105598252Y-53027818D02*
G01*
X105598254Y-53027819D01*
X105598255Y-53027819D01*
X105971513Y-53182427D01*
X106157547Y-53306731D01*
X106307439Y-53406886D01*
X106593114Y-53692561D01*
X106593116Y-53692564D01*
X106817573Y-54028487D01*
X106972181Y-54401745D01*
X107051000Y-54797994D01*
X107051000Y-55202006D01*
X106972181Y-55598255D01*
X106817573Y-55971513D01*
X106817572Y-55971514D01*
X106593114Y-56307439D01*
X106307439Y-56593114D01*
X106307436Y-56593116D01*
X105971513Y-56817573D01*
X105598255Y-56972181D01*
X105598254Y-56972181D01*
X105598252Y-56972182D01*
X105202007Y-57051000D01*
X104797993Y-57051000D01*
X104401748Y-56972182D01*
X104401746Y-56972181D01*
X104401745Y-56972181D01*
X104028487Y-56817573D01*
X103692564Y-56593116D01*
X103692561Y-56593114D01*
X103406886Y-56307439D01*
X103182428Y-55971514D01*
X103182427Y-55971513D01*
X103027819Y-55598255D01*
X102949000Y-55202006D01*
X102949000Y-54797994D01*
X103027819Y-54401745D01*
X103182427Y-54028487D01*
X103406884Y-53692564D01*
X103406886Y-53692561D01*
X103692561Y-53406886D01*
X103842453Y-53306731D01*
X104028487Y-53182427D01*
X104401745Y-53027819D01*
X104401746Y-53027819D01*
X104401748Y-53027818D01*
X104797993Y-52949000D01*
X105202007Y-52949000D01*
X105598252Y-53027818D01*
X105598252Y-53027818D01*
G37*
M02*
