G04 #@! TF.GenerationSoftware,KiCad,Pcbnew,6.0.0-rc1-unknown-e7fa02a~66~ubuntu18.04.1*
G04 #@! TF.CreationDate,2021-12-05T09:57:31-08:00
G04 #@! TF.ProjectId,munin3,6d756e69-6e33-42e6-9b69-6361645f7063,rev?*
G04 #@! TF.SameCoordinates,Original*
G04 #@! TF.FileFunction,Legend,Top*
G04 #@! TF.FilePolarity,Positive*
%FSLAX46Y46*%
G04 Gerber Fmt 4.6, Leading zero omitted, Abs format (unit mm)*
G04 Created by KiCad (PCBNEW 6.0.0-rc1-unknown-e7fa02a~66~ubuntu18.04.1) date Sun 05 Dec 2021 09:57:31 AM PST*
%MOMM*%
%LPD*%
G04 APERTURE LIST*
%ADD10C,0.150000*%
%ADD11C,0.120000*%
G04 APERTURE END LIST*
D10*
X127414285Y-133352380D02*
X127985714Y-133352380D01*
X127700000Y-134352380D02*
X127700000Y-133352380D01*
X128319047Y-134352380D02*
X128319047Y-133352380D01*
X128700000Y-133352380D01*
X128795238Y-133400000D01*
X128842857Y-133447619D01*
X128890476Y-133542857D01*
X128890476Y-133685714D01*
X128842857Y-133780952D01*
X128795238Y-133828571D01*
X128700000Y-133876190D01*
X128319047Y-133876190D01*
X120776190Y-149052380D02*
X120776190Y-148052380D01*
X121157142Y-148052380D01*
X121252380Y-148100000D01*
X121300000Y-148147619D01*
X121347619Y-148242857D01*
X121347619Y-148385714D01*
X121300000Y-148480952D01*
X121252380Y-148528571D01*
X121157142Y-148576190D01*
X120776190Y-148576190D01*
X121633333Y-148052380D02*
X122204761Y-148052380D01*
X121919047Y-149052380D02*
X121919047Y-148052380D01*
X122395238Y-148052380D02*
X122966666Y-148052380D01*
X122680952Y-149052380D02*
X122680952Y-148052380D01*
X196102380Y-136995238D02*
X195102380Y-136995238D01*
X195816666Y-136661904D01*
X195102380Y-136328571D01*
X196102380Y-136328571D01*
X195102380Y-135852380D02*
X195911904Y-135852380D01*
X196007142Y-135804761D01*
X196054761Y-135757142D01*
X196102380Y-135661904D01*
X196102380Y-135471428D01*
X196054761Y-135376190D01*
X196007142Y-135328571D01*
X195911904Y-135280952D01*
X195102380Y-135280952D01*
X196102380Y-134804761D02*
X195102380Y-134804761D01*
X196102380Y-134233333D01*
X195102380Y-134233333D01*
X196102380Y-133757142D02*
X195102380Y-133757142D01*
X196102380Y-133280952D02*
X195102380Y-133280952D01*
X196102380Y-132709523D01*
X195102380Y-132709523D01*
X196102380Y-131471428D02*
X195102380Y-131471428D01*
X196102380Y-130995238D02*
X195102380Y-130995238D01*
X196102380Y-130519047D02*
X195102380Y-130519047D01*
X195721428Y-129280952D02*
X195721428Y-128519047D01*
X196483333Y-126995238D02*
X196435714Y-127042857D01*
X196292857Y-127138095D01*
X196197619Y-127185714D01*
X196054761Y-127233333D01*
X195816666Y-127280952D01*
X195626190Y-127280952D01*
X195388095Y-127233333D01*
X195245238Y-127185714D01*
X195150000Y-127138095D01*
X195007142Y-127042857D01*
X194959523Y-126995238D01*
X196054761Y-126185714D02*
X196102380Y-126280952D01*
X196102380Y-126471428D01*
X196054761Y-126566666D01*
X196007142Y-126614285D01*
X195911904Y-126661904D01*
X195626190Y-126661904D01*
X195530952Y-126614285D01*
X195483333Y-126566666D01*
X195435714Y-126471428D01*
X195435714Y-126280952D01*
X195483333Y-126185714D01*
X196483333Y-125852380D02*
X196435714Y-125804761D01*
X196292857Y-125709523D01*
X196197619Y-125661904D01*
X196054761Y-125614285D01*
X195816666Y-125566666D01*
X195626190Y-125566666D01*
X195388095Y-125614285D01*
X195245238Y-125661904D01*
X195150000Y-125709523D01*
X195007142Y-125804761D01*
X194959523Y-125852380D01*
X195197619Y-124376190D02*
X195150000Y-124328571D01*
X195102380Y-124233333D01*
X195102380Y-123995238D01*
X195150000Y-123900000D01*
X195197619Y-123852380D01*
X195292857Y-123804761D01*
X195388095Y-123804761D01*
X195530952Y-123852380D01*
X196102380Y-124423809D01*
X196102380Y-123804761D01*
X195102380Y-123185714D02*
X195102380Y-123090476D01*
X195150000Y-122995238D01*
X195197619Y-122947619D01*
X195292857Y-122900000D01*
X195483333Y-122852380D01*
X195721428Y-122852380D01*
X195911904Y-122900000D01*
X196007142Y-122947619D01*
X196054761Y-122995238D01*
X196102380Y-123090476D01*
X196102380Y-123185714D01*
X196054761Y-123280952D01*
X196007142Y-123328571D01*
X195911904Y-123376190D01*
X195721428Y-123423809D01*
X195483333Y-123423809D01*
X195292857Y-123376190D01*
X195197619Y-123328571D01*
X195150000Y-123280952D01*
X195102380Y-123185714D01*
X195197619Y-122471428D02*
X195150000Y-122423809D01*
X195102380Y-122328571D01*
X195102380Y-122090476D01*
X195150000Y-121995238D01*
X195197619Y-121947619D01*
X195292857Y-121900000D01*
X195388095Y-121900000D01*
X195530952Y-121947619D01*
X196102380Y-122519047D01*
X196102380Y-121900000D01*
X196102380Y-120947619D02*
X196102380Y-121519047D01*
X196102380Y-121233333D02*
X195102380Y-121233333D01*
X195245238Y-121328571D01*
X195340476Y-121423809D01*
X195388095Y-121519047D01*
X196054761Y-119804761D02*
X196102380Y-119661904D01*
X196102380Y-119423809D01*
X196054761Y-119328571D01*
X196007142Y-119280952D01*
X195911904Y-119233333D01*
X195816666Y-119233333D01*
X195721428Y-119280952D01*
X195673809Y-119328571D01*
X195626190Y-119423809D01*
X195578571Y-119614285D01*
X195530952Y-119709523D01*
X195483333Y-119757142D01*
X195388095Y-119804761D01*
X195292857Y-119804761D01*
X195197619Y-119757142D01*
X195150000Y-119709523D01*
X195102380Y-119614285D01*
X195102380Y-119376190D01*
X195150000Y-119233333D01*
X195435714Y-118947619D02*
X195435714Y-118566666D01*
X195102380Y-118804761D02*
X195959523Y-118804761D01*
X196054761Y-118757142D01*
X196102380Y-118661904D01*
X196102380Y-118566666D01*
X196054761Y-117852380D02*
X196102380Y-117947619D01*
X196102380Y-118138095D01*
X196054761Y-118233333D01*
X195959523Y-118280952D01*
X195578571Y-118280952D01*
X195483333Y-118233333D01*
X195435714Y-118138095D01*
X195435714Y-117947619D01*
X195483333Y-117852380D01*
X195578571Y-117804761D01*
X195673809Y-117804761D01*
X195769047Y-118280952D01*
X195435714Y-117471428D02*
X196102380Y-117233333D01*
X195435714Y-116995238D01*
X196054761Y-116233333D02*
X196102380Y-116328571D01*
X196102380Y-116519047D01*
X196054761Y-116614285D01*
X195959523Y-116661904D01*
X195578571Y-116661904D01*
X195483333Y-116614285D01*
X195435714Y-116519047D01*
X195435714Y-116328571D01*
X195483333Y-116233333D01*
X195578571Y-116185714D01*
X195673809Y-116185714D01*
X195769047Y-116661904D01*
X195102380Y-115090476D02*
X196102380Y-114852380D01*
X195388095Y-114661904D01*
X196102380Y-114471428D01*
X195102380Y-114233333D01*
X196102380Y-113852380D02*
X195435714Y-113852380D01*
X195102380Y-113852380D02*
X195150000Y-113900000D01*
X195197619Y-113852380D01*
X195150000Y-113804761D01*
X195102380Y-113852380D01*
X195197619Y-113852380D01*
X196102380Y-113233333D02*
X196054761Y-113328571D01*
X195959523Y-113376190D01*
X195102380Y-113376190D01*
X196054761Y-112900000D02*
X196102380Y-112804761D01*
X196102380Y-112614285D01*
X196054761Y-112519047D01*
X195959523Y-112471428D01*
X195911904Y-112471428D01*
X195816666Y-112519047D01*
X195769047Y-112614285D01*
X195769047Y-112757142D01*
X195721428Y-112852380D01*
X195626190Y-112900000D01*
X195578571Y-112900000D01*
X195483333Y-112852380D01*
X195435714Y-112757142D01*
X195435714Y-112614285D01*
X195483333Y-112519047D01*
X196102380Y-111900000D02*
X196054761Y-111995238D01*
X196007142Y-112042857D01*
X195911904Y-112090476D01*
X195626190Y-112090476D01*
X195530952Y-112042857D01*
X195483333Y-111995238D01*
X195435714Y-111900000D01*
X195435714Y-111757142D01*
X195483333Y-111661904D01*
X195530952Y-111614285D01*
X195626190Y-111566666D01*
X195911904Y-111566666D01*
X196007142Y-111614285D01*
X196054761Y-111661904D01*
X196102380Y-111757142D01*
X196102380Y-111900000D01*
X195435714Y-111138095D02*
X196102380Y-111138095D01*
X195530952Y-111138095D02*
X195483333Y-111090476D01*
X195435714Y-110995238D01*
X195435714Y-110852380D01*
X195483333Y-110757142D01*
X195578571Y-110709523D01*
X196102380Y-110709523D01*
X196054761Y-110185714D02*
X196102380Y-110185714D01*
X196197619Y-110233333D01*
X196245238Y-110280952D01*
X196102380Y-108995238D02*
X195102380Y-108995238D01*
X196102380Y-108423809D02*
X195530952Y-108852380D01*
X195102380Y-108423809D02*
X195673809Y-108995238D01*
X195816666Y-108042857D02*
X195816666Y-107566666D01*
X196102380Y-108138095D02*
X195102380Y-107804761D01*
X196102380Y-107471428D01*
X195102380Y-106709523D02*
X195102380Y-106900000D01*
X195150000Y-106995238D01*
X195197619Y-107042857D01*
X195340476Y-107138095D01*
X195530952Y-107185714D01*
X195911904Y-107185714D01*
X196007142Y-107138095D01*
X196054761Y-107090476D01*
X196102380Y-106995238D01*
X196102380Y-106804761D01*
X196054761Y-106709523D01*
X196007142Y-106661904D01*
X195911904Y-106614285D01*
X195673809Y-106614285D01*
X195578571Y-106661904D01*
X195530952Y-106709523D01*
X195483333Y-106804761D01*
X195483333Y-106995238D01*
X195530952Y-107090476D01*
X195578571Y-107138095D01*
X195673809Y-107185714D01*
X196054761Y-106233333D02*
X196102380Y-106090476D01*
X196102380Y-105852380D01*
X196054761Y-105757142D01*
X196007142Y-105709523D01*
X195911904Y-105661904D01*
X195816666Y-105661904D01*
X195721428Y-105709523D01*
X195673809Y-105757142D01*
X195626190Y-105852380D01*
X195578571Y-106042857D01*
X195530952Y-106138095D01*
X195483333Y-106185714D01*
X195388095Y-106233333D01*
X195292857Y-106233333D01*
X195197619Y-106185714D01*
X195150000Y-106138095D01*
X195102380Y-106042857D01*
X195102380Y-105804761D01*
X195150000Y-105661904D01*
X195435714Y-104566666D02*
X196102380Y-104328571D01*
X195435714Y-104090476D01*
X196102380Y-103185714D02*
X196102380Y-103757142D01*
X196102380Y-103471428D02*
X195102380Y-103471428D01*
X195245238Y-103566666D01*
X195340476Y-103661904D01*
X195388095Y-103757142D01*
X196054761Y-102709523D02*
X196102380Y-102709523D01*
X196197619Y-102757142D01*
X196245238Y-102804761D01*
X196102380Y-101757142D02*
X196102380Y-102328571D01*
X196102380Y-102042857D02*
X195102380Y-102042857D01*
X195245238Y-102138095D01*
X195340476Y-102233333D01*
X195388095Y-102328571D01*
X197657142Y-133828571D02*
X197704761Y-133876190D01*
X197752380Y-134019047D01*
X197752380Y-134114285D01*
X197704761Y-134257142D01*
X197609523Y-134352380D01*
X197514285Y-134400000D01*
X197323809Y-134447619D01*
X197180952Y-134447619D01*
X196990476Y-134400000D01*
X196895238Y-134352380D01*
X196800000Y-134257142D01*
X196752380Y-134114285D01*
X196752380Y-134019047D01*
X196800000Y-133876190D01*
X196847619Y-133828571D01*
X197752380Y-133257142D02*
X197704761Y-133352380D01*
X197657142Y-133400000D01*
X197561904Y-133447619D01*
X197276190Y-133447619D01*
X197180952Y-133400000D01*
X197133333Y-133352380D01*
X197085714Y-133257142D01*
X197085714Y-133114285D01*
X197133333Y-133019047D01*
X197180952Y-132971428D01*
X197276190Y-132923809D01*
X197561904Y-132923809D01*
X197657142Y-132971428D01*
X197704761Y-133019047D01*
X197752380Y-133114285D01*
X197752380Y-133257142D01*
X197085714Y-132495238D02*
X198085714Y-132495238D01*
X197133333Y-132495238D02*
X197085714Y-132400000D01*
X197085714Y-132209523D01*
X197133333Y-132114285D01*
X197180952Y-132066666D01*
X197276190Y-132019047D01*
X197561904Y-132019047D01*
X197657142Y-132066666D01*
X197704761Y-132114285D01*
X197752380Y-132209523D01*
X197752380Y-132400000D01*
X197704761Y-132495238D01*
X197085714Y-131685714D02*
X197752380Y-131447619D01*
X197085714Y-131209523D02*
X197752380Y-131447619D01*
X197990476Y-131542857D01*
X198038095Y-131590476D01*
X198085714Y-131685714D01*
X197752380Y-130828571D02*
X197085714Y-130828571D01*
X197276190Y-130828571D02*
X197180952Y-130780952D01*
X197133333Y-130733333D01*
X197085714Y-130638095D01*
X197085714Y-130542857D01*
X197752380Y-130209523D02*
X197085714Y-130209523D01*
X196752380Y-130209523D02*
X196800000Y-130257142D01*
X196847619Y-130209523D01*
X196800000Y-130161904D01*
X196752380Y-130209523D01*
X196847619Y-130209523D01*
X197085714Y-129304761D02*
X197895238Y-129304761D01*
X197990476Y-129352380D01*
X198038095Y-129400000D01*
X198085714Y-129495238D01*
X198085714Y-129638095D01*
X198038095Y-129733333D01*
X197704761Y-129304761D02*
X197752380Y-129400000D01*
X197752380Y-129590476D01*
X197704761Y-129685714D01*
X197657142Y-129733333D01*
X197561904Y-129780952D01*
X197276190Y-129780952D01*
X197180952Y-129733333D01*
X197133333Y-129685714D01*
X197085714Y-129590476D01*
X197085714Y-129400000D01*
X197133333Y-129304761D01*
X197752380Y-128828571D02*
X196752380Y-128828571D01*
X197752380Y-128400000D02*
X197228571Y-128400000D01*
X197133333Y-128447619D01*
X197085714Y-128542857D01*
X197085714Y-128685714D01*
X197133333Y-128780952D01*
X197180952Y-128828571D01*
X197085714Y-128066666D02*
X197085714Y-127685714D01*
X196752380Y-127923809D02*
X197609523Y-127923809D01*
X197704761Y-127876190D01*
X197752380Y-127780952D01*
X197752380Y-127685714D01*
X197752380Y-126447619D02*
X197704761Y-126542857D01*
X197657142Y-126590476D01*
X197561904Y-126638095D01*
X197276190Y-126638095D01*
X197180952Y-126590476D01*
X197133333Y-126542857D01*
X197085714Y-126447619D01*
X197085714Y-126304761D01*
X197133333Y-126209523D01*
X197180952Y-126161904D01*
X197276190Y-126114285D01*
X197561904Y-126114285D01*
X197657142Y-126161904D01*
X197704761Y-126209523D01*
X197752380Y-126304761D01*
X197752380Y-126447619D01*
X197085714Y-125685714D02*
X197752380Y-125685714D01*
X197180952Y-125685714D02*
X197133333Y-125638095D01*
X197085714Y-125542857D01*
X197085714Y-125400000D01*
X197133333Y-125304761D01*
X197228571Y-125257142D01*
X197752380Y-125257142D01*
X197466666Y-124066666D02*
X197466666Y-123590476D01*
X197752380Y-124161904D02*
X196752380Y-123828571D01*
X197752380Y-123495238D01*
X197752380Y-123161904D02*
X197085714Y-123161904D01*
X197276190Y-123161904D02*
X197180952Y-123114285D01*
X197133333Y-123066666D01*
X197085714Y-122971428D01*
X197085714Y-122876190D01*
X197085714Y-122685714D02*
X197085714Y-122304761D01*
X196752380Y-122542857D02*
X197609523Y-122542857D01*
X197704761Y-122495238D01*
X197752380Y-122400000D01*
X197752380Y-122304761D01*
X197085714Y-122066666D02*
X197752380Y-121876190D01*
X197276190Y-121685714D01*
X197752380Y-121495238D01*
X197085714Y-121304761D01*
X197752380Y-120780952D02*
X197704761Y-120876190D01*
X197657142Y-120923809D01*
X197561904Y-120971428D01*
X197276190Y-120971428D01*
X197180952Y-120923809D01*
X197133333Y-120876190D01*
X197085714Y-120780952D01*
X197085714Y-120638095D01*
X197133333Y-120542857D01*
X197180952Y-120495238D01*
X197276190Y-120447619D01*
X197561904Y-120447619D01*
X197657142Y-120495238D01*
X197704761Y-120542857D01*
X197752380Y-120638095D01*
X197752380Y-120780952D01*
X197752380Y-120019047D02*
X197085714Y-120019047D01*
X197276190Y-120019047D02*
X197180952Y-119971428D01*
X197133333Y-119923809D01*
X197085714Y-119828571D01*
X197085714Y-119733333D01*
X197752380Y-119400000D02*
X196752380Y-119400000D01*
X197371428Y-119304761D02*
X197752380Y-119019047D01*
X197085714Y-119019047D02*
X197466666Y-119400000D01*
X196752380Y-117638095D02*
X196752380Y-117447619D01*
X196800000Y-117352380D01*
X196895238Y-117257142D01*
X197085714Y-117209523D01*
X197419047Y-117209523D01*
X197609523Y-117257142D01*
X197704761Y-117352380D01*
X197752380Y-117447619D01*
X197752380Y-117638095D01*
X197704761Y-117733333D01*
X197609523Y-117828571D01*
X197419047Y-117876190D01*
X197085714Y-117876190D01*
X196895238Y-117828571D01*
X196800000Y-117733333D01*
X196752380Y-117638095D01*
X197752380Y-116780952D02*
X196752380Y-116780952D01*
X197752380Y-116209523D01*
X196752380Y-116209523D01*
X197752380Y-115257142D02*
X197752380Y-115733333D01*
X196752380Y-115733333D01*
X197276190Y-114733333D02*
X197752380Y-114733333D01*
X196752380Y-115066666D02*
X197276190Y-114733333D01*
X196752380Y-114400000D01*
X197371428Y-113304761D02*
X197371428Y-112542857D01*
X197752380Y-111304761D02*
X196752380Y-111304761D01*
X196752380Y-111066666D01*
X196800000Y-110923809D01*
X196895238Y-110828571D01*
X196990476Y-110780952D01*
X197180952Y-110733333D01*
X197323809Y-110733333D01*
X197514285Y-110780952D01*
X197609523Y-110828571D01*
X197704761Y-110923809D01*
X197752380Y-111066666D01*
X197752380Y-111304761D01*
X197704761Y-109923809D02*
X197752380Y-110019047D01*
X197752380Y-110209523D01*
X197704761Y-110304761D01*
X197609523Y-110352380D01*
X197228571Y-110352380D01*
X197133333Y-110304761D01*
X197085714Y-110209523D01*
X197085714Y-110019047D01*
X197133333Y-109923809D01*
X197228571Y-109876190D01*
X197323809Y-109876190D01*
X197419047Y-110352380D01*
X197704761Y-109495238D02*
X197752380Y-109400000D01*
X197752380Y-109209523D01*
X197704761Y-109114285D01*
X197609523Y-109066666D01*
X197561904Y-109066666D01*
X197466666Y-109114285D01*
X197419047Y-109209523D01*
X197419047Y-109352380D01*
X197371428Y-109447619D01*
X197276190Y-109495238D01*
X197228571Y-109495238D01*
X197133333Y-109447619D01*
X197085714Y-109352380D01*
X197085714Y-109209523D01*
X197133333Y-109114285D01*
X197752380Y-108638095D02*
X197085714Y-108638095D01*
X196752380Y-108638095D02*
X196800000Y-108685714D01*
X196847619Y-108638095D01*
X196800000Y-108590476D01*
X196752380Y-108638095D01*
X196847619Y-108638095D01*
X197085714Y-107733333D02*
X197895238Y-107733333D01*
X197990476Y-107780952D01*
X198038095Y-107828571D01*
X198085714Y-107923809D01*
X198085714Y-108066666D01*
X198038095Y-108161904D01*
X197704761Y-107733333D02*
X197752380Y-107828571D01*
X197752380Y-108019047D01*
X197704761Y-108114285D01*
X197657142Y-108161904D01*
X197561904Y-108209523D01*
X197276190Y-108209523D01*
X197180952Y-108161904D01*
X197133333Y-108114285D01*
X197085714Y-108019047D01*
X197085714Y-107828571D01*
X197133333Y-107733333D01*
X197085714Y-107257142D02*
X197752380Y-107257142D01*
X197180952Y-107257142D02*
X197133333Y-107209523D01*
X197085714Y-107114285D01*
X197085714Y-106971428D01*
X197133333Y-106876190D01*
X197228571Y-106828571D01*
X197752380Y-106828571D01*
X197752380Y-105590476D02*
X196752380Y-105590476D01*
X197133333Y-105590476D02*
X197085714Y-105495238D01*
X197085714Y-105304761D01*
X197133333Y-105209523D01*
X197180952Y-105161904D01*
X197276190Y-105114285D01*
X197561904Y-105114285D01*
X197657142Y-105161904D01*
X197704761Y-105209523D01*
X197752380Y-105304761D01*
X197752380Y-105495238D01*
X197704761Y-105590476D01*
X197085714Y-104780952D02*
X197752380Y-104542857D01*
X197085714Y-104304761D02*
X197752380Y-104542857D01*
X197990476Y-104638095D01*
X198038095Y-104685714D01*
X198085714Y-104780952D01*
X199402380Y-120757142D02*
X199402380Y-121233333D01*
X198402380Y-121233333D01*
X199116666Y-120471428D02*
X199116666Y-119995238D01*
X199402380Y-120566666D02*
X198402380Y-120233333D01*
X199402380Y-119900000D01*
X198497619Y-119614285D02*
X198450000Y-119566666D01*
X198402380Y-119471428D01*
X198402380Y-119233333D01*
X198450000Y-119138095D01*
X198497619Y-119090476D01*
X198592857Y-119042857D01*
X198688095Y-119042857D01*
X198830952Y-119090476D01*
X199402380Y-119661904D01*
X199402380Y-119042857D01*
X199402380Y-118614285D02*
X198402380Y-118614285D01*
X199402380Y-118042857D01*
X198402380Y-118042857D01*
X199402380Y-117566666D02*
X198402380Y-117566666D01*
X187257095Y-138068428D02*
X188019000Y-138068428D01*
X187638047Y-138449380D02*
X187638047Y-137687476D01*
X188447571Y-137544619D02*
X188495190Y-137497000D01*
X188590428Y-137449380D01*
X188828523Y-137449380D01*
X188923761Y-137497000D01*
X188971380Y-137544619D01*
X189019000Y-137639857D01*
X189019000Y-137735095D01*
X188971380Y-137877952D01*
X188399952Y-138449380D01*
X189019000Y-138449380D01*
X189876142Y-137782714D02*
X189876142Y-138449380D01*
X189638047Y-137401761D02*
X189399952Y-138116047D01*
X190019000Y-138116047D01*
X190257095Y-137449380D02*
X190590428Y-138449380D01*
X190923761Y-137449380D01*
D11*
X166787000Y-135102000D02*
X166787000Y-133852000D01*
X167412000Y-134477000D02*
X166162000Y-134477000D01*
X165922000Y-127521437D02*
X164857563Y-126457000D01*
X165922000Y-135912563D02*
X164857563Y-136977000D01*
X165922000Y-135912563D02*
X165922000Y-133227000D01*
X165922000Y-127521437D02*
X165922000Y-130207000D01*
X164857563Y-126457000D02*
X155402000Y-126457000D01*
X164857563Y-136977000D02*
X155402000Y-136977000D01*
X155402000Y-136977000D02*
X155402000Y-133227000D01*
X155402000Y-126457000D02*
X155402000Y-130207000D01*
X102811000Y-81479252D02*
X102811000Y-80956748D01*
X101391000Y-81479252D02*
X101391000Y-80956748D01*
X104905252Y-88060000D02*
X104382748Y-88060000D01*
X104905252Y-89480000D02*
X104382748Y-89480000D01*
X110067748Y-87774000D02*
X110590252Y-87774000D01*
X110067748Y-86354000D02*
X110590252Y-86354000D01*
X110101748Y-88576000D02*
X110624252Y-88576000D01*
X110101748Y-89996000D02*
X110624252Y-89996000D01*
X155281000Y-92680936D02*
X155281000Y-93885064D01*
X153461000Y-92680936D02*
X153461000Y-93885064D01*
X155983000Y-92715936D02*
X155983000Y-93920064D01*
X157803000Y-92715936D02*
X157803000Y-93920064D01*
X158483000Y-92671936D02*
X158483000Y-93876064D01*
X160303000Y-92671936D02*
X160303000Y-93876064D01*
X111895252Y-102592000D02*
X111372748Y-102592000D01*
X111895252Y-104012000D02*
X111372748Y-104012000D01*
X116021748Y-104707000D02*
X116544252Y-104707000D01*
X116021748Y-103287000D02*
X116544252Y-103287000D01*
X111869252Y-106367000D02*
X111346748Y-106367000D01*
X111869252Y-104947000D02*
X111346748Y-104947000D01*
X152910000Y-110147936D02*
X152910000Y-111352064D01*
X151090000Y-110147936D02*
X151090000Y-111352064D01*
X117489748Y-122927000D02*
X118012252Y-122927000D01*
X117489748Y-124347000D02*
X118012252Y-124347000D01*
X188210000Y-124011252D02*
X188210000Y-123488748D01*
X186790000Y-124011252D02*
X186790000Y-123488748D01*
X190040000Y-123761252D02*
X190040000Y-123238748D01*
X191460000Y-123761252D02*
X191460000Y-123238748D01*
X113405252Y-133459000D02*
X112882748Y-133459000D01*
X113405252Y-132039000D02*
X112882748Y-132039000D01*
X173330000Y-133264252D02*
X173330000Y-132741748D01*
X171910000Y-133264252D02*
X171910000Y-132741748D01*
X175729000Y-133328252D02*
X175729000Y-132805748D01*
X177149000Y-133328252D02*
X177149000Y-132805748D01*
X178874000Y-133583252D02*
X178874000Y-133060748D01*
X180294000Y-133583252D02*
X180294000Y-133060748D01*
X152734748Y-140529000D02*
X153257252Y-140529000D01*
X152734748Y-139109000D02*
X153257252Y-139109000D01*
X119864000Y-141975748D02*
X119864000Y-142498252D01*
X118444000Y-141975748D02*
X118444000Y-142498252D01*
X130245000Y-142114748D02*
X130245000Y-142637252D01*
X131665000Y-142114748D02*
X131665000Y-142637252D01*
X153751252Y-146003000D02*
X153228748Y-146003000D01*
X153751252Y-147423000D02*
X153228748Y-147423000D01*
X164147000Y-137984000D02*
X162647000Y-137984000D01*
X162647000Y-137984000D02*
X162647000Y-139794000D01*
X162647000Y-139794000D02*
X157522000Y-139794000D01*
X164147000Y-148384000D02*
X162647000Y-148384000D01*
X162647000Y-148384000D02*
X162647000Y-146574000D01*
X162647000Y-146574000D02*
X161547000Y-146574000D01*
X120267000Y-148118000D02*
X120267000Y-145458000D01*
X117667000Y-148118000D02*
X120267000Y-148118000D01*
X117667000Y-145458000D02*
X120267000Y-145458000D01*
X117667000Y-148118000D02*
X117667000Y-145458000D01*
X116397000Y-148118000D02*
X115067000Y-148118000D01*
X115067000Y-148118000D02*
X115067000Y-146788000D01*
X127128000Y-137898000D02*
X127128000Y-136568000D01*
X128458000Y-137898000D02*
X127128000Y-137898000D01*
X129728000Y-137898000D02*
X129728000Y-135238000D01*
X129728000Y-135238000D02*
X132328000Y-135238000D01*
X129728000Y-137898000D02*
X132328000Y-137898000D01*
X132328000Y-137898000D02*
X132328000Y-135238000D01*
D10*
X104903000Y-92175000D02*
X107903000Y-92175000D01*
X107903000Y-92175000D02*
X107903000Y-99175000D01*
X107903000Y-99175000D02*
X101903000Y-99175000D01*
X101903000Y-99175000D02*
X101903000Y-92175000D01*
X101903000Y-92175000D02*
X104903000Y-92175000D01*
X160986000Y-93159000D02*
X160986000Y-78159000D01*
X160986000Y-78159000D02*
X194986000Y-78159000D01*
X194986000Y-78159000D02*
X194986000Y-108159000D01*
X194986000Y-108159000D02*
X160986000Y-108159000D01*
X160986000Y-108159000D02*
X160986000Y-93159000D01*
X160986000Y-91159000D02*
X194986000Y-91159000D01*
X160986000Y-95159000D02*
X194986000Y-95159000D01*
X173861000Y-116414000D02*
X190861000Y-116414000D01*
X190861000Y-116414000D02*
X190861000Y-124314000D01*
X190861000Y-124314000D02*
X173761000Y-124314000D01*
X173761000Y-124314000D02*
X173761000Y-116314000D01*
D11*
X112432000Y-74128000D02*
X102662000Y-74128000D01*
X112432000Y-64358000D02*
X102662000Y-64358000D01*
X102662000Y-64358000D02*
X102662000Y-74128000D01*
X112432000Y-64358000D02*
X112432000Y-74128000D01*
X104831252Y-84741000D02*
X104308748Y-84741000D01*
X104831252Y-86161000D02*
X104308748Y-86161000D01*
X111011252Y-76710000D02*
X110488748Y-76710000D01*
X111011252Y-75290000D02*
X110488748Y-75290000D01*
X110412748Y-79292000D02*
X110935252Y-79292000D01*
X110412748Y-77872000D02*
X110935252Y-77872000D01*
X110412748Y-80351000D02*
X110935252Y-80351000D01*
X110412748Y-81771000D02*
X110935252Y-81771000D01*
X117672000Y-86542748D02*
X117672000Y-87065252D01*
X116252000Y-86542748D02*
X116252000Y-87065252D01*
X113473000Y-86765748D02*
X113473000Y-87288252D01*
X114893000Y-86765748D02*
X114893000Y-87288252D01*
X114165000Y-94211748D02*
X114165000Y-96984252D01*
X110745000Y-94211748D02*
X110745000Y-96984252D01*
X110509748Y-84127000D02*
X111032252Y-84127000D01*
X110509748Y-82707000D02*
X111032252Y-82707000D01*
X111425748Y-108776000D02*
X111948252Y-108776000D01*
X111425748Y-107356000D02*
X111948252Y-107356000D01*
X115986000Y-101238252D02*
X115986000Y-100715748D01*
X114566000Y-101238252D02*
X114566000Y-100715748D01*
X116714000Y-101124252D02*
X116714000Y-100601748D01*
X118134000Y-101124252D02*
X118134000Y-100601748D01*
X116830748Y-108847000D02*
X117353252Y-108847000D01*
X116830748Y-110267000D02*
X117353252Y-110267000D01*
X118288000Y-114706000D02*
G75*
G03X118288000Y-114706000I-920000J0D01*
G01*
X117368000Y-115626000D02*
X117368000Y-116246000D01*
X117101748Y-112602000D02*
X117624252Y-112602000D01*
X117101748Y-111182000D02*
X117624252Y-111182000D01*
X112543000Y-115752252D02*
X112543000Y-115229748D01*
X111123000Y-115752252D02*
X111123000Y-115229748D01*
X117387252Y-108125000D02*
X116864748Y-108125000D01*
X117387252Y-106705000D02*
X116864748Y-106705000D01*
X171190000Y-119809748D02*
X171190000Y-120332252D01*
X169770000Y-119809748D02*
X169770000Y-120332252D01*
X172253000Y-119809748D02*
X172253000Y-120332252D01*
X173673000Y-119809748D02*
X173673000Y-120332252D01*
X175124000Y-119964748D02*
X175124000Y-120487252D01*
X176544000Y-119964748D02*
X176544000Y-120487252D01*
X113722000Y-124877748D02*
X113722000Y-125400252D01*
X112302000Y-124877748D02*
X112302000Y-125400252D01*
X110925000Y-119600000D02*
X110925000Y-129370000D01*
X101155000Y-119600000D02*
X101155000Y-129370000D01*
X110925000Y-119600000D02*
X101155000Y-119600000D01*
X110925000Y-129370000D02*
X101155000Y-129370000D01*
X181104000Y-129314936D02*
X181104000Y-133419064D01*
X184524000Y-129314936D02*
X184524000Y-133419064D01*
X190631000Y-129285936D02*
X190631000Y-133390064D01*
X187211000Y-129285936D02*
X187211000Y-133390064D01*
X119686748Y-137758000D02*
X120209252Y-137758000D01*
X119686748Y-139178000D02*
X120209252Y-139178000D01*
X145831748Y-138578000D02*
X146354252Y-138578000D01*
X145831748Y-139998000D02*
X146354252Y-139998000D01*
X140887000Y-144425252D02*
X140887000Y-143902748D01*
X142307000Y-144425252D02*
X142307000Y-143902748D01*
X142320000Y-140049000D02*
X140860000Y-140049000D01*
X142320000Y-136889000D02*
X140160000Y-136889000D01*
X142320000Y-136889000D02*
X142320000Y-137819000D01*
X142320000Y-140049000D02*
X142320000Y-139119000D01*
D10*
X123440000Y-140481000D02*
X123440000Y-140531000D01*
X127590000Y-140481000D02*
X127590000Y-140626000D01*
X127590000Y-145631000D02*
X127590000Y-145486000D01*
X123440000Y-145631000D02*
X123440000Y-145486000D01*
X123440000Y-140481000D02*
X127590000Y-140481000D01*
X123440000Y-145631000D02*
X127590000Y-145631000D01*
X123440000Y-140531000D02*
X122040000Y-140531000D01*
X119621000Y-91395000D02*
X119621000Y-94895000D01*
X122721000Y-94895000D02*
X150221000Y-94895000D01*
X150221000Y-94895000D02*
X150221000Y-100395000D01*
X150221000Y-100395000D02*
X154221000Y-100395000D01*
X154221000Y-100395000D02*
X154221000Y-86395000D01*
X154221000Y-86395000D02*
X150221000Y-86395000D01*
X122721000Y-91395000D02*
X150221000Y-91395000D01*
X150221000Y-86395000D02*
X150221000Y-91395000D01*
X122721000Y-91395000D02*
X119621000Y-91395000D01*
X122721000Y-94895000D02*
X119621000Y-94895000D01*
D11*
X108210000Y-82120000D02*
X108210000Y-79260000D01*
X108210000Y-79260000D02*
X106290000Y-79260000D01*
X106290000Y-79260000D02*
X106290000Y-82120000D01*
X106444000Y-89966000D02*
X103584000Y-89966000D01*
X106444000Y-91886000D02*
X106444000Y-89966000D01*
X103584000Y-91886000D02*
X106444000Y-91886000D01*
X109994000Y-116733000D02*
X109994000Y-113873000D01*
X109994000Y-113873000D02*
X108074000Y-113873000D01*
X108074000Y-113873000D02*
X108074000Y-116733000D01*
X113685000Y-113513000D02*
X113685000Y-116373000D01*
X115605000Y-113513000D02*
X113685000Y-113513000D01*
X115605000Y-116373000D02*
X115605000Y-113513000D01*
X116461000Y-139986000D02*
X113601000Y-139986000D01*
X113601000Y-139986000D02*
X113601000Y-141906000D01*
X113601000Y-141906000D02*
X116461000Y-141906000D01*
X189124000Y-69651000D02*
X189124000Y-72971000D01*
X196344000Y-69651000D02*
X196344000Y-72971000D01*
X191074000Y-74921000D02*
X194394000Y-74921000D01*
X191074000Y-67701000D02*
X194394000Y-67701000D01*
X103048000Y-101111000D02*
X106368000Y-101111000D01*
X103048000Y-108331000D02*
X106368000Y-108331000D01*
X108318000Y-103061000D02*
X108318000Y-106381000D01*
X101098000Y-103061000D02*
X101098000Y-106381000D01*
D10*
X140720000Y-93000000D02*
X140720000Y-119000000D01*
X128720000Y-93000000D02*
X128720000Y-119000000D01*
X128220000Y-109500000D02*
X129720000Y-109500000D01*
X128720000Y-102500000D02*
X129720000Y-102500000D01*
X140720000Y-109500000D02*
X139720000Y-109500000D01*
X140720000Y-102500000D02*
X139720000Y-102500000D01*
X120720000Y-109500000D02*
X128220000Y-109500000D01*
X120720000Y-102500000D02*
X120720000Y-109500000D01*
X121220000Y-102500000D02*
X120720000Y-102500000D01*
X128720000Y-102500000D02*
X121220000Y-102500000D01*
X148720000Y-109500000D02*
X140720000Y-109500000D01*
X148720000Y-104000000D02*
X148720000Y-109500000D01*
X147220000Y-102500000D02*
X148720000Y-104000000D01*
X140720000Y-102500000D02*
X147220000Y-102500000D01*
X135720000Y-118500000D02*
X137720000Y-118500000D01*
X135720000Y-115000000D02*
X135720000Y-118500000D01*
X135720000Y-115000000D02*
G75*
G03X135720000Y-115000000I-872500J0D01*
G01*
X133720000Y-118500000D02*
X133720000Y-115000000D01*
X129720000Y-117000000D02*
X129720000Y-111500000D01*
X129720000Y-117000000D02*
X131720000Y-118500000D01*
X139720000Y-111500000D02*
X129720000Y-111500000D01*
X139720000Y-117000000D02*
X139720000Y-111500000D01*
X131720000Y-118500000D02*
X133720000Y-118500000D01*
X139720000Y-117000000D02*
X137720000Y-118500000D01*
X133720000Y-93500000D02*
X131720000Y-93500000D01*
X133720000Y-97000000D02*
X133720000Y-93500000D01*
X135720000Y-93500000D02*
X135720000Y-97000000D01*
X137720000Y-93500000D02*
X135720000Y-93500000D01*
X129720000Y-95000000D02*
X129720000Y-100500000D01*
X139720000Y-95000000D02*
X139720000Y-100500000D01*
X139720000Y-95000000D02*
X137720000Y-93500000D01*
X129720000Y-95000000D02*
X131720000Y-93500000D01*
X135592500Y-96900000D02*
G75*
G03X135592500Y-96900000I-872500J0D01*
G01*
X129720000Y-100500000D02*
X139720000Y-100500000D01*
X129720000Y-111500000D02*
X129720000Y-100500000D01*
X139720000Y-100500000D02*
X139720000Y-111500000D01*
X139704000Y-74153000D02*
X139704000Y-85153000D01*
X129704000Y-85153000D02*
X129704000Y-74153000D01*
X129704000Y-74153000D02*
X139704000Y-74153000D01*
X135576500Y-70553000D02*
G75*
G03X135576500Y-70553000I-872500J0D01*
G01*
X129704000Y-68653000D02*
X131704000Y-67153000D01*
X139704000Y-68653000D02*
X137704000Y-67153000D01*
X139704000Y-68653000D02*
X139704000Y-74153000D01*
X129704000Y-68653000D02*
X129704000Y-74153000D01*
X137704000Y-67153000D02*
X135704000Y-67153000D01*
X135704000Y-67153000D02*
X135704000Y-70653000D01*
X133704000Y-70653000D02*
X133704000Y-67153000D01*
X133704000Y-67153000D02*
X131704000Y-67153000D01*
X139704000Y-90653000D02*
X137704000Y-92153000D01*
X131704000Y-92153000D02*
X133704000Y-92153000D01*
X139704000Y-90653000D02*
X139704000Y-85153000D01*
X139704000Y-85153000D02*
X129704000Y-85153000D01*
X129704000Y-90653000D02*
X131704000Y-92153000D01*
X129704000Y-90653000D02*
X129704000Y-85153000D01*
X133704000Y-92153000D02*
X133704000Y-88653000D01*
X135704000Y-88653000D02*
G75*
G03X135704000Y-88653000I-872500J0D01*
G01*
X135704000Y-88653000D02*
X135704000Y-92153000D01*
X135704000Y-92153000D02*
X137704000Y-92153000D01*
X140704000Y-76153000D02*
X147204000Y-76153000D01*
X147204000Y-76153000D02*
X148704000Y-77653000D01*
X148704000Y-77653000D02*
X148704000Y-83153000D01*
X148704000Y-83153000D02*
X140704000Y-83153000D01*
X128704000Y-76153000D02*
X121204000Y-76153000D01*
X121204000Y-76153000D02*
X120704000Y-76153000D01*
X120704000Y-76153000D02*
X120704000Y-83153000D01*
X120704000Y-83153000D02*
X128204000Y-83153000D01*
X140704000Y-76153000D02*
X139704000Y-76153000D01*
X140704000Y-83153000D02*
X139704000Y-83153000D01*
X128704000Y-76153000D02*
X129704000Y-76153000D01*
X128204000Y-83153000D02*
X129704000Y-83153000D01*
X128704000Y-66653000D02*
X128704000Y-92653000D01*
X140704000Y-66653000D02*
X140704000Y-92653000D01*
D11*
X103855000Y-81240064D02*
X103855000Y-80035936D01*
X105675000Y-81240064D02*
X105675000Y-80035936D01*
X155549000Y-114856000D02*
X155549000Y-118606000D01*
X155549000Y-125376000D02*
X155549000Y-121626000D01*
X165004563Y-125376000D02*
X155549000Y-125376000D01*
X165004563Y-114856000D02*
X155549000Y-114856000D01*
X166069000Y-115920437D02*
X166069000Y-118606000D01*
X166069000Y-124311563D02*
X166069000Y-121626000D01*
X166069000Y-124311563D02*
X165004563Y-125376000D01*
X166069000Y-115920437D02*
X165004563Y-114856000D01*
X167559000Y-122876000D02*
X166309000Y-122876000D01*
X166934000Y-123501000D02*
X166934000Y-122251000D01*
X117245936Y-128189000D02*
X118450064Y-128189000D01*
X117245936Y-126369000D02*
X118450064Y-126369000D01*
X135246064Y-133035000D02*
X134041936Y-133035000D01*
X135246064Y-131215000D02*
X134041936Y-131215000D01*
D10*
X138683000Y-142718000D02*
X138633000Y-142718000D01*
X138683000Y-146868000D02*
X138538000Y-146868000D01*
X133533000Y-146868000D02*
X133678000Y-146868000D01*
X133533000Y-142718000D02*
X133678000Y-142718000D01*
X138683000Y-142718000D02*
X138683000Y-146868000D01*
X133533000Y-142718000D02*
X133533000Y-146868000D01*
X138633000Y-142718000D02*
X138633000Y-141318000D01*
D11*
X121490000Y-134732000D02*
X120560000Y-134732000D01*
X118330000Y-134732000D02*
X119260000Y-134732000D01*
X118330000Y-134732000D02*
X118330000Y-136892000D01*
X121490000Y-134732000D02*
X121490000Y-136192000D01*
X116697000Y-80063748D02*
X116697000Y-80586252D01*
X115277000Y-80063748D02*
X115277000Y-80586252D01*
X151933000Y-77648252D02*
X151933000Y-77125748D01*
X153353000Y-77648252D02*
X153353000Y-77125748D01*
D10*
X152346142Y-136608142D02*
X152298523Y-136655761D01*
X152155666Y-136703380D01*
X152060428Y-136703380D01*
X151917571Y-136655761D01*
X151822333Y-136560523D01*
X151774714Y-136465285D01*
X151727095Y-136274809D01*
X151727095Y-136131952D01*
X151774714Y-135941476D01*
X151822333Y-135846238D01*
X151917571Y-135751000D01*
X152060428Y-135703380D01*
X152155666Y-135703380D01*
X152298523Y-135751000D01*
X152346142Y-135798619D01*
X152727095Y-135798619D02*
X152774714Y-135751000D01*
X152869952Y-135703380D01*
X153108047Y-135703380D01*
X153203285Y-135751000D01*
X153250904Y-135798619D01*
X153298523Y-135893857D01*
X153298523Y-135989095D01*
X153250904Y-136131952D01*
X152679476Y-136703380D01*
X153298523Y-136703380D01*
X153774714Y-136703380D02*
X153965190Y-136703380D01*
X154060428Y-136655761D01*
X154108047Y-136608142D01*
X154203285Y-136465285D01*
X154250904Y-136274809D01*
X154250904Y-135893857D01*
X154203285Y-135798619D01*
X154155666Y-135751000D01*
X154060428Y-135703380D01*
X153869952Y-135703380D01*
X153774714Y-135751000D01*
X153727095Y-135798619D01*
X153679476Y-135893857D01*
X153679476Y-136131952D01*
X153727095Y-136227190D01*
X153774714Y-136274809D01*
X153869952Y-136322428D01*
X154060428Y-136322428D01*
X154155666Y-136274809D01*
X154203285Y-136227190D01*
X154250904Y-136131952D01*
X103952380Y-138452380D02*
X103619047Y-137976190D01*
X103380952Y-138452380D02*
X103380952Y-137452380D01*
X103761904Y-137452380D01*
X103857142Y-137500000D01*
X103904761Y-137547619D01*
X103952380Y-137642857D01*
X103952380Y-137785714D01*
X103904761Y-137880952D01*
X103857142Y-137928571D01*
X103761904Y-137976190D01*
X103380952Y-137976190D01*
X104380952Y-137928571D02*
X104714285Y-137928571D01*
X104857142Y-138452380D02*
X104380952Y-138452380D01*
X104380952Y-137452380D01*
X104857142Y-137452380D01*
X105619047Y-137928571D02*
X105285714Y-137928571D01*
X105285714Y-138452380D02*
X105285714Y-137452380D01*
X105761904Y-137452380D01*
X106666666Y-138452380D02*
X106095238Y-138452380D01*
X106380952Y-138452380D02*
X106380952Y-137452380D01*
X106285714Y-137595238D01*
X106190476Y-137690476D01*
X106095238Y-137738095D01*
X103952380Y-48452380D02*
X103619047Y-47976190D01*
X103380952Y-48452380D02*
X103380952Y-47452380D01*
X103761904Y-47452380D01*
X103857142Y-47500000D01*
X103904761Y-47547619D01*
X103952380Y-47642857D01*
X103952380Y-47785714D01*
X103904761Y-47880952D01*
X103857142Y-47928571D01*
X103761904Y-47976190D01*
X103380952Y-47976190D01*
X104380952Y-47928571D02*
X104714285Y-47928571D01*
X104857142Y-48452380D02*
X104380952Y-48452380D01*
X104380952Y-47452380D01*
X104857142Y-47452380D01*
X105619047Y-47928571D02*
X105285714Y-47928571D01*
X105285714Y-48452380D02*
X105285714Y-47452380D01*
X105761904Y-47452380D01*
X106571428Y-47785714D02*
X106571428Y-48452380D01*
X106333333Y-47404761D02*
X106095238Y-48119047D01*
X106714285Y-48119047D01*
X193952380Y-48452380D02*
X193619047Y-47976190D01*
X193380952Y-48452380D02*
X193380952Y-47452380D01*
X193761904Y-47452380D01*
X193857142Y-47500000D01*
X193904761Y-47547619D01*
X193952380Y-47642857D01*
X193952380Y-47785714D01*
X193904761Y-47880952D01*
X193857142Y-47928571D01*
X193761904Y-47976190D01*
X193380952Y-47976190D01*
X194380952Y-47928571D02*
X194714285Y-47928571D01*
X194857142Y-48452380D02*
X194380952Y-48452380D01*
X194380952Y-47452380D01*
X194857142Y-47452380D01*
X195619047Y-47928571D02*
X195285714Y-47928571D01*
X195285714Y-48452380D02*
X195285714Y-47452380D01*
X195761904Y-47452380D01*
X196047619Y-47452380D02*
X196666666Y-47452380D01*
X196333333Y-47833333D01*
X196476190Y-47833333D01*
X196571428Y-47880952D01*
X196619047Y-47928571D01*
X196666666Y-48023809D01*
X196666666Y-48261904D01*
X196619047Y-48357142D01*
X196571428Y-48404761D01*
X196476190Y-48452380D01*
X196190476Y-48452380D01*
X196095238Y-48404761D01*
X196047619Y-48357142D01*
X195852380Y-142652380D02*
X195519047Y-142176190D01*
X195280952Y-142652380D02*
X195280952Y-141652380D01*
X195661904Y-141652380D01*
X195757142Y-141700000D01*
X195804761Y-141747619D01*
X195852380Y-141842857D01*
X195852380Y-141985714D01*
X195804761Y-142080952D01*
X195757142Y-142128571D01*
X195661904Y-142176190D01*
X195280952Y-142176190D01*
X196280952Y-142128571D02*
X196614285Y-142128571D01*
X196757142Y-142652380D02*
X196280952Y-142652380D01*
X196280952Y-141652380D01*
X196757142Y-141652380D01*
X197519047Y-142128571D02*
X197185714Y-142128571D01*
X197185714Y-142652380D02*
X197185714Y-141652380D01*
X197661904Y-141652380D01*
X197995238Y-141747619D02*
X198042857Y-141700000D01*
X198138095Y-141652380D01*
X198376190Y-141652380D01*
X198471428Y-141700000D01*
X198519047Y-141747619D01*
X198566666Y-141842857D01*
X198566666Y-141938095D01*
X198519047Y-142080952D01*
X197947619Y-142652380D01*
X198566666Y-142652380D01*
X102526142Y-78515666D02*
X102573761Y-78563285D01*
X102621380Y-78706142D01*
X102621380Y-78801380D01*
X102573761Y-78944238D01*
X102478523Y-79039476D01*
X102383285Y-79087095D01*
X102192809Y-79134714D01*
X102049952Y-79134714D01*
X101859476Y-79087095D01*
X101764238Y-79039476D01*
X101669000Y-78944238D01*
X101621380Y-78801380D01*
X101621380Y-78706142D01*
X101669000Y-78563285D01*
X101716619Y-78515666D01*
X102621380Y-77563285D02*
X102621380Y-78134714D01*
X102621380Y-77849000D02*
X101621380Y-77849000D01*
X101764238Y-77944238D01*
X101859476Y-78039476D01*
X101907095Y-78134714D01*
X104477333Y-90777142D02*
X104429714Y-90824761D01*
X104286857Y-90872380D01*
X104191619Y-90872380D01*
X104048761Y-90824761D01*
X103953523Y-90729523D01*
X103905904Y-90634285D01*
X103858285Y-90443809D01*
X103858285Y-90300952D01*
X103905904Y-90110476D01*
X103953523Y-90015238D01*
X104048761Y-89920000D01*
X104191619Y-89872380D01*
X104286857Y-89872380D01*
X104429714Y-89920000D01*
X104477333Y-89967619D01*
X105382095Y-89872380D02*
X104905904Y-89872380D01*
X104858285Y-90348571D01*
X104905904Y-90300952D01*
X105001142Y-90253333D01*
X105239238Y-90253333D01*
X105334476Y-90300952D01*
X105382095Y-90348571D01*
X105429714Y-90443809D01*
X105429714Y-90681904D01*
X105382095Y-90777142D01*
X105334476Y-90824761D01*
X105239238Y-90872380D01*
X105001142Y-90872380D01*
X104905904Y-90824761D01*
X104858285Y-90777142D01*
X106891333Y-87643142D02*
X106843714Y-87690761D01*
X106700857Y-87738380D01*
X106605619Y-87738380D01*
X106462761Y-87690761D01*
X106367523Y-87595523D01*
X106319904Y-87500285D01*
X106272285Y-87309809D01*
X106272285Y-87166952D01*
X106319904Y-86976476D01*
X106367523Y-86881238D01*
X106462761Y-86786000D01*
X106605619Y-86738380D01*
X106700857Y-86738380D01*
X106843714Y-86786000D01*
X106891333Y-86833619D01*
X107748476Y-86738380D02*
X107558000Y-86738380D01*
X107462761Y-86786000D01*
X107415142Y-86833619D01*
X107319904Y-86976476D01*
X107272285Y-87166952D01*
X107272285Y-87547904D01*
X107319904Y-87643142D01*
X107367523Y-87690761D01*
X107462761Y-87738380D01*
X107653238Y-87738380D01*
X107748476Y-87690761D01*
X107796095Y-87643142D01*
X107843714Y-87547904D01*
X107843714Y-87309809D01*
X107796095Y-87214571D01*
X107748476Y-87166952D01*
X107653238Y-87119333D01*
X107462761Y-87119333D01*
X107367523Y-87166952D01*
X107319904Y-87214571D01*
X107272285Y-87309809D01*
X107049333Y-89560142D02*
X107001714Y-89607761D01*
X106858857Y-89655380D01*
X106763619Y-89655380D01*
X106620761Y-89607761D01*
X106525523Y-89512523D01*
X106477904Y-89417285D01*
X106430285Y-89226809D01*
X106430285Y-89083952D01*
X106477904Y-88893476D01*
X106525523Y-88798238D01*
X106620761Y-88703000D01*
X106763619Y-88655380D01*
X106858857Y-88655380D01*
X107001714Y-88703000D01*
X107049333Y-88750619D01*
X107620761Y-89083952D02*
X107525523Y-89036333D01*
X107477904Y-88988714D01*
X107430285Y-88893476D01*
X107430285Y-88845857D01*
X107477904Y-88750619D01*
X107525523Y-88703000D01*
X107620761Y-88655380D01*
X107811238Y-88655380D01*
X107906476Y-88703000D01*
X107954095Y-88750619D01*
X108001714Y-88845857D01*
X108001714Y-88893476D01*
X107954095Y-88988714D01*
X107906476Y-89036333D01*
X107811238Y-89083952D01*
X107620761Y-89083952D01*
X107525523Y-89131571D01*
X107477904Y-89179190D01*
X107430285Y-89274428D01*
X107430285Y-89464904D01*
X107477904Y-89560142D01*
X107525523Y-89607761D01*
X107620761Y-89655380D01*
X107811238Y-89655380D01*
X107906476Y-89607761D01*
X107954095Y-89560142D01*
X108001714Y-89464904D01*
X108001714Y-89274428D01*
X107954095Y-89179190D01*
X107906476Y-89131571D01*
X107811238Y-89083952D01*
X155453142Y-97968857D02*
X155500761Y-98016476D01*
X155548380Y-98159333D01*
X155548380Y-98254571D01*
X155500761Y-98397428D01*
X155405523Y-98492666D01*
X155310285Y-98540285D01*
X155119809Y-98587904D01*
X154976952Y-98587904D01*
X154786476Y-98540285D01*
X154691238Y-98492666D01*
X154596000Y-98397428D01*
X154548380Y-98254571D01*
X154548380Y-98159333D01*
X154596000Y-98016476D01*
X154643619Y-97968857D01*
X155548380Y-97016476D02*
X155548380Y-97587904D01*
X155548380Y-97302190D02*
X154548380Y-97302190D01*
X154691238Y-97397428D01*
X154786476Y-97492666D01*
X154834095Y-97587904D01*
X154548380Y-96397428D02*
X154548380Y-96302190D01*
X154596000Y-96206952D01*
X154643619Y-96159333D01*
X154738857Y-96111714D01*
X154929333Y-96064095D01*
X155167428Y-96064095D01*
X155357904Y-96111714D01*
X155453142Y-96159333D01*
X155500761Y-96206952D01*
X155548380Y-96302190D01*
X155548380Y-96397428D01*
X155500761Y-96492666D01*
X155453142Y-96540285D01*
X155357904Y-96587904D01*
X155167428Y-96635523D01*
X154929333Y-96635523D01*
X154738857Y-96587904D01*
X154643619Y-96540285D01*
X154596000Y-96492666D01*
X154548380Y-96397428D01*
X157943142Y-97653857D02*
X157990761Y-97701476D01*
X158038380Y-97844333D01*
X158038380Y-97939571D01*
X157990761Y-98082428D01*
X157895523Y-98177666D01*
X157800285Y-98225285D01*
X157609809Y-98272904D01*
X157466952Y-98272904D01*
X157276476Y-98225285D01*
X157181238Y-98177666D01*
X157086000Y-98082428D01*
X157038380Y-97939571D01*
X157038380Y-97844333D01*
X157086000Y-97701476D01*
X157133619Y-97653857D01*
X158038380Y-96701476D02*
X158038380Y-97272904D01*
X158038380Y-96987190D02*
X157038380Y-96987190D01*
X157181238Y-97082428D01*
X157276476Y-97177666D01*
X157324095Y-97272904D01*
X158038380Y-95749095D02*
X158038380Y-96320523D01*
X158038380Y-96034809D02*
X157038380Y-96034809D01*
X157181238Y-96130047D01*
X157276476Y-96225285D01*
X157324095Y-96320523D01*
X158750142Y-89997142D02*
X158702523Y-90044761D01*
X158559666Y-90092380D01*
X158464428Y-90092380D01*
X158321571Y-90044761D01*
X158226333Y-89949523D01*
X158178714Y-89854285D01*
X158131095Y-89663809D01*
X158131095Y-89520952D01*
X158178714Y-89330476D01*
X158226333Y-89235238D01*
X158321571Y-89140000D01*
X158464428Y-89092380D01*
X158559666Y-89092380D01*
X158702523Y-89140000D01*
X158750142Y-89187619D01*
X159702523Y-90092380D02*
X159131095Y-90092380D01*
X159416809Y-90092380D02*
X159416809Y-89092380D01*
X159321571Y-89235238D01*
X159226333Y-89330476D01*
X159131095Y-89378095D01*
X160083476Y-89187619D02*
X160131095Y-89140000D01*
X160226333Y-89092380D01*
X160464428Y-89092380D01*
X160559666Y-89140000D01*
X160607285Y-89187619D01*
X160654904Y-89282857D01*
X160654904Y-89378095D01*
X160607285Y-89520952D01*
X160035857Y-90092380D01*
X160654904Y-90092380D01*
X109641142Y-101939142D02*
X109593523Y-101986761D01*
X109450666Y-102034380D01*
X109355428Y-102034380D01*
X109212571Y-101986761D01*
X109117333Y-101891523D01*
X109069714Y-101796285D01*
X109022095Y-101605809D01*
X109022095Y-101462952D01*
X109069714Y-101272476D01*
X109117333Y-101177238D01*
X109212571Y-101082000D01*
X109355428Y-101034380D01*
X109450666Y-101034380D01*
X109593523Y-101082000D01*
X109641142Y-101129619D01*
X110593523Y-102034380D02*
X110022095Y-102034380D01*
X110307809Y-102034380D02*
X110307809Y-101034380D01*
X110212571Y-101177238D01*
X110117333Y-101272476D01*
X110022095Y-101320095D01*
X110926857Y-101034380D02*
X111545904Y-101034380D01*
X111212571Y-101415333D01*
X111355428Y-101415333D01*
X111450666Y-101462952D01*
X111498285Y-101510571D01*
X111545904Y-101605809D01*
X111545904Y-101843904D01*
X111498285Y-101939142D01*
X111450666Y-101986761D01*
X111355428Y-102034380D01*
X111069714Y-102034380D01*
X110974476Y-101986761D01*
X110926857Y-101939142D01*
X115587142Y-105935142D02*
X115539523Y-105982761D01*
X115396666Y-106030380D01*
X115301428Y-106030380D01*
X115158571Y-105982761D01*
X115063333Y-105887523D01*
X115015714Y-105792285D01*
X114968095Y-105601809D01*
X114968095Y-105458952D01*
X115015714Y-105268476D01*
X115063333Y-105173238D01*
X115158571Y-105078000D01*
X115301428Y-105030380D01*
X115396666Y-105030380D01*
X115539523Y-105078000D01*
X115587142Y-105125619D01*
X116539523Y-106030380D02*
X115968095Y-106030380D01*
X116253809Y-106030380D02*
X116253809Y-105030380D01*
X116158571Y-105173238D01*
X116063333Y-105268476D01*
X115968095Y-105316095D01*
X117396666Y-105363714D02*
X117396666Y-106030380D01*
X117158571Y-104982761D02*
X116920476Y-105697047D01*
X117539523Y-105697047D01*
X107656142Y-105501142D02*
X107608523Y-105548761D01*
X107465666Y-105596380D01*
X107370428Y-105596380D01*
X107227571Y-105548761D01*
X107132333Y-105453523D01*
X107084714Y-105358285D01*
X107037095Y-105167809D01*
X107037095Y-105024952D01*
X107084714Y-104834476D01*
X107132333Y-104739238D01*
X107227571Y-104644000D01*
X107370428Y-104596380D01*
X107465666Y-104596380D01*
X107608523Y-104644000D01*
X107656142Y-104691619D01*
X108608523Y-105596380D02*
X108037095Y-105596380D01*
X108322809Y-105596380D02*
X108322809Y-104596380D01*
X108227571Y-104739238D01*
X108132333Y-104834476D01*
X108037095Y-104882095D01*
X109513285Y-104596380D02*
X109037095Y-104596380D01*
X108989476Y-105072571D01*
X109037095Y-105024952D01*
X109132333Y-104977333D01*
X109370428Y-104977333D01*
X109465666Y-105024952D01*
X109513285Y-105072571D01*
X109560904Y-105167809D01*
X109560904Y-105405904D01*
X109513285Y-105501142D01*
X109465666Y-105548761D01*
X109370428Y-105596380D01*
X109132333Y-105596380D01*
X109037095Y-105548761D01*
X108989476Y-105501142D01*
X153395142Y-115372857D02*
X153442761Y-115420476D01*
X153490380Y-115563333D01*
X153490380Y-115658571D01*
X153442761Y-115801428D01*
X153347523Y-115896666D01*
X153252285Y-115944285D01*
X153061809Y-115991904D01*
X152918952Y-115991904D01*
X152728476Y-115944285D01*
X152633238Y-115896666D01*
X152538000Y-115801428D01*
X152490380Y-115658571D01*
X152490380Y-115563333D01*
X152538000Y-115420476D01*
X152585619Y-115372857D01*
X153490380Y-114420476D02*
X153490380Y-114991904D01*
X153490380Y-114706190D02*
X152490380Y-114706190D01*
X152633238Y-114801428D01*
X152728476Y-114896666D01*
X152776095Y-114991904D01*
X152490380Y-113563333D02*
X152490380Y-113753809D01*
X152538000Y-113849047D01*
X152585619Y-113896666D01*
X152728476Y-113991904D01*
X152918952Y-114039523D01*
X153299904Y-114039523D01*
X153395142Y-113991904D01*
X153442761Y-113944285D01*
X153490380Y-113849047D01*
X153490380Y-113658571D01*
X153442761Y-113563333D01*
X153395142Y-113515714D01*
X153299904Y-113468095D01*
X153061809Y-113468095D01*
X152966571Y-113515714D01*
X152918952Y-113563333D01*
X152871333Y-113658571D01*
X152871333Y-113849047D01*
X152918952Y-113944285D01*
X152966571Y-113991904D01*
X153061809Y-114039523D01*
X117108142Y-122344142D02*
X117060523Y-122391761D01*
X116917666Y-122439380D01*
X116822428Y-122439380D01*
X116679571Y-122391761D01*
X116584333Y-122296523D01*
X116536714Y-122201285D01*
X116489095Y-122010809D01*
X116489095Y-121867952D01*
X116536714Y-121677476D01*
X116584333Y-121582238D01*
X116679571Y-121487000D01*
X116822428Y-121439380D01*
X116917666Y-121439380D01*
X117060523Y-121487000D01*
X117108142Y-121534619D01*
X117489095Y-121534619D02*
X117536714Y-121487000D01*
X117631952Y-121439380D01*
X117870047Y-121439380D01*
X117965285Y-121487000D01*
X118012904Y-121534619D01*
X118060523Y-121629857D01*
X118060523Y-121725095D01*
X118012904Y-121867952D01*
X117441476Y-122439380D01*
X118060523Y-122439380D01*
X118441476Y-121534619D02*
X118489095Y-121487000D01*
X118584333Y-121439380D01*
X118822428Y-121439380D01*
X118917666Y-121487000D01*
X118965285Y-121534619D01*
X119012904Y-121629857D01*
X119012904Y-121725095D01*
X118965285Y-121867952D01*
X118393857Y-122439380D01*
X119012904Y-122439380D01*
X187723142Y-120754857D02*
X187770761Y-120802476D01*
X187818380Y-120945333D01*
X187818380Y-121040571D01*
X187770761Y-121183428D01*
X187675523Y-121278666D01*
X187580285Y-121326285D01*
X187389809Y-121373904D01*
X187246952Y-121373904D01*
X187056476Y-121326285D01*
X186961238Y-121278666D01*
X186866000Y-121183428D01*
X186818380Y-121040571D01*
X186818380Y-120945333D01*
X186866000Y-120802476D01*
X186913619Y-120754857D01*
X186913619Y-120373904D02*
X186866000Y-120326285D01*
X186818380Y-120231047D01*
X186818380Y-119992952D01*
X186866000Y-119897714D01*
X186913619Y-119850095D01*
X187008857Y-119802476D01*
X187104095Y-119802476D01*
X187246952Y-119850095D01*
X187818380Y-120421523D01*
X187818380Y-119802476D01*
X187151714Y-118945333D02*
X187818380Y-118945333D01*
X186770761Y-119183428D02*
X187485047Y-119421523D01*
X187485047Y-118802476D01*
X191241142Y-120010857D02*
X191288761Y-120058476D01*
X191336380Y-120201333D01*
X191336380Y-120296571D01*
X191288761Y-120439428D01*
X191193523Y-120534666D01*
X191098285Y-120582285D01*
X190907809Y-120629904D01*
X190764952Y-120629904D01*
X190574476Y-120582285D01*
X190479238Y-120534666D01*
X190384000Y-120439428D01*
X190336380Y-120296571D01*
X190336380Y-120201333D01*
X190384000Y-120058476D01*
X190431619Y-120010857D01*
X190431619Y-119629904D02*
X190384000Y-119582285D01*
X190336380Y-119487047D01*
X190336380Y-119248952D01*
X190384000Y-119153714D01*
X190431619Y-119106095D01*
X190526857Y-119058476D01*
X190622095Y-119058476D01*
X190764952Y-119106095D01*
X191336380Y-119677523D01*
X191336380Y-119058476D01*
X190336380Y-118153714D02*
X190336380Y-118629904D01*
X190812571Y-118677523D01*
X190764952Y-118629904D01*
X190717333Y-118534666D01*
X190717333Y-118296571D01*
X190764952Y-118201333D01*
X190812571Y-118153714D01*
X190907809Y-118106095D01*
X191145904Y-118106095D01*
X191241142Y-118153714D01*
X191288761Y-118201333D01*
X191336380Y-118296571D01*
X191336380Y-118534666D01*
X191288761Y-118629904D01*
X191241142Y-118677523D01*
X111661142Y-135026142D02*
X111613523Y-135073761D01*
X111470666Y-135121380D01*
X111375428Y-135121380D01*
X111232571Y-135073761D01*
X111137333Y-134978523D01*
X111089714Y-134883285D01*
X111042095Y-134692809D01*
X111042095Y-134549952D01*
X111089714Y-134359476D01*
X111137333Y-134264238D01*
X111232571Y-134169000D01*
X111375428Y-134121380D01*
X111470666Y-134121380D01*
X111613523Y-134169000D01*
X111661142Y-134216619D01*
X112042095Y-134216619D02*
X112089714Y-134169000D01*
X112184952Y-134121380D01*
X112423047Y-134121380D01*
X112518285Y-134169000D01*
X112565904Y-134216619D01*
X112613523Y-134311857D01*
X112613523Y-134407095D01*
X112565904Y-134549952D01*
X111994476Y-135121380D01*
X112613523Y-135121380D01*
X112946857Y-134121380D02*
X113613523Y-134121380D01*
X113184952Y-135121380D01*
X171327142Y-133645857D02*
X171374761Y-133693476D01*
X171422380Y-133836333D01*
X171422380Y-133931571D01*
X171374761Y-134074428D01*
X171279523Y-134169666D01*
X171184285Y-134217285D01*
X170993809Y-134264904D01*
X170850952Y-134264904D01*
X170660476Y-134217285D01*
X170565238Y-134169666D01*
X170470000Y-134074428D01*
X170422380Y-133931571D01*
X170422380Y-133836333D01*
X170470000Y-133693476D01*
X170517619Y-133645857D01*
X170422380Y-133312523D02*
X170422380Y-132693476D01*
X170803333Y-133026809D01*
X170803333Y-132883952D01*
X170850952Y-132788714D01*
X170898571Y-132741095D01*
X170993809Y-132693476D01*
X171231904Y-132693476D01*
X171327142Y-132741095D01*
X171374761Y-132788714D01*
X171422380Y-132883952D01*
X171422380Y-133169666D01*
X171374761Y-133264904D01*
X171327142Y-133312523D01*
X170422380Y-132074428D02*
X170422380Y-131979190D01*
X170470000Y-131883952D01*
X170517619Y-131836333D01*
X170612857Y-131788714D01*
X170803333Y-131741095D01*
X171041428Y-131741095D01*
X171231904Y-131788714D01*
X171327142Y-131836333D01*
X171374761Y-131883952D01*
X171422380Y-131979190D01*
X171422380Y-132074428D01*
X171374761Y-132169666D01*
X171327142Y-132217285D01*
X171231904Y-132264904D01*
X171041428Y-132312523D01*
X170803333Y-132312523D01*
X170612857Y-132264904D01*
X170517619Y-132217285D01*
X170470000Y-132169666D01*
X170422380Y-132074428D01*
X175146142Y-133709857D02*
X175193761Y-133757476D01*
X175241380Y-133900333D01*
X175241380Y-133995571D01*
X175193761Y-134138428D01*
X175098523Y-134233666D01*
X175003285Y-134281285D01*
X174812809Y-134328904D01*
X174669952Y-134328904D01*
X174479476Y-134281285D01*
X174384238Y-134233666D01*
X174289000Y-134138428D01*
X174241380Y-133995571D01*
X174241380Y-133900333D01*
X174289000Y-133757476D01*
X174336619Y-133709857D01*
X174241380Y-133376523D02*
X174241380Y-132757476D01*
X174622333Y-133090809D01*
X174622333Y-132947952D01*
X174669952Y-132852714D01*
X174717571Y-132805095D01*
X174812809Y-132757476D01*
X175050904Y-132757476D01*
X175146142Y-132805095D01*
X175193761Y-132852714D01*
X175241380Y-132947952D01*
X175241380Y-133233666D01*
X175193761Y-133328904D01*
X175146142Y-133376523D01*
X175241380Y-131805095D02*
X175241380Y-132376523D01*
X175241380Y-132090809D02*
X174241380Y-132090809D01*
X174384238Y-132186047D01*
X174479476Y-132281285D01*
X174527095Y-132376523D01*
X178291142Y-133964857D02*
X178338761Y-134012476D01*
X178386380Y-134155333D01*
X178386380Y-134250571D01*
X178338761Y-134393428D01*
X178243523Y-134488666D01*
X178148285Y-134536285D01*
X177957809Y-134583904D01*
X177814952Y-134583904D01*
X177624476Y-134536285D01*
X177529238Y-134488666D01*
X177434000Y-134393428D01*
X177386380Y-134250571D01*
X177386380Y-134155333D01*
X177434000Y-134012476D01*
X177481619Y-133964857D01*
X177386380Y-133631523D02*
X177386380Y-133012476D01*
X177767333Y-133345809D01*
X177767333Y-133202952D01*
X177814952Y-133107714D01*
X177862571Y-133060095D01*
X177957809Y-133012476D01*
X178195904Y-133012476D01*
X178291142Y-133060095D01*
X178338761Y-133107714D01*
X178386380Y-133202952D01*
X178386380Y-133488666D01*
X178338761Y-133583904D01*
X178291142Y-133631523D01*
X177481619Y-132631523D02*
X177434000Y-132583904D01*
X177386380Y-132488666D01*
X177386380Y-132250571D01*
X177434000Y-132155333D01*
X177481619Y-132107714D01*
X177576857Y-132060095D01*
X177672095Y-132060095D01*
X177814952Y-132107714D01*
X178386380Y-132679142D01*
X178386380Y-132060095D01*
X152353142Y-138526142D02*
X152305523Y-138573761D01*
X152162666Y-138621380D01*
X152067428Y-138621380D01*
X151924571Y-138573761D01*
X151829333Y-138478523D01*
X151781714Y-138383285D01*
X151734095Y-138192809D01*
X151734095Y-138049952D01*
X151781714Y-137859476D01*
X151829333Y-137764238D01*
X151924571Y-137669000D01*
X152067428Y-137621380D01*
X152162666Y-137621380D01*
X152305523Y-137669000D01*
X152353142Y-137716619D01*
X152686476Y-137621380D02*
X153305523Y-137621380D01*
X152972190Y-138002333D01*
X153115047Y-138002333D01*
X153210285Y-138049952D01*
X153257904Y-138097571D01*
X153305523Y-138192809D01*
X153305523Y-138430904D01*
X153257904Y-138526142D01*
X153210285Y-138573761D01*
X153115047Y-138621380D01*
X152829333Y-138621380D01*
X152734095Y-138573761D01*
X152686476Y-138526142D01*
X153638857Y-137621380D02*
X154257904Y-137621380D01*
X153924571Y-138002333D01*
X154067428Y-138002333D01*
X154162666Y-138049952D01*
X154210285Y-138097571D01*
X154257904Y-138192809D01*
X154257904Y-138430904D01*
X154210285Y-138526142D01*
X154162666Y-138573761D01*
X154067428Y-138621380D01*
X153781714Y-138621380D01*
X153686476Y-138573761D01*
X153638857Y-138526142D01*
X121161142Y-142879857D02*
X121208761Y-142927476D01*
X121256380Y-143070333D01*
X121256380Y-143165571D01*
X121208761Y-143308428D01*
X121113523Y-143403666D01*
X121018285Y-143451285D01*
X120827809Y-143498904D01*
X120684952Y-143498904D01*
X120494476Y-143451285D01*
X120399238Y-143403666D01*
X120304000Y-143308428D01*
X120256380Y-143165571D01*
X120256380Y-143070333D01*
X120304000Y-142927476D01*
X120351619Y-142879857D01*
X120256380Y-142546523D02*
X120256380Y-141927476D01*
X120637333Y-142260809D01*
X120637333Y-142117952D01*
X120684952Y-142022714D01*
X120732571Y-141975095D01*
X120827809Y-141927476D01*
X121065904Y-141927476D01*
X121161142Y-141975095D01*
X121208761Y-142022714D01*
X121256380Y-142117952D01*
X121256380Y-142403666D01*
X121208761Y-142498904D01*
X121161142Y-142546523D01*
X120589714Y-141070333D02*
X121256380Y-141070333D01*
X120208761Y-141308428D02*
X120923047Y-141546523D01*
X120923047Y-140927476D01*
X132962142Y-143018857D02*
X133009761Y-143066476D01*
X133057380Y-143209333D01*
X133057380Y-143304571D01*
X133009761Y-143447428D01*
X132914523Y-143542666D01*
X132819285Y-143590285D01*
X132628809Y-143637904D01*
X132485952Y-143637904D01*
X132295476Y-143590285D01*
X132200238Y-143542666D01*
X132105000Y-143447428D01*
X132057380Y-143304571D01*
X132057380Y-143209333D01*
X132105000Y-143066476D01*
X132152619Y-143018857D01*
X132057380Y-142685523D02*
X132057380Y-142066476D01*
X132438333Y-142399809D01*
X132438333Y-142256952D01*
X132485952Y-142161714D01*
X132533571Y-142114095D01*
X132628809Y-142066476D01*
X132866904Y-142066476D01*
X132962142Y-142114095D01*
X133009761Y-142161714D01*
X133057380Y-142256952D01*
X133057380Y-142542666D01*
X133009761Y-142637904D01*
X132962142Y-142685523D01*
X132057380Y-141161714D02*
X132057380Y-141637904D01*
X132533571Y-141685523D01*
X132485952Y-141637904D01*
X132438333Y-141542666D01*
X132438333Y-141304571D01*
X132485952Y-141209333D01*
X132533571Y-141161714D01*
X132628809Y-141114095D01*
X132866904Y-141114095D01*
X132962142Y-141161714D01*
X133009761Y-141209333D01*
X133057380Y-141304571D01*
X133057380Y-141542666D01*
X133009761Y-141637904D01*
X132962142Y-141685523D01*
X152847142Y-148720142D02*
X152799523Y-148767761D01*
X152656666Y-148815380D01*
X152561428Y-148815380D01*
X152418571Y-148767761D01*
X152323333Y-148672523D01*
X152275714Y-148577285D01*
X152228095Y-148386809D01*
X152228095Y-148243952D01*
X152275714Y-148053476D01*
X152323333Y-147958238D01*
X152418571Y-147863000D01*
X152561428Y-147815380D01*
X152656666Y-147815380D01*
X152799523Y-147863000D01*
X152847142Y-147910619D01*
X153180476Y-147815380D02*
X153799523Y-147815380D01*
X153466190Y-148196333D01*
X153609047Y-148196333D01*
X153704285Y-148243952D01*
X153751904Y-148291571D01*
X153799523Y-148386809D01*
X153799523Y-148624904D01*
X153751904Y-148720142D01*
X153704285Y-148767761D01*
X153609047Y-148815380D01*
X153323333Y-148815380D01*
X153228095Y-148767761D01*
X153180476Y-148720142D01*
X154132857Y-147815380D02*
X154799523Y-147815380D01*
X154370952Y-148815380D01*
X167574904Y-137135380D02*
X167574904Y-136135380D01*
X167813000Y-136135380D01*
X167955857Y-136183000D01*
X168051095Y-136278238D01*
X168098714Y-136373476D01*
X168146333Y-136563952D01*
X168146333Y-136706809D01*
X168098714Y-136897285D01*
X168051095Y-136992523D01*
X167955857Y-137087761D01*
X167813000Y-137135380D01*
X167574904Y-137135380D01*
X169003476Y-136135380D02*
X168813000Y-136135380D01*
X168717761Y-136183000D01*
X168670142Y-136230619D01*
X168574904Y-136373476D01*
X168527285Y-136563952D01*
X168527285Y-136944904D01*
X168574904Y-137040142D01*
X168622523Y-137087761D01*
X168717761Y-137135380D01*
X168908238Y-137135380D01*
X169003476Y-137087761D01*
X169051095Y-137040142D01*
X169098714Y-136944904D01*
X169098714Y-136706809D01*
X169051095Y-136611571D01*
X169003476Y-136563952D01*
X168908238Y-136516333D01*
X168717761Y-136516333D01*
X168622523Y-136563952D01*
X168574904Y-136611571D01*
X168527285Y-136706809D01*
X113519380Y-147121333D02*
X114233666Y-147121333D01*
X114376523Y-147168952D01*
X114471761Y-147264190D01*
X114519380Y-147407047D01*
X114519380Y-147502285D01*
X113519380Y-146740380D02*
X113519380Y-146121333D01*
X113900333Y-146454666D01*
X113900333Y-146311809D01*
X113947952Y-146216571D01*
X113995571Y-146168952D01*
X114090809Y-146121333D01*
X114328904Y-146121333D01*
X114424142Y-146168952D01*
X114471761Y-146216571D01*
X114519380Y-146311809D01*
X114519380Y-146597523D01*
X114471761Y-146692761D01*
X114424142Y-146740380D01*
X125580380Y-136901333D02*
X126294666Y-136901333D01*
X126437523Y-136948952D01*
X126532761Y-137044190D01*
X126580380Y-137187047D01*
X126580380Y-137282285D01*
X125913714Y-135996571D02*
X126580380Y-135996571D01*
X125532761Y-136234666D02*
X126247047Y-136472761D01*
X126247047Y-135853714D01*
X104736333Y-96627380D02*
X104260142Y-96627380D01*
X104260142Y-95627380D01*
X105593476Y-96627380D02*
X105022047Y-96627380D01*
X105307761Y-96627380D02*
X105307761Y-95627380D01*
X105212523Y-95770238D01*
X105117285Y-95865476D01*
X105022047Y-95913095D01*
X177819333Y-94111380D02*
X177343142Y-94111380D01*
X177343142Y-93111380D01*
X178057428Y-93111380D02*
X178676476Y-93111380D01*
X178343142Y-93492333D01*
X178486000Y-93492333D01*
X178581238Y-93539952D01*
X178628857Y-93587571D01*
X178676476Y-93682809D01*
X178676476Y-93920904D01*
X178628857Y-94016142D01*
X178581238Y-94063761D01*
X178486000Y-94111380D01*
X178200285Y-94111380D01*
X178105047Y-94063761D01*
X178057428Y-94016142D01*
X177894333Y-126366380D02*
X177418142Y-126366380D01*
X177418142Y-125366380D01*
X178656238Y-125699714D02*
X178656238Y-126366380D01*
X178418142Y-125318761D02*
X178180047Y-126033047D01*
X178799095Y-126033047D01*
X114014380Y-69409666D02*
X113538190Y-69743000D01*
X114014380Y-69981095D02*
X113014380Y-69981095D01*
X113014380Y-69600142D01*
X113062000Y-69504904D01*
X113109619Y-69457285D01*
X113204857Y-69409666D01*
X113347714Y-69409666D01*
X113442952Y-69457285D01*
X113490571Y-69504904D01*
X113538190Y-69600142D01*
X113538190Y-69981095D01*
X114014380Y-68457285D02*
X114014380Y-69028714D01*
X114014380Y-68743000D02*
X113014380Y-68743000D01*
X113157238Y-68838238D01*
X113252476Y-68933476D01*
X113300095Y-69028714D01*
X104403333Y-87553380D02*
X104070000Y-87077190D01*
X103831904Y-87553380D02*
X103831904Y-86553380D01*
X104212857Y-86553380D01*
X104308095Y-86601000D01*
X104355714Y-86648619D01*
X104403333Y-86743857D01*
X104403333Y-86886714D01*
X104355714Y-86981952D01*
X104308095Y-87029571D01*
X104212857Y-87077190D01*
X103831904Y-87077190D01*
X104784285Y-86648619D02*
X104831904Y-86601000D01*
X104927142Y-86553380D01*
X105165238Y-86553380D01*
X105260476Y-86601000D01*
X105308095Y-86648619D01*
X105355714Y-86743857D01*
X105355714Y-86839095D01*
X105308095Y-86981952D01*
X104736666Y-87553380D01*
X105355714Y-87553380D01*
X113653333Y-76689380D02*
X113320000Y-76213190D01*
X113081904Y-76689380D02*
X113081904Y-75689380D01*
X113462857Y-75689380D01*
X113558095Y-75737000D01*
X113605714Y-75784619D01*
X113653333Y-75879857D01*
X113653333Y-76022714D01*
X113605714Y-76117952D01*
X113558095Y-76165571D01*
X113462857Y-76213190D01*
X113081904Y-76213190D01*
X113986666Y-75689380D02*
X114605714Y-75689380D01*
X114272380Y-76070333D01*
X114415238Y-76070333D01*
X114510476Y-76117952D01*
X114558095Y-76165571D01*
X114605714Y-76260809D01*
X114605714Y-76498904D01*
X114558095Y-76594142D01*
X114510476Y-76641761D01*
X114415238Y-76689380D01*
X114129523Y-76689380D01*
X114034285Y-76641761D01*
X113986666Y-76594142D01*
X113340333Y-78888380D02*
X113007000Y-78412190D01*
X112768904Y-78888380D02*
X112768904Y-77888380D01*
X113149857Y-77888380D01*
X113245095Y-77936000D01*
X113292714Y-77983619D01*
X113340333Y-78078857D01*
X113340333Y-78221714D01*
X113292714Y-78316952D01*
X113245095Y-78364571D01*
X113149857Y-78412190D01*
X112768904Y-78412190D01*
X114197476Y-78221714D02*
X114197476Y-78888380D01*
X113959380Y-77840761D02*
X113721285Y-78555047D01*
X114340333Y-78555047D01*
X113223333Y-80623380D02*
X112890000Y-80147190D01*
X112651904Y-80623380D02*
X112651904Y-79623380D01*
X113032857Y-79623380D01*
X113128095Y-79671000D01*
X113175714Y-79718619D01*
X113223333Y-79813857D01*
X113223333Y-79956714D01*
X113175714Y-80051952D01*
X113128095Y-80099571D01*
X113032857Y-80147190D01*
X112651904Y-80147190D01*
X114128095Y-79623380D02*
X113651904Y-79623380D01*
X113604285Y-80099571D01*
X113651904Y-80051952D01*
X113747142Y-80004333D01*
X113985238Y-80004333D01*
X114080476Y-80051952D01*
X114128095Y-80099571D01*
X114175714Y-80194809D01*
X114175714Y-80432904D01*
X114128095Y-80528142D01*
X114080476Y-80575761D01*
X113985238Y-80623380D01*
X113747142Y-80623380D01*
X113651904Y-80575761D01*
X113604285Y-80528142D01*
X119064380Y-86970666D02*
X118588190Y-87304000D01*
X119064380Y-87542095D02*
X118064380Y-87542095D01*
X118064380Y-87161142D01*
X118112000Y-87065904D01*
X118159619Y-87018285D01*
X118254857Y-86970666D01*
X118397714Y-86970666D01*
X118492952Y-87018285D01*
X118540571Y-87065904D01*
X118588190Y-87161142D01*
X118588190Y-87542095D01*
X118064380Y-86113523D02*
X118064380Y-86304000D01*
X118112000Y-86399238D01*
X118159619Y-86446857D01*
X118302476Y-86542095D01*
X118492952Y-86589714D01*
X118873904Y-86589714D01*
X118969142Y-86542095D01*
X119016761Y-86494476D01*
X119064380Y-86399238D01*
X119064380Y-86208761D01*
X119016761Y-86113523D01*
X118969142Y-86065904D01*
X118873904Y-86018285D01*
X118635809Y-86018285D01*
X118540571Y-86065904D01*
X118492952Y-86113523D01*
X118445333Y-86208761D01*
X118445333Y-86399238D01*
X118492952Y-86494476D01*
X118540571Y-86542095D01*
X118635809Y-86589714D01*
X116285380Y-87193666D02*
X115809190Y-87527000D01*
X116285380Y-87765095D02*
X115285380Y-87765095D01*
X115285380Y-87384142D01*
X115333000Y-87288904D01*
X115380619Y-87241285D01*
X115475857Y-87193666D01*
X115618714Y-87193666D01*
X115713952Y-87241285D01*
X115761571Y-87288904D01*
X115809190Y-87384142D01*
X115809190Y-87765095D01*
X115285380Y-86860333D02*
X115285380Y-86193666D01*
X116285380Y-86622238D01*
X113171380Y-96034666D02*
X112695190Y-96368000D01*
X113171380Y-96606095D02*
X112171380Y-96606095D01*
X112171380Y-96225142D01*
X112219000Y-96129904D01*
X112266619Y-96082285D01*
X112361857Y-96034666D01*
X112504714Y-96034666D01*
X112599952Y-96082285D01*
X112647571Y-96129904D01*
X112695190Y-96225142D01*
X112695190Y-96606095D01*
X112599952Y-95463238D02*
X112552333Y-95558476D01*
X112504714Y-95606095D01*
X112409476Y-95653714D01*
X112361857Y-95653714D01*
X112266619Y-95606095D01*
X112219000Y-95558476D01*
X112171380Y-95463238D01*
X112171380Y-95272761D01*
X112219000Y-95177523D01*
X112266619Y-95129904D01*
X112361857Y-95082285D01*
X112409476Y-95082285D01*
X112504714Y-95129904D01*
X112552333Y-95177523D01*
X112599952Y-95272761D01*
X112599952Y-95463238D01*
X112647571Y-95558476D01*
X112695190Y-95606095D01*
X112790428Y-95653714D01*
X112980904Y-95653714D01*
X113076142Y-95606095D01*
X113123761Y-95558476D01*
X113171380Y-95463238D01*
X113171380Y-95272761D01*
X113123761Y-95177523D01*
X113076142Y-95129904D01*
X112980904Y-95082285D01*
X112790428Y-95082285D01*
X112695190Y-95129904D01*
X112647571Y-95177523D01*
X112599952Y-95272761D01*
X114225333Y-84403380D02*
X113892000Y-83927190D01*
X113653904Y-84403380D02*
X113653904Y-83403380D01*
X114034857Y-83403380D01*
X114130095Y-83451000D01*
X114177714Y-83498619D01*
X114225333Y-83593857D01*
X114225333Y-83736714D01*
X114177714Y-83831952D01*
X114130095Y-83879571D01*
X114034857Y-83927190D01*
X113653904Y-83927190D01*
X114701523Y-84403380D02*
X114892000Y-84403380D01*
X114987238Y-84355761D01*
X115034857Y-84308142D01*
X115130095Y-84165285D01*
X115177714Y-83974809D01*
X115177714Y-83593857D01*
X115130095Y-83498619D01*
X115082476Y-83451000D01*
X114987238Y-83403380D01*
X114796761Y-83403380D01*
X114701523Y-83451000D01*
X114653904Y-83498619D01*
X114606285Y-83593857D01*
X114606285Y-83831952D01*
X114653904Y-83927190D01*
X114701523Y-83974809D01*
X114796761Y-84022428D01*
X114987238Y-84022428D01*
X115082476Y-83974809D01*
X115130095Y-83927190D01*
X115177714Y-83831952D01*
X109713142Y-110208380D02*
X109379809Y-109732190D01*
X109141714Y-110208380D02*
X109141714Y-109208380D01*
X109522666Y-109208380D01*
X109617904Y-109256000D01*
X109665523Y-109303619D01*
X109713142Y-109398857D01*
X109713142Y-109541714D01*
X109665523Y-109636952D01*
X109617904Y-109684571D01*
X109522666Y-109732190D01*
X109141714Y-109732190D01*
X110665523Y-110208380D02*
X110094095Y-110208380D01*
X110379809Y-110208380D02*
X110379809Y-109208380D01*
X110284571Y-109351238D01*
X110189333Y-109446476D01*
X110094095Y-109494095D01*
X111284571Y-109208380D02*
X111379809Y-109208380D01*
X111475047Y-109256000D01*
X111522666Y-109303619D01*
X111570285Y-109398857D01*
X111617904Y-109589333D01*
X111617904Y-109827428D01*
X111570285Y-110017904D01*
X111522666Y-110113142D01*
X111475047Y-110160761D01*
X111379809Y-110208380D01*
X111284571Y-110208380D01*
X111189333Y-110160761D01*
X111141714Y-110113142D01*
X111094095Y-110017904D01*
X111046476Y-109827428D01*
X111046476Y-109589333D01*
X111094095Y-109398857D01*
X111141714Y-109303619D01*
X111189333Y-109256000D01*
X111284571Y-109208380D01*
X114071380Y-101459857D02*
X113595190Y-101793190D01*
X114071380Y-102031285D02*
X113071380Y-102031285D01*
X113071380Y-101650333D01*
X113119000Y-101555095D01*
X113166619Y-101507476D01*
X113261857Y-101459857D01*
X113404714Y-101459857D01*
X113499952Y-101507476D01*
X113547571Y-101555095D01*
X113595190Y-101650333D01*
X113595190Y-102031285D01*
X114071380Y-100507476D02*
X114071380Y-101078904D01*
X114071380Y-100793190D02*
X113071380Y-100793190D01*
X113214238Y-100888428D01*
X113309476Y-100983666D01*
X113357095Y-101078904D01*
X114071380Y-99555095D02*
X114071380Y-100126523D01*
X114071380Y-99840809D02*
X113071380Y-99840809D01*
X113214238Y-99936047D01*
X113309476Y-100031285D01*
X113357095Y-100126523D01*
X118040380Y-98125857D02*
X117564190Y-98459190D01*
X118040380Y-98697285D02*
X117040380Y-98697285D01*
X117040380Y-98316333D01*
X117088000Y-98221095D01*
X117135619Y-98173476D01*
X117230857Y-98125857D01*
X117373714Y-98125857D01*
X117468952Y-98173476D01*
X117516571Y-98221095D01*
X117564190Y-98316333D01*
X117564190Y-98697285D01*
X118040380Y-97173476D02*
X118040380Y-97744904D01*
X118040380Y-97459190D02*
X117040380Y-97459190D01*
X117183238Y-97554428D01*
X117278476Y-97649666D01*
X117326095Y-97744904D01*
X117135619Y-96792523D02*
X117088000Y-96744904D01*
X117040380Y-96649666D01*
X117040380Y-96411571D01*
X117088000Y-96316333D01*
X117135619Y-96268714D01*
X117230857Y-96221095D01*
X117326095Y-96221095D01*
X117468952Y-96268714D01*
X118040380Y-96840142D01*
X118040380Y-96221095D01*
X113168142Y-110424380D02*
X112834809Y-109948190D01*
X112596714Y-110424380D02*
X112596714Y-109424380D01*
X112977666Y-109424380D01*
X113072904Y-109472000D01*
X113120523Y-109519619D01*
X113168142Y-109614857D01*
X113168142Y-109757714D01*
X113120523Y-109852952D01*
X113072904Y-109900571D01*
X112977666Y-109948190D01*
X112596714Y-109948190D01*
X114120523Y-110424380D02*
X113549095Y-110424380D01*
X113834809Y-110424380D02*
X113834809Y-109424380D01*
X113739571Y-109567238D01*
X113644333Y-109662476D01*
X113549095Y-109710095D01*
X114453857Y-109424380D02*
X115072904Y-109424380D01*
X114739571Y-109805333D01*
X114882428Y-109805333D01*
X114977666Y-109852952D01*
X115025285Y-109900571D01*
X115072904Y-109995809D01*
X115072904Y-110233904D01*
X115025285Y-110329142D01*
X114977666Y-110376761D01*
X114882428Y-110424380D01*
X114596714Y-110424380D01*
X114501476Y-110376761D01*
X114453857Y-110329142D01*
X118883380Y-120602857D02*
X118407190Y-120936190D01*
X118883380Y-121174285D02*
X117883380Y-121174285D01*
X117883380Y-120793333D01*
X117931000Y-120698095D01*
X117978619Y-120650476D01*
X118073857Y-120602857D01*
X118216714Y-120602857D01*
X118311952Y-120650476D01*
X118359571Y-120698095D01*
X118407190Y-120793333D01*
X118407190Y-121174285D01*
X118883380Y-119650476D02*
X118883380Y-120221904D01*
X118883380Y-119936190D02*
X117883380Y-119936190D01*
X118026238Y-120031428D01*
X118121476Y-120126666D01*
X118169095Y-120221904D01*
X118216714Y-118793333D02*
X118883380Y-118793333D01*
X117835761Y-119031428D02*
X118550047Y-119269523D01*
X118550047Y-118650476D01*
X113288142Y-112727380D02*
X112954809Y-112251190D01*
X112716714Y-112727380D02*
X112716714Y-111727380D01*
X113097666Y-111727380D01*
X113192904Y-111775000D01*
X113240523Y-111822619D01*
X113288142Y-111917857D01*
X113288142Y-112060714D01*
X113240523Y-112155952D01*
X113192904Y-112203571D01*
X113097666Y-112251190D01*
X112716714Y-112251190D01*
X114240523Y-112727380D02*
X113669095Y-112727380D01*
X113954809Y-112727380D02*
X113954809Y-111727380D01*
X113859571Y-111870238D01*
X113764333Y-111965476D01*
X113669095Y-112013095D01*
X115145285Y-111727380D02*
X114669095Y-111727380D01*
X114621476Y-112203571D01*
X114669095Y-112155952D01*
X114764333Y-112108333D01*
X115002428Y-112108333D01*
X115097666Y-112155952D01*
X115145285Y-112203571D01*
X115192904Y-112298809D01*
X115192904Y-112536904D01*
X115145285Y-112632142D01*
X115097666Y-112679761D01*
X115002428Y-112727380D01*
X114764333Y-112727380D01*
X114669095Y-112679761D01*
X114621476Y-112632142D01*
X112270380Y-119994857D02*
X111794190Y-120328190D01*
X112270380Y-120566285D02*
X111270380Y-120566285D01*
X111270380Y-120185333D01*
X111318000Y-120090095D01*
X111365619Y-120042476D01*
X111460857Y-119994857D01*
X111603714Y-119994857D01*
X111698952Y-120042476D01*
X111746571Y-120090095D01*
X111794190Y-120185333D01*
X111794190Y-120566285D01*
X112270380Y-119042476D02*
X112270380Y-119613904D01*
X112270380Y-119328190D02*
X111270380Y-119328190D01*
X111413238Y-119423428D01*
X111508476Y-119518666D01*
X111556095Y-119613904D01*
X111270380Y-118185333D02*
X111270380Y-118375809D01*
X111318000Y-118471047D01*
X111365619Y-118518666D01*
X111508476Y-118613904D01*
X111698952Y-118661523D01*
X112079904Y-118661523D01*
X112175142Y-118613904D01*
X112222761Y-118566285D01*
X112270380Y-118471047D01*
X112270380Y-118280571D01*
X112222761Y-118185333D01*
X112175142Y-118137714D01*
X112079904Y-118090095D01*
X111841809Y-118090095D01*
X111746571Y-118137714D01*
X111698952Y-118185333D01*
X111651333Y-118280571D01*
X111651333Y-118471047D01*
X111698952Y-118566285D01*
X111746571Y-118613904D01*
X111841809Y-118661523D01*
X115007380Y-108118857D02*
X114531190Y-108452190D01*
X115007380Y-108690285D02*
X114007380Y-108690285D01*
X114007380Y-108309333D01*
X114055000Y-108214095D01*
X114102619Y-108166476D01*
X114197857Y-108118857D01*
X114340714Y-108118857D01*
X114435952Y-108166476D01*
X114483571Y-108214095D01*
X114531190Y-108309333D01*
X114531190Y-108690285D01*
X115007380Y-107166476D02*
X115007380Y-107737904D01*
X115007380Y-107452190D02*
X114007380Y-107452190D01*
X114150238Y-107547428D01*
X114245476Y-107642666D01*
X114293095Y-107737904D01*
X114007380Y-106833142D02*
X114007380Y-106166476D01*
X115007380Y-106595047D01*
X171087380Y-116600857D02*
X170611190Y-116934190D01*
X171087380Y-117172285D02*
X170087380Y-117172285D01*
X170087380Y-116791333D01*
X170135000Y-116696095D01*
X170182619Y-116648476D01*
X170277857Y-116600857D01*
X170420714Y-116600857D01*
X170515952Y-116648476D01*
X170563571Y-116696095D01*
X170611190Y-116791333D01*
X170611190Y-117172285D01*
X171087380Y-115648476D02*
X171087380Y-116219904D01*
X171087380Y-115934190D02*
X170087380Y-115934190D01*
X170230238Y-116029428D01*
X170325476Y-116124666D01*
X170373095Y-116219904D01*
X170515952Y-115077047D02*
X170468333Y-115172285D01*
X170420714Y-115219904D01*
X170325476Y-115267523D01*
X170277857Y-115267523D01*
X170182619Y-115219904D01*
X170135000Y-115172285D01*
X170087380Y-115077047D01*
X170087380Y-114886571D01*
X170135000Y-114791333D01*
X170182619Y-114743714D01*
X170277857Y-114696095D01*
X170325476Y-114696095D01*
X170420714Y-114743714D01*
X170468333Y-114791333D01*
X170515952Y-114886571D01*
X170515952Y-115077047D01*
X170563571Y-115172285D01*
X170611190Y-115219904D01*
X170706428Y-115267523D01*
X170896904Y-115267523D01*
X170992142Y-115219904D01*
X171039761Y-115172285D01*
X171087380Y-115077047D01*
X171087380Y-114886571D01*
X171039761Y-114791333D01*
X170992142Y-114743714D01*
X170896904Y-114696095D01*
X170706428Y-114696095D01*
X170611190Y-114743714D01*
X170563571Y-114791333D01*
X170515952Y-114886571D01*
X173408380Y-116636857D02*
X172932190Y-116970190D01*
X173408380Y-117208285D02*
X172408380Y-117208285D01*
X172408380Y-116827333D01*
X172456000Y-116732095D01*
X172503619Y-116684476D01*
X172598857Y-116636857D01*
X172741714Y-116636857D01*
X172836952Y-116684476D01*
X172884571Y-116732095D01*
X172932190Y-116827333D01*
X172932190Y-117208285D01*
X173408380Y-115684476D02*
X173408380Y-116255904D01*
X173408380Y-115970190D02*
X172408380Y-115970190D01*
X172551238Y-116065428D01*
X172646476Y-116160666D01*
X172694095Y-116255904D01*
X173408380Y-115208285D02*
X173408380Y-115017809D01*
X173360761Y-114922571D01*
X173313142Y-114874952D01*
X173170285Y-114779714D01*
X172979809Y-114732095D01*
X172598857Y-114732095D01*
X172503619Y-114779714D01*
X172456000Y-114827333D01*
X172408380Y-114922571D01*
X172408380Y-115113047D01*
X172456000Y-115208285D01*
X172503619Y-115255904D01*
X172598857Y-115303523D01*
X172836952Y-115303523D01*
X172932190Y-115255904D01*
X172979809Y-115208285D01*
X173027428Y-115113047D01*
X173027428Y-114922571D01*
X172979809Y-114827333D01*
X172932190Y-114779714D01*
X172836952Y-114732095D01*
X175433380Y-117376857D02*
X174957190Y-117710190D01*
X175433380Y-117948285D02*
X174433380Y-117948285D01*
X174433380Y-117567333D01*
X174481000Y-117472095D01*
X174528619Y-117424476D01*
X174623857Y-117376857D01*
X174766714Y-117376857D01*
X174861952Y-117424476D01*
X174909571Y-117472095D01*
X174957190Y-117567333D01*
X174957190Y-117948285D01*
X174528619Y-116995904D02*
X174481000Y-116948285D01*
X174433380Y-116853047D01*
X174433380Y-116614952D01*
X174481000Y-116519714D01*
X174528619Y-116472095D01*
X174623857Y-116424476D01*
X174719095Y-116424476D01*
X174861952Y-116472095D01*
X175433380Y-117043523D01*
X175433380Y-116424476D01*
X174433380Y-115805428D02*
X174433380Y-115710190D01*
X174481000Y-115614952D01*
X174528619Y-115567333D01*
X174623857Y-115519714D01*
X174814333Y-115472095D01*
X175052428Y-115472095D01*
X175242904Y-115519714D01*
X175338142Y-115567333D01*
X175385761Y-115614952D01*
X175433380Y-115710190D01*
X175433380Y-115805428D01*
X175385761Y-115900666D01*
X175338142Y-115948285D01*
X175242904Y-115995904D01*
X175052428Y-116043523D01*
X174814333Y-116043523D01*
X174623857Y-115995904D01*
X174528619Y-115948285D01*
X174481000Y-115900666D01*
X174433380Y-115805428D01*
X115114380Y-125781857D02*
X114638190Y-126115190D01*
X115114380Y-126353285D02*
X114114380Y-126353285D01*
X114114380Y-125972333D01*
X114162000Y-125877095D01*
X114209619Y-125829476D01*
X114304857Y-125781857D01*
X114447714Y-125781857D01*
X114542952Y-125829476D01*
X114590571Y-125877095D01*
X114638190Y-125972333D01*
X114638190Y-126353285D01*
X114209619Y-125400904D02*
X114162000Y-125353285D01*
X114114380Y-125258047D01*
X114114380Y-125019952D01*
X114162000Y-124924714D01*
X114209619Y-124877095D01*
X114304857Y-124829476D01*
X114400095Y-124829476D01*
X114542952Y-124877095D01*
X115114380Y-125448523D01*
X115114380Y-124829476D01*
X115114380Y-123877095D02*
X115114380Y-124448523D01*
X115114380Y-124162809D02*
X114114380Y-124162809D01*
X114257238Y-124258047D01*
X114352476Y-124353285D01*
X114400095Y-124448523D01*
X111805142Y-123508380D02*
X111471809Y-123032190D01*
X111233714Y-123508380D02*
X111233714Y-122508380D01*
X111614666Y-122508380D01*
X111709904Y-122556000D01*
X111757523Y-122603619D01*
X111805142Y-122698857D01*
X111805142Y-122841714D01*
X111757523Y-122936952D01*
X111709904Y-122984571D01*
X111614666Y-123032190D01*
X111233714Y-123032190D01*
X112186095Y-122603619D02*
X112233714Y-122556000D01*
X112328952Y-122508380D01*
X112567047Y-122508380D01*
X112662285Y-122556000D01*
X112709904Y-122603619D01*
X112757523Y-122698857D01*
X112757523Y-122794095D01*
X112709904Y-122936952D01*
X112138476Y-123508380D01*
X112757523Y-123508380D01*
X113138476Y-122603619D02*
X113186095Y-122556000D01*
X113281333Y-122508380D01*
X113519428Y-122508380D01*
X113614666Y-122556000D01*
X113662285Y-122603619D01*
X113709904Y-122698857D01*
X113709904Y-122794095D01*
X113662285Y-122936952D01*
X113090857Y-123508380D01*
X113709904Y-123508380D01*
X185886380Y-132009857D02*
X185410190Y-132343190D01*
X185886380Y-132581285D02*
X184886380Y-132581285D01*
X184886380Y-132200333D01*
X184934000Y-132105095D01*
X184981619Y-132057476D01*
X185076857Y-132009857D01*
X185219714Y-132009857D01*
X185314952Y-132057476D01*
X185362571Y-132105095D01*
X185410190Y-132200333D01*
X185410190Y-132581285D01*
X184981619Y-131628904D02*
X184934000Y-131581285D01*
X184886380Y-131486047D01*
X184886380Y-131247952D01*
X184934000Y-131152714D01*
X184981619Y-131105095D01*
X185076857Y-131057476D01*
X185172095Y-131057476D01*
X185314952Y-131105095D01*
X185886380Y-131676523D01*
X185886380Y-131057476D01*
X184886380Y-130724142D02*
X184886380Y-130105095D01*
X185267333Y-130438428D01*
X185267333Y-130295571D01*
X185314952Y-130200333D01*
X185362571Y-130152714D01*
X185457809Y-130105095D01*
X185695904Y-130105095D01*
X185791142Y-130152714D01*
X185838761Y-130200333D01*
X185886380Y-130295571D01*
X185886380Y-130581285D01*
X185838761Y-130676523D01*
X185791142Y-130724142D01*
X191993380Y-131980857D02*
X191517190Y-132314190D01*
X191993380Y-132552285D02*
X190993380Y-132552285D01*
X190993380Y-132171333D01*
X191041000Y-132076095D01*
X191088619Y-132028476D01*
X191183857Y-131980857D01*
X191326714Y-131980857D01*
X191421952Y-132028476D01*
X191469571Y-132076095D01*
X191517190Y-132171333D01*
X191517190Y-132552285D01*
X191088619Y-131599904D02*
X191041000Y-131552285D01*
X190993380Y-131457047D01*
X190993380Y-131218952D01*
X191041000Y-131123714D01*
X191088619Y-131076095D01*
X191183857Y-131028476D01*
X191279095Y-131028476D01*
X191421952Y-131076095D01*
X191993380Y-131647523D01*
X191993380Y-131028476D01*
X191326714Y-130171333D02*
X191993380Y-130171333D01*
X190945761Y-130409428D02*
X191660047Y-130647523D01*
X191660047Y-130028476D01*
X122530142Y-138871380D02*
X122196809Y-138395190D01*
X121958714Y-138871380D02*
X121958714Y-137871380D01*
X122339666Y-137871380D01*
X122434904Y-137919000D01*
X122482523Y-137966619D01*
X122530142Y-138061857D01*
X122530142Y-138204714D01*
X122482523Y-138299952D01*
X122434904Y-138347571D01*
X122339666Y-138395190D01*
X121958714Y-138395190D01*
X122911095Y-137966619D02*
X122958714Y-137919000D01*
X123053952Y-137871380D01*
X123292047Y-137871380D01*
X123387285Y-137919000D01*
X123434904Y-137966619D01*
X123482523Y-138061857D01*
X123482523Y-138157095D01*
X123434904Y-138299952D01*
X122863476Y-138871380D01*
X123482523Y-138871380D01*
X124387285Y-137871380D02*
X123911095Y-137871380D01*
X123863476Y-138347571D01*
X123911095Y-138299952D01*
X124006333Y-138252333D01*
X124244428Y-138252333D01*
X124339666Y-138299952D01*
X124387285Y-138347571D01*
X124434904Y-138442809D01*
X124434904Y-138680904D01*
X124387285Y-138776142D01*
X124339666Y-138823761D01*
X124244428Y-138871380D01*
X124006333Y-138871380D01*
X123911095Y-138823761D01*
X123863476Y-138776142D01*
X145450142Y-138090380D02*
X145116809Y-137614190D01*
X144878714Y-138090380D02*
X144878714Y-137090380D01*
X145259666Y-137090380D01*
X145354904Y-137138000D01*
X145402523Y-137185619D01*
X145450142Y-137280857D01*
X145450142Y-137423714D01*
X145402523Y-137518952D01*
X145354904Y-137566571D01*
X145259666Y-137614190D01*
X144878714Y-137614190D01*
X145831095Y-137185619D02*
X145878714Y-137138000D01*
X145973952Y-137090380D01*
X146212047Y-137090380D01*
X146307285Y-137138000D01*
X146354904Y-137185619D01*
X146402523Y-137280857D01*
X146402523Y-137376095D01*
X146354904Y-137518952D01*
X145783476Y-138090380D01*
X146402523Y-138090380D01*
X147259666Y-137090380D02*
X147069190Y-137090380D01*
X146973952Y-137138000D01*
X146926333Y-137185619D01*
X146831095Y-137328476D01*
X146783476Y-137518952D01*
X146783476Y-137899904D01*
X146831095Y-137995142D01*
X146878714Y-138042761D01*
X146973952Y-138090380D01*
X147164428Y-138090380D01*
X147259666Y-138042761D01*
X147307285Y-137995142D01*
X147354904Y-137899904D01*
X147354904Y-137661809D01*
X147307285Y-137566571D01*
X147259666Y-137518952D01*
X147164428Y-137471333D01*
X146973952Y-137471333D01*
X146878714Y-137518952D01*
X146831095Y-137566571D01*
X146783476Y-137661809D01*
X140399380Y-144806857D02*
X139923190Y-145140190D01*
X140399380Y-145378285D02*
X139399380Y-145378285D01*
X139399380Y-144997333D01*
X139447000Y-144902095D01*
X139494619Y-144854476D01*
X139589857Y-144806857D01*
X139732714Y-144806857D01*
X139827952Y-144854476D01*
X139875571Y-144902095D01*
X139923190Y-144997333D01*
X139923190Y-145378285D01*
X139494619Y-144425904D02*
X139447000Y-144378285D01*
X139399380Y-144283047D01*
X139399380Y-144044952D01*
X139447000Y-143949714D01*
X139494619Y-143902095D01*
X139589857Y-143854476D01*
X139685095Y-143854476D01*
X139827952Y-143902095D01*
X140399380Y-144473523D01*
X140399380Y-143854476D01*
X139399380Y-143521142D02*
X139399380Y-142854476D01*
X140399380Y-143283047D01*
X140798095Y-135421380D02*
X141369523Y-135421380D01*
X141083809Y-136421380D02*
X141083809Y-135421380D01*
X142131428Y-135754714D02*
X142131428Y-136421380D01*
X141893333Y-135373761D02*
X141655238Y-136088047D01*
X142274285Y-136088047D01*
X122338095Y-139152380D02*
X122338095Y-139961904D01*
X122385714Y-140057142D01*
X122433333Y-140104761D01*
X122528571Y-140152380D01*
X122719047Y-140152380D01*
X122814285Y-140104761D01*
X122861904Y-140057142D01*
X122909523Y-139961904D01*
X122909523Y-139152380D01*
X123909523Y-140152380D02*
X123338095Y-140152380D01*
X123623809Y-140152380D02*
X123623809Y-139152380D01*
X123528571Y-139295238D01*
X123433333Y-139390476D01*
X123338095Y-139438095D01*
X136054333Y-94347380D02*
X135578142Y-94347380D01*
X135578142Y-93347380D01*
X136340047Y-93442619D02*
X136387666Y-93395000D01*
X136482904Y-93347380D01*
X136721000Y-93347380D01*
X136816238Y-93395000D01*
X136863857Y-93442619D01*
X136911476Y-93537857D01*
X136911476Y-93633095D01*
X136863857Y-93775952D01*
X136292428Y-94347380D01*
X136911476Y-94347380D01*
X108174380Y-78789095D02*
X107174380Y-78789095D01*
X107174380Y-78551000D01*
X107222000Y-78408142D01*
X107317238Y-78312904D01*
X107412476Y-78265285D01*
X107602952Y-78217666D01*
X107745809Y-78217666D01*
X107936285Y-78265285D01*
X108031523Y-78312904D01*
X108126761Y-78408142D01*
X108174380Y-78551000D01*
X108174380Y-78789095D01*
X108174380Y-77265285D02*
X108174380Y-77836714D01*
X108174380Y-77551000D02*
X107174380Y-77551000D01*
X107317238Y-77646238D01*
X107412476Y-77741476D01*
X107460095Y-77836714D01*
X100587904Y-90528380D02*
X100587904Y-89528380D01*
X100826000Y-89528380D01*
X100968857Y-89576000D01*
X101064095Y-89671238D01*
X101111714Y-89766476D01*
X101159333Y-89956952D01*
X101159333Y-90099809D01*
X101111714Y-90290285D01*
X101064095Y-90385523D01*
X100968857Y-90480761D01*
X100826000Y-90528380D01*
X100587904Y-90528380D01*
X101540285Y-89623619D02*
X101587904Y-89576000D01*
X101683142Y-89528380D01*
X101921238Y-89528380D01*
X102016476Y-89576000D01*
X102064095Y-89623619D01*
X102111714Y-89718857D01*
X102111714Y-89814095D01*
X102064095Y-89956952D01*
X101492666Y-90528380D01*
X102111714Y-90528380D01*
X109309380Y-119541095D02*
X108309380Y-119541095D01*
X108309380Y-119303000D01*
X108357000Y-119160142D01*
X108452238Y-119064904D01*
X108547476Y-119017285D01*
X108737952Y-118969666D01*
X108880809Y-118969666D01*
X109071285Y-119017285D01*
X109166523Y-119064904D01*
X109261761Y-119160142D01*
X109309380Y-119303000D01*
X109309380Y-119541095D01*
X108309380Y-118636333D02*
X108309380Y-118017285D01*
X108690333Y-118350619D01*
X108690333Y-118207761D01*
X108737952Y-118112523D01*
X108785571Y-118064904D01*
X108880809Y-118017285D01*
X109118904Y-118017285D01*
X109214142Y-118064904D01*
X109261761Y-118112523D01*
X109309380Y-118207761D01*
X109309380Y-118493476D01*
X109261761Y-118588714D01*
X109214142Y-118636333D01*
X115156380Y-119101095D02*
X114156380Y-119101095D01*
X114156380Y-118863000D01*
X114204000Y-118720142D01*
X114299238Y-118624904D01*
X114394476Y-118577285D01*
X114584952Y-118529666D01*
X114727809Y-118529666D01*
X114918285Y-118577285D01*
X115013523Y-118624904D01*
X115108761Y-118720142D01*
X115156380Y-118863000D01*
X115156380Y-119101095D01*
X114489714Y-117672523D02*
X115156380Y-117672523D01*
X114108761Y-117910619D02*
X114823047Y-118148714D01*
X114823047Y-117529666D01*
X114722904Y-139748380D02*
X114722904Y-138748380D01*
X114961000Y-138748380D01*
X115103857Y-138796000D01*
X115199095Y-138891238D01*
X115246714Y-138986476D01*
X115294333Y-139176952D01*
X115294333Y-139319809D01*
X115246714Y-139510285D01*
X115199095Y-139605523D01*
X115103857Y-139700761D01*
X114961000Y-139748380D01*
X114722904Y-139748380D01*
X116199095Y-138748380D02*
X115722904Y-138748380D01*
X115675285Y-139224571D01*
X115722904Y-139176952D01*
X115818142Y-139129333D01*
X116056238Y-139129333D01*
X116151476Y-139176952D01*
X116199095Y-139224571D01*
X116246714Y-139319809D01*
X116246714Y-139557904D01*
X116199095Y-139653142D01*
X116151476Y-139700761D01*
X116056238Y-139748380D01*
X115818142Y-139748380D01*
X115722904Y-139700761D01*
X115675285Y-139653142D01*
X192400666Y-66013380D02*
X192400666Y-66727666D01*
X192353047Y-66870523D01*
X192257809Y-66965761D01*
X192114952Y-67013380D01*
X192019714Y-67013380D01*
X193400666Y-67013380D02*
X192829238Y-67013380D01*
X193114952Y-67013380D02*
X193114952Y-66013380D01*
X193019714Y-66156238D01*
X192924476Y-66251476D01*
X192829238Y-66299095D01*
X104374666Y-99423380D02*
X104374666Y-100137666D01*
X104327047Y-100280523D01*
X104231809Y-100375761D01*
X104088952Y-100423380D01*
X103993714Y-100423380D01*
X104803238Y-99518619D02*
X104850857Y-99471000D01*
X104946095Y-99423380D01*
X105184190Y-99423380D01*
X105279428Y-99471000D01*
X105327047Y-99518619D01*
X105374666Y-99613857D01*
X105374666Y-99709095D01*
X105327047Y-99851952D01*
X104755619Y-100423380D01*
X105374666Y-100423380D01*
X133672380Y-108761904D02*
X133672380Y-108190476D01*
X134672380Y-108476190D02*
X133672380Y-108476190D01*
X134672380Y-107333333D02*
X134672380Y-107904761D01*
X134672380Y-107619047D02*
X133672380Y-107619047D01*
X133815238Y-107714285D01*
X133910476Y-107809523D01*
X133958095Y-107904761D01*
X151624761Y-99785714D02*
X151672380Y-99642857D01*
X151672380Y-99404761D01*
X151624761Y-99309523D01*
X151577142Y-99261904D01*
X151481904Y-99214285D01*
X151386666Y-99214285D01*
X151291428Y-99261904D01*
X151243809Y-99309523D01*
X151196190Y-99404761D01*
X151148571Y-99595238D01*
X151100952Y-99690476D01*
X151053333Y-99738095D01*
X150958095Y-99785714D01*
X150862857Y-99785714D01*
X150767619Y-99738095D01*
X150720000Y-99690476D01*
X150672380Y-99595238D01*
X150672380Y-99357142D01*
X150720000Y-99214285D01*
X150672380Y-98595238D02*
X150672380Y-98404761D01*
X150720000Y-98309523D01*
X150815238Y-98214285D01*
X151005714Y-98166666D01*
X151339047Y-98166666D01*
X151529523Y-98214285D01*
X151624761Y-98309523D01*
X151672380Y-98404761D01*
X151672380Y-98595238D01*
X151624761Y-98690476D01*
X151529523Y-98785714D01*
X151339047Y-98833333D01*
X151005714Y-98833333D01*
X150815238Y-98785714D01*
X150720000Y-98690476D01*
X150672380Y-98595238D01*
X150672380Y-97738095D02*
X151481904Y-97738095D01*
X151577142Y-97690476D01*
X151624761Y-97642857D01*
X151672380Y-97547619D01*
X151672380Y-97357142D01*
X151624761Y-97261904D01*
X151577142Y-97214285D01*
X151481904Y-97166666D01*
X150672380Y-97166666D01*
X151672380Y-96119047D02*
X151196190Y-96452380D01*
X151672380Y-96690476D02*
X150672380Y-96690476D01*
X150672380Y-96309523D01*
X150720000Y-96214285D01*
X150767619Y-96166666D01*
X150862857Y-96119047D01*
X151005714Y-96119047D01*
X151100952Y-96166666D01*
X151148571Y-96214285D01*
X151196190Y-96309523D01*
X151196190Y-96690476D01*
X151577142Y-95119047D02*
X151624761Y-95166666D01*
X151672380Y-95309523D01*
X151672380Y-95404761D01*
X151624761Y-95547619D01*
X151529523Y-95642857D01*
X151434285Y-95690476D01*
X151243809Y-95738095D01*
X151100952Y-95738095D01*
X150910476Y-95690476D01*
X150815238Y-95642857D01*
X150720000Y-95547619D01*
X150672380Y-95404761D01*
X150672380Y-95309523D01*
X150720000Y-95166666D01*
X150767619Y-95119047D01*
X151148571Y-94690476D02*
X151148571Y-94357142D01*
X151672380Y-94214285D02*
X151672380Y-94690476D01*
X150672380Y-94690476D01*
X150672380Y-94214285D01*
X143390285Y-120906761D02*
X143533142Y-120954380D01*
X143771238Y-120954380D01*
X143866476Y-120906761D01*
X143914095Y-120859142D01*
X143961714Y-120763904D01*
X143961714Y-120668666D01*
X143914095Y-120573428D01*
X143866476Y-120525809D01*
X143771238Y-120478190D01*
X143580761Y-120430571D01*
X143485523Y-120382952D01*
X143437904Y-120335333D01*
X143390285Y-120240095D01*
X143390285Y-120144857D01*
X143437904Y-120049619D01*
X143485523Y-120002000D01*
X143580761Y-119954380D01*
X143818857Y-119954380D01*
X143961714Y-120002000D01*
X144580761Y-119954380D02*
X144771238Y-119954380D01*
X144866476Y-120002000D01*
X144961714Y-120097238D01*
X145009333Y-120287714D01*
X145009333Y-120621047D01*
X144961714Y-120811523D01*
X144866476Y-120906761D01*
X144771238Y-120954380D01*
X144580761Y-120954380D01*
X144485523Y-120906761D01*
X144390285Y-120811523D01*
X144342666Y-120621047D01*
X144342666Y-120287714D01*
X144390285Y-120097238D01*
X144485523Y-120002000D01*
X144580761Y-119954380D01*
X145437904Y-119954380D02*
X145437904Y-120763904D01*
X145485523Y-120859142D01*
X145533142Y-120906761D01*
X145628380Y-120954380D01*
X145818857Y-120954380D01*
X145914095Y-120906761D01*
X145961714Y-120859142D01*
X146009333Y-120763904D01*
X146009333Y-119954380D01*
X147056952Y-120954380D02*
X146723619Y-120478190D01*
X146485523Y-120954380D02*
X146485523Y-119954380D01*
X146866476Y-119954380D01*
X146961714Y-120002000D01*
X147009333Y-120049619D01*
X147056952Y-120144857D01*
X147056952Y-120287714D01*
X147009333Y-120382952D01*
X146961714Y-120430571D01*
X146866476Y-120478190D01*
X146485523Y-120478190D01*
X148056952Y-120859142D02*
X148009333Y-120906761D01*
X147866476Y-120954380D01*
X147771238Y-120954380D01*
X147628380Y-120906761D01*
X147533142Y-120811523D01*
X147485523Y-120716285D01*
X147437904Y-120525809D01*
X147437904Y-120382952D01*
X147485523Y-120192476D01*
X147533142Y-120097238D01*
X147628380Y-120002000D01*
X147771238Y-119954380D01*
X147866476Y-119954380D01*
X148009333Y-120002000D01*
X148056952Y-120049619D01*
X148485523Y-120430571D02*
X148818857Y-120430571D01*
X148961714Y-120954380D02*
X148485523Y-120954380D01*
X148485523Y-119954380D01*
X148961714Y-119954380D01*
X120450285Y-120275761D02*
X120593142Y-120323380D01*
X120831238Y-120323380D01*
X120926476Y-120275761D01*
X120974095Y-120228142D01*
X121021714Y-120132904D01*
X121021714Y-120037666D01*
X120974095Y-119942428D01*
X120926476Y-119894809D01*
X120831238Y-119847190D01*
X120640761Y-119799571D01*
X120545523Y-119751952D01*
X120497904Y-119704333D01*
X120450285Y-119609095D01*
X120450285Y-119513857D01*
X120497904Y-119418619D01*
X120545523Y-119371000D01*
X120640761Y-119323380D01*
X120878857Y-119323380D01*
X121021714Y-119371000D01*
X121640761Y-119323380D02*
X121831238Y-119323380D01*
X121926476Y-119371000D01*
X122021714Y-119466238D01*
X122069333Y-119656714D01*
X122069333Y-119990047D01*
X122021714Y-120180523D01*
X121926476Y-120275761D01*
X121831238Y-120323380D01*
X121640761Y-120323380D01*
X121545523Y-120275761D01*
X121450285Y-120180523D01*
X121402666Y-119990047D01*
X121402666Y-119656714D01*
X121450285Y-119466238D01*
X121545523Y-119371000D01*
X121640761Y-119323380D01*
X122497904Y-119323380D02*
X122497904Y-120132904D01*
X122545523Y-120228142D01*
X122593142Y-120275761D01*
X122688380Y-120323380D01*
X122878857Y-120323380D01*
X122974095Y-120275761D01*
X123021714Y-120228142D01*
X123069333Y-120132904D01*
X123069333Y-119323380D01*
X124116952Y-120323380D02*
X123783619Y-119847190D01*
X123545523Y-120323380D02*
X123545523Y-119323380D01*
X123926476Y-119323380D01*
X124021714Y-119371000D01*
X124069333Y-119418619D01*
X124116952Y-119513857D01*
X124116952Y-119656714D01*
X124069333Y-119751952D01*
X124021714Y-119799571D01*
X123926476Y-119847190D01*
X123545523Y-119847190D01*
X125116952Y-120228142D02*
X125069333Y-120275761D01*
X124926476Y-120323380D01*
X124831238Y-120323380D01*
X124688380Y-120275761D01*
X124593142Y-120180523D01*
X124545523Y-120085285D01*
X124497904Y-119894809D01*
X124497904Y-119751952D01*
X124545523Y-119561476D01*
X124593142Y-119466238D01*
X124688380Y-119371000D01*
X124831238Y-119323380D01*
X124926476Y-119323380D01*
X125069333Y-119371000D01*
X125116952Y-119418619D01*
X125545523Y-119799571D02*
X125878857Y-119799571D01*
X126021714Y-120323380D02*
X125545523Y-120323380D01*
X125545523Y-119323380D01*
X126021714Y-119323380D01*
X118542000Y-104928000D02*
X118494380Y-105023238D01*
X118494380Y-105166095D01*
X118542000Y-105308952D01*
X118637238Y-105404190D01*
X118732476Y-105451809D01*
X118922952Y-105499428D01*
X119065809Y-105499428D01*
X119256285Y-105451809D01*
X119351523Y-105404190D01*
X119446761Y-105308952D01*
X119494380Y-105166095D01*
X119494380Y-105070857D01*
X119446761Y-104928000D01*
X119399142Y-104880380D01*
X119065809Y-104880380D01*
X119065809Y-105070857D01*
X119208666Y-104499428D02*
X119208666Y-104023238D01*
X119494380Y-104594666D02*
X118494380Y-104261333D01*
X119494380Y-103928000D01*
X118494380Y-103737523D02*
X118494380Y-103166095D01*
X119494380Y-103451809D02*
X118494380Y-103451809D01*
X118970571Y-102832761D02*
X118970571Y-102499428D01*
X119494380Y-102356571D02*
X119494380Y-102832761D01*
X118494380Y-102832761D01*
X118494380Y-102356571D01*
X151686380Y-107086380D02*
X150686380Y-107086380D01*
X150686380Y-106848285D01*
X150734000Y-106705428D01*
X150829238Y-106610190D01*
X150924476Y-106562571D01*
X151114952Y-106514952D01*
X151257809Y-106514952D01*
X151448285Y-106562571D01*
X151543523Y-106610190D01*
X151638761Y-106705428D01*
X151686380Y-106848285D01*
X151686380Y-107086380D01*
X151686380Y-105514952D02*
X151210190Y-105848285D01*
X151686380Y-106086380D02*
X150686380Y-106086380D01*
X150686380Y-105705428D01*
X150734000Y-105610190D01*
X150781619Y-105562571D01*
X150876857Y-105514952D01*
X151019714Y-105514952D01*
X151114952Y-105562571D01*
X151162571Y-105610190D01*
X151210190Y-105705428D01*
X151210190Y-106086380D01*
X151400666Y-105134000D02*
X151400666Y-104657809D01*
X151686380Y-105229238D02*
X150686380Y-104895904D01*
X151686380Y-104562571D01*
X151686380Y-104229238D02*
X150686380Y-104229238D01*
X151686380Y-103753047D02*
X150686380Y-103753047D01*
X151686380Y-103181619D01*
X150686380Y-103181619D01*
X133656380Y-80414904D02*
X133656380Y-79843476D01*
X134656380Y-80129190D02*
X133656380Y-80129190D01*
X133751619Y-79557761D02*
X133704000Y-79510142D01*
X133656380Y-79414904D01*
X133656380Y-79176809D01*
X133704000Y-79081571D01*
X133751619Y-79033952D01*
X133846857Y-78986333D01*
X133942095Y-78986333D01*
X134084952Y-79033952D01*
X134656380Y-79605380D01*
X134656380Y-78986333D01*
X151157380Y-83548380D02*
X150157380Y-83548380D01*
X150157380Y-83310285D01*
X150205000Y-83167428D01*
X150300238Y-83072190D01*
X150395476Y-83024571D01*
X150585952Y-82976952D01*
X150728809Y-82976952D01*
X150919285Y-83024571D01*
X151014523Y-83072190D01*
X151109761Y-83167428D01*
X151157380Y-83310285D01*
X151157380Y-83548380D01*
X151157380Y-81976952D02*
X150681190Y-82310285D01*
X151157380Y-82548380D02*
X150157380Y-82548380D01*
X150157380Y-82167428D01*
X150205000Y-82072190D01*
X150252619Y-82024571D01*
X150347857Y-81976952D01*
X150490714Y-81976952D01*
X150585952Y-82024571D01*
X150633571Y-82072190D01*
X150681190Y-82167428D01*
X150681190Y-82548380D01*
X150871666Y-81596000D02*
X150871666Y-81119809D01*
X151157380Y-81691238D02*
X150157380Y-81357904D01*
X151157380Y-81024571D01*
X151157380Y-80691238D02*
X150157380Y-80691238D01*
X151157380Y-80215047D02*
X150157380Y-80215047D01*
X151157380Y-79643619D01*
X150157380Y-79643619D01*
X117704000Y-80153000D02*
X117656380Y-80248238D01*
X117656380Y-80391095D01*
X117704000Y-80533952D01*
X117799238Y-80629190D01*
X117894476Y-80676809D01*
X118084952Y-80724428D01*
X118227809Y-80724428D01*
X118418285Y-80676809D01*
X118513523Y-80629190D01*
X118608761Y-80533952D01*
X118656380Y-80391095D01*
X118656380Y-80295857D01*
X118608761Y-80153000D01*
X118561142Y-80105380D01*
X118227809Y-80105380D01*
X118227809Y-80295857D01*
X118370666Y-79724428D02*
X118370666Y-79248238D01*
X118656380Y-79819666D02*
X117656380Y-79486333D01*
X118656380Y-79153000D01*
X117656380Y-78962523D02*
X117656380Y-78391095D01*
X118656380Y-78676809D02*
X117656380Y-78676809D01*
X118132571Y-78057761D02*
X118132571Y-77724428D01*
X118656380Y-77581571D02*
X118656380Y-78057761D01*
X117656380Y-78057761D01*
X117656380Y-77581571D01*
X119108761Y-91438714D02*
X119156380Y-91295857D01*
X119156380Y-91057761D01*
X119108761Y-90962523D01*
X119061142Y-90914904D01*
X118965904Y-90867285D01*
X118870666Y-90867285D01*
X118775428Y-90914904D01*
X118727809Y-90962523D01*
X118680190Y-91057761D01*
X118632571Y-91248238D01*
X118584952Y-91343476D01*
X118537333Y-91391095D01*
X118442095Y-91438714D01*
X118346857Y-91438714D01*
X118251619Y-91391095D01*
X118204000Y-91343476D01*
X118156380Y-91248238D01*
X118156380Y-91010142D01*
X118204000Y-90867285D01*
X118156380Y-90248238D02*
X118156380Y-90057761D01*
X118204000Y-89962523D01*
X118299238Y-89867285D01*
X118489714Y-89819666D01*
X118823047Y-89819666D01*
X119013523Y-89867285D01*
X119108761Y-89962523D01*
X119156380Y-90057761D01*
X119156380Y-90248238D01*
X119108761Y-90343476D01*
X119013523Y-90438714D01*
X118823047Y-90486333D01*
X118489714Y-90486333D01*
X118299238Y-90438714D01*
X118204000Y-90343476D01*
X118156380Y-90248238D01*
X118156380Y-89391095D02*
X118965904Y-89391095D01*
X119061142Y-89343476D01*
X119108761Y-89295857D01*
X119156380Y-89200619D01*
X119156380Y-89010142D01*
X119108761Y-88914904D01*
X119061142Y-88867285D01*
X118965904Y-88819666D01*
X118156380Y-88819666D01*
X119156380Y-87772047D02*
X118680190Y-88105380D01*
X119156380Y-88343476D02*
X118156380Y-88343476D01*
X118156380Y-87962523D01*
X118204000Y-87867285D01*
X118251619Y-87819666D01*
X118346857Y-87772047D01*
X118489714Y-87772047D01*
X118584952Y-87819666D01*
X118632571Y-87867285D01*
X118680190Y-87962523D01*
X118680190Y-88343476D01*
X119061142Y-86772047D02*
X119108761Y-86819666D01*
X119156380Y-86962523D01*
X119156380Y-87057761D01*
X119108761Y-87200619D01*
X119013523Y-87295857D01*
X118918285Y-87343476D01*
X118727809Y-87391095D01*
X118584952Y-87391095D01*
X118394476Y-87343476D01*
X118299238Y-87295857D01*
X118204000Y-87200619D01*
X118156380Y-87057761D01*
X118156380Y-86962523D01*
X118204000Y-86819666D01*
X118251619Y-86772047D01*
X118632571Y-86343476D02*
X118632571Y-86010142D01*
X119156380Y-85867285D02*
X119156380Y-86343476D01*
X118156380Y-86343476D01*
X118156380Y-85867285D01*
X119108761Y-72938714D02*
X119156380Y-72795857D01*
X119156380Y-72557761D01*
X119108761Y-72462523D01*
X119061142Y-72414904D01*
X118965904Y-72367285D01*
X118870666Y-72367285D01*
X118775428Y-72414904D01*
X118727809Y-72462523D01*
X118680190Y-72557761D01*
X118632571Y-72748238D01*
X118584952Y-72843476D01*
X118537333Y-72891095D01*
X118442095Y-72938714D01*
X118346857Y-72938714D01*
X118251619Y-72891095D01*
X118204000Y-72843476D01*
X118156380Y-72748238D01*
X118156380Y-72510142D01*
X118204000Y-72367285D01*
X118156380Y-71748238D02*
X118156380Y-71557761D01*
X118204000Y-71462523D01*
X118299238Y-71367285D01*
X118489714Y-71319666D01*
X118823047Y-71319666D01*
X119013523Y-71367285D01*
X119108761Y-71462523D01*
X119156380Y-71557761D01*
X119156380Y-71748238D01*
X119108761Y-71843476D01*
X119013523Y-71938714D01*
X118823047Y-71986333D01*
X118489714Y-71986333D01*
X118299238Y-71938714D01*
X118204000Y-71843476D01*
X118156380Y-71748238D01*
X118156380Y-70891095D02*
X118965904Y-70891095D01*
X119061142Y-70843476D01*
X119108761Y-70795857D01*
X119156380Y-70700619D01*
X119156380Y-70510142D01*
X119108761Y-70414904D01*
X119061142Y-70367285D01*
X118965904Y-70319666D01*
X118156380Y-70319666D01*
X119156380Y-69272047D02*
X118680190Y-69605380D01*
X119156380Y-69843476D02*
X118156380Y-69843476D01*
X118156380Y-69462523D01*
X118204000Y-69367285D01*
X118251619Y-69319666D01*
X118346857Y-69272047D01*
X118489714Y-69272047D01*
X118584952Y-69319666D01*
X118632571Y-69367285D01*
X118680190Y-69462523D01*
X118680190Y-69843476D01*
X119061142Y-68272047D02*
X119108761Y-68319666D01*
X119156380Y-68462523D01*
X119156380Y-68557761D01*
X119108761Y-68700619D01*
X119013523Y-68795857D01*
X118918285Y-68843476D01*
X118727809Y-68891095D01*
X118584952Y-68891095D01*
X118394476Y-68843476D01*
X118299238Y-68795857D01*
X118204000Y-68700619D01*
X118156380Y-68557761D01*
X118156380Y-68462523D01*
X118204000Y-68319666D01*
X118251619Y-68272047D01*
X118632571Y-67843476D02*
X118632571Y-67510142D01*
X119156380Y-67367285D02*
X119156380Y-67843476D01*
X118156380Y-67843476D01*
X118156380Y-67367285D01*
X151608761Y-91438714D02*
X151656380Y-91295857D01*
X151656380Y-91057761D01*
X151608761Y-90962523D01*
X151561142Y-90914904D01*
X151465904Y-90867285D01*
X151370666Y-90867285D01*
X151275428Y-90914904D01*
X151227809Y-90962523D01*
X151180190Y-91057761D01*
X151132571Y-91248238D01*
X151084952Y-91343476D01*
X151037333Y-91391095D01*
X150942095Y-91438714D01*
X150846857Y-91438714D01*
X150751619Y-91391095D01*
X150704000Y-91343476D01*
X150656380Y-91248238D01*
X150656380Y-91010142D01*
X150704000Y-90867285D01*
X150656380Y-90248238D02*
X150656380Y-90057761D01*
X150704000Y-89962523D01*
X150799238Y-89867285D01*
X150989714Y-89819666D01*
X151323047Y-89819666D01*
X151513523Y-89867285D01*
X151608761Y-89962523D01*
X151656380Y-90057761D01*
X151656380Y-90248238D01*
X151608761Y-90343476D01*
X151513523Y-90438714D01*
X151323047Y-90486333D01*
X150989714Y-90486333D01*
X150799238Y-90438714D01*
X150704000Y-90343476D01*
X150656380Y-90248238D01*
X150656380Y-89391095D02*
X151465904Y-89391095D01*
X151561142Y-89343476D01*
X151608761Y-89295857D01*
X151656380Y-89200619D01*
X151656380Y-89010142D01*
X151608761Y-88914904D01*
X151561142Y-88867285D01*
X151465904Y-88819666D01*
X150656380Y-88819666D01*
X151656380Y-87772047D02*
X151180190Y-88105380D01*
X151656380Y-88343476D02*
X150656380Y-88343476D01*
X150656380Y-87962523D01*
X150704000Y-87867285D01*
X150751619Y-87819666D01*
X150846857Y-87772047D01*
X150989714Y-87772047D01*
X151084952Y-87819666D01*
X151132571Y-87867285D01*
X151180190Y-87962523D01*
X151180190Y-88343476D01*
X151561142Y-86772047D02*
X151608761Y-86819666D01*
X151656380Y-86962523D01*
X151656380Y-87057761D01*
X151608761Y-87200619D01*
X151513523Y-87295857D01*
X151418285Y-87343476D01*
X151227809Y-87391095D01*
X151084952Y-87391095D01*
X150894476Y-87343476D01*
X150799238Y-87295857D01*
X150704000Y-87200619D01*
X150656380Y-87057761D01*
X150656380Y-86962523D01*
X150704000Y-86819666D01*
X150751619Y-86772047D01*
X151132571Y-86343476D02*
X151132571Y-86010142D01*
X151656380Y-85867285D02*
X151656380Y-86343476D01*
X150656380Y-86343476D01*
X150656380Y-85867285D01*
X143056285Y-65806761D02*
X143199142Y-65854380D01*
X143437238Y-65854380D01*
X143532476Y-65806761D01*
X143580095Y-65759142D01*
X143627714Y-65663904D01*
X143627714Y-65568666D01*
X143580095Y-65473428D01*
X143532476Y-65425809D01*
X143437238Y-65378190D01*
X143246761Y-65330571D01*
X143151523Y-65282952D01*
X143103904Y-65235333D01*
X143056285Y-65140095D01*
X143056285Y-65044857D01*
X143103904Y-64949619D01*
X143151523Y-64902000D01*
X143246761Y-64854380D01*
X143484857Y-64854380D01*
X143627714Y-64902000D01*
X144246761Y-64854380D02*
X144437238Y-64854380D01*
X144532476Y-64902000D01*
X144627714Y-64997238D01*
X144675333Y-65187714D01*
X144675333Y-65521047D01*
X144627714Y-65711523D01*
X144532476Y-65806761D01*
X144437238Y-65854380D01*
X144246761Y-65854380D01*
X144151523Y-65806761D01*
X144056285Y-65711523D01*
X144008666Y-65521047D01*
X144008666Y-65187714D01*
X144056285Y-64997238D01*
X144151523Y-64902000D01*
X144246761Y-64854380D01*
X145103904Y-64854380D02*
X145103904Y-65663904D01*
X145151523Y-65759142D01*
X145199142Y-65806761D01*
X145294380Y-65854380D01*
X145484857Y-65854380D01*
X145580095Y-65806761D01*
X145627714Y-65759142D01*
X145675333Y-65663904D01*
X145675333Y-64854380D01*
X146722952Y-65854380D02*
X146389619Y-65378190D01*
X146151523Y-65854380D02*
X146151523Y-64854380D01*
X146532476Y-64854380D01*
X146627714Y-64902000D01*
X146675333Y-64949619D01*
X146722952Y-65044857D01*
X146722952Y-65187714D01*
X146675333Y-65282952D01*
X146627714Y-65330571D01*
X146532476Y-65378190D01*
X146151523Y-65378190D01*
X147722952Y-65759142D02*
X147675333Y-65806761D01*
X147532476Y-65854380D01*
X147437238Y-65854380D01*
X147294380Y-65806761D01*
X147199142Y-65711523D01*
X147151523Y-65616285D01*
X147103904Y-65425809D01*
X147103904Y-65282952D01*
X147151523Y-65092476D01*
X147199142Y-64997238D01*
X147294380Y-64902000D01*
X147437238Y-64854380D01*
X147532476Y-64854380D01*
X147675333Y-64902000D01*
X147722952Y-64949619D01*
X148151523Y-65330571D02*
X148484857Y-65330571D01*
X148627714Y-65854380D02*
X148151523Y-65854380D01*
X148151523Y-64854380D01*
X148627714Y-64854380D01*
X175938095Y-151387380D02*
X175938095Y-150387380D01*
X175938095Y-150863571D02*
X176509523Y-150863571D01*
X176509523Y-151387380D02*
X176509523Y-150387380D01*
X177509523Y-151387380D02*
X176938095Y-151387380D01*
X177223809Y-151387380D02*
X177223809Y-150387380D01*
X177128571Y-150530238D01*
X177033333Y-150625476D01*
X176938095Y-150673095D01*
X176274095Y-65813380D02*
X176274095Y-64813380D01*
X176274095Y-65289571D02*
X176845523Y-65289571D01*
X176845523Y-65813380D02*
X176845523Y-64813380D01*
X177274095Y-64908619D02*
X177321714Y-64861000D01*
X177416952Y-64813380D01*
X177655047Y-64813380D01*
X177750285Y-64861000D01*
X177797904Y-64908619D01*
X177845523Y-65003857D01*
X177845523Y-65099095D01*
X177797904Y-65241952D01*
X177226476Y-65813380D01*
X177845523Y-65813380D01*
X105635142Y-76841666D02*
X105682761Y-76889285D01*
X105730380Y-77032142D01*
X105730380Y-77127380D01*
X105682761Y-77270238D01*
X105587523Y-77365476D01*
X105492285Y-77413095D01*
X105301809Y-77460714D01*
X105158952Y-77460714D01*
X104968476Y-77413095D01*
X104873238Y-77365476D01*
X104778000Y-77270238D01*
X104730380Y-77127380D01*
X104730380Y-77032142D01*
X104778000Y-76889285D01*
X104825619Y-76841666D01*
X104825619Y-76460714D02*
X104778000Y-76413095D01*
X104730380Y-76317857D01*
X104730380Y-76079761D01*
X104778000Y-75984523D01*
X104825619Y-75936904D01*
X104920857Y-75889285D01*
X105016095Y-75889285D01*
X105158952Y-75936904D01*
X105730380Y-76508333D01*
X105730380Y-75889285D01*
X152767142Y-123966142D02*
X152719523Y-124013761D01*
X152576666Y-124061380D01*
X152481428Y-124061380D01*
X152338571Y-124013761D01*
X152243333Y-123918523D01*
X152195714Y-123823285D01*
X152148095Y-123632809D01*
X152148095Y-123489952D01*
X152195714Y-123299476D01*
X152243333Y-123204238D01*
X152338571Y-123109000D01*
X152481428Y-123061380D01*
X152576666Y-123061380D01*
X152719523Y-123109000D01*
X152767142Y-123156619D01*
X153148095Y-123156619D02*
X153195714Y-123109000D01*
X153290952Y-123061380D01*
X153529047Y-123061380D01*
X153624285Y-123109000D01*
X153671904Y-123156619D01*
X153719523Y-123251857D01*
X153719523Y-123347095D01*
X153671904Y-123489952D01*
X153100476Y-124061380D01*
X153719523Y-124061380D01*
X154052857Y-123061380D02*
X154671904Y-123061380D01*
X154338571Y-123442333D01*
X154481428Y-123442333D01*
X154576666Y-123489952D01*
X154624285Y-123537571D01*
X154671904Y-123632809D01*
X154671904Y-123870904D01*
X154624285Y-123966142D01*
X154576666Y-124013761D01*
X154481428Y-124061380D01*
X154195714Y-124061380D01*
X154100476Y-124013761D01*
X154052857Y-123966142D01*
X117205142Y-125816142D02*
X117157523Y-125863761D01*
X117014666Y-125911380D01*
X116919428Y-125911380D01*
X116776571Y-125863761D01*
X116681333Y-125768523D01*
X116633714Y-125673285D01*
X116586095Y-125482809D01*
X116586095Y-125339952D01*
X116633714Y-125149476D01*
X116681333Y-125054238D01*
X116776571Y-124959000D01*
X116919428Y-124911380D01*
X117014666Y-124911380D01*
X117157523Y-124959000D01*
X117205142Y-125006619D01*
X117586095Y-125006619D02*
X117633714Y-124959000D01*
X117728952Y-124911380D01*
X117967047Y-124911380D01*
X118062285Y-124959000D01*
X118109904Y-125006619D01*
X118157523Y-125101857D01*
X118157523Y-125197095D01*
X118109904Y-125339952D01*
X117538476Y-125911380D01*
X118157523Y-125911380D01*
X119014666Y-124911380D02*
X118824190Y-124911380D01*
X118728952Y-124959000D01*
X118681333Y-125006619D01*
X118586095Y-125149476D01*
X118538476Y-125339952D01*
X118538476Y-125720904D01*
X118586095Y-125816142D01*
X118633714Y-125863761D01*
X118728952Y-125911380D01*
X118919428Y-125911380D01*
X119014666Y-125863761D01*
X119062285Y-125816142D01*
X119109904Y-125720904D01*
X119109904Y-125482809D01*
X119062285Y-125387571D01*
X119014666Y-125339952D01*
X118919428Y-125292333D01*
X118728952Y-125292333D01*
X118633714Y-125339952D01*
X118586095Y-125387571D01*
X118538476Y-125482809D01*
X134001142Y-134302142D02*
X133953523Y-134349761D01*
X133810666Y-134397380D01*
X133715428Y-134397380D01*
X133572571Y-134349761D01*
X133477333Y-134254523D01*
X133429714Y-134159285D01*
X133382095Y-133968809D01*
X133382095Y-133825952D01*
X133429714Y-133635476D01*
X133477333Y-133540238D01*
X133572571Y-133445000D01*
X133715428Y-133397380D01*
X133810666Y-133397380D01*
X133953523Y-133445000D01*
X134001142Y-133492619D01*
X134382095Y-133492619D02*
X134429714Y-133445000D01*
X134524952Y-133397380D01*
X134763047Y-133397380D01*
X134858285Y-133445000D01*
X134905904Y-133492619D01*
X134953523Y-133587857D01*
X134953523Y-133683095D01*
X134905904Y-133825952D01*
X134334476Y-134397380D01*
X134953523Y-134397380D01*
X135524952Y-133825952D02*
X135429714Y-133778333D01*
X135382095Y-133730714D01*
X135334476Y-133635476D01*
X135334476Y-133587857D01*
X135382095Y-133492619D01*
X135429714Y-133445000D01*
X135524952Y-133397380D01*
X135715428Y-133397380D01*
X135810666Y-133445000D01*
X135858285Y-133492619D01*
X135905904Y-133587857D01*
X135905904Y-133635476D01*
X135858285Y-133730714D01*
X135810666Y-133778333D01*
X135715428Y-133825952D01*
X135524952Y-133825952D01*
X135429714Y-133873571D01*
X135382095Y-133921190D01*
X135334476Y-134016428D01*
X135334476Y-134206904D01*
X135382095Y-134302142D01*
X135429714Y-134349761D01*
X135524952Y-134397380D01*
X135715428Y-134397380D01*
X135810666Y-134349761D01*
X135858285Y-134302142D01*
X135905904Y-134206904D01*
X135905904Y-134016428D01*
X135858285Y-133921190D01*
X135810666Y-133873571D01*
X135715428Y-133825952D01*
X139060380Y-145554904D02*
X139869904Y-145554904D01*
X139965142Y-145507285D01*
X140012761Y-145459666D01*
X140060380Y-145364428D01*
X140060380Y-145173952D01*
X140012761Y-145078714D01*
X139965142Y-145031095D01*
X139869904Y-144983476D01*
X139060380Y-144983476D01*
X139155619Y-144554904D02*
X139108000Y-144507285D01*
X139060380Y-144412047D01*
X139060380Y-144173952D01*
X139108000Y-144078714D01*
X139155619Y-144031095D01*
X139250857Y-143983476D01*
X139346095Y-143983476D01*
X139488952Y-144031095D01*
X140060380Y-144602523D01*
X140060380Y-143983476D01*
X145322333Y-130024380D02*
X144846142Y-130024380D01*
X144846142Y-129024380D01*
X146131857Y-129024380D02*
X145655666Y-129024380D01*
X145608047Y-129500571D01*
X145655666Y-129452952D01*
X145750904Y-129405333D01*
X145989000Y-129405333D01*
X146084238Y-129452952D01*
X146131857Y-129500571D01*
X146179476Y-129595809D01*
X146179476Y-129833904D01*
X146131857Y-129929142D01*
X146084238Y-129976761D01*
X145989000Y-130024380D01*
X145750904Y-130024380D01*
X145655666Y-129976761D01*
X145608047Y-129929142D01*
X121954095Y-134978380D02*
X122525523Y-134978380D01*
X122239809Y-135978380D02*
X122239809Y-134978380D01*
X122763619Y-134978380D02*
X123382666Y-134978380D01*
X123049333Y-135359333D01*
X123192190Y-135359333D01*
X123287428Y-135406952D01*
X123335047Y-135454571D01*
X123382666Y-135549809D01*
X123382666Y-135787904D01*
X123335047Y-135883142D01*
X123287428Y-135930761D01*
X123192190Y-135978380D01*
X122906476Y-135978380D01*
X122811238Y-135930761D01*
X122763619Y-135883142D01*
X116344142Y-77865666D02*
X116391761Y-77913285D01*
X116439380Y-78056142D01*
X116439380Y-78151380D01*
X116391761Y-78294238D01*
X116296523Y-78389476D01*
X116201285Y-78437095D01*
X116010809Y-78484714D01*
X115867952Y-78484714D01*
X115677476Y-78437095D01*
X115582238Y-78389476D01*
X115487000Y-78294238D01*
X115439380Y-78151380D01*
X115439380Y-78056142D01*
X115487000Y-77913285D01*
X115534619Y-77865666D01*
X115439380Y-77532333D02*
X115439380Y-76865666D01*
X116439380Y-77294238D01*
X152708142Y-74538666D02*
X152755761Y-74586285D01*
X152803380Y-74729142D01*
X152803380Y-74824380D01*
X152755761Y-74967238D01*
X152660523Y-75062476D01*
X152565285Y-75110095D01*
X152374809Y-75157714D01*
X152231952Y-75157714D01*
X152041476Y-75110095D01*
X151946238Y-75062476D01*
X151851000Y-74967238D01*
X151803380Y-74824380D01*
X151803380Y-74729142D01*
X151851000Y-74586285D01*
X151898619Y-74538666D01*
X152136714Y-73681523D02*
X152803380Y-73681523D01*
X151755761Y-73919619D02*
X152470047Y-74157714D01*
X152470047Y-73538666D01*
M02*
