M48
; DRILL file {KiCad 6.0.0-rc1-unknown-e7fa02a~66~ubuntu18.04.1} date Sun 05 Dec 2021 09:55:44 AM PST
; FORMAT={-:-/ absolute / inch / decimal}
; #@! TF.CreationDate,2021-12-05T09:55:44-08:00
; #@! TF.GenerationSoftware,Kicad,Pcbnew,6.0.0-rc1-unknown-e7fa02a~66~ubuntu18.04.1
; #@! TF.FileFunction,Plated,1,2,PTH
FMAT,2
INCH
T1C0.0157
T2C0.0197
T3C0.0276
T4C0.0315
T5C0.0394
T6C0.0591
T7C0.0669
T8C0.0984
T9C0.1693
%
G90
G05
T1
X3.9961Y-3.1398
X4.0354Y-4.4291
X4.0354Y-4.5276
X4.0354Y-4.626
X4.0354Y-5.2165
X4.0354Y-5.315
X4.0453Y-3.1398
X4.0551Y-3.4744
X4.0551Y-3.5138
X4.1142Y-3.0906
X4.1339Y-4.4291
X4.1339Y-4.5276
X4.1339Y-4.626
X4.1339Y-5.2165
X4.1339Y-5.315
X4.1535Y-3.0906
X4.2323Y-5.2165
X4.2323Y-5.315
X4.2933Y-3.5256
X4.3307Y-5.315
X4.3307Y-5.4134
X4.3504Y-4.2559
X4.3898Y-5.1969
X4.3898Y-5.2362
X4.4291Y-5.4134
X4.5197Y-3.2638
X4.5197Y-3.2992
X4.5276Y-2.1654
X4.5276Y-2.3622
X4.5276Y-2.5591
X4.5276Y-2.7559
X4.5276Y-2.9528
X4.5276Y-5.4134
X4.6654Y-5.6594
X4.6949Y-4.8524
X4.6949Y-4.8917
X4.7047Y-5.6594
X4.7244Y-2.1654
X4.7244Y-2.3622
X4.7244Y-2.5591
X4.7244Y-2.6378
X4.7244Y-2.9134
X4.7244Y-4.9902
X4.7244Y-5.0394
X4.7343Y-3.3661
X4.7343Y-3.6319
X4.7343Y-3.6811
X4.7343Y-3.9567
X4.7343Y-4.3898
X4.7343Y-4.6654
X4.7638Y-2.6378
X4.7638Y-2.9134
X4.7736Y-3.6319
X4.7736Y-3.6811
X4.7736Y-3.9567
X4.7736Y-4.3898
X4.7736Y-4.6654
X4.7835Y-3.3661
X4.8031Y-2.6378
X4.8031Y-2.9134
X4.813Y-3.6319
X4.813Y-3.6811
X4.813Y-3.9567
X4.813Y-4.3898
X4.813Y-4.6654
X4.8228Y-3.3661
X4.8228Y-4.8228
X4.8228Y-5.0197
X4.8425Y-2.6378
X4.8425Y-2.9134
X4.8524Y-3.6319
X4.8524Y-3.6811
X4.8524Y-3.9567
X4.8524Y-4.3898
X4.8524Y-4.6654
X4.8602Y-5.6555
X4.8622Y-5.6063
X4.872Y-3.3661
X4.8819Y-2.6378
X4.8819Y-2.9134
X4.8917Y-3.6319
X4.8917Y-3.6811
X4.8917Y-3.9567
X4.8917Y-4.3898
X4.8917Y-4.6654
X4.9114Y-3.3661
X4.9213Y-2.1654
X4.9213Y-2.3622
X4.9213Y-2.5591
X4.9213Y-2.6378
X4.9213Y-2.9134
X4.9311Y-3.6319
X4.9311Y-3.6811
X4.9311Y-3.9567
X4.9311Y-4.3898
X4.9311Y-4.6654
X4.9606Y-2.6378
X4.9606Y-2.9134
X4.9606Y-3.3661
X4.9705Y-3.6319
X4.9705Y-3.6811
X4.9705Y-3.9567
X4.9705Y-4.3898
X4.9705Y-4.6654
X5.0Y-2.6378
X5.0Y-2.9134
X5.0Y-3.3661
X5.0098Y-3.6319
X5.0098Y-3.6811
X5.0098Y-3.9567
X5.0098Y-4.3898
X5.0098Y-4.6654
X5.0197Y-4.8228
X5.0197Y-5.0197
X5.0217Y-5.6083
X5.0217Y-5.6575
X5.1181Y-2.1654
X5.1181Y-2.3622
X5.1398Y-5.6594
X5.1752Y-5.6594
X5.2067Y-5.1969
X5.2165Y-4.8228
X5.2165Y-5.0197
X5.2165Y-5.2362
X5.2264Y-5.1575
X5.2657Y-5.1575
X5.2657Y-5.1969
X5.2657Y-5.2362
X5.2835Y-5.6122
X5.315Y-2.1654
X5.315Y-2.3622
X5.4134Y-4.8228
X5.4134Y-5.0197
X5.4832Y-5.4194
X5.5118Y-2.1654
X5.5118Y-2.3622
X5.6004Y-2.6476
X5.6004Y-2.9134
X5.6004Y-3.3563
X5.6004Y-3.6319
X5.6004Y-3.6713
X5.6004Y-3.9469
X5.6004Y-4.4094
X5.6004Y-4.6654
X5.6102Y-4.8228
X5.6102Y-5.0197
X5.6398Y-2.6476
X5.6398Y-2.9134
X5.6398Y-3.3563
X5.6398Y-3.6319
X5.6398Y-3.6713
X5.6398Y-3.9469
X5.6398Y-4.4094
X5.6398Y-4.6654
X5.6791Y-2.6476
X5.6791Y-2.9134
X5.6791Y-3.3563
X5.6791Y-3.6319
X5.6791Y-3.6713
X5.6791Y-3.9469
X5.6791Y-4.4094
X5.6791Y-4.6654
X5.7087Y-2.1654
X5.7087Y-2.3622
X5.7087Y-2.5591
X5.7185Y-2.6476
X5.7185Y-2.9134
X5.7185Y-3.3563
X5.7185Y-3.6319
X5.7185Y-3.6713
X5.7185Y-3.9469
X5.7185Y-4.4094
X5.7185Y-4.6654
X5.7579Y-2.6476
X5.7579Y-2.9134
X5.7579Y-3.3563
X5.7579Y-3.6319
X5.7579Y-3.6713
X5.7579Y-3.9469
X5.7579Y-4.4094
X5.7579Y-4.6654
X5.7972Y-2.6476
X5.7972Y-2.9134
X5.7972Y-3.3563
X5.7972Y-3.6319
X5.7972Y-3.6713
X5.7972Y-3.9469
X5.7972Y-4.4094
X5.7972Y-4.6654
X5.7992Y-5.4646
X5.7992Y-5.5079
X5.8071Y-4.8228
X5.8366Y-2.6476
X5.8366Y-2.9134
X5.8366Y-3.3563
X5.8366Y-3.6319
X5.8366Y-3.6713
X5.8366Y-3.9469
X5.8366Y-4.4094
X5.8366Y-4.6654
X5.876Y-2.6476
X5.876Y-2.9134
X5.876Y-3.3563
X5.876Y-3.6319
X5.876Y-3.6713
X5.876Y-3.9469
X5.876Y-4.4094
X5.876Y-4.6654
X5.8988Y-5.0599
X5.9055Y-2.1654
X5.9055Y-2.3622
X5.9055Y-2.5591
X5.9626Y-4.437
X5.9744Y-5.7579
X5.9744Y-5.7972
X5.9902Y-2.9902
X6.0079Y-4.437
X6.0295Y-2.9902
X6.0807Y-5.4862
X6.0807Y-5.5197
X6.0827Y-5.187
X6.1024Y-2.1654
X6.1024Y-2.3622
X6.1024Y-2.5591
X6.1024Y-2.7559
X6.1024Y-5.128
X6.1024Y-5.2362
X6.1122Y-4.6752
X6.1122Y-4.7736
X6.1516Y-5.128
X6.1614Y-4.6752
X6.1614Y-4.7736
X6.1614Y-5.2362
X6.2008Y-5.128
X6.2106Y-5.2362
X6.2205Y-4.6752
X6.2205Y-4.7736
X6.2205Y-5.5177
X6.2205Y-5.5551
X6.2205Y-5.6142
X6.2205Y-5.6496
X6.25Y-5.1673
X6.25Y-5.2067
X6.2598Y-4.7343
X6.2598Y-5.5177
X6.2598Y-5.5551
X6.2618Y-5.6142
X6.2618Y-5.6516
X6.2992Y-2.1654
X6.2992Y-2.3622
X6.2992Y-2.5591
X6.2992Y-2.7559
X6.2992Y-5.6142
X6.3012Y-5.5177
X6.3012Y-5.5551
X6.3012Y-5.6555
X6.3386Y-5.5157
X6.3386Y-5.5551
X6.3386Y-5.6161
X6.3386Y-5.6555
X6.374Y-5.5157
X6.376Y-5.5551
X6.378Y-5.6161
X6.378Y-5.6535
X6.4961Y-2.1654
X6.4961Y-2.3622
X6.4961Y-2.5591
X6.6929Y-2.1654
X6.6929Y-2.3622
X6.6929Y-2.5591
X6.7717Y-5.1772
X6.7913Y-3.1496
X6.7913Y-3.3465
X6.7913Y-3.5433
X6.7913Y-3.8386
X6.7913Y-4.0354
X6.7913Y-4.2323
X6.7913Y-4.4291
X6.8209Y-5.1772
X6.9291Y-5.1772
X6.9685Y-5.1772
X6.9882Y-3.1496
X6.9882Y-3.3465
X6.9882Y-3.5433
X6.9882Y-3.8386
X6.9882Y-4.0354
X6.9882Y-4.2323
X7.0472Y-5.187
X7.0866Y-5.187
X7.185Y-3.1496
X7.185Y-3.3465
X7.185Y-3.5433
X7.185Y-3.8386
X7.185Y-4.0354
X7.185Y-4.2323
X7.3819Y-3.1496
X7.3819Y-3.248
X7.4558Y-4.8262
X7.4803Y-2.5591
X7.4803Y-5.6102
X7.4803Y-5.7087
X7.5787Y-3.1496
X7.5787Y-3.248
X7.5787Y-5.5118
X7.6772Y-4.626
X7.6772Y-4.7244
X7.6772Y-4.8228
X7.6772Y-4.9213
X7.6772Y-5.0197
X7.6772Y-5.1181
X7.6772Y-5.2165
X7.6772Y-5.315
X7.6772Y-5.4134
X7.6772Y-5.5118
X7.7756Y-3.1496
X7.7756Y-3.248
X7.7756Y-4.5276
X7.7756Y-4.626
X7.7756Y-4.7244
X7.7756Y-4.8228
X7.7756Y-4.9213
X7.7756Y-5.0197
X7.7756Y-5.1181
X7.7756Y-5.2165
X7.7756Y-5.315
X7.7756Y-5.4134
X7.7756Y-5.5118
T2
X6.9567Y-5.588
X6.9567Y-5.6667
X6.9961Y-5.5093
X6.9961Y-5.7455
X7.0748Y-5.4699
X7.0748Y-5.7848
X7.1535Y-5.4699
X7.1535Y-5.7848
X7.2323Y-5.5093
X7.2323Y-5.7455
X7.2717Y-5.588
X7.2717Y-5.6667
X6.9699Y-2.2189
X6.9699Y-2.2977
X7.0093Y-2.1402
X7.0093Y-2.3764
X7.088Y-2.1008
X7.088Y-2.4158
X7.1668Y-2.1008
X7.1668Y-2.4158
X7.2455Y-2.1402
X7.2455Y-2.3764
X7.2849Y-2.2189
X7.2849Y-2.2977
T3
X4.6208Y-4.516
X4.6208Y-4.616
X3.9726Y-3.6093
X3.9726Y-3.9242
X4.2875Y-3.6093
X4.2875Y-3.9242
T4
X4.1341Y-2.7267
X4.2341Y-2.8267
X4.3341Y-2.7267
X4.0748Y-4.9016
X4.1748Y-5.0016
X4.2748Y-4.9016
T5
X5.0574Y-5.3767
X5.1574Y-5.3767
X4.5826Y-5.7791
X4.6826Y-5.7791
T6
X6.338Y-2.9196
X6.338Y-4.4157
X4.5835Y-3.6022
X4.5874Y-3.74
X5.993Y-3.4801
X5.993Y-3.8738
X7.588Y-2.8075
X4.1224Y-4.1229
T7
X7.488Y-2.7075
X7.488Y-2.9075
X7.688Y-2.7075
X7.688Y-2.9075
X4.0224Y-4.0229
X4.0224Y-4.2229
X4.2224Y-4.0229
X4.2224Y-4.2229
T8
X7.1914Y-4.5754
X7.1914Y-4.8982
T9
X7.1142Y-5.6195
X7.1274Y-2.2504
T0
M30
