G04 #@! TF.GenerationSoftware,KiCad,Pcbnew,6.0.0-rc1-unknown-e7fa02a~66~ubuntu18.04.1*
G04 #@! TF.CreationDate,2021-10-31T13:50:51-07:00
G04 #@! TF.ProjectId,munin3,6d756e69-6e33-42e6-9b69-6361645f7063,rev?*
G04 #@! TF.SameCoordinates,Original*
G04 #@! TF.FileFunction,Soldermask,Top*
G04 #@! TF.FilePolarity,Negative*
%FSLAX46Y46*%
G04 Gerber Fmt 4.6, Leading zero omitted, Abs format (unit mm)*
G04 Created by KiCad (PCBNEW 6.0.0-rc1-unknown-e7fa02a~66~ubuntu18.04.1) date Sun 31 Oct 2021 01:50:51 PM PDT*
%MOMM*%
%LPD*%
G04 APERTURE LIST*
%ADD10C,0.100000*%
G04 APERTURE END LIST*
D10*
G36*
X173723000Y-148635000D02*
G01*
X164221000Y-148635000D01*
X164221000Y-137733000D01*
X173723000Y-137733000D01*
X173723000Y-148635000D01*
X173723000Y-148635000D01*
G37*
G36*
X138364000Y-148319000D02*
G01*
X137662000Y-148319000D01*
X137662000Y-146667000D01*
X138364000Y-146667000D01*
X138364000Y-148319000D01*
X138364000Y-148319000D01*
G37*
G36*
X137094000Y-148319000D02*
G01*
X136392000Y-148319000D01*
X136392000Y-146667000D01*
X137094000Y-146667000D01*
X137094000Y-148319000D01*
X137094000Y-148319000D01*
G37*
G36*
X134554000Y-148319000D02*
G01*
X133852000Y-148319000D01*
X133852000Y-146667000D01*
X134554000Y-146667000D01*
X134554000Y-148319000D01*
X134554000Y-148319000D01*
G37*
G36*
X135824000Y-148319000D02*
G01*
X135122000Y-148319000D01*
X135122000Y-146667000D01*
X135824000Y-146667000D01*
X135824000Y-148319000D01*
X135824000Y-148319000D01*
G37*
G36*
X184067158Y-137236722D02*
G01*
X184575991Y-137391075D01*
X185044927Y-137641727D01*
X185455953Y-137979047D01*
X185793273Y-138390073D01*
X186043925Y-138859009D01*
X186198278Y-139367842D01*
X186251000Y-139903140D01*
X186251000Y-145566860D01*
X186198278Y-146102158D01*
X186043925Y-146610991D01*
X185793273Y-147079927D01*
X185455953Y-147490953D01*
X185044927Y-147828273D01*
X184575991Y-148078925D01*
X184067158Y-148233278D01*
X183531860Y-148286000D01*
X177868140Y-148286000D01*
X177332842Y-148233278D01*
X176824009Y-148078925D01*
X176355073Y-147828273D01*
X175944047Y-147490953D01*
X175606727Y-147079927D01*
X175356075Y-146610991D01*
X175201722Y-146102158D01*
X175149000Y-145566860D01*
X175149000Y-139903140D01*
X175201722Y-139367842D01*
X175356075Y-138859009D01*
X175606727Y-138390073D01*
X175944047Y-137979047D01*
X176355073Y-137641727D01*
X176824009Y-137391075D01*
X177332842Y-137236722D01*
X177868140Y-137184000D01*
X183531860Y-137184000D01*
X184067158Y-137236722D01*
X184067158Y-137236722D01*
G37*
G36*
X119047442Y-145893518D02*
G01*
X119113627Y-145900037D01*
X119226853Y-145934384D01*
X119283467Y-145951557D01*
X119388818Y-146007869D01*
X119439991Y-146035222D01*
X119447906Y-146041718D01*
X119577186Y-146147814D01*
X119648058Y-146234173D01*
X119689778Y-146285009D01*
X119689779Y-146285011D01*
X119773443Y-146441533D01*
X119773443Y-146441534D01*
X119824963Y-146611373D01*
X119842359Y-146788000D01*
X119824963Y-146964627D01*
X119790616Y-147077853D01*
X119773443Y-147134467D01*
X119714401Y-147244925D01*
X119689778Y-147290991D01*
X119685681Y-147295983D01*
X119577186Y-147428186D01*
X119506738Y-147486000D01*
X119439991Y-147540778D01*
X119439989Y-147540779D01*
X119283467Y-147624443D01*
X119226853Y-147641616D01*
X119113627Y-147675963D01*
X119047442Y-147682482D01*
X118981260Y-147689000D01*
X118892740Y-147689000D01*
X118826558Y-147682482D01*
X118760373Y-147675963D01*
X118647147Y-147641616D01*
X118590533Y-147624443D01*
X118434011Y-147540779D01*
X118434009Y-147540778D01*
X118367262Y-147486000D01*
X118296814Y-147428186D01*
X118188319Y-147295983D01*
X118184222Y-147290991D01*
X118159599Y-147244925D01*
X118100557Y-147134467D01*
X118083384Y-147077853D01*
X118049037Y-146964627D01*
X118031641Y-146788000D01*
X118049037Y-146611373D01*
X118100557Y-146441534D01*
X118100557Y-146441533D01*
X118184221Y-146285011D01*
X118184222Y-146285009D01*
X118225942Y-146234173D01*
X118296814Y-146147814D01*
X118426094Y-146041718D01*
X118434009Y-146035222D01*
X118485182Y-146007869D01*
X118590533Y-145951557D01*
X118647147Y-145934384D01*
X118760373Y-145900037D01*
X118826558Y-145893518D01*
X118892740Y-145887000D01*
X118981260Y-145887000D01*
X119047442Y-145893518D01*
X119047442Y-145893518D01*
G37*
G36*
X117298000Y-147689000D02*
G01*
X115496000Y-147689000D01*
X115496000Y-145887000D01*
X117298000Y-145887000D01*
X117298000Y-147689000D01*
X117298000Y-147689000D01*
G37*
G36*
X154978677Y-145966465D02*
G01*
X155016364Y-145977898D01*
X155051103Y-145996466D01*
X155081548Y-146021452D01*
X155106534Y-146051897D01*
X155125102Y-146086636D01*
X155136535Y-146124323D01*
X155141000Y-146169661D01*
X155141000Y-147256339D01*
X155136535Y-147301677D01*
X155125102Y-147339364D01*
X155106534Y-147374103D01*
X155081548Y-147404548D01*
X155051103Y-147429534D01*
X155016364Y-147448102D01*
X154978677Y-147459535D01*
X154933339Y-147464000D01*
X154096661Y-147464000D01*
X154051323Y-147459535D01*
X154013636Y-147448102D01*
X153978897Y-147429534D01*
X153948452Y-147404548D01*
X153923466Y-147374103D01*
X153904898Y-147339364D01*
X153893465Y-147301677D01*
X153889000Y-147256339D01*
X153889000Y-146169661D01*
X153893465Y-146124323D01*
X153904898Y-146086636D01*
X153923466Y-146051897D01*
X153948452Y-146021452D01*
X153978897Y-145996466D01*
X154013636Y-145977898D01*
X154051323Y-145966465D01*
X154096661Y-145962000D01*
X154933339Y-145962000D01*
X154978677Y-145966465D01*
X154978677Y-145966465D01*
G37*
G36*
X152928677Y-145966465D02*
G01*
X152966364Y-145977898D01*
X153001103Y-145996466D01*
X153031548Y-146021452D01*
X153056534Y-146051897D01*
X153075102Y-146086636D01*
X153086535Y-146124323D01*
X153091000Y-146169661D01*
X153091000Y-147256339D01*
X153086535Y-147301677D01*
X153075102Y-147339364D01*
X153056534Y-147374103D01*
X153031548Y-147404548D01*
X153001103Y-147429534D01*
X152966364Y-147448102D01*
X152928677Y-147459535D01*
X152883339Y-147464000D01*
X152046661Y-147464000D01*
X152001323Y-147459535D01*
X151963636Y-147448102D01*
X151928897Y-147429534D01*
X151898452Y-147404548D01*
X151873466Y-147374103D01*
X151854898Y-147339364D01*
X151843465Y-147301677D01*
X151839000Y-147256339D01*
X151839000Y-146169661D01*
X151843465Y-146124323D01*
X151854898Y-146086636D01*
X151873466Y-146051897D01*
X151898452Y-146021452D01*
X151928897Y-145996466D01*
X151963636Y-145977898D01*
X152001323Y-145966465D01*
X152046661Y-145962000D01*
X152883339Y-145962000D01*
X152928677Y-145966465D01*
X152928677Y-145966465D01*
G37*
G36*
X195598252Y-143027818D02*
G01*
X195598254Y-143027819D01*
X195598255Y-143027819D01*
X195971513Y-143182427D01*
X195971514Y-143182428D01*
X196307439Y-143406886D01*
X196593114Y-143692561D01*
X196593116Y-143692564D01*
X196817573Y-144028487D01*
X196823170Y-144042000D01*
X196972182Y-144401748D01*
X197051000Y-144797993D01*
X197051000Y-145202007D01*
X196972645Y-145595925D01*
X196972181Y-145598255D01*
X196817573Y-145971513D01*
X196685174Y-146169661D01*
X196593114Y-146307439D01*
X196307439Y-146593114D01*
X196307436Y-146593116D01*
X195971513Y-146817573D01*
X195598255Y-146972181D01*
X195598254Y-146972181D01*
X195598252Y-146972182D01*
X195202007Y-147051000D01*
X194797993Y-147051000D01*
X194401748Y-146972182D01*
X194401746Y-146972181D01*
X194401745Y-146972181D01*
X194028487Y-146817573D01*
X193692564Y-146593116D01*
X193692561Y-146593114D01*
X193406886Y-146307439D01*
X193314826Y-146169661D01*
X193182427Y-145971513D01*
X193027819Y-145598255D01*
X193027356Y-145595925D01*
X192949000Y-145202007D01*
X192949000Y-144797993D01*
X193027818Y-144401748D01*
X193176830Y-144042000D01*
X193182427Y-144028487D01*
X193406884Y-143692564D01*
X193406886Y-143692561D01*
X193692561Y-143406886D01*
X194028486Y-143182428D01*
X194028487Y-143182427D01*
X194401745Y-143027819D01*
X194401746Y-143027819D01*
X194401748Y-143027818D01*
X194797993Y-142949000D01*
X195202007Y-142949000D01*
X195598252Y-143027818D01*
X195598252Y-143027818D01*
G37*
G36*
X105598252Y-143027818D02*
G01*
X105598254Y-143027819D01*
X105598255Y-143027819D01*
X105971513Y-143182427D01*
X105971514Y-143182428D01*
X106307439Y-143406886D01*
X106593114Y-143692561D01*
X106593116Y-143692564D01*
X106817573Y-144028487D01*
X106823170Y-144042000D01*
X106972182Y-144401748D01*
X107051000Y-144797993D01*
X107051000Y-145202007D01*
X106972645Y-145595925D01*
X106972181Y-145598255D01*
X106817573Y-145971513D01*
X106685174Y-146169661D01*
X106593114Y-146307439D01*
X106307439Y-146593114D01*
X106307436Y-146593116D01*
X105971513Y-146817573D01*
X105598255Y-146972181D01*
X105598254Y-146972181D01*
X105598252Y-146972182D01*
X105202007Y-147051000D01*
X104797993Y-147051000D01*
X104401748Y-146972182D01*
X104401746Y-146972181D01*
X104401745Y-146972181D01*
X104028487Y-146817573D01*
X103692564Y-146593116D01*
X103692561Y-146593114D01*
X103406886Y-146307439D01*
X103314826Y-146169661D01*
X103182427Y-145971513D01*
X103027819Y-145598255D01*
X103027356Y-145595925D01*
X102949000Y-145202007D01*
X102949000Y-144797993D01*
X103027818Y-144401748D01*
X103176830Y-144042000D01*
X103182427Y-144028487D01*
X103406884Y-143692564D01*
X103406886Y-143692561D01*
X103692561Y-143406886D01*
X104028486Y-143182428D01*
X104028487Y-143182427D01*
X104401745Y-143027819D01*
X104401746Y-143027819D01*
X104401748Y-143027818D01*
X104797993Y-142949000D01*
X105202007Y-142949000D01*
X105598252Y-143027818D01*
X105598252Y-143027818D01*
G37*
G36*
X162173000Y-146325000D02*
G01*
X157471000Y-146325000D01*
X157471000Y-145123000D01*
X162173000Y-145123000D01*
X162173000Y-146325000D01*
X162173000Y-146325000D01*
G37*
G36*
X142185677Y-144567465D02*
G01*
X142223364Y-144578898D01*
X142258103Y-144597466D01*
X142288548Y-144622452D01*
X142313534Y-144652897D01*
X142332102Y-144687636D01*
X142343535Y-144725323D01*
X142348000Y-144770661D01*
X142348000Y-145607339D01*
X142343535Y-145652677D01*
X142332102Y-145690364D01*
X142313534Y-145725103D01*
X142288548Y-145755548D01*
X142258103Y-145780534D01*
X142223364Y-145799102D01*
X142185677Y-145810535D01*
X142140339Y-145815000D01*
X141053661Y-145815000D01*
X141008323Y-145810535D01*
X140970636Y-145799102D01*
X140935897Y-145780534D01*
X140905452Y-145755548D01*
X140880466Y-145725103D01*
X140861898Y-145690364D01*
X140850465Y-145652677D01*
X140846000Y-145607339D01*
X140846000Y-144770661D01*
X140850465Y-144725323D01*
X140861898Y-144687636D01*
X140880466Y-144652897D01*
X140905452Y-144622452D01*
X140935897Y-144597466D01*
X140970636Y-144578898D01*
X141008323Y-144567465D01*
X141053661Y-144563000D01*
X142140339Y-144563000D01*
X142185677Y-144567465D01*
X142185677Y-144567465D01*
G37*
G36*
X123641000Y-145312000D02*
G01*
X121989000Y-145312000D01*
X121989000Y-144610000D01*
X123641000Y-144610000D01*
X123641000Y-145312000D01*
X123641000Y-145312000D01*
G37*
G36*
X129041000Y-145312000D02*
G01*
X127389000Y-145312000D01*
X127389000Y-144610000D01*
X129041000Y-144610000D01*
X129041000Y-145312000D01*
X129041000Y-145312000D01*
G37*
G36*
X123641000Y-144042000D02*
G01*
X121989000Y-144042000D01*
X121989000Y-143340000D01*
X123641000Y-143340000D01*
X123641000Y-144042000D01*
X123641000Y-144042000D01*
G37*
G36*
X129041000Y-144042000D02*
G01*
X127389000Y-144042000D01*
X127389000Y-143340000D01*
X129041000Y-143340000D01*
X129041000Y-144042000D01*
X129041000Y-144042000D01*
G37*
G36*
X131543677Y-142779465D02*
G01*
X131581364Y-142790898D01*
X131616103Y-142809466D01*
X131646548Y-142834452D01*
X131671534Y-142864897D01*
X131690102Y-142899636D01*
X131701535Y-142937323D01*
X131706000Y-142982661D01*
X131706000Y-143819339D01*
X131701535Y-143864677D01*
X131690102Y-143902364D01*
X131671534Y-143937103D01*
X131646548Y-143967548D01*
X131616103Y-143992534D01*
X131581364Y-144011102D01*
X131543677Y-144022535D01*
X131498339Y-144027000D01*
X130411661Y-144027000D01*
X130366323Y-144022535D01*
X130328636Y-144011102D01*
X130293897Y-143992534D01*
X130263452Y-143967548D01*
X130238466Y-143937103D01*
X130219898Y-143902364D01*
X130208465Y-143864677D01*
X130204000Y-143819339D01*
X130204000Y-142982661D01*
X130208465Y-142937323D01*
X130219898Y-142899636D01*
X130238466Y-142864897D01*
X130263452Y-142834452D01*
X130293897Y-142809466D01*
X130328636Y-142790898D01*
X130366323Y-142779465D01*
X130411661Y-142775000D01*
X131498339Y-142775000D01*
X131543677Y-142779465D01*
X131543677Y-142779465D01*
G37*
G36*
X119742677Y-142640465D02*
G01*
X119780364Y-142651898D01*
X119815103Y-142670466D01*
X119845548Y-142695452D01*
X119870534Y-142725897D01*
X119889102Y-142760636D01*
X119900535Y-142798323D01*
X119905000Y-142843661D01*
X119905000Y-143680339D01*
X119900535Y-143725677D01*
X119889102Y-143763364D01*
X119870534Y-143798103D01*
X119845548Y-143828548D01*
X119815103Y-143853534D01*
X119780364Y-143872102D01*
X119742677Y-143883535D01*
X119697339Y-143888000D01*
X118610661Y-143888000D01*
X118565323Y-143883535D01*
X118527636Y-143872102D01*
X118492897Y-143853534D01*
X118462452Y-143828548D01*
X118437466Y-143798103D01*
X118418898Y-143763364D01*
X118407465Y-143725677D01*
X118403000Y-143680339D01*
X118403000Y-142843661D01*
X118407465Y-142798323D01*
X118418898Y-142760636D01*
X118437466Y-142725897D01*
X118462452Y-142695452D01*
X118492897Y-142670466D01*
X118527636Y-142651898D01*
X118565323Y-142640465D01*
X118610661Y-142636000D01*
X119697339Y-142636000D01*
X119742677Y-142640465D01*
X119742677Y-142640465D01*
G37*
G36*
X162173000Y-143785000D02*
G01*
X157471000Y-143785000D01*
X157471000Y-142583000D01*
X162173000Y-142583000D01*
X162173000Y-143785000D01*
X162173000Y-143785000D01*
G37*
G36*
X142185677Y-142517465D02*
G01*
X142223364Y-142528898D01*
X142258103Y-142547466D01*
X142288548Y-142572452D01*
X142313534Y-142602897D01*
X142332102Y-142637636D01*
X142343535Y-142675323D01*
X142348000Y-142720661D01*
X142348000Y-143557339D01*
X142343535Y-143602677D01*
X142332102Y-143640364D01*
X142313534Y-143675103D01*
X142288548Y-143705548D01*
X142258103Y-143730534D01*
X142223364Y-143749102D01*
X142185677Y-143760535D01*
X142140339Y-143765000D01*
X141053661Y-143765000D01*
X141008323Y-143760535D01*
X140970636Y-143749102D01*
X140935897Y-143730534D01*
X140905452Y-143705548D01*
X140880466Y-143675103D01*
X140861898Y-143640364D01*
X140850465Y-143602677D01*
X140846000Y-143557339D01*
X140846000Y-142720661D01*
X140850465Y-142675323D01*
X140861898Y-142637636D01*
X140880466Y-142602897D01*
X140905452Y-142572452D01*
X140935897Y-142547466D01*
X140970636Y-142528898D01*
X141008323Y-142517465D01*
X141053661Y-142513000D01*
X142140339Y-142513000D01*
X142185677Y-142517465D01*
X142185677Y-142517465D01*
G37*
G36*
X138364000Y-142919000D02*
G01*
X137662000Y-142919000D01*
X137662000Y-141267000D01*
X138364000Y-141267000D01*
X138364000Y-142919000D01*
X138364000Y-142919000D01*
G37*
G36*
X135824000Y-142919000D02*
G01*
X135122000Y-142919000D01*
X135122000Y-141267000D01*
X135824000Y-141267000D01*
X135824000Y-142919000D01*
X135824000Y-142919000D01*
G37*
G36*
X134554000Y-142919000D02*
G01*
X133852000Y-142919000D01*
X133852000Y-141267000D01*
X134554000Y-141267000D01*
X134554000Y-142919000D01*
X134554000Y-142919000D01*
G37*
G36*
X137094000Y-142919000D02*
G01*
X136392000Y-142919000D01*
X136392000Y-141267000D01*
X137094000Y-141267000D01*
X137094000Y-142919000D01*
X137094000Y-142919000D01*
G37*
G36*
X129041000Y-142772000D02*
G01*
X127389000Y-142772000D01*
X127389000Y-142070000D01*
X129041000Y-142070000D01*
X129041000Y-142772000D01*
X129041000Y-142772000D01*
G37*
G36*
X123641000Y-142772000D02*
G01*
X121989000Y-142772000D01*
X121989000Y-142070000D01*
X123641000Y-142070000D01*
X123641000Y-142772000D01*
X123641000Y-142772000D01*
G37*
G36*
X131543677Y-140729465D02*
G01*
X131581364Y-140740898D01*
X131616103Y-140759466D01*
X131646548Y-140784452D01*
X131671534Y-140814897D01*
X131690102Y-140849636D01*
X131701535Y-140887323D01*
X131706000Y-140932661D01*
X131706000Y-141769339D01*
X131701535Y-141814677D01*
X131690102Y-141852364D01*
X131671534Y-141887103D01*
X131646548Y-141917548D01*
X131616103Y-141942534D01*
X131581364Y-141961102D01*
X131543677Y-141972535D01*
X131498339Y-141977000D01*
X130411661Y-141977000D01*
X130366323Y-141972535D01*
X130328636Y-141961102D01*
X130293897Y-141942534D01*
X130263452Y-141917548D01*
X130238466Y-141887103D01*
X130219898Y-141852364D01*
X130208465Y-141814677D01*
X130204000Y-141769339D01*
X130204000Y-140932661D01*
X130208465Y-140887323D01*
X130219898Y-140849636D01*
X130238466Y-140814897D01*
X130263452Y-140784452D01*
X130293897Y-140759466D01*
X130328636Y-140740898D01*
X130366323Y-140729465D01*
X130411661Y-140725000D01*
X131498339Y-140725000D01*
X131543677Y-140729465D01*
X131543677Y-140729465D01*
G37*
G36*
X119742677Y-140590465D02*
G01*
X119780364Y-140601898D01*
X119815103Y-140620466D01*
X119845548Y-140645452D01*
X119870534Y-140675897D01*
X119889102Y-140710636D01*
X119900535Y-140748323D01*
X119905000Y-140793661D01*
X119905000Y-141630339D01*
X119900535Y-141675677D01*
X119889102Y-141713364D01*
X119870534Y-141748103D01*
X119845548Y-141778548D01*
X119815103Y-141803534D01*
X119780364Y-141822102D01*
X119742677Y-141833535D01*
X119697339Y-141838000D01*
X118610661Y-141838000D01*
X118565323Y-141833535D01*
X118527636Y-141822102D01*
X118492897Y-141803534D01*
X118462452Y-141778548D01*
X118437466Y-141748103D01*
X118418898Y-141713364D01*
X118407465Y-141675677D01*
X118403000Y-141630339D01*
X118403000Y-140793661D01*
X118407465Y-140748323D01*
X118418898Y-140710636D01*
X118437466Y-140675897D01*
X118462452Y-140645452D01*
X118492897Y-140620466D01*
X118527636Y-140601898D01*
X118565323Y-140590465D01*
X118610661Y-140586000D01*
X119697339Y-140586000D01*
X119742677Y-140590465D01*
X119742677Y-140590465D01*
G37*
G36*
X116949677Y-140199465D02*
G01*
X116987364Y-140210898D01*
X117022103Y-140229466D01*
X117052548Y-140254452D01*
X117077534Y-140284897D01*
X117096102Y-140319636D01*
X117107535Y-140357323D01*
X117112000Y-140402661D01*
X117112000Y-141489339D01*
X117107535Y-141534677D01*
X117096102Y-141572364D01*
X117077534Y-141607103D01*
X117052548Y-141637548D01*
X117022103Y-141662534D01*
X116987364Y-141681102D01*
X116949677Y-141692535D01*
X116904339Y-141697000D01*
X116067661Y-141697000D01*
X116022323Y-141692535D01*
X115984636Y-141681102D01*
X115949897Y-141662534D01*
X115919452Y-141637548D01*
X115894466Y-141607103D01*
X115875898Y-141572364D01*
X115864465Y-141534677D01*
X115860000Y-141489339D01*
X115860000Y-140402661D01*
X115864465Y-140357323D01*
X115875898Y-140319636D01*
X115894466Y-140284897D01*
X115919452Y-140254452D01*
X115949897Y-140229466D01*
X115984636Y-140210898D01*
X116022323Y-140199465D01*
X116067661Y-140195000D01*
X116904339Y-140195000D01*
X116949677Y-140199465D01*
X116949677Y-140199465D01*
G37*
G36*
X114899677Y-140199465D02*
G01*
X114937364Y-140210898D01*
X114972103Y-140229466D01*
X115002548Y-140254452D01*
X115027534Y-140284897D01*
X115046102Y-140319636D01*
X115057535Y-140357323D01*
X115062000Y-140402661D01*
X115062000Y-141489339D01*
X115057535Y-141534677D01*
X115046102Y-141572364D01*
X115027534Y-141607103D01*
X115002548Y-141637548D01*
X114972103Y-141662534D01*
X114937364Y-141681102D01*
X114899677Y-141692535D01*
X114854339Y-141697000D01*
X114017661Y-141697000D01*
X113972323Y-141692535D01*
X113934636Y-141681102D01*
X113899897Y-141662534D01*
X113869452Y-141637548D01*
X113844466Y-141607103D01*
X113825898Y-141572364D01*
X113814465Y-141534677D01*
X113810000Y-141489339D01*
X113810000Y-140402661D01*
X113814465Y-140357323D01*
X113825898Y-140319636D01*
X113844466Y-140284897D01*
X113869452Y-140254452D01*
X113899897Y-140229466D01*
X113934636Y-140210898D01*
X113972323Y-140199465D01*
X114017661Y-140195000D01*
X114854339Y-140195000D01*
X114899677Y-140199465D01*
X114899677Y-140199465D01*
G37*
G36*
X129041000Y-141502000D02*
G01*
X127389000Y-141502000D01*
X127389000Y-140800000D01*
X129041000Y-140800000D01*
X129041000Y-141502000D01*
X129041000Y-141502000D01*
G37*
G36*
X123641000Y-141502000D02*
G01*
X121989000Y-141502000D01*
X121989000Y-140800000D01*
X123641000Y-140800000D01*
X123641000Y-141502000D01*
X123641000Y-141502000D01*
G37*
G36*
X162173000Y-141245000D02*
G01*
X157471000Y-141245000D01*
X157471000Y-140043000D01*
X162173000Y-140043000D01*
X162173000Y-141245000D01*
X162173000Y-141245000D01*
G37*
G36*
X154484677Y-139072465D02*
G01*
X154522364Y-139083898D01*
X154557103Y-139102466D01*
X154587548Y-139127452D01*
X154612534Y-139157897D01*
X154631102Y-139192636D01*
X154642535Y-139230323D01*
X154647000Y-139275661D01*
X154647000Y-140362339D01*
X154642535Y-140407677D01*
X154631102Y-140445364D01*
X154612534Y-140480103D01*
X154587548Y-140510548D01*
X154557103Y-140535534D01*
X154522364Y-140554102D01*
X154484677Y-140565535D01*
X154439339Y-140570000D01*
X153602661Y-140570000D01*
X153557323Y-140565535D01*
X153519636Y-140554102D01*
X153484897Y-140535534D01*
X153454452Y-140510548D01*
X153429466Y-140480103D01*
X153410898Y-140445364D01*
X153399465Y-140407677D01*
X153395000Y-140362339D01*
X153395000Y-139275661D01*
X153399465Y-139230323D01*
X153410898Y-139192636D01*
X153429466Y-139157897D01*
X153454452Y-139127452D01*
X153484897Y-139102466D01*
X153519636Y-139083898D01*
X153557323Y-139072465D01*
X153602661Y-139068000D01*
X154439339Y-139068000D01*
X154484677Y-139072465D01*
X154484677Y-139072465D01*
G37*
G36*
X152434677Y-139072465D02*
G01*
X152472364Y-139083898D01*
X152507103Y-139102466D01*
X152537548Y-139127452D01*
X152562534Y-139157897D01*
X152581102Y-139192636D01*
X152592535Y-139230323D01*
X152597000Y-139275661D01*
X152597000Y-140362339D01*
X152592535Y-140407677D01*
X152581102Y-140445364D01*
X152562534Y-140480103D01*
X152537548Y-140510548D01*
X152507103Y-140535534D01*
X152472364Y-140554102D01*
X152434677Y-140565535D01*
X152389339Y-140570000D01*
X151552661Y-140570000D01*
X151507323Y-140565535D01*
X151469636Y-140554102D01*
X151434897Y-140535534D01*
X151404452Y-140510548D01*
X151379466Y-140480103D01*
X151360898Y-140445364D01*
X151349465Y-140407677D01*
X151345000Y-140362339D01*
X151345000Y-139275661D01*
X151349465Y-139230323D01*
X151360898Y-139192636D01*
X151379466Y-139157897D01*
X151404452Y-139127452D01*
X151434897Y-139102466D01*
X151469636Y-139083898D01*
X151507323Y-139072465D01*
X151552661Y-139068000D01*
X152389339Y-139068000D01*
X152434677Y-139072465D01*
X152434677Y-139072465D01*
G37*
G36*
X147581677Y-138541465D02*
G01*
X147619364Y-138552898D01*
X147654103Y-138571466D01*
X147684548Y-138596452D01*
X147709534Y-138626897D01*
X147728102Y-138661636D01*
X147739535Y-138699323D01*
X147744000Y-138744661D01*
X147744000Y-139831339D01*
X147739535Y-139876677D01*
X147728102Y-139914364D01*
X147709534Y-139949103D01*
X147684548Y-139979548D01*
X147654103Y-140004534D01*
X147619364Y-140023102D01*
X147581677Y-140034535D01*
X147536339Y-140039000D01*
X146699661Y-140039000D01*
X146654323Y-140034535D01*
X146616636Y-140023102D01*
X146581897Y-140004534D01*
X146551452Y-139979548D01*
X146526466Y-139949103D01*
X146507898Y-139914364D01*
X146496465Y-139876677D01*
X146492000Y-139831339D01*
X146492000Y-138744661D01*
X146496465Y-138699323D01*
X146507898Y-138661636D01*
X146526466Y-138626897D01*
X146551452Y-138596452D01*
X146581897Y-138571466D01*
X146616636Y-138552898D01*
X146654323Y-138541465D01*
X146699661Y-138537000D01*
X147536339Y-138537000D01*
X147581677Y-138541465D01*
X147581677Y-138541465D01*
G37*
G36*
X145531677Y-138541465D02*
G01*
X145569364Y-138552898D01*
X145604103Y-138571466D01*
X145634548Y-138596452D01*
X145659534Y-138626897D01*
X145678102Y-138661636D01*
X145689535Y-138699323D01*
X145694000Y-138744661D01*
X145694000Y-139831339D01*
X145689535Y-139876677D01*
X145678102Y-139914364D01*
X145659534Y-139949103D01*
X145634548Y-139979548D01*
X145604103Y-140004534D01*
X145569364Y-140023102D01*
X145531677Y-140034535D01*
X145486339Y-140039000D01*
X144649661Y-140039000D01*
X144604323Y-140034535D01*
X144566636Y-140023102D01*
X144531897Y-140004534D01*
X144501452Y-139979548D01*
X144476466Y-139949103D01*
X144457898Y-139914364D01*
X144446465Y-139876677D01*
X144442000Y-139831339D01*
X144442000Y-138744661D01*
X144446465Y-138699323D01*
X144457898Y-138661636D01*
X144476466Y-138626897D01*
X144501452Y-138596452D01*
X144531897Y-138571466D01*
X144566636Y-138552898D01*
X144604323Y-138541465D01*
X144649661Y-138537000D01*
X145486339Y-138537000D01*
X145531677Y-138541465D01*
X145531677Y-138541465D01*
G37*
G36*
X141061000Y-139870000D02*
G01*
X140059000Y-139870000D01*
X140059000Y-138968000D01*
X141061000Y-138968000D01*
X141061000Y-139870000D01*
X141061000Y-139870000D01*
G37*
G36*
X121436677Y-137721465D02*
G01*
X121474364Y-137732898D01*
X121509103Y-137751466D01*
X121539548Y-137776452D01*
X121564534Y-137806897D01*
X121583102Y-137841636D01*
X121594535Y-137879323D01*
X121599000Y-137924661D01*
X121599000Y-139011339D01*
X121594535Y-139056677D01*
X121583102Y-139094364D01*
X121564534Y-139129103D01*
X121539548Y-139159548D01*
X121509103Y-139184534D01*
X121474364Y-139203102D01*
X121436677Y-139214535D01*
X121391339Y-139219000D01*
X120554661Y-139219000D01*
X120509323Y-139214535D01*
X120471636Y-139203102D01*
X120436897Y-139184534D01*
X120406452Y-139159548D01*
X120381466Y-139129103D01*
X120362898Y-139094364D01*
X120351465Y-139056677D01*
X120347000Y-139011339D01*
X120347000Y-137924661D01*
X120351465Y-137879323D01*
X120362898Y-137841636D01*
X120381466Y-137806897D01*
X120406452Y-137776452D01*
X120436897Y-137751466D01*
X120471636Y-137732898D01*
X120509323Y-137721465D01*
X120554661Y-137717000D01*
X121391339Y-137717000D01*
X121436677Y-137721465D01*
X121436677Y-137721465D01*
G37*
G36*
X119386677Y-137721465D02*
G01*
X119424364Y-137732898D01*
X119459103Y-137751466D01*
X119489548Y-137776452D01*
X119514534Y-137806897D01*
X119533102Y-137841636D01*
X119544535Y-137879323D01*
X119549000Y-137924661D01*
X119549000Y-139011339D01*
X119544535Y-139056677D01*
X119533102Y-139094364D01*
X119514534Y-139129103D01*
X119489548Y-139159548D01*
X119459103Y-139184534D01*
X119424364Y-139203102D01*
X119386677Y-139214535D01*
X119341339Y-139219000D01*
X118504661Y-139219000D01*
X118459323Y-139214535D01*
X118421636Y-139203102D01*
X118386897Y-139184534D01*
X118356452Y-139159548D01*
X118331466Y-139129103D01*
X118312898Y-139094364D01*
X118301465Y-139056677D01*
X118297000Y-139011339D01*
X118297000Y-137924661D01*
X118301465Y-137879323D01*
X118312898Y-137841636D01*
X118331466Y-137806897D01*
X118356452Y-137776452D01*
X118386897Y-137751466D01*
X118421636Y-137732898D01*
X118459323Y-137721465D01*
X118504661Y-137717000D01*
X119341339Y-137717000D01*
X119386677Y-137721465D01*
X119386677Y-137721465D01*
G37*
G36*
X143061000Y-138920000D02*
G01*
X142059000Y-138920000D01*
X142059000Y-138018000D01*
X143061000Y-138018000D01*
X143061000Y-138920000D01*
X143061000Y-138920000D01*
G37*
G36*
X141061000Y-137970000D02*
G01*
X140059000Y-137970000D01*
X140059000Y-137068000D01*
X141061000Y-137068000D01*
X141061000Y-137970000D01*
X141061000Y-137970000D01*
G37*
G36*
X131108443Y-135673519D02*
G01*
X131174627Y-135680037D01*
X131287853Y-135714384D01*
X131344467Y-135731557D01*
X131483087Y-135805652D01*
X131500991Y-135815222D01*
X131536729Y-135844552D01*
X131638186Y-135927814D01*
X131721448Y-136029271D01*
X131750778Y-136065009D01*
X131750779Y-136065011D01*
X131834443Y-136221533D01*
X131834443Y-136221534D01*
X131885963Y-136391373D01*
X131903359Y-136568000D01*
X131885963Y-136744627D01*
X131851616Y-136857853D01*
X131834443Y-136914467D01*
X131760348Y-137053087D01*
X131750778Y-137070991D01*
X131721448Y-137106729D01*
X131638186Y-137208186D01*
X131536729Y-137291448D01*
X131500991Y-137320778D01*
X131500989Y-137320779D01*
X131344467Y-137404443D01*
X131287853Y-137421616D01*
X131174627Y-137455963D01*
X131108443Y-137462481D01*
X131042260Y-137469000D01*
X130953740Y-137469000D01*
X130887557Y-137462481D01*
X130821373Y-137455963D01*
X130708147Y-137421616D01*
X130651533Y-137404443D01*
X130495011Y-137320779D01*
X130495009Y-137320778D01*
X130459271Y-137291448D01*
X130357814Y-137208186D01*
X130274552Y-137106729D01*
X130245222Y-137070991D01*
X130235652Y-137053087D01*
X130161557Y-136914467D01*
X130144384Y-136857853D01*
X130110037Y-136744627D01*
X130092641Y-136568000D01*
X130110037Y-136391373D01*
X130161557Y-136221534D01*
X130161557Y-136221533D01*
X130245221Y-136065011D01*
X130245222Y-136065009D01*
X130274552Y-136029271D01*
X130357814Y-135927814D01*
X130459271Y-135844552D01*
X130495009Y-135815222D01*
X130512913Y-135805652D01*
X130651533Y-135731557D01*
X130708147Y-135714384D01*
X130821373Y-135680037D01*
X130887558Y-135673519D01*
X130953740Y-135667000D01*
X131042260Y-135667000D01*
X131108443Y-135673519D01*
X131108443Y-135673519D01*
G37*
G36*
X129359000Y-137469000D02*
G01*
X127557000Y-137469000D01*
X127557000Y-135667000D01*
X129359000Y-135667000D01*
X129359000Y-137469000D01*
X129359000Y-137469000D01*
G37*
G36*
X121311000Y-136993000D02*
G01*
X120409000Y-136993000D01*
X120409000Y-135991000D01*
X121311000Y-135991000D01*
X121311000Y-136993000D01*
X121311000Y-136993000D01*
G37*
G36*
X119411000Y-136993000D02*
G01*
X118509000Y-136993000D01*
X118509000Y-135991000D01*
X119411000Y-135991000D01*
X119411000Y-136993000D01*
X119411000Y-136993000D01*
G37*
G36*
X184392821Y-133545103D02*
G01*
X184426982Y-133555466D01*
X184458464Y-133572293D01*
X184486060Y-133594940D01*
X184508707Y-133622536D01*
X184525534Y-133654018D01*
X184535897Y-133688179D01*
X184540000Y-133729842D01*
X184540000Y-134979158D01*
X184535897Y-135020821D01*
X184525534Y-135054982D01*
X184508707Y-135086464D01*
X184486060Y-135114060D01*
X184458464Y-135136707D01*
X184426982Y-135153534D01*
X184392821Y-135163897D01*
X184351158Y-135168000D01*
X181276842Y-135168000D01*
X181235179Y-135163897D01*
X181201018Y-135153534D01*
X181169536Y-135136707D01*
X181141940Y-135114060D01*
X181119293Y-135086464D01*
X181102466Y-135054982D01*
X181092103Y-135020821D01*
X181088000Y-134979158D01*
X181088000Y-133729842D01*
X181092103Y-133688179D01*
X181102466Y-133654018D01*
X181119293Y-133622536D01*
X181141940Y-133594940D01*
X181169536Y-133572293D01*
X181201018Y-133555466D01*
X181235179Y-133545103D01*
X181276842Y-133541000D01*
X184351158Y-133541000D01*
X184392821Y-133545103D01*
X184392821Y-133545103D01*
G37*
G36*
X190499821Y-133516103D02*
G01*
X190533982Y-133526466D01*
X190565464Y-133543293D01*
X190593060Y-133565940D01*
X190615707Y-133593536D01*
X190632534Y-133625018D01*
X190642897Y-133659179D01*
X190647000Y-133700842D01*
X190647000Y-134950158D01*
X190642897Y-134991821D01*
X190632534Y-135025982D01*
X190615707Y-135057464D01*
X190593060Y-135085060D01*
X190565464Y-135107707D01*
X190533982Y-135124534D01*
X190499821Y-135134897D01*
X190458158Y-135139000D01*
X187383842Y-135139000D01*
X187342179Y-135134897D01*
X187308018Y-135124534D01*
X187276536Y-135107707D01*
X187248940Y-135085060D01*
X187226293Y-135057464D01*
X187209466Y-135025982D01*
X187199103Y-134991821D01*
X187195000Y-134950158D01*
X187195000Y-133700842D01*
X187199103Y-133659179D01*
X187209466Y-133625018D01*
X187226293Y-133593536D01*
X187248940Y-133565940D01*
X187276536Y-133543293D01*
X187308018Y-133526466D01*
X187342179Y-133516103D01*
X187383842Y-133512000D01*
X190458158Y-133512000D01*
X190499821Y-133516103D01*
X190499821Y-133516103D01*
G37*
G36*
X120361000Y-134993000D02*
G01*
X119459000Y-134993000D01*
X119459000Y-133991000D01*
X120361000Y-133991000D01*
X120361000Y-134993000D01*
X120361000Y-134993000D01*
G37*
G36*
X180172677Y-133725465D02*
G01*
X180210364Y-133736898D01*
X180245103Y-133755466D01*
X180275548Y-133780452D01*
X180300534Y-133810897D01*
X180319102Y-133845636D01*
X180330535Y-133883323D01*
X180335000Y-133928661D01*
X180335000Y-134765339D01*
X180330535Y-134810677D01*
X180319102Y-134848364D01*
X180300534Y-134883103D01*
X180275548Y-134913548D01*
X180245103Y-134938534D01*
X180210364Y-134957102D01*
X180172677Y-134968535D01*
X180127339Y-134973000D01*
X179040661Y-134973000D01*
X178995323Y-134968535D01*
X178957636Y-134957102D01*
X178922897Y-134938534D01*
X178892452Y-134913548D01*
X178867466Y-134883103D01*
X178848898Y-134848364D01*
X178837465Y-134810677D01*
X178833000Y-134765339D01*
X178833000Y-133928661D01*
X178837465Y-133883323D01*
X178848898Y-133845636D01*
X178867466Y-133810897D01*
X178892452Y-133780452D01*
X178922897Y-133755466D01*
X178957636Y-133736898D01*
X178995323Y-133725465D01*
X179040661Y-133721000D01*
X180127339Y-133721000D01*
X180172677Y-133725465D01*
X180172677Y-133725465D01*
G37*
G36*
X177027677Y-133470465D02*
G01*
X177065364Y-133481898D01*
X177100103Y-133500466D01*
X177130548Y-133525452D01*
X177155534Y-133555897D01*
X177174102Y-133590636D01*
X177185535Y-133628323D01*
X177190000Y-133673661D01*
X177190000Y-134510339D01*
X177185535Y-134555677D01*
X177174102Y-134593364D01*
X177155534Y-134628103D01*
X177130548Y-134658548D01*
X177100103Y-134683534D01*
X177065364Y-134702102D01*
X177027677Y-134713535D01*
X176982339Y-134718000D01*
X175895661Y-134718000D01*
X175850323Y-134713535D01*
X175812636Y-134702102D01*
X175777897Y-134683534D01*
X175747452Y-134658548D01*
X175722466Y-134628103D01*
X175703898Y-134593364D01*
X175692465Y-134555677D01*
X175688000Y-134510339D01*
X175688000Y-133673661D01*
X175692465Y-133628323D01*
X175703898Y-133590636D01*
X175722466Y-133555897D01*
X175747452Y-133525452D01*
X175777897Y-133500466D01*
X175812636Y-133481898D01*
X175850323Y-133470465D01*
X175895661Y-133466000D01*
X176982339Y-133466000D01*
X177027677Y-133470465D01*
X177027677Y-133470465D01*
G37*
G36*
X173208677Y-133406465D02*
G01*
X173246364Y-133417898D01*
X173281103Y-133436466D01*
X173311548Y-133461452D01*
X173336534Y-133491897D01*
X173355102Y-133526636D01*
X173366535Y-133564323D01*
X173371000Y-133609661D01*
X173371000Y-134446339D01*
X173366535Y-134491677D01*
X173355102Y-134529364D01*
X173336534Y-134564103D01*
X173311548Y-134594548D01*
X173281103Y-134619534D01*
X173246364Y-134638102D01*
X173208677Y-134649535D01*
X173163339Y-134654000D01*
X172076661Y-134654000D01*
X172031323Y-134649535D01*
X171993636Y-134638102D01*
X171958897Y-134619534D01*
X171928452Y-134594548D01*
X171903466Y-134564103D01*
X171884898Y-134529364D01*
X171873465Y-134491677D01*
X171869000Y-134446339D01*
X171869000Y-133609661D01*
X171873465Y-133564323D01*
X171884898Y-133526636D01*
X171903466Y-133491897D01*
X171928452Y-133461452D01*
X171958897Y-133436466D01*
X171993636Y-133417898D01*
X172031323Y-133406465D01*
X172076661Y-133402000D01*
X173163339Y-133402000D01*
X173208677Y-133406465D01*
X173208677Y-133406465D01*
G37*
G36*
X141851120Y-130037656D02*
G01*
X142017595Y-130088155D01*
X142171011Y-130170157D01*
X142305483Y-130280517D01*
X142415843Y-130414989D01*
X142497845Y-130568405D01*
X142548344Y-130734880D01*
X142566000Y-130914140D01*
X142566000Y-132927860D01*
X142548344Y-133107120D01*
X142497845Y-133273595D01*
X142415843Y-133427011D01*
X142305483Y-133561483D01*
X142171011Y-133671843D01*
X142017595Y-133753845D01*
X141851120Y-133804344D01*
X141671860Y-133822000D01*
X139658140Y-133822000D01*
X139478880Y-133804344D01*
X139312405Y-133753845D01*
X139158989Y-133671843D01*
X139024517Y-133561483D01*
X138914157Y-133427011D01*
X138832155Y-133273595D01*
X138781656Y-133107120D01*
X138764000Y-132927860D01*
X138764000Y-130914140D01*
X138781656Y-130734880D01*
X138832155Y-130568405D01*
X138914157Y-130414989D01*
X139024517Y-130280517D01*
X139158989Y-130170157D01*
X139312405Y-130088155D01*
X139478880Y-130037656D01*
X139658140Y-130020000D01*
X141671860Y-130020000D01*
X141851120Y-130037656D01*
X141851120Y-130037656D01*
G37*
G36*
X152151120Y-130037656D02*
G01*
X152317595Y-130088155D01*
X152471011Y-130170157D01*
X152605483Y-130280517D01*
X152715843Y-130414989D01*
X152797845Y-130568405D01*
X152848344Y-130734880D01*
X152866000Y-130914140D01*
X152866000Y-132927860D01*
X152848344Y-133107120D01*
X152797845Y-133273595D01*
X152715843Y-133427011D01*
X152605483Y-133561483D01*
X152471011Y-133671843D01*
X152317595Y-133753845D01*
X152151120Y-133804344D01*
X151971860Y-133822000D01*
X149958140Y-133822000D01*
X149778880Y-133804344D01*
X149612405Y-133753845D01*
X149458989Y-133671843D01*
X149324517Y-133561483D01*
X149214157Y-133427011D01*
X149132155Y-133273595D01*
X149081656Y-133107120D01*
X149064000Y-132927860D01*
X149064000Y-130914140D01*
X149081656Y-130734880D01*
X149132155Y-130568405D01*
X149214157Y-130414989D01*
X149324517Y-130280517D01*
X149458989Y-130170157D01*
X149612405Y-130088155D01*
X149778880Y-130037656D01*
X149958140Y-130020000D01*
X151971860Y-130020000D01*
X152151120Y-130037656D01*
X152151120Y-130037656D01*
G37*
G36*
X112582677Y-132002465D02*
G01*
X112620364Y-132013898D01*
X112655103Y-132032466D01*
X112685548Y-132057452D01*
X112710534Y-132087897D01*
X112729102Y-132122636D01*
X112740535Y-132160323D01*
X112745000Y-132205661D01*
X112745000Y-133292339D01*
X112740535Y-133337677D01*
X112729102Y-133375364D01*
X112710534Y-133410103D01*
X112685548Y-133440548D01*
X112655103Y-133465534D01*
X112620364Y-133484102D01*
X112582677Y-133495535D01*
X112537339Y-133500000D01*
X111700661Y-133500000D01*
X111655323Y-133495535D01*
X111617636Y-133484102D01*
X111582897Y-133465534D01*
X111552452Y-133440548D01*
X111527466Y-133410103D01*
X111508898Y-133375364D01*
X111497465Y-133337677D01*
X111493000Y-133292339D01*
X111493000Y-132205661D01*
X111497465Y-132160323D01*
X111508898Y-132122636D01*
X111527466Y-132087897D01*
X111552452Y-132057452D01*
X111582897Y-132032466D01*
X111617636Y-132013898D01*
X111655323Y-132002465D01*
X111700661Y-131998000D01*
X112537339Y-131998000D01*
X112582677Y-132002465D01*
X112582677Y-132002465D01*
G37*
G36*
X114632677Y-132002465D02*
G01*
X114670364Y-132013898D01*
X114705103Y-132032466D01*
X114735548Y-132057452D01*
X114760534Y-132087897D01*
X114779102Y-132122636D01*
X114790535Y-132160323D01*
X114795000Y-132205661D01*
X114795000Y-133292339D01*
X114790535Y-133337677D01*
X114779102Y-133375364D01*
X114760534Y-133410103D01*
X114735548Y-133440548D01*
X114705103Y-133465534D01*
X114670364Y-133484102D01*
X114632677Y-133495535D01*
X114587339Y-133500000D01*
X113750661Y-133500000D01*
X113705323Y-133495535D01*
X113667636Y-133484102D01*
X113632897Y-133465534D01*
X113602452Y-133440548D01*
X113577466Y-133410103D01*
X113558898Y-133375364D01*
X113547465Y-133337677D01*
X113543000Y-133292339D01*
X113543000Y-132205661D01*
X113547465Y-132160323D01*
X113558898Y-132122636D01*
X113577466Y-132087897D01*
X113602452Y-132057452D01*
X113632897Y-132032466D01*
X113667636Y-132013898D01*
X113705323Y-132002465D01*
X113750661Y-131998000D01*
X114587339Y-131998000D01*
X114632677Y-132002465D01*
X114632677Y-132002465D01*
G37*
G36*
X133769562Y-131203181D02*
G01*
X133804477Y-131213773D01*
X133836665Y-131230978D01*
X133864873Y-131254127D01*
X133888022Y-131282335D01*
X133905227Y-131314523D01*
X133915819Y-131349438D01*
X133920000Y-131391895D01*
X133920000Y-132858105D01*
X133915819Y-132900562D01*
X133905227Y-132935477D01*
X133888022Y-132967665D01*
X133864873Y-132995873D01*
X133836665Y-133019022D01*
X133804477Y-133036227D01*
X133769562Y-133046819D01*
X133727105Y-133051000D01*
X132585895Y-133051000D01*
X132543438Y-133046819D01*
X132508523Y-133036227D01*
X132476335Y-133019022D01*
X132448127Y-132995873D01*
X132424978Y-132967665D01*
X132407773Y-132935477D01*
X132397181Y-132900562D01*
X132393000Y-132858105D01*
X132393000Y-131391895D01*
X132397181Y-131349438D01*
X132407773Y-131314523D01*
X132424978Y-131282335D01*
X132448127Y-131254127D01*
X132476335Y-131230978D01*
X132508523Y-131213773D01*
X132543438Y-131203181D01*
X132585895Y-131199000D01*
X133727105Y-131199000D01*
X133769562Y-131203181D01*
X133769562Y-131203181D01*
G37*
G36*
X136744562Y-131203181D02*
G01*
X136779477Y-131213773D01*
X136811665Y-131230978D01*
X136839873Y-131254127D01*
X136863022Y-131282335D01*
X136880227Y-131314523D01*
X136890819Y-131349438D01*
X136895000Y-131391895D01*
X136895000Y-132858105D01*
X136890819Y-132900562D01*
X136880227Y-132935477D01*
X136863022Y-132967665D01*
X136839873Y-132995873D01*
X136811665Y-133019022D01*
X136779477Y-133036227D01*
X136744562Y-133046819D01*
X136702105Y-133051000D01*
X135560895Y-133051000D01*
X135518438Y-133046819D01*
X135483523Y-133036227D01*
X135451335Y-133019022D01*
X135423127Y-132995873D01*
X135399978Y-132967665D01*
X135382773Y-132935477D01*
X135372181Y-132900562D01*
X135368000Y-132858105D01*
X135368000Y-131391895D01*
X135372181Y-131349438D01*
X135382773Y-131314523D01*
X135399978Y-131282335D01*
X135423127Y-131254127D01*
X135451335Y-131230978D01*
X135483523Y-131213773D01*
X135518438Y-131203181D01*
X135560895Y-131199000D01*
X136702105Y-131199000D01*
X136744562Y-131203181D01*
X136744562Y-131203181D01*
G37*
G36*
X166583935Y-130419671D02*
G01*
X166613874Y-130428753D01*
X166641469Y-130443503D01*
X166665651Y-130463349D01*
X166685497Y-130487531D01*
X166700247Y-130515126D01*
X166709329Y-130545065D01*
X166713000Y-130582340D01*
X166713000Y-132851660D01*
X166709329Y-132888935D01*
X166700247Y-132918874D01*
X166685497Y-132946469D01*
X166665651Y-132970651D01*
X166641469Y-132990497D01*
X166613874Y-133005247D01*
X166583935Y-133014329D01*
X166546660Y-133018000D01*
X162777340Y-133018000D01*
X162740065Y-133014329D01*
X162710126Y-133005247D01*
X162682531Y-132990497D01*
X162658349Y-132970651D01*
X162638503Y-132946469D01*
X162623753Y-132918874D01*
X162614671Y-132888935D01*
X162611000Y-132851660D01*
X162611000Y-130582340D01*
X162614671Y-130545065D01*
X162623753Y-130515126D01*
X162638503Y-130487531D01*
X162658349Y-130463349D01*
X162682531Y-130443503D01*
X162710126Y-130428753D01*
X162740065Y-130419671D01*
X162777340Y-130416000D01*
X166546660Y-130416000D01*
X166583935Y-130419671D01*
X166583935Y-130419671D01*
G37*
G36*
X158583935Y-130419671D02*
G01*
X158613874Y-130428753D01*
X158641469Y-130443503D01*
X158665651Y-130463349D01*
X158685497Y-130487531D01*
X158700247Y-130515126D01*
X158709329Y-130545065D01*
X158713000Y-130582340D01*
X158713000Y-132851660D01*
X158709329Y-132888935D01*
X158700247Y-132918874D01*
X158685497Y-132946469D01*
X158665651Y-132970651D01*
X158641469Y-132990497D01*
X158613874Y-133005247D01*
X158583935Y-133014329D01*
X158546660Y-133018000D01*
X154777340Y-133018000D01*
X154740065Y-133014329D01*
X154710126Y-133005247D01*
X154682531Y-132990497D01*
X154658349Y-132970651D01*
X154638503Y-132946469D01*
X154623753Y-132918874D01*
X154614671Y-132888935D01*
X154611000Y-132851660D01*
X154611000Y-130582340D01*
X154614671Y-130545065D01*
X154623753Y-130515126D01*
X154638503Y-130487531D01*
X154658349Y-130463349D01*
X154682531Y-130443503D01*
X154710126Y-130428753D01*
X154740065Y-130419671D01*
X154777340Y-130416000D01*
X158546660Y-130416000D01*
X158583935Y-130419671D01*
X158583935Y-130419671D01*
G37*
G36*
X180172677Y-131675465D02*
G01*
X180210364Y-131686898D01*
X180245103Y-131705466D01*
X180275548Y-131730452D01*
X180300534Y-131760897D01*
X180319102Y-131795636D01*
X180330535Y-131833323D01*
X180335000Y-131878661D01*
X180335000Y-132715339D01*
X180330535Y-132760677D01*
X180319102Y-132798364D01*
X180300534Y-132833103D01*
X180275548Y-132863548D01*
X180245103Y-132888534D01*
X180210364Y-132907102D01*
X180172677Y-132918535D01*
X180127339Y-132923000D01*
X179040661Y-132923000D01*
X178995323Y-132918535D01*
X178957636Y-132907102D01*
X178922897Y-132888534D01*
X178892452Y-132863548D01*
X178867466Y-132833103D01*
X178848898Y-132798364D01*
X178837465Y-132760677D01*
X178833000Y-132715339D01*
X178833000Y-131878661D01*
X178837465Y-131833323D01*
X178848898Y-131795636D01*
X178867466Y-131760897D01*
X178892452Y-131730452D01*
X178922897Y-131705466D01*
X178957636Y-131686898D01*
X178995323Y-131675465D01*
X179040661Y-131671000D01*
X180127339Y-131671000D01*
X180172677Y-131675465D01*
X180172677Y-131675465D01*
G37*
G36*
X177027677Y-131420465D02*
G01*
X177065364Y-131431898D01*
X177100103Y-131450466D01*
X177130548Y-131475452D01*
X177155534Y-131505897D01*
X177174102Y-131540636D01*
X177185535Y-131578323D01*
X177190000Y-131623661D01*
X177190000Y-132460339D01*
X177185535Y-132505677D01*
X177174102Y-132543364D01*
X177155534Y-132578103D01*
X177130548Y-132608548D01*
X177100103Y-132633534D01*
X177065364Y-132652102D01*
X177027677Y-132663535D01*
X176982339Y-132668000D01*
X175895661Y-132668000D01*
X175850323Y-132663535D01*
X175812636Y-132652102D01*
X175777897Y-132633534D01*
X175747452Y-132608548D01*
X175722466Y-132578103D01*
X175703898Y-132543364D01*
X175692465Y-132505677D01*
X175688000Y-132460339D01*
X175688000Y-131623661D01*
X175692465Y-131578323D01*
X175703898Y-131540636D01*
X175722466Y-131505897D01*
X175747452Y-131475452D01*
X175777897Y-131450466D01*
X175812636Y-131431898D01*
X175850323Y-131420465D01*
X175895661Y-131416000D01*
X176982339Y-131416000D01*
X177027677Y-131420465D01*
X177027677Y-131420465D01*
G37*
G36*
X173208677Y-131356465D02*
G01*
X173246364Y-131367898D01*
X173281103Y-131386466D01*
X173311548Y-131411452D01*
X173336534Y-131441897D01*
X173355102Y-131476636D01*
X173366535Y-131514323D01*
X173371000Y-131559661D01*
X173371000Y-132396339D01*
X173366535Y-132441677D01*
X173355102Y-132479364D01*
X173336534Y-132514103D01*
X173311548Y-132544548D01*
X173281103Y-132569534D01*
X173246364Y-132588102D01*
X173208677Y-132599535D01*
X173163339Y-132604000D01*
X172076661Y-132604000D01*
X172031323Y-132599535D01*
X171993636Y-132588102D01*
X171958897Y-132569534D01*
X171928452Y-132544548D01*
X171903466Y-132514103D01*
X171884898Y-132479364D01*
X171873465Y-132441677D01*
X171869000Y-132396339D01*
X171869000Y-131559661D01*
X171873465Y-131514323D01*
X171884898Y-131476636D01*
X171903466Y-131441897D01*
X171928452Y-131411452D01*
X171958897Y-131386466D01*
X171993636Y-131367898D01*
X172031323Y-131356465D01*
X172076661Y-131352000D01*
X173163339Y-131352000D01*
X173208677Y-131356465D01*
X173208677Y-131356465D01*
G37*
G36*
X184392821Y-127570103D02*
G01*
X184426982Y-127580466D01*
X184458464Y-127597293D01*
X184486060Y-127619940D01*
X184508707Y-127647536D01*
X184525534Y-127679018D01*
X184535897Y-127713179D01*
X184540000Y-127754842D01*
X184540000Y-129004158D01*
X184535897Y-129045821D01*
X184525534Y-129079982D01*
X184508707Y-129111464D01*
X184486060Y-129139060D01*
X184458464Y-129161707D01*
X184426982Y-129178534D01*
X184392821Y-129188897D01*
X184351158Y-129193000D01*
X181276842Y-129193000D01*
X181235179Y-129188897D01*
X181201018Y-129178534D01*
X181169536Y-129161707D01*
X181141940Y-129139060D01*
X181119293Y-129111464D01*
X181102466Y-129079982D01*
X181092103Y-129045821D01*
X181088000Y-129004158D01*
X181088000Y-127754842D01*
X181092103Y-127713179D01*
X181102466Y-127679018D01*
X181119293Y-127647536D01*
X181141940Y-127619940D01*
X181169536Y-127597293D01*
X181201018Y-127580466D01*
X181235179Y-127570103D01*
X181276842Y-127566000D01*
X184351158Y-127566000D01*
X184392821Y-127570103D01*
X184392821Y-127570103D01*
G37*
G36*
X190499821Y-127541103D02*
G01*
X190533982Y-127551466D01*
X190565464Y-127568293D01*
X190593060Y-127590940D01*
X190615707Y-127618536D01*
X190632534Y-127650018D01*
X190642897Y-127684179D01*
X190647000Y-127725842D01*
X190647000Y-128975158D01*
X190642897Y-129016821D01*
X190632534Y-129050982D01*
X190615707Y-129082464D01*
X190593060Y-129110060D01*
X190565464Y-129132707D01*
X190533982Y-129149534D01*
X190499821Y-129159897D01*
X190458158Y-129164000D01*
X187383842Y-129164000D01*
X187342179Y-129159897D01*
X187308018Y-129149534D01*
X187276536Y-129132707D01*
X187248940Y-129110060D01*
X187226293Y-129082464D01*
X187209466Y-129050982D01*
X187199103Y-129016821D01*
X187195000Y-128975158D01*
X187195000Y-127725842D01*
X187199103Y-127684179D01*
X187209466Y-127650018D01*
X187226293Y-127618536D01*
X187248940Y-127590940D01*
X187276536Y-127568293D01*
X187308018Y-127551466D01*
X187342179Y-127541103D01*
X187383842Y-127537000D01*
X190458158Y-127537000D01*
X190499821Y-127541103D01*
X190499821Y-127541103D01*
G37*
G36*
X116973562Y-126357181D02*
G01*
X117008477Y-126367773D01*
X117040665Y-126384978D01*
X117068873Y-126408127D01*
X117092022Y-126436335D01*
X117109227Y-126468523D01*
X117119819Y-126503438D01*
X117124000Y-126545895D01*
X117124000Y-128012105D01*
X117119819Y-128054562D01*
X117109227Y-128089477D01*
X117092022Y-128121665D01*
X117068873Y-128149873D01*
X117040665Y-128173022D01*
X117008477Y-128190227D01*
X116973562Y-128200819D01*
X116931105Y-128205000D01*
X115789895Y-128205000D01*
X115747438Y-128200819D01*
X115712523Y-128190227D01*
X115680335Y-128173022D01*
X115652127Y-128149873D01*
X115628978Y-128121665D01*
X115611773Y-128089477D01*
X115601181Y-128054562D01*
X115597000Y-128012105D01*
X115597000Y-126545895D01*
X115601181Y-126503438D01*
X115611773Y-126468523D01*
X115628978Y-126436335D01*
X115652127Y-126408127D01*
X115680335Y-126384978D01*
X115712523Y-126367773D01*
X115747438Y-126357181D01*
X115789895Y-126353000D01*
X116931105Y-126353000D01*
X116973562Y-126357181D01*
X116973562Y-126357181D01*
G37*
G36*
X119948562Y-126357181D02*
G01*
X119983477Y-126367773D01*
X120015665Y-126384978D01*
X120043873Y-126408127D01*
X120067022Y-126436335D01*
X120084227Y-126468523D01*
X120094819Y-126503438D01*
X120099000Y-126545895D01*
X120099000Y-128012105D01*
X120094819Y-128054562D01*
X120084227Y-128089477D01*
X120067022Y-128121665D01*
X120043873Y-128149873D01*
X120015665Y-128173022D01*
X119983477Y-128190227D01*
X119948562Y-128200819D01*
X119906105Y-128205000D01*
X118764895Y-128205000D01*
X118722438Y-128200819D01*
X118687523Y-128190227D01*
X118655335Y-128173022D01*
X118627127Y-128149873D01*
X118603978Y-128121665D01*
X118586773Y-128089477D01*
X118576181Y-128054562D01*
X118572000Y-128012105D01*
X118572000Y-126545895D01*
X118576181Y-126503438D01*
X118586773Y-126468523D01*
X118603978Y-126436335D01*
X118627127Y-126408127D01*
X118655335Y-126384978D01*
X118687523Y-126367773D01*
X118722438Y-126357181D01*
X118764895Y-126353000D01*
X119906105Y-126353000D01*
X119948562Y-126357181D01*
X119948562Y-126357181D01*
G37*
G36*
X106165589Y-126278876D02*
G01*
X106264893Y-126298629D01*
X106405206Y-126356748D01*
X106531484Y-126441125D01*
X106638875Y-126548516D01*
X106723252Y-126674794D01*
X106781371Y-126815107D01*
X106811000Y-126964063D01*
X106811000Y-127115937D01*
X106781371Y-127264893D01*
X106723252Y-127405206D01*
X106638875Y-127531484D01*
X106531484Y-127638875D01*
X106405206Y-127723252D01*
X106264893Y-127781371D01*
X106165589Y-127801124D01*
X106115938Y-127811000D01*
X105964062Y-127811000D01*
X105914411Y-127801124D01*
X105815107Y-127781371D01*
X105674794Y-127723252D01*
X105548516Y-127638875D01*
X105441125Y-127531484D01*
X105356748Y-127405206D01*
X105298629Y-127264893D01*
X105269000Y-127115937D01*
X105269000Y-126964063D01*
X105298629Y-126815107D01*
X105356748Y-126674794D01*
X105441125Y-126548516D01*
X105548516Y-126441125D01*
X105674794Y-126356748D01*
X105815107Y-126298629D01*
X105914411Y-126278876D01*
X105964062Y-126269000D01*
X106115938Y-126269000D01*
X106165589Y-126278876D01*
X106165589Y-126278876D01*
G37*
G36*
X113600677Y-125542465D02*
G01*
X113638364Y-125553898D01*
X113673103Y-125572466D01*
X113703548Y-125597452D01*
X113728534Y-125627897D01*
X113747102Y-125662636D01*
X113758535Y-125700323D01*
X113763000Y-125745661D01*
X113763000Y-126582339D01*
X113758535Y-126627677D01*
X113747102Y-126665364D01*
X113728534Y-126700103D01*
X113703548Y-126730548D01*
X113673103Y-126755534D01*
X113638364Y-126774102D01*
X113600677Y-126785535D01*
X113555339Y-126790000D01*
X112468661Y-126790000D01*
X112423323Y-126785535D01*
X112385636Y-126774102D01*
X112350897Y-126755534D01*
X112320452Y-126730548D01*
X112295466Y-126700103D01*
X112276898Y-126665364D01*
X112265465Y-126627677D01*
X112261000Y-126582339D01*
X112261000Y-125745661D01*
X112265465Y-125700323D01*
X112276898Y-125662636D01*
X112295466Y-125627897D01*
X112320452Y-125597452D01*
X112350897Y-125572466D01*
X112385636Y-125553898D01*
X112423323Y-125542465D01*
X112468661Y-125538000D01*
X113555339Y-125538000D01*
X113600677Y-125542465D01*
X113600677Y-125542465D01*
G37*
G36*
X183259252Y-122441818D02*
G01*
X183259254Y-122441819D01*
X183259255Y-122441819D01*
X183632513Y-122596427D01*
X183632514Y-122596428D01*
X183968439Y-122820886D01*
X184254114Y-123106561D01*
X184254116Y-123106564D01*
X184478573Y-123442487D01*
X184597250Y-123729000D01*
X184633182Y-123815748D01*
X184712000Y-124211993D01*
X184712000Y-124616007D01*
X184646890Y-124943339D01*
X184633181Y-125012255D01*
X184478573Y-125385513D01*
X184323418Y-125617718D01*
X184254114Y-125721439D01*
X183968439Y-126007114D01*
X183968436Y-126007116D01*
X183632513Y-126231573D01*
X183259255Y-126386181D01*
X183259254Y-126386181D01*
X183259252Y-126386182D01*
X182863007Y-126465000D01*
X182458993Y-126465000D01*
X182062748Y-126386182D01*
X182062746Y-126386181D01*
X182062745Y-126386181D01*
X181689487Y-126231573D01*
X181353564Y-126007116D01*
X181353561Y-126007114D01*
X181067886Y-125721439D01*
X180998582Y-125617718D01*
X180843427Y-125385513D01*
X180688819Y-125012255D01*
X180675111Y-124943339D01*
X180610000Y-124616007D01*
X180610000Y-124211993D01*
X180688818Y-123815748D01*
X180724750Y-123729000D01*
X180843427Y-123442487D01*
X181067884Y-123106564D01*
X181067886Y-123106561D01*
X181353561Y-122820886D01*
X181689486Y-122596428D01*
X181689487Y-122596427D01*
X182062745Y-122441819D01*
X182062746Y-122441819D01*
X182062748Y-122441818D01*
X182458993Y-122363000D01*
X182863007Y-122363000D01*
X183259252Y-122441818D01*
X183259252Y-122441818D01*
G37*
G36*
X188088677Y-124153465D02*
G01*
X188126364Y-124164898D01*
X188161103Y-124183466D01*
X188191548Y-124208452D01*
X188216534Y-124238897D01*
X188235102Y-124273636D01*
X188246535Y-124311323D01*
X188251000Y-124356661D01*
X188251000Y-125193339D01*
X188246535Y-125238677D01*
X188235102Y-125276364D01*
X188216534Y-125311103D01*
X188191548Y-125341548D01*
X188161103Y-125366534D01*
X188126364Y-125385102D01*
X188088677Y-125396535D01*
X188043339Y-125401000D01*
X186956661Y-125401000D01*
X186911323Y-125396535D01*
X186873636Y-125385102D01*
X186838897Y-125366534D01*
X186808452Y-125341548D01*
X186783466Y-125311103D01*
X186764898Y-125276364D01*
X186753465Y-125238677D01*
X186749000Y-125193339D01*
X186749000Y-124356661D01*
X186753465Y-124311323D01*
X186764898Y-124273636D01*
X186783466Y-124238897D01*
X186808452Y-124208452D01*
X186838897Y-124183466D01*
X186873636Y-124164898D01*
X186911323Y-124153465D01*
X186956661Y-124149000D01*
X188043339Y-124149000D01*
X188088677Y-124153465D01*
X188088677Y-124153465D01*
G37*
G36*
X103625589Y-123738876D02*
G01*
X103724893Y-123758629D01*
X103865206Y-123816748D01*
X103991484Y-123901125D01*
X104098875Y-124008516D01*
X104183252Y-124134794D01*
X104241371Y-124275107D01*
X104271000Y-124424063D01*
X104271000Y-124575937D01*
X104241371Y-124724893D01*
X104183252Y-124865206D01*
X104098875Y-124991484D01*
X103991484Y-125098875D01*
X103865206Y-125183252D01*
X103724893Y-125241371D01*
X103625589Y-125261124D01*
X103575938Y-125271000D01*
X103424062Y-125271000D01*
X103374411Y-125261124D01*
X103275107Y-125241371D01*
X103134794Y-125183252D01*
X103008516Y-125098875D01*
X102901125Y-124991484D01*
X102816748Y-124865206D01*
X102758629Y-124724893D01*
X102729000Y-124575937D01*
X102729000Y-124424063D01*
X102758629Y-124275107D01*
X102816748Y-124134794D01*
X102901125Y-124008516D01*
X103008516Y-123901125D01*
X103134794Y-123816748D01*
X103275107Y-123758629D01*
X103374411Y-123738876D01*
X103424062Y-123729000D01*
X103575938Y-123729000D01*
X103625589Y-123738876D01*
X103625589Y-123738876D01*
G37*
G36*
X108705589Y-123738876D02*
G01*
X108804893Y-123758629D01*
X108945206Y-123816748D01*
X109071484Y-123901125D01*
X109178875Y-124008516D01*
X109263252Y-124134794D01*
X109321371Y-124275107D01*
X109351000Y-124424063D01*
X109351000Y-124575937D01*
X109321371Y-124724893D01*
X109263252Y-124865206D01*
X109178875Y-124991484D01*
X109071484Y-125098875D01*
X108945206Y-125183252D01*
X108804893Y-125241371D01*
X108705589Y-125261124D01*
X108655938Y-125271000D01*
X108504062Y-125271000D01*
X108454411Y-125261124D01*
X108355107Y-125241371D01*
X108214794Y-125183252D01*
X108088516Y-125098875D01*
X107981125Y-124991484D01*
X107896748Y-124865206D01*
X107838629Y-124724893D01*
X107809000Y-124575937D01*
X107809000Y-124424063D01*
X107838629Y-124275107D01*
X107896748Y-124134794D01*
X107981125Y-124008516D01*
X108088516Y-123901125D01*
X108214794Y-123816748D01*
X108355107Y-123758629D01*
X108454411Y-123738876D01*
X108504062Y-123729000D01*
X108655938Y-123729000D01*
X108705589Y-123738876D01*
X108705589Y-123738876D01*
G37*
G36*
X191338677Y-123903465D02*
G01*
X191376364Y-123914898D01*
X191411103Y-123933466D01*
X191441548Y-123958452D01*
X191466534Y-123988897D01*
X191485102Y-124023636D01*
X191496535Y-124061323D01*
X191501000Y-124106661D01*
X191501000Y-124943339D01*
X191496535Y-124988677D01*
X191485102Y-125026364D01*
X191466534Y-125061103D01*
X191441548Y-125091548D01*
X191411103Y-125116534D01*
X191376364Y-125135102D01*
X191338677Y-125146535D01*
X191293339Y-125151000D01*
X190206661Y-125151000D01*
X190161323Y-125146535D01*
X190123636Y-125135102D01*
X190088897Y-125116534D01*
X190058452Y-125091548D01*
X190033466Y-125061103D01*
X190014898Y-125026364D01*
X190003465Y-124988677D01*
X189999000Y-124943339D01*
X189999000Y-124106661D01*
X190003465Y-124061323D01*
X190014898Y-124023636D01*
X190033466Y-123988897D01*
X190058452Y-123958452D01*
X190088897Y-123933466D01*
X190123636Y-123914898D01*
X190161323Y-123903465D01*
X190206661Y-123899000D01*
X191293339Y-123899000D01*
X191338677Y-123903465D01*
X191338677Y-123903465D01*
G37*
G36*
X113600677Y-123492465D02*
G01*
X113638364Y-123503898D01*
X113673103Y-123522466D01*
X113703548Y-123547452D01*
X113728534Y-123577897D01*
X113747102Y-123612636D01*
X113758535Y-123650323D01*
X113763000Y-123695661D01*
X113763000Y-124532339D01*
X113758535Y-124577677D01*
X113747102Y-124615364D01*
X113728534Y-124650103D01*
X113703548Y-124680548D01*
X113673103Y-124705534D01*
X113638364Y-124724102D01*
X113600677Y-124735535D01*
X113555339Y-124740000D01*
X112468661Y-124740000D01*
X112423323Y-124735535D01*
X112385636Y-124724102D01*
X112350897Y-124705534D01*
X112320452Y-124680548D01*
X112295466Y-124650103D01*
X112276898Y-124615364D01*
X112265465Y-124577677D01*
X112261000Y-124532339D01*
X112261000Y-123695661D01*
X112265465Y-123650323D01*
X112276898Y-123612636D01*
X112295466Y-123577897D01*
X112320452Y-123547452D01*
X112350897Y-123522466D01*
X112385636Y-123503898D01*
X112423323Y-123492465D01*
X112468661Y-123488000D01*
X113555339Y-123488000D01*
X113600677Y-123492465D01*
X113600677Y-123492465D01*
G37*
G36*
X119239677Y-122890465D02*
G01*
X119277364Y-122901898D01*
X119312103Y-122920466D01*
X119342548Y-122945452D01*
X119367534Y-122975897D01*
X119386102Y-123010636D01*
X119397535Y-123048323D01*
X119402000Y-123093661D01*
X119402000Y-124180339D01*
X119397535Y-124225677D01*
X119386102Y-124263364D01*
X119367534Y-124298103D01*
X119342548Y-124328548D01*
X119312103Y-124353534D01*
X119277364Y-124372102D01*
X119239677Y-124383535D01*
X119194339Y-124388000D01*
X118357661Y-124388000D01*
X118312323Y-124383535D01*
X118274636Y-124372102D01*
X118239897Y-124353534D01*
X118209452Y-124328548D01*
X118184466Y-124298103D01*
X118165898Y-124263364D01*
X118154465Y-124225677D01*
X118150000Y-124180339D01*
X118150000Y-123093661D01*
X118154465Y-123048323D01*
X118165898Y-123010636D01*
X118184466Y-122975897D01*
X118209452Y-122945452D01*
X118239897Y-122920466D01*
X118274636Y-122901898D01*
X118312323Y-122890465D01*
X118357661Y-122886000D01*
X119194339Y-122886000D01*
X119239677Y-122890465D01*
X119239677Y-122890465D01*
G37*
G36*
X117189677Y-122890465D02*
G01*
X117227364Y-122901898D01*
X117262103Y-122920466D01*
X117292548Y-122945452D01*
X117317534Y-122975897D01*
X117336102Y-123010636D01*
X117347535Y-123048323D01*
X117352000Y-123093661D01*
X117352000Y-124180339D01*
X117347535Y-124225677D01*
X117336102Y-124263364D01*
X117317534Y-124298103D01*
X117292548Y-124328548D01*
X117262103Y-124353534D01*
X117227364Y-124372102D01*
X117189677Y-124383535D01*
X117144339Y-124388000D01*
X116307661Y-124388000D01*
X116262323Y-124383535D01*
X116224636Y-124372102D01*
X116189897Y-124353534D01*
X116159452Y-124328548D01*
X116134466Y-124298103D01*
X116115898Y-124263364D01*
X116104465Y-124225677D01*
X116100000Y-124180339D01*
X116100000Y-123093661D01*
X116104465Y-123048323D01*
X116115898Y-123010636D01*
X116134466Y-122975897D01*
X116159452Y-122945452D01*
X116189897Y-122920466D01*
X116224636Y-122901898D01*
X116262323Y-122890465D01*
X116307661Y-122886000D01*
X117144339Y-122886000D01*
X117189677Y-122890465D01*
X117189677Y-122890465D01*
G37*
G36*
X188088677Y-122103465D02*
G01*
X188126364Y-122114898D01*
X188161103Y-122133466D01*
X188191548Y-122158452D01*
X188216534Y-122188897D01*
X188235102Y-122223636D01*
X188246535Y-122261323D01*
X188251000Y-122306661D01*
X188251000Y-123143339D01*
X188246535Y-123188677D01*
X188235102Y-123226364D01*
X188216534Y-123261103D01*
X188191548Y-123291548D01*
X188161103Y-123316534D01*
X188126364Y-123335102D01*
X188088677Y-123346535D01*
X188043339Y-123351000D01*
X186956661Y-123351000D01*
X186911323Y-123346535D01*
X186873636Y-123335102D01*
X186838897Y-123316534D01*
X186808452Y-123291548D01*
X186783466Y-123261103D01*
X186764898Y-123226364D01*
X186753465Y-123188677D01*
X186749000Y-123143339D01*
X186749000Y-122306661D01*
X186753465Y-122261323D01*
X186764898Y-122223636D01*
X186783466Y-122188897D01*
X186808452Y-122158452D01*
X186838897Y-122133466D01*
X186873636Y-122114898D01*
X186911323Y-122103465D01*
X186956661Y-122099000D01*
X188043339Y-122099000D01*
X188088677Y-122103465D01*
X188088677Y-122103465D01*
G37*
G36*
X191338677Y-121853465D02*
G01*
X191376364Y-121864898D01*
X191411103Y-121883466D01*
X191441548Y-121908452D01*
X191466534Y-121938897D01*
X191485102Y-121973636D01*
X191496535Y-122011323D01*
X191501000Y-122056661D01*
X191501000Y-122893339D01*
X191496535Y-122938677D01*
X191485102Y-122976364D01*
X191466534Y-123011103D01*
X191441548Y-123041548D01*
X191411103Y-123066534D01*
X191376364Y-123085102D01*
X191338677Y-123096535D01*
X191293339Y-123101000D01*
X190206661Y-123101000D01*
X190161323Y-123096535D01*
X190123636Y-123085102D01*
X190088897Y-123066534D01*
X190058452Y-123041548D01*
X190033466Y-123011103D01*
X190014898Y-122976364D01*
X190003465Y-122938677D01*
X189999000Y-122893339D01*
X189999000Y-122056661D01*
X190003465Y-122011323D01*
X190014898Y-121973636D01*
X190033466Y-121938897D01*
X190058452Y-121908452D01*
X190088897Y-121883466D01*
X190123636Y-121864898D01*
X190161323Y-121853465D01*
X190206661Y-121849000D01*
X191293339Y-121849000D01*
X191338677Y-121853465D01*
X191338677Y-121853465D01*
G37*
G36*
X176422677Y-120629465D02*
G01*
X176460364Y-120640898D01*
X176495103Y-120659466D01*
X176525548Y-120684452D01*
X176550534Y-120714897D01*
X176569102Y-120749636D01*
X176580535Y-120787323D01*
X176585000Y-120832661D01*
X176585000Y-121669339D01*
X176580535Y-121714677D01*
X176569102Y-121752364D01*
X176550534Y-121787103D01*
X176525548Y-121817548D01*
X176495103Y-121842534D01*
X176460364Y-121861102D01*
X176422677Y-121872535D01*
X176377339Y-121877000D01*
X175290661Y-121877000D01*
X175245323Y-121872535D01*
X175207636Y-121861102D01*
X175172897Y-121842534D01*
X175142452Y-121817548D01*
X175117466Y-121787103D01*
X175098898Y-121752364D01*
X175087465Y-121714677D01*
X175083000Y-121669339D01*
X175083000Y-120832661D01*
X175087465Y-120787323D01*
X175098898Y-120749636D01*
X175117466Y-120714897D01*
X175142452Y-120684452D01*
X175172897Y-120659466D01*
X175207636Y-120640898D01*
X175245323Y-120629465D01*
X175290661Y-120625000D01*
X176377339Y-120625000D01*
X176422677Y-120629465D01*
X176422677Y-120629465D01*
G37*
G36*
X171068677Y-120474465D02*
G01*
X171106364Y-120485898D01*
X171141103Y-120504466D01*
X171171548Y-120529452D01*
X171196534Y-120559897D01*
X171215102Y-120594636D01*
X171226535Y-120632323D01*
X171231000Y-120677661D01*
X171231000Y-121514339D01*
X171226535Y-121559677D01*
X171215102Y-121597364D01*
X171196534Y-121632103D01*
X171171548Y-121662548D01*
X171141103Y-121687534D01*
X171106364Y-121706102D01*
X171068677Y-121717535D01*
X171023339Y-121722000D01*
X169936661Y-121722000D01*
X169891323Y-121717535D01*
X169853636Y-121706102D01*
X169818897Y-121687534D01*
X169788452Y-121662548D01*
X169763466Y-121632103D01*
X169744898Y-121597364D01*
X169733465Y-121559677D01*
X169729000Y-121514339D01*
X169729000Y-120677661D01*
X169733465Y-120632323D01*
X169744898Y-120594636D01*
X169763466Y-120559897D01*
X169788452Y-120529452D01*
X169818897Y-120504466D01*
X169853636Y-120485898D01*
X169891323Y-120474465D01*
X169936661Y-120470000D01*
X171023339Y-120470000D01*
X171068677Y-120474465D01*
X171068677Y-120474465D01*
G37*
G36*
X173551677Y-120474465D02*
G01*
X173589364Y-120485898D01*
X173624103Y-120504466D01*
X173654548Y-120529452D01*
X173679534Y-120559897D01*
X173698102Y-120594636D01*
X173709535Y-120632323D01*
X173714000Y-120677661D01*
X173714000Y-121514339D01*
X173709535Y-121559677D01*
X173698102Y-121597364D01*
X173679534Y-121632103D01*
X173654548Y-121662548D01*
X173624103Y-121687534D01*
X173589364Y-121706102D01*
X173551677Y-121717535D01*
X173506339Y-121722000D01*
X172419661Y-121722000D01*
X172374323Y-121717535D01*
X172336636Y-121706102D01*
X172301897Y-121687534D01*
X172271452Y-121662548D01*
X172246466Y-121632103D01*
X172227898Y-121597364D01*
X172216465Y-121559677D01*
X172212000Y-121514339D01*
X172212000Y-120677661D01*
X172216465Y-120632323D01*
X172227898Y-120594636D01*
X172246466Y-120559897D01*
X172271452Y-120529452D01*
X172301897Y-120504466D01*
X172336636Y-120485898D01*
X172374323Y-120474465D01*
X172419661Y-120470000D01*
X173506339Y-120470000D01*
X173551677Y-120474465D01*
X173551677Y-120474465D01*
G37*
G36*
X158730935Y-118818671D02*
G01*
X158760874Y-118827753D01*
X158788469Y-118842503D01*
X158812651Y-118862349D01*
X158832497Y-118886531D01*
X158847247Y-118914126D01*
X158856329Y-118944065D01*
X158860000Y-118981340D01*
X158860000Y-121250660D01*
X158856329Y-121287935D01*
X158847247Y-121317874D01*
X158832497Y-121345469D01*
X158812651Y-121369651D01*
X158788469Y-121389497D01*
X158760874Y-121404247D01*
X158730935Y-121413329D01*
X158693660Y-121417000D01*
X154924340Y-121417000D01*
X154887065Y-121413329D01*
X154857126Y-121404247D01*
X154829531Y-121389497D01*
X154805349Y-121369651D01*
X154785503Y-121345469D01*
X154770753Y-121317874D01*
X154761671Y-121287935D01*
X154758000Y-121250660D01*
X154758000Y-118981340D01*
X154761671Y-118944065D01*
X154770753Y-118914126D01*
X154785503Y-118886531D01*
X154805349Y-118862349D01*
X154829531Y-118842503D01*
X154857126Y-118827753D01*
X154887065Y-118818671D01*
X154924340Y-118815000D01*
X158693660Y-118815000D01*
X158730935Y-118818671D01*
X158730935Y-118818671D01*
G37*
G36*
X166730935Y-118818671D02*
G01*
X166760874Y-118827753D01*
X166788469Y-118842503D01*
X166812651Y-118862349D01*
X166832497Y-118886531D01*
X166847247Y-118914126D01*
X166856329Y-118944065D01*
X166860000Y-118981340D01*
X166860000Y-121250660D01*
X166856329Y-121287935D01*
X166847247Y-121317874D01*
X166832497Y-121345469D01*
X166812651Y-121369651D01*
X166788469Y-121389497D01*
X166760874Y-121404247D01*
X166730935Y-121413329D01*
X166693660Y-121417000D01*
X162924340Y-121417000D01*
X162887065Y-121413329D01*
X162857126Y-121404247D01*
X162829531Y-121389497D01*
X162805349Y-121369651D01*
X162785503Y-121345469D01*
X162770753Y-121317874D01*
X162761671Y-121287935D01*
X162758000Y-121250660D01*
X162758000Y-118981340D01*
X162761671Y-118944065D01*
X162770753Y-118914126D01*
X162785503Y-118886531D01*
X162805349Y-118862349D01*
X162829531Y-118842503D01*
X162857126Y-118827753D01*
X162887065Y-118818671D01*
X162924340Y-118815000D01*
X166693660Y-118815000D01*
X166730935Y-118818671D01*
X166730935Y-118818671D01*
G37*
G36*
X176422677Y-118579465D02*
G01*
X176460364Y-118590898D01*
X176495103Y-118609466D01*
X176525548Y-118634452D01*
X176550534Y-118664897D01*
X176569102Y-118699636D01*
X176580535Y-118737323D01*
X176585000Y-118782661D01*
X176585000Y-119619339D01*
X176580535Y-119664677D01*
X176569102Y-119702364D01*
X176550534Y-119737103D01*
X176525548Y-119767548D01*
X176495103Y-119792534D01*
X176460364Y-119811102D01*
X176422677Y-119822535D01*
X176377339Y-119827000D01*
X175290661Y-119827000D01*
X175245323Y-119822535D01*
X175207636Y-119811102D01*
X175172897Y-119792534D01*
X175142452Y-119767548D01*
X175117466Y-119737103D01*
X175098898Y-119702364D01*
X175087465Y-119664677D01*
X175083000Y-119619339D01*
X175083000Y-118782661D01*
X175087465Y-118737323D01*
X175098898Y-118699636D01*
X175117466Y-118664897D01*
X175142452Y-118634452D01*
X175172897Y-118609466D01*
X175207636Y-118590898D01*
X175245323Y-118579465D01*
X175290661Y-118575000D01*
X176377339Y-118575000D01*
X176422677Y-118579465D01*
X176422677Y-118579465D01*
G37*
G36*
X171068677Y-118424465D02*
G01*
X171106364Y-118435898D01*
X171141103Y-118454466D01*
X171171548Y-118479452D01*
X171196534Y-118509897D01*
X171215102Y-118544636D01*
X171226535Y-118582323D01*
X171231000Y-118627661D01*
X171231000Y-119464339D01*
X171226535Y-119509677D01*
X171215102Y-119547364D01*
X171196534Y-119582103D01*
X171171548Y-119612548D01*
X171141103Y-119637534D01*
X171106364Y-119656102D01*
X171068677Y-119667535D01*
X171023339Y-119672000D01*
X169936661Y-119672000D01*
X169891323Y-119667535D01*
X169853636Y-119656102D01*
X169818897Y-119637534D01*
X169788452Y-119612548D01*
X169763466Y-119582103D01*
X169744898Y-119547364D01*
X169733465Y-119509677D01*
X169729000Y-119464339D01*
X169729000Y-118627661D01*
X169733465Y-118582323D01*
X169744898Y-118544636D01*
X169763466Y-118509897D01*
X169788452Y-118479452D01*
X169818897Y-118454466D01*
X169853636Y-118435898D01*
X169891323Y-118424465D01*
X169936661Y-118420000D01*
X171023339Y-118420000D01*
X171068677Y-118424465D01*
X171068677Y-118424465D01*
G37*
G36*
X173551677Y-118424465D02*
G01*
X173589364Y-118435898D01*
X173624103Y-118454466D01*
X173654548Y-118479452D01*
X173679534Y-118509897D01*
X173698102Y-118544636D01*
X173709535Y-118582323D01*
X173714000Y-118627661D01*
X173714000Y-119464339D01*
X173709535Y-119509677D01*
X173698102Y-119547364D01*
X173679534Y-119582103D01*
X173654548Y-119612548D01*
X173624103Y-119637534D01*
X173589364Y-119656102D01*
X173551677Y-119667535D01*
X173506339Y-119672000D01*
X172419661Y-119672000D01*
X172374323Y-119667535D01*
X172336636Y-119656102D01*
X172301897Y-119637534D01*
X172271452Y-119612548D01*
X172246466Y-119582103D01*
X172227898Y-119547364D01*
X172216465Y-119509677D01*
X172212000Y-119464339D01*
X172212000Y-118627661D01*
X172216465Y-118582323D01*
X172227898Y-118544636D01*
X172246466Y-118509897D01*
X172271452Y-118479452D01*
X172301897Y-118454466D01*
X172336636Y-118435898D01*
X172374323Y-118424465D01*
X172419661Y-118420000D01*
X173506339Y-118420000D01*
X173551677Y-118424465D01*
X173551677Y-118424465D01*
G37*
G36*
X149771000Y-119151000D02*
G01*
X141669000Y-119151000D01*
X141669000Y-111049000D01*
X149771000Y-111049000D01*
X149771000Y-119151000D01*
X149771000Y-119151000D01*
G37*
G36*
X127771000Y-119151000D02*
G01*
X119669000Y-119151000D01*
X119669000Y-111049000D01*
X127771000Y-111049000D01*
X127771000Y-119151000D01*
X127771000Y-119151000D01*
G37*
G36*
X183259252Y-114241818D02*
G01*
X183259254Y-114241819D01*
X183259255Y-114241819D01*
X183632513Y-114396427D01*
X183767981Y-114486944D01*
X183968439Y-114620886D01*
X184254114Y-114906561D01*
X184254116Y-114906564D01*
X184478573Y-115242487D01*
X184567427Y-115457000D01*
X184633182Y-115615748D01*
X184712000Y-116011993D01*
X184712000Y-116416007D01*
X184671713Y-116618546D01*
X184633181Y-116812255D01*
X184478573Y-117185513D01*
X184348931Y-117379535D01*
X184254114Y-117521439D01*
X183968439Y-117807114D01*
X183968436Y-117807116D01*
X183632513Y-118031573D01*
X183259255Y-118186181D01*
X183259254Y-118186181D01*
X183259252Y-118186182D01*
X182863007Y-118265000D01*
X182458993Y-118265000D01*
X182062748Y-118186182D01*
X182062746Y-118186181D01*
X182062745Y-118186181D01*
X181689487Y-118031573D01*
X181353564Y-117807116D01*
X181353561Y-117807114D01*
X181067886Y-117521439D01*
X180973069Y-117379535D01*
X180843427Y-117185513D01*
X180688819Y-116812255D01*
X180650288Y-116618546D01*
X180610000Y-116416007D01*
X180610000Y-116011993D01*
X180688818Y-115615748D01*
X180754573Y-115457000D01*
X180843427Y-115242487D01*
X181067884Y-114906564D01*
X181067886Y-114906561D01*
X181353561Y-114620886D01*
X181554019Y-114486944D01*
X181689487Y-114396427D01*
X182062745Y-114241819D01*
X182062746Y-114241819D01*
X182062748Y-114241818D01*
X182458993Y-114163000D01*
X182863007Y-114163000D01*
X183259252Y-114241818D01*
X183259252Y-114241818D01*
G37*
G36*
X117441665Y-116498622D02*
G01*
X117515222Y-116505867D01*
X117656786Y-116548810D01*
X117787252Y-116618546D01*
X117901606Y-116712394D01*
X117995454Y-116826748D01*
X118065190Y-116957214D01*
X118108133Y-117098778D01*
X118122633Y-117246000D01*
X118108133Y-117393222D01*
X118065190Y-117534786D01*
X117995454Y-117665252D01*
X117901606Y-117779606D01*
X117787252Y-117873454D01*
X117656786Y-117943190D01*
X117515222Y-117986133D01*
X117441665Y-117993378D01*
X117404888Y-117997000D01*
X117331112Y-117997000D01*
X117294335Y-117993378D01*
X117220778Y-117986133D01*
X117079214Y-117943190D01*
X116948748Y-117873454D01*
X116834394Y-117779606D01*
X116740546Y-117665252D01*
X116670810Y-117534786D01*
X116627867Y-117393222D01*
X116613367Y-117246000D01*
X116627867Y-117098778D01*
X116670810Y-116957214D01*
X116740546Y-116826748D01*
X116834394Y-116712394D01*
X116948748Y-116618546D01*
X117079214Y-116548810D01*
X117220778Y-116505867D01*
X117294335Y-116498622D01*
X117331112Y-116495000D01*
X117404888Y-116495000D01*
X117441665Y-116498622D01*
X117441665Y-116498622D01*
G37*
G36*
X109622677Y-116136465D02*
G01*
X109660364Y-116147898D01*
X109695103Y-116166466D01*
X109725548Y-116191452D01*
X109750534Y-116221897D01*
X109769102Y-116256636D01*
X109780535Y-116294323D01*
X109785000Y-116339661D01*
X109785000Y-117176339D01*
X109780535Y-117221677D01*
X109769102Y-117259364D01*
X109750534Y-117294103D01*
X109725548Y-117324548D01*
X109695103Y-117349534D01*
X109660364Y-117368102D01*
X109622677Y-117379535D01*
X109577339Y-117384000D01*
X108490661Y-117384000D01*
X108445323Y-117379535D01*
X108407636Y-117368102D01*
X108372897Y-117349534D01*
X108342452Y-117324548D01*
X108317466Y-117294103D01*
X108298898Y-117259364D01*
X108287465Y-117221677D01*
X108283000Y-117176339D01*
X108283000Y-116339661D01*
X108287465Y-116294323D01*
X108298898Y-116256636D01*
X108317466Y-116221897D01*
X108342452Y-116191452D01*
X108372897Y-116166466D01*
X108407636Y-116147898D01*
X108445323Y-116136465D01*
X108490661Y-116132000D01*
X109577339Y-116132000D01*
X109622677Y-116136465D01*
X109622677Y-116136465D01*
G37*
G36*
X112421677Y-115894465D02*
G01*
X112459364Y-115905898D01*
X112494103Y-115924466D01*
X112524548Y-115949452D01*
X112549534Y-115979897D01*
X112568102Y-116014636D01*
X112579535Y-116052323D01*
X112584000Y-116097661D01*
X112584000Y-116934339D01*
X112579535Y-116979677D01*
X112568102Y-117017364D01*
X112549534Y-117052103D01*
X112524548Y-117082548D01*
X112494103Y-117107534D01*
X112459364Y-117126102D01*
X112421677Y-117137535D01*
X112376339Y-117142000D01*
X111289661Y-117142000D01*
X111244323Y-117137535D01*
X111206636Y-117126102D01*
X111171897Y-117107534D01*
X111141452Y-117082548D01*
X111116466Y-117052103D01*
X111097898Y-117017364D01*
X111086465Y-116979677D01*
X111082000Y-116934339D01*
X111082000Y-116097661D01*
X111086465Y-116052323D01*
X111097898Y-116014636D01*
X111116466Y-115979897D01*
X111141452Y-115949452D01*
X111171897Y-115924466D01*
X111206636Y-115905898D01*
X111244323Y-115894465D01*
X111289661Y-115890000D01*
X112376339Y-115890000D01*
X112421677Y-115894465D01*
X112421677Y-115894465D01*
G37*
G36*
X115233677Y-115776465D02*
G01*
X115271364Y-115787898D01*
X115306103Y-115806466D01*
X115336548Y-115831452D01*
X115361534Y-115861897D01*
X115380102Y-115896636D01*
X115391535Y-115934323D01*
X115396000Y-115979661D01*
X115396000Y-116816339D01*
X115391535Y-116861677D01*
X115380102Y-116899364D01*
X115361534Y-116934103D01*
X115336548Y-116964548D01*
X115306103Y-116989534D01*
X115271364Y-117008102D01*
X115233677Y-117019535D01*
X115188339Y-117024000D01*
X114101661Y-117024000D01*
X114056323Y-117019535D01*
X114018636Y-117008102D01*
X113983897Y-116989534D01*
X113953452Y-116964548D01*
X113928466Y-116934103D01*
X113909898Y-116899364D01*
X113898465Y-116861677D01*
X113894000Y-116816339D01*
X113894000Y-115979661D01*
X113898465Y-115934323D01*
X113909898Y-115896636D01*
X113928466Y-115861897D01*
X113953452Y-115831452D01*
X113983897Y-115806466D01*
X114018636Y-115787898D01*
X114056323Y-115776465D01*
X114101661Y-115772000D01*
X115188339Y-115772000D01*
X115233677Y-115776465D01*
X115233677Y-115776465D01*
G37*
G36*
X117500004Y-113966544D02*
G01*
X117587059Y-113983860D01*
X117723732Y-114040472D01*
X117723733Y-114040473D01*
X117846738Y-114122662D01*
X117951338Y-114227262D01*
X117951340Y-114227265D01*
X118033528Y-114350268D01*
X118090140Y-114486941D01*
X118107456Y-114573996D01*
X118116783Y-114620884D01*
X118119000Y-114632033D01*
X118119000Y-114779967D01*
X118090140Y-114925059D01*
X118033528Y-115061732D01*
X117990359Y-115126339D01*
X117951338Y-115184738D01*
X117846738Y-115289338D01*
X117846735Y-115289340D01*
X117723732Y-115371528D01*
X117587059Y-115428140D01*
X117500004Y-115445456D01*
X117441969Y-115457000D01*
X117294031Y-115457000D01*
X117235996Y-115445456D01*
X117148941Y-115428140D01*
X117012268Y-115371528D01*
X116889265Y-115289340D01*
X116889262Y-115289338D01*
X116784662Y-115184738D01*
X116745641Y-115126339D01*
X116702472Y-115061732D01*
X116645860Y-114925059D01*
X116617000Y-114779967D01*
X116617000Y-114632033D01*
X116619218Y-114620884D01*
X116628544Y-114573996D01*
X116645860Y-114486941D01*
X116702472Y-114350268D01*
X116784660Y-114227265D01*
X116784662Y-114227262D01*
X116889262Y-114122662D01*
X117012267Y-114040473D01*
X117012268Y-114040472D01*
X117148941Y-113983860D01*
X117235996Y-113966544D01*
X117294031Y-113955000D01*
X117441969Y-113955000D01*
X117500004Y-113966544D01*
X117500004Y-113966544D01*
G37*
G36*
X109622677Y-114086465D02*
G01*
X109660364Y-114097898D01*
X109695103Y-114116466D01*
X109725548Y-114141452D01*
X109750534Y-114171897D01*
X109769102Y-114206636D01*
X109780535Y-114244323D01*
X109785000Y-114289661D01*
X109785000Y-115126339D01*
X109780535Y-115171677D01*
X109769102Y-115209364D01*
X109750534Y-115244103D01*
X109725548Y-115274548D01*
X109695103Y-115299534D01*
X109660364Y-115318102D01*
X109622677Y-115329535D01*
X109577339Y-115334000D01*
X108490661Y-115334000D01*
X108445323Y-115329535D01*
X108407636Y-115318102D01*
X108372897Y-115299534D01*
X108342452Y-115274548D01*
X108317466Y-115244103D01*
X108298898Y-115209364D01*
X108287465Y-115171677D01*
X108283000Y-115126339D01*
X108283000Y-114289661D01*
X108287465Y-114244323D01*
X108298898Y-114206636D01*
X108317466Y-114171897D01*
X108342452Y-114141452D01*
X108372897Y-114116466D01*
X108407636Y-114097898D01*
X108445323Y-114086465D01*
X108490661Y-114082000D01*
X109577339Y-114082000D01*
X109622677Y-114086465D01*
X109622677Y-114086465D01*
G37*
G36*
X112421677Y-113844465D02*
G01*
X112459364Y-113855898D01*
X112494103Y-113874466D01*
X112524548Y-113899452D01*
X112549534Y-113929897D01*
X112568102Y-113964636D01*
X112579535Y-114002323D01*
X112584000Y-114047661D01*
X112584000Y-114884339D01*
X112579535Y-114929677D01*
X112568102Y-114967364D01*
X112549534Y-115002103D01*
X112524548Y-115032548D01*
X112494103Y-115057534D01*
X112459364Y-115076102D01*
X112421677Y-115087535D01*
X112376339Y-115092000D01*
X111289661Y-115092000D01*
X111244323Y-115087535D01*
X111206636Y-115076102D01*
X111171897Y-115057534D01*
X111141452Y-115032548D01*
X111116466Y-115002103D01*
X111097898Y-114967364D01*
X111086465Y-114929677D01*
X111082000Y-114884339D01*
X111082000Y-114047661D01*
X111086465Y-114002323D01*
X111097898Y-113964636D01*
X111116466Y-113929897D01*
X111141452Y-113899452D01*
X111171897Y-113874466D01*
X111206636Y-113855898D01*
X111244323Y-113844465D01*
X111289661Y-113840000D01*
X112376339Y-113840000D01*
X112421677Y-113844465D01*
X112421677Y-113844465D01*
G37*
G36*
X115233677Y-113726465D02*
G01*
X115271364Y-113737898D01*
X115306103Y-113756466D01*
X115336548Y-113781452D01*
X115361534Y-113811897D01*
X115380102Y-113846636D01*
X115391535Y-113884323D01*
X115396000Y-113929661D01*
X115396000Y-114766339D01*
X115391535Y-114811677D01*
X115380102Y-114849364D01*
X115361534Y-114884103D01*
X115336548Y-114914548D01*
X115306103Y-114939534D01*
X115271364Y-114958102D01*
X115233677Y-114969535D01*
X115188339Y-114974000D01*
X114101661Y-114974000D01*
X114056323Y-114969535D01*
X114018636Y-114958102D01*
X113983897Y-114939534D01*
X113953452Y-114914548D01*
X113928466Y-114884103D01*
X113909898Y-114849364D01*
X113898465Y-114811677D01*
X113894000Y-114766339D01*
X113894000Y-113929661D01*
X113898465Y-113884323D01*
X113909898Y-113846636D01*
X113928466Y-113811897D01*
X113953452Y-113781452D01*
X113983897Y-113756466D01*
X114018636Y-113737898D01*
X114056323Y-113726465D01*
X114101661Y-113722000D01*
X115188339Y-113722000D01*
X115233677Y-113726465D01*
X115233677Y-113726465D01*
G37*
G36*
X161511331Y-110427211D02*
G01*
X161839092Y-110562974D01*
X162134073Y-110760074D01*
X162384926Y-111010927D01*
X162582026Y-111305908D01*
X162717789Y-111633669D01*
X162787000Y-111981616D01*
X162787000Y-112336384D01*
X162717789Y-112684331D01*
X162582026Y-113012092D01*
X162384926Y-113307073D01*
X162134073Y-113557926D01*
X161839092Y-113755026D01*
X161511331Y-113890789D01*
X161163384Y-113960000D01*
X160808616Y-113960000D01*
X160460669Y-113890789D01*
X160132908Y-113755026D01*
X159837927Y-113557926D01*
X159587074Y-113307073D01*
X159389974Y-113012092D01*
X159254211Y-112684331D01*
X159185000Y-112336384D01*
X159185000Y-111981616D01*
X159254211Y-111633669D01*
X159389974Y-111305908D01*
X159587074Y-111010927D01*
X159837927Y-110760074D01*
X160132908Y-110562974D01*
X160460669Y-110427211D01*
X160808616Y-110358000D01*
X161163384Y-110358000D01*
X161511331Y-110427211D01*
X161511331Y-110427211D01*
G37*
G36*
X152775562Y-111478181D02*
G01*
X152810477Y-111488773D01*
X152842665Y-111505978D01*
X152870873Y-111529127D01*
X152894022Y-111557335D01*
X152911227Y-111589523D01*
X152921819Y-111624438D01*
X152926000Y-111666895D01*
X152926000Y-112808105D01*
X152921819Y-112850562D01*
X152911227Y-112885477D01*
X152894022Y-112917665D01*
X152870873Y-112945873D01*
X152842665Y-112969022D01*
X152810477Y-112986227D01*
X152775562Y-112996819D01*
X152733105Y-113001000D01*
X151266895Y-113001000D01*
X151224438Y-112996819D01*
X151189523Y-112986227D01*
X151157335Y-112969022D01*
X151129127Y-112945873D01*
X151105978Y-112917665D01*
X151088773Y-112885477D01*
X151078181Y-112850562D01*
X151074000Y-112808105D01*
X151074000Y-111666895D01*
X151078181Y-111624438D01*
X151088773Y-111589523D01*
X151105978Y-111557335D01*
X151129127Y-111529127D01*
X151157335Y-111505978D01*
X151189523Y-111488773D01*
X151224438Y-111478181D01*
X151266895Y-111474000D01*
X152733105Y-111474000D01*
X152775562Y-111478181D01*
X152775562Y-111478181D01*
G37*
G36*
X118851677Y-111145465D02*
G01*
X118889364Y-111156898D01*
X118924103Y-111175466D01*
X118954548Y-111200452D01*
X118979534Y-111230897D01*
X118998102Y-111265636D01*
X119009535Y-111303323D01*
X119014000Y-111348661D01*
X119014000Y-112435339D01*
X119009535Y-112480677D01*
X118998102Y-112518364D01*
X118979534Y-112553103D01*
X118954548Y-112583548D01*
X118924103Y-112608534D01*
X118889364Y-112627102D01*
X118851677Y-112638535D01*
X118806339Y-112643000D01*
X117969661Y-112643000D01*
X117924323Y-112638535D01*
X117886636Y-112627102D01*
X117851897Y-112608534D01*
X117821452Y-112583548D01*
X117796466Y-112553103D01*
X117777898Y-112518364D01*
X117766465Y-112480677D01*
X117762000Y-112435339D01*
X117762000Y-111348661D01*
X117766465Y-111303323D01*
X117777898Y-111265636D01*
X117796466Y-111230897D01*
X117821452Y-111200452D01*
X117851897Y-111175466D01*
X117886636Y-111156898D01*
X117924323Y-111145465D01*
X117969661Y-111141000D01*
X118806339Y-111141000D01*
X118851677Y-111145465D01*
X118851677Y-111145465D01*
G37*
G36*
X116801677Y-111145465D02*
G01*
X116839364Y-111156898D01*
X116874103Y-111175466D01*
X116904548Y-111200452D01*
X116929534Y-111230897D01*
X116948102Y-111265636D01*
X116959535Y-111303323D01*
X116964000Y-111348661D01*
X116964000Y-112435339D01*
X116959535Y-112480677D01*
X116948102Y-112518364D01*
X116929534Y-112553103D01*
X116904548Y-112583548D01*
X116874103Y-112608534D01*
X116839364Y-112627102D01*
X116801677Y-112638535D01*
X116756339Y-112643000D01*
X115919661Y-112643000D01*
X115874323Y-112638535D01*
X115836636Y-112627102D01*
X115801897Y-112608534D01*
X115771452Y-112583548D01*
X115746466Y-112553103D01*
X115727898Y-112518364D01*
X115716465Y-112480677D01*
X115712000Y-112435339D01*
X115712000Y-111348661D01*
X115716465Y-111303323D01*
X115727898Y-111265636D01*
X115746466Y-111230897D01*
X115771452Y-111200452D01*
X115801897Y-111175466D01*
X115836636Y-111156898D01*
X115874323Y-111145465D01*
X115919661Y-111141000D01*
X116756339Y-111141000D01*
X116801677Y-111145465D01*
X116801677Y-111145465D01*
G37*
G36*
X118580677Y-108810465D02*
G01*
X118618364Y-108821898D01*
X118653103Y-108840466D01*
X118683548Y-108865452D01*
X118708534Y-108895897D01*
X118727102Y-108930636D01*
X118738535Y-108968323D01*
X118743000Y-109013661D01*
X118743000Y-110100339D01*
X118738535Y-110145677D01*
X118727102Y-110183364D01*
X118708534Y-110218103D01*
X118683548Y-110248548D01*
X118653103Y-110273534D01*
X118618364Y-110292102D01*
X118580677Y-110303535D01*
X118535339Y-110308000D01*
X117698661Y-110308000D01*
X117653323Y-110303535D01*
X117615636Y-110292102D01*
X117580897Y-110273534D01*
X117550452Y-110248548D01*
X117525466Y-110218103D01*
X117506898Y-110183364D01*
X117495465Y-110145677D01*
X117491000Y-110100339D01*
X117491000Y-109013661D01*
X117495465Y-108968323D01*
X117506898Y-108930636D01*
X117525466Y-108895897D01*
X117550452Y-108865452D01*
X117580897Y-108840466D01*
X117615636Y-108821898D01*
X117653323Y-108810465D01*
X117698661Y-108806000D01*
X118535339Y-108806000D01*
X118580677Y-108810465D01*
X118580677Y-108810465D01*
G37*
G36*
X116530677Y-108810465D02*
G01*
X116568364Y-108821898D01*
X116603103Y-108840466D01*
X116633548Y-108865452D01*
X116658534Y-108895897D01*
X116677102Y-108930636D01*
X116688535Y-108968323D01*
X116693000Y-109013661D01*
X116693000Y-110100339D01*
X116688535Y-110145677D01*
X116677102Y-110183364D01*
X116658534Y-110218103D01*
X116633548Y-110248548D01*
X116603103Y-110273534D01*
X116568364Y-110292102D01*
X116530677Y-110303535D01*
X116485339Y-110308000D01*
X115648661Y-110308000D01*
X115603323Y-110303535D01*
X115565636Y-110292102D01*
X115530897Y-110273534D01*
X115500452Y-110248548D01*
X115475466Y-110218103D01*
X115456898Y-110183364D01*
X115445465Y-110145677D01*
X115441000Y-110100339D01*
X115441000Y-109013661D01*
X115445465Y-108968323D01*
X115456898Y-108930636D01*
X115475466Y-108895897D01*
X115500452Y-108865452D01*
X115530897Y-108840466D01*
X115565636Y-108821898D01*
X115603323Y-108810465D01*
X115648661Y-108806000D01*
X116485339Y-108806000D01*
X116530677Y-108810465D01*
X116530677Y-108810465D01*
G37*
G36*
X149771000Y-110051000D02*
G01*
X141669000Y-110051000D01*
X141669000Y-101949000D01*
X149771000Y-101949000D01*
X149771000Y-110051000D01*
X149771000Y-110051000D01*
G37*
G36*
X127771000Y-110051000D02*
G01*
X119669000Y-110051000D01*
X119669000Y-101949000D01*
X127771000Y-101949000D01*
X127771000Y-110051000D01*
X127771000Y-110051000D01*
G37*
G36*
X152775562Y-108503181D02*
G01*
X152810477Y-108513773D01*
X152842665Y-108530978D01*
X152870873Y-108554127D01*
X152894022Y-108582335D01*
X152911227Y-108614523D01*
X152921819Y-108649438D01*
X152926000Y-108691895D01*
X152926000Y-109833105D01*
X152921819Y-109875562D01*
X152911227Y-109910477D01*
X152894022Y-109942665D01*
X152870873Y-109970873D01*
X152842665Y-109994022D01*
X152810477Y-110011227D01*
X152775562Y-110021819D01*
X152733105Y-110026000D01*
X151266895Y-110026000D01*
X151224438Y-110021819D01*
X151189523Y-110011227D01*
X151157335Y-109994022D01*
X151129127Y-109970873D01*
X151105978Y-109942665D01*
X151088773Y-109910477D01*
X151078181Y-109875562D01*
X151074000Y-109833105D01*
X151074000Y-108691895D01*
X151078181Y-108649438D01*
X151088773Y-108614523D01*
X151105978Y-108582335D01*
X151129127Y-108554127D01*
X151157335Y-108530978D01*
X151189523Y-108513773D01*
X151224438Y-108503181D01*
X151266895Y-108499000D01*
X152733105Y-108499000D01*
X152775562Y-108503181D01*
X152775562Y-108503181D01*
G37*
G36*
X111125677Y-107319465D02*
G01*
X111163364Y-107330898D01*
X111198103Y-107349466D01*
X111228548Y-107374452D01*
X111253534Y-107404897D01*
X111272102Y-107439636D01*
X111283535Y-107477323D01*
X111288000Y-107522661D01*
X111288000Y-108609339D01*
X111283535Y-108654677D01*
X111272102Y-108692364D01*
X111253534Y-108727103D01*
X111228548Y-108757548D01*
X111198103Y-108782534D01*
X111163364Y-108801102D01*
X111125677Y-108812535D01*
X111080339Y-108817000D01*
X110243661Y-108817000D01*
X110198323Y-108812535D01*
X110160636Y-108801102D01*
X110125897Y-108782534D01*
X110095452Y-108757548D01*
X110070466Y-108727103D01*
X110051898Y-108692364D01*
X110040465Y-108654677D01*
X110036000Y-108609339D01*
X110036000Y-107522661D01*
X110040465Y-107477323D01*
X110051898Y-107439636D01*
X110070466Y-107404897D01*
X110095452Y-107374452D01*
X110125897Y-107349466D01*
X110160636Y-107330898D01*
X110198323Y-107319465D01*
X110243661Y-107315000D01*
X111080339Y-107315000D01*
X111125677Y-107319465D01*
X111125677Y-107319465D01*
G37*
G36*
X113175677Y-107319465D02*
G01*
X113213364Y-107330898D01*
X113248103Y-107349466D01*
X113278548Y-107374452D01*
X113303534Y-107404897D01*
X113322102Y-107439636D01*
X113333535Y-107477323D01*
X113338000Y-107522661D01*
X113338000Y-108609339D01*
X113333535Y-108654677D01*
X113322102Y-108692364D01*
X113303534Y-108727103D01*
X113278548Y-108757548D01*
X113248103Y-108782534D01*
X113213364Y-108801102D01*
X113175677Y-108812535D01*
X113130339Y-108817000D01*
X112293661Y-108817000D01*
X112248323Y-108812535D01*
X112210636Y-108801102D01*
X112175897Y-108782534D01*
X112145452Y-108757548D01*
X112120466Y-108727103D01*
X112101898Y-108692364D01*
X112090465Y-108654677D01*
X112086000Y-108609339D01*
X112086000Y-107522661D01*
X112090465Y-107477323D01*
X112101898Y-107439636D01*
X112120466Y-107404897D01*
X112145452Y-107374452D01*
X112175897Y-107349466D01*
X112210636Y-107330898D01*
X112248323Y-107319465D01*
X112293661Y-107315000D01*
X113130339Y-107315000D01*
X113175677Y-107319465D01*
X113175677Y-107319465D01*
G37*
G36*
X102397427Y-106107597D02*
G01*
X102511027Y-106130193D01*
X102725045Y-106218842D01*
X102827107Y-106287038D01*
X102917659Y-106347543D01*
X103081457Y-106511341D01*
X103081459Y-106511344D01*
X103210158Y-106703955D01*
X103298807Y-106917973D01*
X103344000Y-107145174D01*
X103344000Y-107376826D01*
X103298807Y-107604027D01*
X103210158Y-107818045D01*
X103159522Y-107893827D01*
X103081457Y-108010659D01*
X102917659Y-108174457D01*
X102917656Y-108174459D01*
X102725045Y-108303158D01*
X102511027Y-108391807D01*
X102419564Y-108410000D01*
X102283827Y-108437000D01*
X102052173Y-108437000D01*
X101916436Y-108410000D01*
X101824973Y-108391807D01*
X101610955Y-108303158D01*
X101418344Y-108174459D01*
X101418341Y-108174457D01*
X101254543Y-108010659D01*
X101176478Y-107893827D01*
X101125842Y-107818045D01*
X101037193Y-107604027D01*
X100992000Y-107376826D01*
X100992000Y-107145174D01*
X101037193Y-106917973D01*
X101125842Y-106703955D01*
X101254541Y-106511344D01*
X101254543Y-106511341D01*
X101418341Y-106347543D01*
X101508893Y-106287038D01*
X101610955Y-106218842D01*
X101824973Y-106130193D01*
X101938573Y-106107597D01*
X102052173Y-106085000D01*
X102283827Y-106085000D01*
X102397427Y-106107597D01*
X102397427Y-106107597D01*
G37*
G36*
X107477427Y-106107597D02*
G01*
X107591027Y-106130193D01*
X107805045Y-106218842D01*
X107907107Y-106287038D01*
X107997659Y-106347543D01*
X108161457Y-106511341D01*
X108161459Y-106511344D01*
X108290158Y-106703955D01*
X108378807Y-106917973D01*
X108424000Y-107145174D01*
X108424000Y-107376826D01*
X108378807Y-107604027D01*
X108290158Y-107818045D01*
X108239522Y-107893827D01*
X108161457Y-108010659D01*
X107997659Y-108174457D01*
X107997656Y-108174459D01*
X107805045Y-108303158D01*
X107591027Y-108391807D01*
X107499564Y-108410000D01*
X107363827Y-108437000D01*
X107132173Y-108437000D01*
X106996436Y-108410000D01*
X106904973Y-108391807D01*
X106690955Y-108303158D01*
X106498344Y-108174459D01*
X106498341Y-108174457D01*
X106334543Y-108010659D01*
X106256478Y-107893827D01*
X106205842Y-107818045D01*
X106117193Y-107604027D01*
X106072000Y-107376826D01*
X106072000Y-107145174D01*
X106117193Y-106917973D01*
X106205842Y-106703955D01*
X106334541Y-106511344D01*
X106334543Y-106511341D01*
X106498341Y-106347543D01*
X106588893Y-106287038D01*
X106690955Y-106218842D01*
X106904973Y-106130193D01*
X107018573Y-106107597D01*
X107132173Y-106085000D01*
X107363827Y-106085000D01*
X107477427Y-106107597D01*
X107477427Y-106107597D01*
G37*
G36*
X167612000Y-108410000D02*
G01*
X154360000Y-108410000D01*
X154360000Y-98908000D01*
X167612000Y-98908000D01*
X167612000Y-108410000D01*
X167612000Y-108410000D01*
G37*
G36*
X116564677Y-106668465D02*
G01*
X116602364Y-106679898D01*
X116637103Y-106698466D01*
X116667548Y-106723452D01*
X116692534Y-106753897D01*
X116711102Y-106788636D01*
X116722535Y-106826323D01*
X116727000Y-106871661D01*
X116727000Y-107958339D01*
X116722535Y-108003677D01*
X116711102Y-108041364D01*
X116692534Y-108076103D01*
X116667548Y-108106548D01*
X116637103Y-108131534D01*
X116602364Y-108150102D01*
X116564677Y-108161535D01*
X116519339Y-108166000D01*
X115682661Y-108166000D01*
X115637323Y-108161535D01*
X115599636Y-108150102D01*
X115564897Y-108131534D01*
X115534452Y-108106548D01*
X115509466Y-108076103D01*
X115490898Y-108041364D01*
X115479465Y-108003677D01*
X115475000Y-107958339D01*
X115475000Y-106871661D01*
X115479465Y-106826323D01*
X115490898Y-106788636D01*
X115509466Y-106753897D01*
X115534452Y-106723452D01*
X115564897Y-106698466D01*
X115599636Y-106679898D01*
X115637323Y-106668465D01*
X115682661Y-106664000D01*
X116519339Y-106664000D01*
X116564677Y-106668465D01*
X116564677Y-106668465D01*
G37*
G36*
X118614677Y-106668465D02*
G01*
X118652364Y-106679898D01*
X118687103Y-106698466D01*
X118717548Y-106723452D01*
X118742534Y-106753897D01*
X118761102Y-106788636D01*
X118772535Y-106826323D01*
X118777000Y-106871661D01*
X118777000Y-107958339D01*
X118772535Y-108003677D01*
X118761102Y-108041364D01*
X118742534Y-108076103D01*
X118717548Y-108106548D01*
X118687103Y-108131534D01*
X118652364Y-108150102D01*
X118614677Y-108161535D01*
X118569339Y-108166000D01*
X117732661Y-108166000D01*
X117687323Y-108161535D01*
X117649636Y-108150102D01*
X117614897Y-108131534D01*
X117584452Y-108106548D01*
X117559466Y-108076103D01*
X117540898Y-108041364D01*
X117529465Y-108003677D01*
X117525000Y-107958339D01*
X117525000Y-106871661D01*
X117529465Y-106826323D01*
X117540898Y-106788636D01*
X117559466Y-106753897D01*
X117584452Y-106723452D01*
X117614897Y-106698466D01*
X117649636Y-106679898D01*
X117687323Y-106668465D01*
X117732661Y-106664000D01*
X118569339Y-106664000D01*
X118614677Y-106668465D01*
X118614677Y-106668465D01*
G37*
G36*
X111046677Y-104910465D02*
G01*
X111084364Y-104921898D01*
X111119103Y-104940466D01*
X111149548Y-104965452D01*
X111174534Y-104995897D01*
X111193102Y-105030636D01*
X111204535Y-105068323D01*
X111209000Y-105113661D01*
X111209000Y-106200339D01*
X111204535Y-106245677D01*
X111193102Y-106283364D01*
X111174534Y-106318103D01*
X111149548Y-106348548D01*
X111119103Y-106373534D01*
X111084364Y-106392102D01*
X111046677Y-106403535D01*
X111001339Y-106408000D01*
X110164661Y-106408000D01*
X110119323Y-106403535D01*
X110081636Y-106392102D01*
X110046897Y-106373534D01*
X110016452Y-106348548D01*
X109991466Y-106318103D01*
X109972898Y-106283364D01*
X109961465Y-106245677D01*
X109957000Y-106200339D01*
X109957000Y-105113661D01*
X109961465Y-105068323D01*
X109972898Y-105030636D01*
X109991466Y-104995897D01*
X110016452Y-104965452D01*
X110046897Y-104940466D01*
X110081636Y-104921898D01*
X110119323Y-104910465D01*
X110164661Y-104906000D01*
X111001339Y-104906000D01*
X111046677Y-104910465D01*
X111046677Y-104910465D01*
G37*
G36*
X113096677Y-104910465D02*
G01*
X113134364Y-104921898D01*
X113169103Y-104940466D01*
X113199548Y-104965452D01*
X113224534Y-104995897D01*
X113243102Y-105030636D01*
X113254535Y-105068323D01*
X113259000Y-105113661D01*
X113259000Y-106200339D01*
X113254535Y-106245677D01*
X113243102Y-106283364D01*
X113224534Y-106318103D01*
X113199548Y-106348548D01*
X113169103Y-106373534D01*
X113134364Y-106392102D01*
X113096677Y-106403535D01*
X113051339Y-106408000D01*
X112214661Y-106408000D01*
X112169323Y-106403535D01*
X112131636Y-106392102D01*
X112096897Y-106373534D01*
X112066452Y-106348548D01*
X112041466Y-106318103D01*
X112022898Y-106283364D01*
X112011465Y-106245677D01*
X112007000Y-106200339D01*
X112007000Y-105113661D01*
X112011465Y-105068323D01*
X112022898Y-105030636D01*
X112041466Y-104995897D01*
X112066452Y-104965452D01*
X112096897Y-104940466D01*
X112131636Y-104921898D01*
X112169323Y-104910465D01*
X112214661Y-104906000D01*
X113051339Y-104906000D01*
X113096677Y-104910465D01*
X113096677Y-104910465D01*
G37*
G36*
X104865947Y-103655338D02*
G01*
X105021858Y-103686350D01*
X105217677Y-103767461D01*
X105334230Y-103845339D01*
X105393913Y-103885218D01*
X105543782Y-104035087D01*
X105543784Y-104035090D01*
X105661539Y-104211323D01*
X105742650Y-104407142D01*
X105784000Y-104615023D01*
X105784000Y-104826977D01*
X105742650Y-105034858D01*
X105661539Y-105230677D01*
X105661538Y-105230678D01*
X105543782Y-105406913D01*
X105393913Y-105556782D01*
X105393910Y-105556784D01*
X105217677Y-105674539D01*
X105021858Y-105755650D01*
X104865947Y-105786662D01*
X104813978Y-105797000D01*
X104602022Y-105797000D01*
X104550053Y-105786663D01*
X104394142Y-105755650D01*
X104198323Y-105674539D01*
X104022090Y-105556784D01*
X104022087Y-105556782D01*
X103872218Y-105406913D01*
X103754462Y-105230678D01*
X103754461Y-105230677D01*
X103673350Y-105034858D01*
X103632000Y-104826977D01*
X103632000Y-104615023D01*
X103673350Y-104407142D01*
X103754461Y-104211323D01*
X103872216Y-104035090D01*
X103872218Y-104035087D01*
X104022087Y-103885218D01*
X104081770Y-103845339D01*
X104198323Y-103767461D01*
X104394142Y-103686350D01*
X104550053Y-103655338D01*
X104602022Y-103645000D01*
X104813978Y-103645000D01*
X104865947Y-103655338D01*
X104865947Y-103655338D01*
G37*
G36*
X117771677Y-103250465D02*
G01*
X117809364Y-103261898D01*
X117844103Y-103280466D01*
X117874548Y-103305452D01*
X117899534Y-103335897D01*
X117918102Y-103370636D01*
X117929535Y-103408323D01*
X117934000Y-103453661D01*
X117934000Y-104540339D01*
X117929535Y-104585677D01*
X117918102Y-104623364D01*
X117899534Y-104658103D01*
X117874548Y-104688548D01*
X117844103Y-104713534D01*
X117809364Y-104732102D01*
X117771677Y-104743535D01*
X117726339Y-104748000D01*
X116889661Y-104748000D01*
X116844323Y-104743535D01*
X116806636Y-104732102D01*
X116771897Y-104713534D01*
X116741452Y-104688548D01*
X116716466Y-104658103D01*
X116697898Y-104623364D01*
X116686465Y-104585677D01*
X116682000Y-104540339D01*
X116682000Y-103453661D01*
X116686465Y-103408323D01*
X116697898Y-103370636D01*
X116716466Y-103335897D01*
X116741452Y-103305452D01*
X116771897Y-103280466D01*
X116806636Y-103261898D01*
X116844323Y-103250465D01*
X116889661Y-103246000D01*
X117726339Y-103246000D01*
X117771677Y-103250465D01*
X117771677Y-103250465D01*
G37*
G36*
X115721677Y-103250465D02*
G01*
X115759364Y-103261898D01*
X115794103Y-103280466D01*
X115824548Y-103305452D01*
X115849534Y-103335897D01*
X115868102Y-103370636D01*
X115879535Y-103408323D01*
X115884000Y-103453661D01*
X115884000Y-104540339D01*
X115879535Y-104585677D01*
X115868102Y-104623364D01*
X115849534Y-104658103D01*
X115824548Y-104688548D01*
X115794103Y-104713534D01*
X115759364Y-104732102D01*
X115721677Y-104743535D01*
X115676339Y-104748000D01*
X114839661Y-104748000D01*
X114794323Y-104743535D01*
X114756636Y-104732102D01*
X114721897Y-104713534D01*
X114691452Y-104688548D01*
X114666466Y-104658103D01*
X114647898Y-104623364D01*
X114636465Y-104585677D01*
X114632000Y-104540339D01*
X114632000Y-103453661D01*
X114636465Y-103408323D01*
X114647898Y-103370636D01*
X114666466Y-103335897D01*
X114691452Y-103305452D01*
X114721897Y-103280466D01*
X114756636Y-103261898D01*
X114794323Y-103250465D01*
X114839661Y-103246000D01*
X115676339Y-103246000D01*
X115721677Y-103250465D01*
X115721677Y-103250465D01*
G37*
G36*
X113122677Y-102555465D02*
G01*
X113160364Y-102566898D01*
X113195103Y-102585466D01*
X113225548Y-102610452D01*
X113250534Y-102640897D01*
X113269102Y-102675636D01*
X113280535Y-102713323D01*
X113285000Y-102758661D01*
X113285000Y-103845339D01*
X113280535Y-103890677D01*
X113269102Y-103928364D01*
X113250534Y-103963103D01*
X113225548Y-103993548D01*
X113195103Y-104018534D01*
X113160364Y-104037102D01*
X113122677Y-104048535D01*
X113077339Y-104053000D01*
X112240661Y-104053000D01*
X112195323Y-104048535D01*
X112157636Y-104037102D01*
X112122897Y-104018534D01*
X112092452Y-103993548D01*
X112067466Y-103963103D01*
X112048898Y-103928364D01*
X112037465Y-103890677D01*
X112033000Y-103845339D01*
X112033000Y-102758661D01*
X112037465Y-102713323D01*
X112048898Y-102675636D01*
X112067466Y-102640897D01*
X112092452Y-102610452D01*
X112122897Y-102585466D01*
X112157636Y-102566898D01*
X112195323Y-102555465D01*
X112240661Y-102551000D01*
X113077339Y-102551000D01*
X113122677Y-102555465D01*
X113122677Y-102555465D01*
G37*
G36*
X111072677Y-102555465D02*
G01*
X111110364Y-102566898D01*
X111145103Y-102585466D01*
X111175548Y-102610452D01*
X111200534Y-102640897D01*
X111219102Y-102675636D01*
X111230535Y-102713323D01*
X111235000Y-102758661D01*
X111235000Y-103845339D01*
X111230535Y-103890677D01*
X111219102Y-103928364D01*
X111200534Y-103963103D01*
X111175548Y-103993548D01*
X111145103Y-104018534D01*
X111110364Y-104037102D01*
X111072677Y-104048535D01*
X111027339Y-104053000D01*
X110190661Y-104053000D01*
X110145323Y-104048535D01*
X110107636Y-104037102D01*
X110072897Y-104018534D01*
X110042452Y-103993548D01*
X110017466Y-103963103D01*
X109998898Y-103928364D01*
X109987465Y-103890677D01*
X109983000Y-103845339D01*
X109983000Y-102758661D01*
X109987465Y-102713323D01*
X109998898Y-102675636D01*
X110017466Y-102640897D01*
X110042452Y-102610452D01*
X110072897Y-102585466D01*
X110107636Y-102566898D01*
X110145323Y-102555465D01*
X110190661Y-102551000D01*
X111027339Y-102551000D01*
X111072677Y-102555465D01*
X111072677Y-102555465D01*
G37*
G36*
X107477426Y-101027596D02*
G01*
X107591027Y-101050193D01*
X107805045Y-101138842D01*
X107989363Y-101262000D01*
X107997659Y-101267543D01*
X108161457Y-101431341D01*
X108161459Y-101431344D01*
X108290158Y-101623955D01*
X108290158Y-101623956D01*
X108378807Y-101837974D01*
X108424000Y-102065173D01*
X108424000Y-102296827D01*
X108412264Y-102355827D01*
X108378807Y-102524027D01*
X108290158Y-102738045D01*
X108268756Y-102770075D01*
X108161457Y-102930659D01*
X107997659Y-103094457D01*
X107997656Y-103094459D01*
X107805045Y-103223158D01*
X107591027Y-103311807D01*
X107477427Y-103334403D01*
X107363827Y-103357000D01*
X107132173Y-103357000D01*
X107018573Y-103334403D01*
X106904973Y-103311807D01*
X106690955Y-103223158D01*
X106498344Y-103094459D01*
X106498341Y-103094457D01*
X106334543Y-102930659D01*
X106227244Y-102770075D01*
X106205842Y-102738045D01*
X106117193Y-102524027D01*
X106083736Y-102355827D01*
X106072000Y-102296827D01*
X106072000Y-102065173D01*
X106117193Y-101837974D01*
X106205842Y-101623956D01*
X106205842Y-101623955D01*
X106334541Y-101431344D01*
X106334543Y-101431341D01*
X106498341Y-101267543D01*
X106506637Y-101262000D01*
X106690955Y-101138842D01*
X106904973Y-101050193D01*
X107018574Y-101027596D01*
X107132173Y-101005000D01*
X107363827Y-101005000D01*
X107477426Y-101027596D01*
X107477426Y-101027596D01*
G37*
G36*
X102397426Y-101027596D02*
G01*
X102511027Y-101050193D01*
X102725045Y-101138842D01*
X102909363Y-101262000D01*
X102917659Y-101267543D01*
X103081457Y-101431341D01*
X103081459Y-101431344D01*
X103210158Y-101623955D01*
X103210158Y-101623956D01*
X103298807Y-101837974D01*
X103344000Y-102065173D01*
X103344000Y-102296827D01*
X103332264Y-102355827D01*
X103298807Y-102524027D01*
X103210158Y-102738045D01*
X103188756Y-102770075D01*
X103081457Y-102930659D01*
X102917659Y-103094457D01*
X102917656Y-103094459D01*
X102725045Y-103223158D01*
X102511027Y-103311807D01*
X102397427Y-103334403D01*
X102283827Y-103357000D01*
X102052173Y-103357000D01*
X101938573Y-103334403D01*
X101824973Y-103311807D01*
X101610955Y-103223158D01*
X101418344Y-103094459D01*
X101418341Y-103094457D01*
X101254543Y-102930659D01*
X101147244Y-102770075D01*
X101125842Y-102738045D01*
X101037193Y-102524027D01*
X101003736Y-102355827D01*
X100992000Y-102296827D01*
X100992000Y-102065173D01*
X101037193Y-101837974D01*
X101125842Y-101623956D01*
X101125842Y-101623955D01*
X101254541Y-101431344D01*
X101254543Y-101431341D01*
X101418341Y-101267543D01*
X101426637Y-101262000D01*
X101610955Y-101138842D01*
X101824973Y-101050193D01*
X101938574Y-101027596D01*
X102052173Y-101005000D01*
X102283827Y-101005000D01*
X102397426Y-101027596D01*
X102397426Y-101027596D01*
G37*
G36*
X115864677Y-101380465D02*
G01*
X115902364Y-101391898D01*
X115937103Y-101410466D01*
X115967548Y-101435452D01*
X115992534Y-101465897D01*
X116011102Y-101500636D01*
X116022535Y-101538323D01*
X116027000Y-101583661D01*
X116027000Y-102420339D01*
X116022535Y-102465677D01*
X116011102Y-102503364D01*
X115992534Y-102538103D01*
X115967548Y-102568548D01*
X115937103Y-102593534D01*
X115902364Y-102612102D01*
X115864677Y-102623535D01*
X115819339Y-102628000D01*
X114732661Y-102628000D01*
X114687323Y-102623535D01*
X114649636Y-102612102D01*
X114614897Y-102593534D01*
X114584452Y-102568548D01*
X114559466Y-102538103D01*
X114540898Y-102503364D01*
X114529465Y-102465677D01*
X114525000Y-102420339D01*
X114525000Y-101583661D01*
X114529465Y-101538323D01*
X114540898Y-101500636D01*
X114559466Y-101465897D01*
X114584452Y-101435452D01*
X114614897Y-101410466D01*
X114649636Y-101391898D01*
X114687323Y-101380465D01*
X114732661Y-101376000D01*
X115819339Y-101376000D01*
X115864677Y-101380465D01*
X115864677Y-101380465D01*
G37*
G36*
X118012677Y-101266465D02*
G01*
X118050364Y-101277898D01*
X118085103Y-101296466D01*
X118115548Y-101321452D01*
X118140534Y-101351897D01*
X118159102Y-101386636D01*
X118170535Y-101424323D01*
X118175000Y-101469661D01*
X118175000Y-102306339D01*
X118170535Y-102351677D01*
X118159102Y-102389364D01*
X118140534Y-102424103D01*
X118115548Y-102454548D01*
X118085103Y-102479534D01*
X118050364Y-102498102D01*
X118012677Y-102509535D01*
X117967339Y-102514000D01*
X116880661Y-102514000D01*
X116835323Y-102509535D01*
X116797636Y-102498102D01*
X116762897Y-102479534D01*
X116732452Y-102454548D01*
X116707466Y-102424103D01*
X116688898Y-102389364D01*
X116677465Y-102351677D01*
X116673000Y-102306339D01*
X116673000Y-101469661D01*
X116677465Y-101424323D01*
X116688898Y-101386636D01*
X116707466Y-101351897D01*
X116732452Y-101321452D01*
X116762897Y-101296466D01*
X116797636Y-101277898D01*
X116835323Y-101266465D01*
X116880661Y-101262000D01*
X117967339Y-101262000D01*
X118012677Y-101266465D01*
X118012677Y-101266465D01*
G37*
G36*
X149755000Y-92724000D02*
G01*
X149757402Y-92748386D01*
X149764515Y-92771835D01*
X149771000Y-92783968D01*
X149771000Y-100951000D01*
X141669000Y-100951000D01*
X141669000Y-92929000D01*
X141666598Y-92904614D01*
X141659485Y-92881165D01*
X141653000Y-92869032D01*
X141653000Y-84702000D01*
X149755000Y-84702000D01*
X149755000Y-92724000D01*
X149755000Y-92724000D01*
G37*
G36*
X127755000Y-92724000D02*
G01*
X127757402Y-92748386D01*
X127764515Y-92771835D01*
X127771000Y-92783968D01*
X127771000Y-100951000D01*
X119669000Y-100951000D01*
X119669000Y-92929000D01*
X119666598Y-92904614D01*
X119659485Y-92881165D01*
X119653000Y-92869032D01*
X119653000Y-84702000D01*
X127755000Y-84702000D01*
X127755000Y-92724000D01*
X127755000Y-92724000D01*
G37*
G36*
X115864677Y-99330465D02*
G01*
X115902364Y-99341898D01*
X115937103Y-99360466D01*
X115967548Y-99385452D01*
X115992534Y-99415897D01*
X116011102Y-99450636D01*
X116022535Y-99488323D01*
X116027000Y-99533661D01*
X116027000Y-100370339D01*
X116022535Y-100415677D01*
X116011102Y-100453364D01*
X115992534Y-100488103D01*
X115967548Y-100518548D01*
X115937103Y-100543534D01*
X115902364Y-100562102D01*
X115864677Y-100573535D01*
X115819339Y-100578000D01*
X114732661Y-100578000D01*
X114687323Y-100573535D01*
X114649636Y-100562102D01*
X114614897Y-100543534D01*
X114584452Y-100518548D01*
X114559466Y-100488103D01*
X114540898Y-100453364D01*
X114529465Y-100415677D01*
X114525000Y-100370339D01*
X114525000Y-99533661D01*
X114529465Y-99488323D01*
X114540898Y-99450636D01*
X114559466Y-99415897D01*
X114584452Y-99385452D01*
X114614897Y-99360466D01*
X114649636Y-99341898D01*
X114687323Y-99330465D01*
X114732661Y-99326000D01*
X115819339Y-99326000D01*
X115864677Y-99330465D01*
X115864677Y-99330465D01*
G37*
G36*
X118012677Y-99216465D02*
G01*
X118050364Y-99227898D01*
X118085103Y-99246466D01*
X118115548Y-99271452D01*
X118140534Y-99301897D01*
X118159102Y-99336636D01*
X118170535Y-99374323D01*
X118175000Y-99419661D01*
X118175000Y-100256339D01*
X118170535Y-100301677D01*
X118159102Y-100339364D01*
X118140534Y-100374103D01*
X118115548Y-100404548D01*
X118085103Y-100429534D01*
X118050364Y-100448102D01*
X118012677Y-100459535D01*
X117967339Y-100464000D01*
X116880661Y-100464000D01*
X116835323Y-100459535D01*
X116797636Y-100448102D01*
X116762897Y-100429534D01*
X116732452Y-100404548D01*
X116707466Y-100374103D01*
X116688898Y-100339364D01*
X116677465Y-100301677D01*
X116673000Y-100256339D01*
X116673000Y-99419661D01*
X116677465Y-99374323D01*
X116688898Y-99336636D01*
X116707466Y-99301897D01*
X116732452Y-99271452D01*
X116762897Y-99246466D01*
X116797636Y-99227898D01*
X116835323Y-99216465D01*
X116880661Y-99212000D01*
X117967339Y-99212000D01*
X118012677Y-99216465D01*
X118012677Y-99216465D01*
G37*
G36*
X101063721Y-99145174D02*
G01*
X101163995Y-99186709D01*
X101254245Y-99247012D01*
X101330988Y-99323755D01*
X101391291Y-99414005D01*
X101432826Y-99514279D01*
X101454000Y-99620730D01*
X101454000Y-99729270D01*
X101432826Y-99835721D01*
X101391291Y-99935995D01*
X101330988Y-100026245D01*
X101254245Y-100102988D01*
X101163995Y-100163291D01*
X101063721Y-100204826D01*
X100957270Y-100226000D01*
X100848730Y-100226000D01*
X100742279Y-100204826D01*
X100642005Y-100163291D01*
X100551755Y-100102988D01*
X100475012Y-100026245D01*
X100414709Y-99935995D01*
X100373174Y-99835721D01*
X100352000Y-99729270D01*
X100352000Y-99620730D01*
X100373174Y-99514279D01*
X100414709Y-99414005D01*
X100475012Y-99323755D01*
X100551755Y-99247012D01*
X100642005Y-99186709D01*
X100742279Y-99145174D01*
X100848730Y-99124000D01*
X100957270Y-99124000D01*
X101063721Y-99145174D01*
X101063721Y-99145174D01*
G37*
G36*
X109063721Y-99145174D02*
G01*
X109163995Y-99186709D01*
X109254245Y-99247012D01*
X109330988Y-99323755D01*
X109391291Y-99414005D01*
X109432826Y-99514279D01*
X109454000Y-99620730D01*
X109454000Y-99729270D01*
X109432826Y-99835721D01*
X109391291Y-99935995D01*
X109330988Y-100026245D01*
X109254245Y-100102988D01*
X109163995Y-100163291D01*
X109063721Y-100204826D01*
X108957270Y-100226000D01*
X108848730Y-100226000D01*
X108742279Y-100204826D01*
X108642005Y-100163291D01*
X108551755Y-100102988D01*
X108475012Y-100026245D01*
X108414709Y-99935995D01*
X108373174Y-99835721D01*
X108352000Y-99729270D01*
X108352000Y-99620730D01*
X108373174Y-99514279D01*
X108414709Y-99414005D01*
X108475012Y-99323755D01*
X108551755Y-99247012D01*
X108642005Y-99186709D01*
X108742279Y-99145174D01*
X108848730Y-99124000D01*
X108957270Y-99124000D01*
X109063721Y-99145174D01*
X109063721Y-99145174D01*
G37*
G36*
X199737000Y-99785000D02*
G01*
X190235000Y-99785000D01*
X190235000Y-86533000D01*
X199737000Y-86533000D01*
X199737000Y-99785000D01*
X199737000Y-99785000D01*
G37*
G36*
X152521250Y-97107843D02*
G01*
X152606322Y-97124765D01*
X152636405Y-97137226D01*
X152846728Y-97224344D01*
X153063092Y-97368914D01*
X153247086Y-97552908D01*
X153391656Y-97769272D01*
X153491235Y-98009679D01*
X153542000Y-98264891D01*
X153542000Y-98525109D01*
X153491235Y-98780321D01*
X153391656Y-99020728D01*
X153247086Y-99237092D01*
X153063092Y-99421086D01*
X152846728Y-99565656D01*
X152713766Y-99620730D01*
X152606322Y-99665235D01*
X152521250Y-99682157D01*
X152351109Y-99716000D01*
X152090891Y-99716000D01*
X151920750Y-99682157D01*
X151835678Y-99665235D01*
X151728234Y-99620730D01*
X151595272Y-99565656D01*
X151378908Y-99421086D01*
X151194914Y-99237092D01*
X151050344Y-99020728D01*
X150950765Y-98780321D01*
X150900000Y-98525109D01*
X150900000Y-98264891D01*
X150950765Y-98009679D01*
X151050344Y-97769272D01*
X151194914Y-97552908D01*
X151378908Y-97368914D01*
X151595272Y-97224344D01*
X151805595Y-97137226D01*
X151835678Y-97124765D01*
X151920750Y-97107843D01*
X152090891Y-97074000D01*
X152351109Y-97074000D01*
X152521250Y-97107843D01*
X152521250Y-97107843D01*
G37*
G36*
X114050782Y-97126295D02*
G01*
X114086815Y-97137226D01*
X114120028Y-97154979D01*
X114149134Y-97178866D01*
X114173021Y-97207972D01*
X114190774Y-97241185D01*
X114201705Y-97277218D01*
X114206000Y-97320830D01*
X114206000Y-98325170D01*
X114201705Y-98368782D01*
X114190774Y-98404815D01*
X114173021Y-98438028D01*
X114149134Y-98467134D01*
X114120028Y-98491021D01*
X114086815Y-98508774D01*
X114050782Y-98519705D01*
X114007170Y-98524000D01*
X110902830Y-98524000D01*
X110859218Y-98519705D01*
X110823185Y-98508774D01*
X110789972Y-98491021D01*
X110760866Y-98467134D01*
X110736979Y-98438028D01*
X110719226Y-98404815D01*
X110708295Y-98368782D01*
X110704000Y-98325170D01*
X110704000Y-97320830D01*
X110708295Y-97277218D01*
X110719226Y-97241185D01*
X110736979Y-97207972D01*
X110760866Y-97178866D01*
X110789972Y-97154979D01*
X110823185Y-97137226D01*
X110859218Y-97126295D01*
X110902830Y-97122000D01*
X114007170Y-97122000D01*
X114050782Y-97126295D01*
X114050782Y-97126295D01*
G37*
G36*
X116821250Y-93707843D02*
G01*
X116906322Y-93724765D01*
X116976735Y-93753931D01*
X117146728Y-93824344D01*
X117363092Y-93968914D01*
X117547086Y-94152908D01*
X117691656Y-94369272D01*
X117762069Y-94539265D01*
X117791235Y-94609678D01*
X117842000Y-94864893D01*
X117842000Y-95125107D01*
X117791235Y-95380322D01*
X117762399Y-95449939D01*
X117691656Y-95620728D01*
X117547086Y-95837092D01*
X117363092Y-96021086D01*
X117146728Y-96165656D01*
X116976735Y-96236069D01*
X116906322Y-96265235D01*
X116821250Y-96282157D01*
X116651109Y-96316000D01*
X116390891Y-96316000D01*
X116220750Y-96282157D01*
X116135678Y-96265235D01*
X116065265Y-96236069D01*
X115895272Y-96165656D01*
X115678908Y-96021086D01*
X115494914Y-95837092D01*
X115350344Y-95620728D01*
X115279601Y-95449939D01*
X115250765Y-95380322D01*
X115200000Y-95125107D01*
X115200000Y-94864893D01*
X115250765Y-94609678D01*
X115279931Y-94539265D01*
X115350344Y-94369272D01*
X115494914Y-94152908D01*
X115678908Y-93968914D01*
X115895272Y-93824344D01*
X116065265Y-93753931D01*
X116135678Y-93724765D01*
X116220750Y-93707843D01*
X116390891Y-93674000D01*
X116651109Y-93674000D01*
X116821250Y-93707843D01*
X116821250Y-93707843D01*
G37*
G36*
X157668562Y-94046181D02*
G01*
X157703477Y-94056773D01*
X157735665Y-94073978D01*
X157763873Y-94097127D01*
X157787022Y-94125335D01*
X157804227Y-94157523D01*
X157814819Y-94192438D01*
X157819000Y-94234895D01*
X157819000Y-95376105D01*
X157814819Y-95418562D01*
X157804227Y-95453477D01*
X157787022Y-95485665D01*
X157763873Y-95513873D01*
X157735665Y-95537022D01*
X157703477Y-95554227D01*
X157668562Y-95564819D01*
X157626105Y-95569000D01*
X156159895Y-95569000D01*
X156117438Y-95564819D01*
X156082523Y-95554227D01*
X156050335Y-95537022D01*
X156022127Y-95513873D01*
X155998978Y-95485665D01*
X155981773Y-95453477D01*
X155971181Y-95418562D01*
X155967000Y-95376105D01*
X155967000Y-94234895D01*
X155971181Y-94192438D01*
X155981773Y-94157523D01*
X155998978Y-94125335D01*
X156022127Y-94097127D01*
X156050335Y-94073978D01*
X156082523Y-94056773D01*
X156117438Y-94046181D01*
X156159895Y-94042000D01*
X157626105Y-94042000D01*
X157668562Y-94046181D01*
X157668562Y-94046181D01*
G37*
G36*
X155146562Y-94011181D02*
G01*
X155181477Y-94021773D01*
X155213665Y-94038978D01*
X155241873Y-94062127D01*
X155265022Y-94090335D01*
X155282227Y-94122523D01*
X155292819Y-94157438D01*
X155297000Y-94199895D01*
X155297000Y-95341105D01*
X155292819Y-95383562D01*
X155282227Y-95418477D01*
X155265022Y-95450665D01*
X155241873Y-95478873D01*
X155213665Y-95502022D01*
X155181477Y-95519227D01*
X155146562Y-95529819D01*
X155104105Y-95534000D01*
X153637895Y-95534000D01*
X153595438Y-95529819D01*
X153560523Y-95519227D01*
X153528335Y-95502022D01*
X153500127Y-95478873D01*
X153476978Y-95450665D01*
X153459773Y-95418477D01*
X153449181Y-95383562D01*
X153445000Y-95341105D01*
X153445000Y-94199895D01*
X153449181Y-94157438D01*
X153459773Y-94122523D01*
X153476978Y-94090335D01*
X153500127Y-94062127D01*
X153528335Y-94038978D01*
X153560523Y-94021773D01*
X153595438Y-94011181D01*
X153637895Y-94007000D01*
X155104105Y-94007000D01*
X155146562Y-94011181D01*
X155146562Y-94011181D01*
G37*
G36*
X160168562Y-94002181D02*
G01*
X160203477Y-94012773D01*
X160235665Y-94029978D01*
X160263873Y-94053127D01*
X160287022Y-94081335D01*
X160304227Y-94113523D01*
X160314819Y-94148438D01*
X160319000Y-94190895D01*
X160319000Y-95332105D01*
X160314819Y-95374562D01*
X160304227Y-95409477D01*
X160287022Y-95441665D01*
X160263873Y-95469873D01*
X160235665Y-95493022D01*
X160203477Y-95510227D01*
X160168562Y-95520819D01*
X160126105Y-95525000D01*
X158659895Y-95525000D01*
X158617438Y-95520819D01*
X158582523Y-95510227D01*
X158550335Y-95493022D01*
X158522127Y-95469873D01*
X158498978Y-95441665D01*
X158481773Y-95409477D01*
X158471181Y-95374562D01*
X158467000Y-95332105D01*
X158467000Y-94190895D01*
X158471181Y-94148438D01*
X158481773Y-94113523D01*
X158498978Y-94081335D01*
X158522127Y-94053127D01*
X158550335Y-94029978D01*
X158582523Y-94012773D01*
X158617438Y-94002181D01*
X158659895Y-93998000D01*
X160126105Y-93998000D01*
X160168562Y-94002181D01*
X160168562Y-94002181D01*
G37*
G36*
X114050782Y-92676295D02*
G01*
X114086815Y-92687226D01*
X114120028Y-92704979D01*
X114149134Y-92728866D01*
X114173021Y-92757972D01*
X114190774Y-92791185D01*
X114201705Y-92827218D01*
X114206000Y-92870830D01*
X114206000Y-93875170D01*
X114201705Y-93918782D01*
X114190774Y-93954815D01*
X114173021Y-93988028D01*
X114149134Y-94017134D01*
X114120028Y-94041021D01*
X114086815Y-94058774D01*
X114050782Y-94069705D01*
X114007170Y-94074000D01*
X110902830Y-94074000D01*
X110859218Y-94069705D01*
X110823185Y-94058774D01*
X110789972Y-94041021D01*
X110760866Y-94017134D01*
X110736979Y-93988028D01*
X110719226Y-93954815D01*
X110708295Y-93918782D01*
X110704000Y-93875170D01*
X110704000Y-92870830D01*
X110708295Y-92827218D01*
X110719226Y-92791185D01*
X110736979Y-92757972D01*
X110760866Y-92728866D01*
X110789972Y-92704979D01*
X110823185Y-92687226D01*
X110859218Y-92676295D01*
X110902830Y-92672000D01*
X114007170Y-92672000D01*
X114050782Y-92676295D01*
X114050782Y-92676295D01*
G37*
G36*
X116660292Y-90195718D02*
G01*
X116806322Y-90224765D01*
X116829708Y-90234452D01*
X117046728Y-90324344D01*
X117263092Y-90468914D01*
X117447086Y-90652908D01*
X117591656Y-90869272D01*
X117655332Y-91023000D01*
X117691235Y-91109678D01*
X117705708Y-91182438D01*
X117742000Y-91364891D01*
X117742000Y-91625109D01*
X117691235Y-91880321D01*
X117591656Y-92120728D01*
X117447086Y-92337092D01*
X117263092Y-92521086D01*
X117046728Y-92665656D01*
X116921714Y-92717438D01*
X116806322Y-92765235D01*
X116773141Y-92771835D01*
X116551109Y-92816000D01*
X116290891Y-92816000D01*
X116068859Y-92771835D01*
X116035678Y-92765235D01*
X115920286Y-92717438D01*
X115795272Y-92665656D01*
X115578908Y-92521086D01*
X115394914Y-92337092D01*
X115250344Y-92120728D01*
X115150765Y-91880321D01*
X115100000Y-91625109D01*
X115100000Y-91364891D01*
X115136292Y-91182438D01*
X115150765Y-91109678D01*
X115186668Y-91023000D01*
X115250344Y-90869272D01*
X115394914Y-90652908D01*
X115578908Y-90468914D01*
X115795272Y-90324344D01*
X116012292Y-90234452D01*
X116035678Y-90224765D01*
X116181708Y-90195718D01*
X116290891Y-90174000D01*
X116551109Y-90174000D01*
X116660292Y-90195718D01*
X116660292Y-90195718D01*
G37*
G36*
X157668562Y-91071181D02*
G01*
X157703477Y-91081773D01*
X157735665Y-91098978D01*
X157763873Y-91122127D01*
X157787022Y-91150335D01*
X157804227Y-91182523D01*
X157814819Y-91217438D01*
X157819000Y-91259895D01*
X157819000Y-92401105D01*
X157814819Y-92443562D01*
X157804227Y-92478477D01*
X157787022Y-92510665D01*
X157763873Y-92538873D01*
X157735665Y-92562022D01*
X157703477Y-92579227D01*
X157668562Y-92589819D01*
X157626105Y-92594000D01*
X156159895Y-92594000D01*
X156117438Y-92589819D01*
X156082523Y-92579227D01*
X156050335Y-92562022D01*
X156022127Y-92538873D01*
X155998978Y-92510665D01*
X155981773Y-92478477D01*
X155971181Y-92443562D01*
X155967000Y-92401105D01*
X155967000Y-91259895D01*
X155971181Y-91217438D01*
X155981773Y-91182523D01*
X155998978Y-91150335D01*
X156022127Y-91122127D01*
X156050335Y-91098978D01*
X156082523Y-91081773D01*
X156117438Y-91071181D01*
X156159895Y-91067000D01*
X157626105Y-91067000D01*
X157668562Y-91071181D01*
X157668562Y-91071181D01*
G37*
G36*
X155146562Y-91036181D02*
G01*
X155181477Y-91046773D01*
X155213665Y-91063978D01*
X155241873Y-91087127D01*
X155265022Y-91115335D01*
X155282227Y-91147523D01*
X155292819Y-91182438D01*
X155297000Y-91224895D01*
X155297000Y-92366105D01*
X155292819Y-92408562D01*
X155282227Y-92443477D01*
X155265022Y-92475665D01*
X155241873Y-92503873D01*
X155213665Y-92527022D01*
X155181477Y-92544227D01*
X155146562Y-92554819D01*
X155104105Y-92559000D01*
X153637895Y-92559000D01*
X153595438Y-92554819D01*
X153560523Y-92544227D01*
X153528335Y-92527022D01*
X153500127Y-92503873D01*
X153476978Y-92475665D01*
X153459773Y-92443477D01*
X153449181Y-92408562D01*
X153445000Y-92366105D01*
X153445000Y-91224895D01*
X153449181Y-91182438D01*
X153459773Y-91147523D01*
X153476978Y-91115335D01*
X153500127Y-91087127D01*
X153528335Y-91063978D01*
X153560523Y-91046773D01*
X153595438Y-91036181D01*
X153637895Y-91032000D01*
X155104105Y-91032000D01*
X155146562Y-91036181D01*
X155146562Y-91036181D01*
G37*
G36*
X160168562Y-91027181D02*
G01*
X160203477Y-91037773D01*
X160235665Y-91054978D01*
X160263873Y-91078127D01*
X160287022Y-91106335D01*
X160304227Y-91138523D01*
X160314819Y-91173438D01*
X160319000Y-91215895D01*
X160319000Y-92357105D01*
X160314819Y-92399562D01*
X160304227Y-92434477D01*
X160287022Y-92466665D01*
X160263873Y-92494873D01*
X160235665Y-92518022D01*
X160203477Y-92535227D01*
X160168562Y-92545819D01*
X160126105Y-92550000D01*
X158659895Y-92550000D01*
X158617438Y-92545819D01*
X158582523Y-92535227D01*
X158550335Y-92518022D01*
X158522127Y-92494873D01*
X158498978Y-92466665D01*
X158481773Y-92434477D01*
X158471181Y-92399562D01*
X158467000Y-92357105D01*
X158467000Y-91215895D01*
X158471181Y-91173438D01*
X158481773Y-91138523D01*
X158498978Y-91106335D01*
X158522127Y-91078127D01*
X158550335Y-91054978D01*
X158582523Y-91037773D01*
X158617438Y-91027181D01*
X158659895Y-91023000D01*
X160126105Y-91023000D01*
X160168562Y-91027181D01*
X160168562Y-91027181D01*
G37*
G36*
X109063721Y-91145174D02*
G01*
X109163995Y-91186709D01*
X109254245Y-91247012D01*
X109330988Y-91323755D01*
X109391291Y-91414005D01*
X109432826Y-91514279D01*
X109454000Y-91620730D01*
X109454000Y-91729270D01*
X109432826Y-91835721D01*
X109391291Y-91935995D01*
X109330988Y-92026245D01*
X109254245Y-92102988D01*
X109163995Y-92163291D01*
X109063721Y-92204826D01*
X108957270Y-92226000D01*
X108848730Y-92226000D01*
X108742279Y-92204826D01*
X108642005Y-92163291D01*
X108551755Y-92102988D01*
X108475012Y-92026245D01*
X108414709Y-91935995D01*
X108373174Y-91835721D01*
X108352000Y-91729270D01*
X108352000Y-91620730D01*
X108373174Y-91514279D01*
X108414709Y-91414005D01*
X108475012Y-91323755D01*
X108551755Y-91247012D01*
X108642005Y-91186709D01*
X108742279Y-91145174D01*
X108848730Y-91124000D01*
X108957270Y-91124000D01*
X109063721Y-91145174D01*
X109063721Y-91145174D01*
G37*
G36*
X101063721Y-91145174D02*
G01*
X101163995Y-91186709D01*
X101254245Y-91247012D01*
X101330988Y-91323755D01*
X101391291Y-91414005D01*
X101432826Y-91514279D01*
X101454000Y-91620730D01*
X101454000Y-91729270D01*
X101432826Y-91835721D01*
X101391291Y-91935995D01*
X101330988Y-92026245D01*
X101254245Y-92102988D01*
X101163995Y-92163291D01*
X101063721Y-92204826D01*
X100957270Y-92226000D01*
X100848730Y-92226000D01*
X100742279Y-92204826D01*
X100642005Y-92163291D01*
X100551755Y-92102988D01*
X100475012Y-92026245D01*
X100414709Y-91935995D01*
X100373174Y-91835721D01*
X100352000Y-91729270D01*
X100352000Y-91620730D01*
X100373174Y-91514279D01*
X100414709Y-91414005D01*
X100475012Y-91323755D01*
X100551755Y-91247012D01*
X100642005Y-91186709D01*
X100742279Y-91145174D01*
X100848730Y-91124000D01*
X100957270Y-91124000D01*
X101063721Y-91145174D01*
X101063721Y-91145174D01*
G37*
G36*
X104022677Y-90179465D02*
G01*
X104060364Y-90190898D01*
X104095103Y-90209466D01*
X104125548Y-90234452D01*
X104150534Y-90264897D01*
X104169102Y-90299636D01*
X104180535Y-90337323D01*
X104185000Y-90382661D01*
X104185000Y-91469339D01*
X104180535Y-91514677D01*
X104169102Y-91552364D01*
X104150534Y-91587103D01*
X104125548Y-91617548D01*
X104095103Y-91642534D01*
X104060364Y-91661102D01*
X104022677Y-91672535D01*
X103977339Y-91677000D01*
X103140661Y-91677000D01*
X103095323Y-91672535D01*
X103057636Y-91661102D01*
X103022897Y-91642534D01*
X102992452Y-91617548D01*
X102967466Y-91587103D01*
X102948898Y-91552364D01*
X102937465Y-91514677D01*
X102933000Y-91469339D01*
X102933000Y-90382661D01*
X102937465Y-90337323D01*
X102948898Y-90299636D01*
X102967466Y-90264897D01*
X102992452Y-90234452D01*
X103022897Y-90209466D01*
X103057636Y-90190898D01*
X103095323Y-90179465D01*
X103140661Y-90175000D01*
X103977339Y-90175000D01*
X104022677Y-90179465D01*
X104022677Y-90179465D01*
G37*
G36*
X106072677Y-90179465D02*
G01*
X106110364Y-90190898D01*
X106145103Y-90209466D01*
X106175548Y-90234452D01*
X106200534Y-90264897D01*
X106219102Y-90299636D01*
X106230535Y-90337323D01*
X106235000Y-90382661D01*
X106235000Y-91469339D01*
X106230535Y-91514677D01*
X106219102Y-91552364D01*
X106200534Y-91587103D01*
X106175548Y-91617548D01*
X106145103Y-91642534D01*
X106110364Y-91661102D01*
X106072677Y-91672535D01*
X106027339Y-91677000D01*
X105190661Y-91677000D01*
X105145323Y-91672535D01*
X105107636Y-91661102D01*
X105072897Y-91642534D01*
X105042452Y-91617548D01*
X105017466Y-91587103D01*
X104998898Y-91552364D01*
X104987465Y-91514677D01*
X104983000Y-91469339D01*
X104983000Y-90382661D01*
X104987465Y-90337323D01*
X104998898Y-90299636D01*
X105017466Y-90264897D01*
X105042452Y-90234452D01*
X105072897Y-90209466D01*
X105107636Y-90190898D01*
X105145323Y-90179465D01*
X105190661Y-90175000D01*
X106027339Y-90175000D01*
X106072677Y-90179465D01*
X106072677Y-90179465D01*
G37*
G36*
X111851677Y-88539465D02*
G01*
X111889364Y-88550898D01*
X111924103Y-88569466D01*
X111954548Y-88594452D01*
X111979534Y-88624897D01*
X111998102Y-88659636D01*
X112009535Y-88697323D01*
X112014000Y-88742661D01*
X112014000Y-89829339D01*
X112009535Y-89874677D01*
X111998102Y-89912364D01*
X111979534Y-89947103D01*
X111954548Y-89977548D01*
X111924103Y-90002534D01*
X111889364Y-90021102D01*
X111851677Y-90032535D01*
X111806339Y-90037000D01*
X110969661Y-90037000D01*
X110924323Y-90032535D01*
X110886636Y-90021102D01*
X110851897Y-90002534D01*
X110821452Y-89977548D01*
X110796466Y-89947103D01*
X110777898Y-89912364D01*
X110766465Y-89874677D01*
X110762000Y-89829339D01*
X110762000Y-88742661D01*
X110766465Y-88697323D01*
X110777898Y-88659636D01*
X110796466Y-88624897D01*
X110821452Y-88594452D01*
X110851897Y-88569466D01*
X110886636Y-88550898D01*
X110924323Y-88539465D01*
X110969661Y-88535000D01*
X111806339Y-88535000D01*
X111851677Y-88539465D01*
X111851677Y-88539465D01*
G37*
G36*
X109801677Y-88539465D02*
G01*
X109839364Y-88550898D01*
X109874103Y-88569466D01*
X109904548Y-88594452D01*
X109929534Y-88624897D01*
X109948102Y-88659636D01*
X109959535Y-88697323D01*
X109964000Y-88742661D01*
X109964000Y-89829339D01*
X109959535Y-89874677D01*
X109948102Y-89912364D01*
X109929534Y-89947103D01*
X109904548Y-89977548D01*
X109874103Y-90002534D01*
X109839364Y-90021102D01*
X109801677Y-90032535D01*
X109756339Y-90037000D01*
X108919661Y-90037000D01*
X108874323Y-90032535D01*
X108836636Y-90021102D01*
X108801897Y-90002534D01*
X108771452Y-89977548D01*
X108746466Y-89947103D01*
X108727898Y-89912364D01*
X108716465Y-89874677D01*
X108712000Y-89829339D01*
X108712000Y-88742661D01*
X108716465Y-88697323D01*
X108727898Y-88659636D01*
X108746466Y-88624897D01*
X108771452Y-88594452D01*
X108801897Y-88569466D01*
X108836636Y-88550898D01*
X108874323Y-88539465D01*
X108919661Y-88535000D01*
X109756339Y-88535000D01*
X109801677Y-88539465D01*
X109801677Y-88539465D01*
G37*
G36*
X152521250Y-87107843D02*
G01*
X152606322Y-87124765D01*
X152676735Y-87153931D01*
X152846728Y-87224344D01*
X153063092Y-87368914D01*
X153247086Y-87552908D01*
X153391656Y-87769272D01*
X153462069Y-87939265D01*
X153491235Y-88009678D01*
X153497210Y-88039718D01*
X153542000Y-88264891D01*
X153542000Y-88525109D01*
X153491235Y-88780321D01*
X153391656Y-89020728D01*
X153247086Y-89237092D01*
X153063092Y-89421086D01*
X152846728Y-89565656D01*
X152676735Y-89636069D01*
X152606322Y-89665235D01*
X152521250Y-89682157D01*
X152351109Y-89716000D01*
X152090891Y-89716000D01*
X151920750Y-89682157D01*
X151835678Y-89665235D01*
X151765265Y-89636069D01*
X151595272Y-89565656D01*
X151378908Y-89421086D01*
X151194914Y-89237092D01*
X151050344Y-89020728D01*
X150950765Y-88780321D01*
X150900000Y-88525109D01*
X150900000Y-88264891D01*
X150944790Y-88039718D01*
X150950765Y-88009678D01*
X150979931Y-87939265D01*
X151050344Y-87769272D01*
X151194914Y-87552908D01*
X151378908Y-87368914D01*
X151595272Y-87224344D01*
X151765265Y-87153931D01*
X151835678Y-87124765D01*
X151920750Y-87107843D01*
X152090891Y-87074000D01*
X152351109Y-87074000D01*
X152521250Y-87107843D01*
X152521250Y-87107843D01*
G37*
G36*
X106132677Y-88023465D02*
G01*
X106170364Y-88034898D01*
X106205103Y-88053466D01*
X106235548Y-88078452D01*
X106260534Y-88108897D01*
X106279102Y-88143636D01*
X106290535Y-88181323D01*
X106295000Y-88226661D01*
X106295000Y-89313339D01*
X106290535Y-89358677D01*
X106279102Y-89396364D01*
X106260534Y-89431103D01*
X106235548Y-89461548D01*
X106205103Y-89486534D01*
X106170364Y-89505102D01*
X106132677Y-89516535D01*
X106087339Y-89521000D01*
X105250661Y-89521000D01*
X105205323Y-89516535D01*
X105167636Y-89505102D01*
X105132897Y-89486534D01*
X105102452Y-89461548D01*
X105077466Y-89431103D01*
X105058898Y-89396364D01*
X105047465Y-89358677D01*
X105043000Y-89313339D01*
X105043000Y-88226661D01*
X105047465Y-88181323D01*
X105058898Y-88143636D01*
X105077466Y-88108897D01*
X105102452Y-88078452D01*
X105132897Y-88053466D01*
X105167636Y-88034898D01*
X105205323Y-88023465D01*
X105250661Y-88019000D01*
X106087339Y-88019000D01*
X106132677Y-88023465D01*
X106132677Y-88023465D01*
G37*
G36*
X104082677Y-88023465D02*
G01*
X104120364Y-88034898D01*
X104155103Y-88053466D01*
X104185548Y-88078452D01*
X104210534Y-88108897D01*
X104229102Y-88143636D01*
X104240535Y-88181323D01*
X104245000Y-88226661D01*
X104245000Y-89313339D01*
X104240535Y-89358677D01*
X104229102Y-89396364D01*
X104210534Y-89431103D01*
X104185548Y-89461548D01*
X104155103Y-89486534D01*
X104120364Y-89505102D01*
X104082677Y-89516535D01*
X104037339Y-89521000D01*
X103200661Y-89521000D01*
X103155323Y-89516535D01*
X103117636Y-89505102D01*
X103082897Y-89486534D01*
X103052452Y-89461548D01*
X103027466Y-89431103D01*
X103008898Y-89396364D01*
X102997465Y-89358677D01*
X102993000Y-89313339D01*
X102993000Y-88226661D01*
X102997465Y-88181323D01*
X103008898Y-88143636D01*
X103027466Y-88108897D01*
X103052452Y-88078452D01*
X103082897Y-88053466D01*
X103117636Y-88034898D01*
X103155323Y-88023465D01*
X103200661Y-88019000D01*
X104037339Y-88019000D01*
X104082677Y-88023465D01*
X104082677Y-88023465D01*
G37*
G36*
X114771677Y-87430465D02*
G01*
X114809364Y-87441898D01*
X114844103Y-87460466D01*
X114874548Y-87485452D01*
X114899534Y-87515897D01*
X114918102Y-87550636D01*
X114929535Y-87588323D01*
X114934000Y-87633661D01*
X114934000Y-88470339D01*
X114929535Y-88515677D01*
X114918102Y-88553364D01*
X114899534Y-88588103D01*
X114874548Y-88618548D01*
X114844103Y-88643534D01*
X114809364Y-88662102D01*
X114771677Y-88673535D01*
X114726339Y-88678000D01*
X113639661Y-88678000D01*
X113594323Y-88673535D01*
X113556636Y-88662102D01*
X113521897Y-88643534D01*
X113491452Y-88618548D01*
X113466466Y-88588103D01*
X113447898Y-88553364D01*
X113436465Y-88515677D01*
X113432000Y-88470339D01*
X113432000Y-87633661D01*
X113436465Y-87588323D01*
X113447898Y-87550636D01*
X113466466Y-87515897D01*
X113491452Y-87485452D01*
X113521897Y-87460466D01*
X113556636Y-87441898D01*
X113594323Y-87430465D01*
X113639661Y-87426000D01*
X114726339Y-87426000D01*
X114771677Y-87430465D01*
X114771677Y-87430465D01*
G37*
G36*
X117550677Y-87207465D02*
G01*
X117588364Y-87218898D01*
X117623103Y-87237466D01*
X117653548Y-87262452D01*
X117678534Y-87292897D01*
X117697102Y-87327636D01*
X117708535Y-87365323D01*
X117713000Y-87410661D01*
X117713000Y-88247339D01*
X117708535Y-88292677D01*
X117697102Y-88330364D01*
X117678534Y-88365103D01*
X117653548Y-88395548D01*
X117623103Y-88420534D01*
X117588364Y-88439102D01*
X117550677Y-88450535D01*
X117505339Y-88455000D01*
X116418661Y-88455000D01*
X116373323Y-88450535D01*
X116335636Y-88439102D01*
X116300897Y-88420534D01*
X116270452Y-88395548D01*
X116245466Y-88365103D01*
X116226898Y-88330364D01*
X116215465Y-88292677D01*
X116211000Y-88247339D01*
X116211000Y-87410661D01*
X116215465Y-87365323D01*
X116226898Y-87327636D01*
X116245466Y-87292897D01*
X116270452Y-87262452D01*
X116300897Y-87237466D01*
X116335636Y-87218898D01*
X116373323Y-87207465D01*
X116418661Y-87203000D01*
X117505339Y-87203000D01*
X117550677Y-87207465D01*
X117550677Y-87207465D01*
G37*
G36*
X111817677Y-86317465D02*
G01*
X111855364Y-86328898D01*
X111890103Y-86347466D01*
X111920548Y-86372452D01*
X111945534Y-86402897D01*
X111964102Y-86437636D01*
X111975535Y-86475323D01*
X111980000Y-86520661D01*
X111980000Y-87607339D01*
X111975535Y-87652677D01*
X111964102Y-87690364D01*
X111945534Y-87725103D01*
X111920548Y-87755548D01*
X111890103Y-87780534D01*
X111855364Y-87799102D01*
X111817677Y-87810535D01*
X111772339Y-87815000D01*
X110935661Y-87815000D01*
X110890323Y-87810535D01*
X110852636Y-87799102D01*
X110817897Y-87780534D01*
X110787452Y-87755548D01*
X110762466Y-87725103D01*
X110743898Y-87690364D01*
X110732465Y-87652677D01*
X110728000Y-87607339D01*
X110728000Y-86520661D01*
X110732465Y-86475323D01*
X110743898Y-86437636D01*
X110762466Y-86402897D01*
X110787452Y-86372452D01*
X110817897Y-86347466D01*
X110852636Y-86328898D01*
X110890323Y-86317465D01*
X110935661Y-86313000D01*
X111772339Y-86313000D01*
X111817677Y-86317465D01*
X111817677Y-86317465D01*
G37*
G36*
X109767677Y-86317465D02*
G01*
X109805364Y-86328898D01*
X109840103Y-86347466D01*
X109870548Y-86372452D01*
X109895534Y-86402897D01*
X109914102Y-86437636D01*
X109925535Y-86475323D01*
X109930000Y-86520661D01*
X109930000Y-87607339D01*
X109925535Y-87652677D01*
X109914102Y-87690364D01*
X109895534Y-87725103D01*
X109870548Y-87755548D01*
X109840103Y-87780534D01*
X109805364Y-87799102D01*
X109767677Y-87810535D01*
X109722339Y-87815000D01*
X108885661Y-87815000D01*
X108840323Y-87810535D01*
X108802636Y-87799102D01*
X108767897Y-87780534D01*
X108737452Y-87755548D01*
X108712466Y-87725103D01*
X108693898Y-87690364D01*
X108682465Y-87652677D01*
X108678000Y-87607339D01*
X108678000Y-86520661D01*
X108682465Y-86475323D01*
X108693898Y-86437636D01*
X108712466Y-86402897D01*
X108737452Y-86372452D01*
X108767897Y-86347466D01*
X108802636Y-86328898D01*
X108840323Y-86317465D01*
X108885661Y-86313000D01*
X109722339Y-86313000D01*
X109767677Y-86317465D01*
X109767677Y-86317465D01*
G37*
G36*
X167612000Y-87410000D02*
G01*
X154360000Y-87410000D01*
X154360000Y-77908000D01*
X167612000Y-77908000D01*
X167612000Y-87410000D01*
X167612000Y-87410000D01*
G37*
G36*
X114771677Y-85380465D02*
G01*
X114809364Y-85391898D01*
X114844103Y-85410466D01*
X114874548Y-85435452D01*
X114899534Y-85465897D01*
X114918102Y-85500636D01*
X114929535Y-85538323D01*
X114934000Y-85583661D01*
X114934000Y-86420339D01*
X114929535Y-86465677D01*
X114918102Y-86503364D01*
X114899534Y-86538103D01*
X114874548Y-86568548D01*
X114844103Y-86593534D01*
X114809364Y-86612102D01*
X114771677Y-86623535D01*
X114726339Y-86628000D01*
X113639661Y-86628000D01*
X113594323Y-86623535D01*
X113556636Y-86612102D01*
X113521897Y-86593534D01*
X113491452Y-86568548D01*
X113466466Y-86538103D01*
X113447898Y-86503364D01*
X113436465Y-86465677D01*
X113432000Y-86420339D01*
X113432000Y-85583661D01*
X113436465Y-85538323D01*
X113447898Y-85500636D01*
X113466466Y-85465897D01*
X113491452Y-85435452D01*
X113521897Y-85410466D01*
X113556636Y-85391898D01*
X113594323Y-85380465D01*
X113639661Y-85376000D01*
X114726339Y-85376000D01*
X114771677Y-85380465D01*
X114771677Y-85380465D01*
G37*
G36*
X117550677Y-85157465D02*
G01*
X117588364Y-85168898D01*
X117623103Y-85187466D01*
X117653548Y-85212452D01*
X117678534Y-85242897D01*
X117697102Y-85277636D01*
X117708535Y-85315323D01*
X117713000Y-85360661D01*
X117713000Y-86197339D01*
X117708535Y-86242677D01*
X117697102Y-86280364D01*
X117678534Y-86315103D01*
X117653548Y-86345548D01*
X117623103Y-86370534D01*
X117588364Y-86389102D01*
X117550677Y-86400535D01*
X117505339Y-86405000D01*
X116418661Y-86405000D01*
X116373323Y-86400535D01*
X116335636Y-86389102D01*
X116300897Y-86370534D01*
X116270452Y-86345548D01*
X116245466Y-86315103D01*
X116226898Y-86280364D01*
X116215465Y-86242677D01*
X116211000Y-86197339D01*
X116211000Y-85360661D01*
X116215465Y-85315323D01*
X116226898Y-85277636D01*
X116245466Y-85242897D01*
X116270452Y-85212452D01*
X116300897Y-85187466D01*
X116335636Y-85168898D01*
X116373323Y-85157465D01*
X116418661Y-85153000D01*
X117505339Y-85153000D01*
X117550677Y-85157465D01*
X117550677Y-85157465D01*
G37*
G36*
X104008677Y-84704465D02*
G01*
X104046364Y-84715898D01*
X104081103Y-84734466D01*
X104111548Y-84759452D01*
X104136534Y-84789897D01*
X104155102Y-84824636D01*
X104166535Y-84862323D01*
X104171000Y-84907661D01*
X104171000Y-85994339D01*
X104166535Y-86039677D01*
X104155102Y-86077364D01*
X104136534Y-86112103D01*
X104111548Y-86142548D01*
X104081103Y-86167534D01*
X104046364Y-86186102D01*
X104008677Y-86197535D01*
X103963339Y-86202000D01*
X103126661Y-86202000D01*
X103081323Y-86197535D01*
X103043636Y-86186102D01*
X103008897Y-86167534D01*
X102978452Y-86142548D01*
X102953466Y-86112103D01*
X102934898Y-86077364D01*
X102923465Y-86039677D01*
X102919000Y-85994339D01*
X102919000Y-84907661D01*
X102923465Y-84862323D01*
X102934898Y-84824636D01*
X102953466Y-84789897D01*
X102978452Y-84759452D01*
X103008897Y-84734466D01*
X103043636Y-84715898D01*
X103081323Y-84704465D01*
X103126661Y-84700000D01*
X103963339Y-84700000D01*
X104008677Y-84704465D01*
X104008677Y-84704465D01*
G37*
G36*
X106058677Y-84704465D02*
G01*
X106096364Y-84715898D01*
X106131103Y-84734466D01*
X106161548Y-84759452D01*
X106186534Y-84789897D01*
X106205102Y-84824636D01*
X106216535Y-84862323D01*
X106221000Y-84907661D01*
X106221000Y-85994339D01*
X106216535Y-86039677D01*
X106205102Y-86077364D01*
X106186534Y-86112103D01*
X106161548Y-86142548D01*
X106131103Y-86167534D01*
X106096364Y-86186102D01*
X106058677Y-86197535D01*
X106013339Y-86202000D01*
X105176661Y-86202000D01*
X105131323Y-86197535D01*
X105093636Y-86186102D01*
X105058897Y-86167534D01*
X105028452Y-86142548D01*
X105003466Y-86112103D01*
X104984898Y-86077364D01*
X104973465Y-86039677D01*
X104969000Y-85994339D01*
X104969000Y-84907661D01*
X104973465Y-84862323D01*
X104984898Y-84824636D01*
X105003466Y-84789897D01*
X105028452Y-84759452D01*
X105058897Y-84734466D01*
X105093636Y-84715898D01*
X105131323Y-84704465D01*
X105176661Y-84700000D01*
X106013339Y-84700000D01*
X106058677Y-84704465D01*
X106058677Y-84704465D01*
G37*
G36*
X112259677Y-82670465D02*
G01*
X112297364Y-82681898D01*
X112332103Y-82700466D01*
X112362548Y-82725452D01*
X112387534Y-82755897D01*
X112406102Y-82790636D01*
X112417535Y-82828323D01*
X112422000Y-82873661D01*
X112422000Y-83960339D01*
X112417535Y-84005677D01*
X112406102Y-84043364D01*
X112387534Y-84078103D01*
X112362548Y-84108548D01*
X112332103Y-84133534D01*
X112297364Y-84152102D01*
X112259677Y-84163535D01*
X112214339Y-84168000D01*
X111377661Y-84168000D01*
X111332323Y-84163535D01*
X111294636Y-84152102D01*
X111259897Y-84133534D01*
X111229452Y-84108548D01*
X111204466Y-84078103D01*
X111185898Y-84043364D01*
X111174465Y-84005677D01*
X111170000Y-83960339D01*
X111170000Y-82873661D01*
X111174465Y-82828323D01*
X111185898Y-82790636D01*
X111204466Y-82755897D01*
X111229452Y-82725452D01*
X111259897Y-82700466D01*
X111294636Y-82681898D01*
X111332323Y-82670465D01*
X111377661Y-82666000D01*
X112214339Y-82666000D01*
X112259677Y-82670465D01*
X112259677Y-82670465D01*
G37*
G36*
X110209677Y-82670465D02*
G01*
X110247364Y-82681898D01*
X110282103Y-82700466D01*
X110312548Y-82725452D01*
X110337534Y-82755897D01*
X110356102Y-82790636D01*
X110367535Y-82828323D01*
X110372000Y-82873661D01*
X110372000Y-83960339D01*
X110367535Y-84005677D01*
X110356102Y-84043364D01*
X110337534Y-84078103D01*
X110312548Y-84108548D01*
X110282103Y-84133534D01*
X110247364Y-84152102D01*
X110209677Y-84163535D01*
X110164339Y-84168000D01*
X109327661Y-84168000D01*
X109282323Y-84163535D01*
X109244636Y-84152102D01*
X109209897Y-84133534D01*
X109179452Y-84108548D01*
X109154466Y-84078103D01*
X109135898Y-84043364D01*
X109124465Y-84005677D01*
X109120000Y-83960339D01*
X109120000Y-82873661D01*
X109124465Y-82828323D01*
X109135898Y-82790636D01*
X109154466Y-82755897D01*
X109179452Y-82725452D01*
X109209897Y-82700466D01*
X109244636Y-82681898D01*
X109282323Y-82670465D01*
X109327661Y-82666000D01*
X110164339Y-82666000D01*
X110209677Y-82670465D01*
X110209677Y-82670465D01*
G37*
G36*
X149755000Y-83704000D02*
G01*
X141653000Y-83704000D01*
X141653000Y-75602000D01*
X149755000Y-75602000D01*
X149755000Y-83704000D01*
X149755000Y-83704000D01*
G37*
G36*
X127755000Y-83704000D02*
G01*
X119653000Y-83704000D01*
X119653000Y-75602000D01*
X127755000Y-75602000D01*
X127755000Y-83704000D01*
X127755000Y-83704000D01*
G37*
G36*
X105540562Y-81366181D02*
G01*
X105575477Y-81376773D01*
X105607665Y-81393978D01*
X105635873Y-81417127D01*
X105659022Y-81445335D01*
X105676227Y-81477523D01*
X105686819Y-81512438D01*
X105691000Y-81554895D01*
X105691000Y-82696105D01*
X105686819Y-82738562D01*
X105676227Y-82773477D01*
X105659022Y-82805665D01*
X105635873Y-82833873D01*
X105607665Y-82857022D01*
X105575477Y-82874227D01*
X105540562Y-82884819D01*
X105498105Y-82889000D01*
X104031895Y-82889000D01*
X103989438Y-82884819D01*
X103954523Y-82874227D01*
X103922335Y-82857022D01*
X103894127Y-82833873D01*
X103870978Y-82805665D01*
X103853773Y-82773477D01*
X103843181Y-82738562D01*
X103839000Y-82696105D01*
X103839000Y-81554895D01*
X103843181Y-81512438D01*
X103853773Y-81477523D01*
X103870978Y-81445335D01*
X103894127Y-81417127D01*
X103922335Y-81393978D01*
X103954523Y-81376773D01*
X103989438Y-81366181D01*
X104031895Y-81362000D01*
X105498105Y-81362000D01*
X105540562Y-81366181D01*
X105540562Y-81366181D01*
G37*
G36*
X102689677Y-81621465D02*
G01*
X102727364Y-81632898D01*
X102762103Y-81651466D01*
X102792548Y-81676452D01*
X102817534Y-81706897D01*
X102836102Y-81741636D01*
X102847535Y-81779323D01*
X102852000Y-81824661D01*
X102852000Y-82661339D01*
X102847535Y-82706677D01*
X102836102Y-82744364D01*
X102817534Y-82779103D01*
X102792548Y-82809548D01*
X102762103Y-82834534D01*
X102727364Y-82853102D01*
X102689677Y-82864535D01*
X102644339Y-82869000D01*
X101557661Y-82869000D01*
X101512323Y-82864535D01*
X101474636Y-82853102D01*
X101439897Y-82834534D01*
X101409452Y-82809548D01*
X101384466Y-82779103D01*
X101365898Y-82744364D01*
X101354465Y-82706677D01*
X101350000Y-82661339D01*
X101350000Y-81824661D01*
X101354465Y-81779323D01*
X101365898Y-81741636D01*
X101384466Y-81706897D01*
X101409452Y-81676452D01*
X101439897Y-81651466D01*
X101474636Y-81632898D01*
X101512323Y-81621465D01*
X101557661Y-81617000D01*
X102644339Y-81617000D01*
X102689677Y-81621465D01*
X102689677Y-81621465D01*
G37*
G36*
X107838677Y-81523465D02*
G01*
X107876364Y-81534898D01*
X107911103Y-81553466D01*
X107941548Y-81578452D01*
X107966534Y-81608897D01*
X107985102Y-81643636D01*
X107996535Y-81681323D01*
X108001000Y-81726661D01*
X108001000Y-82563339D01*
X107996535Y-82608677D01*
X107985102Y-82646364D01*
X107966534Y-82681103D01*
X107941548Y-82711548D01*
X107911103Y-82736534D01*
X107876364Y-82755102D01*
X107838677Y-82766535D01*
X107793339Y-82771000D01*
X106706661Y-82771000D01*
X106661323Y-82766535D01*
X106623636Y-82755102D01*
X106588897Y-82736534D01*
X106558452Y-82711548D01*
X106533466Y-82681103D01*
X106514898Y-82646364D01*
X106503465Y-82608677D01*
X106499000Y-82563339D01*
X106499000Y-81726661D01*
X106503465Y-81681323D01*
X106514898Y-81643636D01*
X106533466Y-81608897D01*
X106558452Y-81578452D01*
X106588897Y-81553466D01*
X106623636Y-81534898D01*
X106661323Y-81523465D01*
X106706661Y-81519000D01*
X107793339Y-81519000D01*
X107838677Y-81523465D01*
X107838677Y-81523465D01*
G37*
G36*
X116575677Y-80728465D02*
G01*
X116613364Y-80739898D01*
X116648103Y-80758466D01*
X116678548Y-80783452D01*
X116703534Y-80813897D01*
X116722102Y-80848636D01*
X116733535Y-80886323D01*
X116738000Y-80931661D01*
X116738000Y-81768339D01*
X116733535Y-81813677D01*
X116722102Y-81851364D01*
X116703534Y-81886103D01*
X116678548Y-81916548D01*
X116648103Y-81941534D01*
X116613364Y-81960102D01*
X116575677Y-81971535D01*
X116530339Y-81976000D01*
X115443661Y-81976000D01*
X115398323Y-81971535D01*
X115360636Y-81960102D01*
X115325897Y-81941534D01*
X115295452Y-81916548D01*
X115270466Y-81886103D01*
X115251898Y-81851364D01*
X115240465Y-81813677D01*
X115236000Y-81768339D01*
X115236000Y-80931661D01*
X115240465Y-80886323D01*
X115251898Y-80848636D01*
X115270466Y-80813897D01*
X115295452Y-80783452D01*
X115325897Y-80758466D01*
X115360636Y-80739898D01*
X115398323Y-80728465D01*
X115443661Y-80724000D01*
X116530339Y-80724000D01*
X116575677Y-80728465D01*
X116575677Y-80728465D01*
G37*
G36*
X112162677Y-80314465D02*
G01*
X112200364Y-80325898D01*
X112235103Y-80344466D01*
X112265548Y-80369452D01*
X112290534Y-80399897D01*
X112309102Y-80434636D01*
X112320535Y-80472323D01*
X112325000Y-80517661D01*
X112325000Y-81604339D01*
X112320535Y-81649677D01*
X112309102Y-81687364D01*
X112290534Y-81722103D01*
X112265548Y-81752548D01*
X112235103Y-81777534D01*
X112200364Y-81796102D01*
X112162677Y-81807535D01*
X112117339Y-81812000D01*
X111280661Y-81812000D01*
X111235323Y-81807535D01*
X111197636Y-81796102D01*
X111162897Y-81777534D01*
X111132452Y-81752548D01*
X111107466Y-81722103D01*
X111088898Y-81687364D01*
X111077465Y-81649677D01*
X111073000Y-81604339D01*
X111073000Y-80517661D01*
X111077465Y-80472323D01*
X111088898Y-80434636D01*
X111107466Y-80399897D01*
X111132452Y-80369452D01*
X111162897Y-80344466D01*
X111197636Y-80325898D01*
X111235323Y-80314465D01*
X111280661Y-80310000D01*
X112117339Y-80310000D01*
X112162677Y-80314465D01*
X112162677Y-80314465D01*
G37*
G36*
X110112677Y-80314465D02*
G01*
X110150364Y-80325898D01*
X110185103Y-80344466D01*
X110215548Y-80369452D01*
X110240534Y-80399897D01*
X110259102Y-80434636D01*
X110270535Y-80472323D01*
X110275000Y-80517661D01*
X110275000Y-81604339D01*
X110270535Y-81649677D01*
X110259102Y-81687364D01*
X110240534Y-81722103D01*
X110215548Y-81752548D01*
X110185103Y-81777534D01*
X110150364Y-81796102D01*
X110112677Y-81807535D01*
X110067339Y-81812000D01*
X109230661Y-81812000D01*
X109185323Y-81807535D01*
X109147636Y-81796102D01*
X109112897Y-81777534D01*
X109082452Y-81752548D01*
X109057466Y-81722103D01*
X109038898Y-81687364D01*
X109027465Y-81649677D01*
X109023000Y-81604339D01*
X109023000Y-80517661D01*
X109027465Y-80472323D01*
X109038898Y-80434636D01*
X109057466Y-80399897D01*
X109082452Y-80369452D01*
X109112897Y-80344466D01*
X109147636Y-80325898D01*
X109185323Y-80314465D01*
X109230661Y-80310000D01*
X110067339Y-80310000D01*
X110112677Y-80314465D01*
X110112677Y-80314465D01*
G37*
G36*
X102689677Y-79571465D02*
G01*
X102727364Y-79582898D01*
X102762103Y-79601466D01*
X102792548Y-79626452D01*
X102817534Y-79656897D01*
X102836102Y-79691636D01*
X102847535Y-79729323D01*
X102852000Y-79774661D01*
X102852000Y-80611339D01*
X102847535Y-80656677D01*
X102836102Y-80694364D01*
X102817534Y-80729103D01*
X102792548Y-80759548D01*
X102762103Y-80784534D01*
X102727364Y-80803102D01*
X102689677Y-80814535D01*
X102644339Y-80819000D01*
X101557661Y-80819000D01*
X101512323Y-80814535D01*
X101474636Y-80803102D01*
X101439897Y-80784534D01*
X101409452Y-80759548D01*
X101384466Y-80729103D01*
X101365898Y-80694364D01*
X101354465Y-80656677D01*
X101350000Y-80611339D01*
X101350000Y-79774661D01*
X101354465Y-79729323D01*
X101365898Y-79691636D01*
X101384466Y-79656897D01*
X101409452Y-79626452D01*
X101439897Y-79601466D01*
X101474636Y-79582898D01*
X101512323Y-79571465D01*
X101557661Y-79567000D01*
X102644339Y-79567000D01*
X102689677Y-79571465D01*
X102689677Y-79571465D01*
G37*
G36*
X107838677Y-79473465D02*
G01*
X107876364Y-79484898D01*
X107911103Y-79503466D01*
X107941548Y-79528452D01*
X107966534Y-79558897D01*
X107985102Y-79593636D01*
X107996535Y-79631323D01*
X108001000Y-79676661D01*
X108001000Y-80513339D01*
X107996535Y-80558677D01*
X107985102Y-80596364D01*
X107966534Y-80631103D01*
X107941548Y-80661548D01*
X107911103Y-80686534D01*
X107876364Y-80705102D01*
X107838677Y-80716535D01*
X107793339Y-80721000D01*
X106706661Y-80721000D01*
X106661323Y-80716535D01*
X106623636Y-80705102D01*
X106588897Y-80686534D01*
X106558452Y-80661548D01*
X106533466Y-80631103D01*
X106514898Y-80596364D01*
X106503465Y-80558677D01*
X106499000Y-80513339D01*
X106499000Y-79676661D01*
X106503465Y-79631323D01*
X106514898Y-79593636D01*
X106533466Y-79558897D01*
X106558452Y-79528452D01*
X106588897Y-79503466D01*
X106623636Y-79484898D01*
X106661323Y-79473465D01*
X106706661Y-79469000D01*
X107793339Y-79469000D01*
X107838677Y-79473465D01*
X107838677Y-79473465D01*
G37*
G36*
X116575677Y-78678465D02*
G01*
X116613364Y-78689898D01*
X116648103Y-78708466D01*
X116678548Y-78733452D01*
X116703534Y-78763897D01*
X116722102Y-78798636D01*
X116733535Y-78836323D01*
X116738000Y-78881661D01*
X116738000Y-79718339D01*
X116733535Y-79763677D01*
X116722102Y-79801364D01*
X116703534Y-79836103D01*
X116678548Y-79866548D01*
X116648103Y-79891534D01*
X116613364Y-79910102D01*
X116575677Y-79921535D01*
X116530339Y-79926000D01*
X115443661Y-79926000D01*
X115398323Y-79921535D01*
X115360636Y-79910102D01*
X115325897Y-79891534D01*
X115295452Y-79866548D01*
X115270466Y-79836103D01*
X115251898Y-79801364D01*
X115240465Y-79763677D01*
X115236000Y-79718339D01*
X115236000Y-78881661D01*
X115240465Y-78836323D01*
X115251898Y-78798636D01*
X115270466Y-78763897D01*
X115295452Y-78733452D01*
X115325897Y-78708466D01*
X115360636Y-78689898D01*
X115398323Y-78678465D01*
X115443661Y-78674000D01*
X116530339Y-78674000D01*
X116575677Y-78678465D01*
X116575677Y-78678465D01*
G37*
G36*
X105540562Y-78391181D02*
G01*
X105575477Y-78401773D01*
X105607665Y-78418978D01*
X105635873Y-78442127D01*
X105659022Y-78470335D01*
X105676227Y-78502523D01*
X105686819Y-78537438D01*
X105691000Y-78579895D01*
X105691000Y-79721105D01*
X105686819Y-79763562D01*
X105676227Y-79798477D01*
X105659022Y-79830665D01*
X105635873Y-79858873D01*
X105607665Y-79882022D01*
X105575477Y-79899227D01*
X105540562Y-79909819D01*
X105498105Y-79914000D01*
X104031895Y-79914000D01*
X103989438Y-79909819D01*
X103954523Y-79899227D01*
X103922335Y-79882022D01*
X103894127Y-79858873D01*
X103870978Y-79830665D01*
X103853773Y-79798477D01*
X103843181Y-79763562D01*
X103839000Y-79721105D01*
X103839000Y-78579895D01*
X103843181Y-78537438D01*
X103853773Y-78502523D01*
X103870978Y-78470335D01*
X103894127Y-78442127D01*
X103922335Y-78418978D01*
X103954523Y-78401773D01*
X103989438Y-78391181D01*
X104031895Y-78387000D01*
X105498105Y-78387000D01*
X105540562Y-78391181D01*
X105540562Y-78391181D01*
G37*
G36*
X110112677Y-77835465D02*
G01*
X110150364Y-77846898D01*
X110185103Y-77865466D01*
X110215548Y-77890452D01*
X110240534Y-77920897D01*
X110259102Y-77955636D01*
X110270535Y-77993323D01*
X110275000Y-78038661D01*
X110275000Y-79125339D01*
X110270535Y-79170677D01*
X110259102Y-79208364D01*
X110240534Y-79243103D01*
X110215548Y-79273548D01*
X110185103Y-79298534D01*
X110150364Y-79317102D01*
X110112677Y-79328535D01*
X110067339Y-79333000D01*
X109230661Y-79333000D01*
X109185323Y-79328535D01*
X109147636Y-79317102D01*
X109112897Y-79298534D01*
X109082452Y-79273548D01*
X109057466Y-79243103D01*
X109038898Y-79208364D01*
X109027465Y-79170677D01*
X109023000Y-79125339D01*
X109023000Y-78038661D01*
X109027465Y-77993323D01*
X109038898Y-77955636D01*
X109057466Y-77920897D01*
X109082452Y-77890452D01*
X109112897Y-77865466D01*
X109147636Y-77846898D01*
X109185323Y-77835465D01*
X109230661Y-77831000D01*
X110067339Y-77831000D01*
X110112677Y-77835465D01*
X110112677Y-77835465D01*
G37*
G36*
X112162677Y-77835465D02*
G01*
X112200364Y-77846898D01*
X112235103Y-77865466D01*
X112265548Y-77890452D01*
X112290534Y-77920897D01*
X112309102Y-77955636D01*
X112320535Y-77993323D01*
X112325000Y-78038661D01*
X112325000Y-79125339D01*
X112320535Y-79170677D01*
X112309102Y-79208364D01*
X112290534Y-79243103D01*
X112265548Y-79273548D01*
X112235103Y-79298534D01*
X112200364Y-79317102D01*
X112162677Y-79328535D01*
X112117339Y-79333000D01*
X111280661Y-79333000D01*
X111235323Y-79328535D01*
X111197636Y-79317102D01*
X111162897Y-79298534D01*
X111132452Y-79273548D01*
X111107466Y-79243103D01*
X111088898Y-79208364D01*
X111077465Y-79170677D01*
X111073000Y-79125339D01*
X111073000Y-78038661D01*
X111077465Y-77993323D01*
X111088898Y-77955636D01*
X111107466Y-77920897D01*
X111132452Y-77890452D01*
X111162897Y-77865466D01*
X111197636Y-77846898D01*
X111235323Y-77835465D01*
X111280661Y-77831000D01*
X112117339Y-77831000D01*
X112162677Y-77835465D01*
X112162677Y-77835465D01*
G37*
G36*
X153231677Y-77790465D02*
G01*
X153269364Y-77801898D01*
X153304103Y-77820466D01*
X153334548Y-77845452D01*
X153359534Y-77875897D01*
X153378102Y-77910636D01*
X153389535Y-77948323D01*
X153394000Y-77993661D01*
X153394000Y-78830339D01*
X153389535Y-78875677D01*
X153378102Y-78913364D01*
X153359534Y-78948103D01*
X153334548Y-78978548D01*
X153304103Y-79003534D01*
X153269364Y-79022102D01*
X153231677Y-79033535D01*
X153186339Y-79038000D01*
X152099661Y-79038000D01*
X152054323Y-79033535D01*
X152016636Y-79022102D01*
X151981897Y-79003534D01*
X151951452Y-78978548D01*
X151926466Y-78948103D01*
X151907898Y-78913364D01*
X151896465Y-78875677D01*
X151892000Y-78830339D01*
X151892000Y-77993661D01*
X151896465Y-77948323D01*
X151907898Y-77910636D01*
X151926466Y-77875897D01*
X151951452Y-77845452D01*
X151981897Y-77820466D01*
X152016636Y-77801898D01*
X152054323Y-77790465D01*
X152099661Y-77786000D01*
X153186339Y-77786000D01*
X153231677Y-77790465D01*
X153231677Y-77790465D01*
G37*
G36*
X153231677Y-75740465D02*
G01*
X153269364Y-75751898D01*
X153304103Y-75770466D01*
X153334548Y-75795452D01*
X153359534Y-75825897D01*
X153378102Y-75860636D01*
X153389535Y-75898323D01*
X153394000Y-75943661D01*
X153394000Y-76780339D01*
X153389535Y-76825677D01*
X153378102Y-76863364D01*
X153359534Y-76898103D01*
X153334548Y-76928548D01*
X153304103Y-76953534D01*
X153269364Y-76972102D01*
X153231677Y-76983535D01*
X153186339Y-76988000D01*
X152099661Y-76988000D01*
X152054323Y-76983535D01*
X152016636Y-76972102D01*
X151981897Y-76953534D01*
X151951452Y-76928548D01*
X151926466Y-76898103D01*
X151907898Y-76863364D01*
X151896465Y-76825677D01*
X151892000Y-76780339D01*
X151892000Y-75943661D01*
X151896465Y-75898323D01*
X151907898Y-75860636D01*
X151926466Y-75825897D01*
X151951452Y-75795452D01*
X151981897Y-75770466D01*
X152016636Y-75751898D01*
X152054323Y-75740465D01*
X152099661Y-75736000D01*
X153186339Y-75736000D01*
X153231677Y-75740465D01*
X153231677Y-75740465D01*
G37*
G36*
X110188677Y-75253465D02*
G01*
X110226364Y-75264898D01*
X110261103Y-75283466D01*
X110291548Y-75308452D01*
X110316534Y-75338897D01*
X110335102Y-75373636D01*
X110346535Y-75411323D01*
X110351000Y-75456661D01*
X110351000Y-76543339D01*
X110346535Y-76588677D01*
X110335102Y-76626364D01*
X110316534Y-76661103D01*
X110291548Y-76691548D01*
X110261103Y-76716534D01*
X110226364Y-76735102D01*
X110188677Y-76746535D01*
X110143339Y-76751000D01*
X109306661Y-76751000D01*
X109261323Y-76746535D01*
X109223636Y-76735102D01*
X109188897Y-76716534D01*
X109158452Y-76691548D01*
X109133466Y-76661103D01*
X109114898Y-76626364D01*
X109103465Y-76588677D01*
X109099000Y-76543339D01*
X109099000Y-75456661D01*
X109103465Y-75411323D01*
X109114898Y-75373636D01*
X109133466Y-75338897D01*
X109158452Y-75308452D01*
X109188897Y-75283466D01*
X109223636Y-75264898D01*
X109261323Y-75253465D01*
X109306661Y-75249000D01*
X110143339Y-75249000D01*
X110188677Y-75253465D01*
X110188677Y-75253465D01*
G37*
G36*
X112238677Y-75253465D02*
G01*
X112276364Y-75264898D01*
X112311103Y-75283466D01*
X112341548Y-75308452D01*
X112366534Y-75338897D01*
X112385102Y-75373636D01*
X112396535Y-75411323D01*
X112401000Y-75456661D01*
X112401000Y-76543339D01*
X112396535Y-76588677D01*
X112385102Y-76626364D01*
X112366534Y-76661103D01*
X112341548Y-76691548D01*
X112311103Y-76716534D01*
X112276364Y-76735102D01*
X112238677Y-76746535D01*
X112193339Y-76751000D01*
X111356661Y-76751000D01*
X111311323Y-76746535D01*
X111273636Y-76735102D01*
X111238897Y-76716534D01*
X111208452Y-76691548D01*
X111183466Y-76661103D01*
X111164898Y-76626364D01*
X111153465Y-76588677D01*
X111149000Y-76543339D01*
X111149000Y-75456661D01*
X111153465Y-75411323D01*
X111164898Y-75373636D01*
X111183466Y-75338897D01*
X111208452Y-75308452D01*
X111238897Y-75283466D01*
X111273636Y-75264898D01*
X111311323Y-75253465D01*
X111356661Y-75249000D01*
X112193339Y-75249000D01*
X112238677Y-75253465D01*
X112238677Y-75253465D01*
G37*
G36*
X161511331Y-72427211D02*
G01*
X161839092Y-72562974D01*
X162134073Y-72760074D01*
X162384926Y-73010927D01*
X162582026Y-73305908D01*
X162717789Y-73633669D01*
X162787000Y-73981616D01*
X162787000Y-74336384D01*
X162717789Y-74684331D01*
X162582026Y-75012092D01*
X162384926Y-75307073D01*
X162134073Y-75557926D01*
X161839092Y-75755026D01*
X161511331Y-75890789D01*
X161163384Y-75960000D01*
X160808616Y-75960000D01*
X160460669Y-75890789D01*
X160132908Y-75755026D01*
X159837927Y-75557926D01*
X159587074Y-75307073D01*
X159389974Y-75012092D01*
X159254211Y-74684331D01*
X159185000Y-74336384D01*
X159185000Y-73981616D01*
X159254211Y-73633669D01*
X159389974Y-73305908D01*
X159587074Y-73010927D01*
X159837927Y-72760074D01*
X160132908Y-72562974D01*
X160460669Y-72427211D01*
X160808616Y-72358000D01*
X161163384Y-72358000D01*
X161511331Y-72427211D01*
X161511331Y-72427211D01*
G37*
G36*
X195503426Y-72697596D02*
G01*
X195617027Y-72720193D01*
X195831045Y-72808842D01*
X196022358Y-72936674D01*
X196023659Y-72937543D01*
X196187457Y-73101341D01*
X196187459Y-73101344D01*
X196316158Y-73293955D01*
X196404807Y-73507973D01*
X196450000Y-73735174D01*
X196450000Y-73966826D01*
X196404807Y-74194027D01*
X196316158Y-74408045D01*
X196188326Y-74599358D01*
X196187457Y-74600659D01*
X196023659Y-74764457D01*
X196023656Y-74764459D01*
X195831045Y-74893158D01*
X195617027Y-74981807D01*
X195503426Y-75004404D01*
X195389827Y-75027000D01*
X195158173Y-75027000D01*
X195044574Y-75004404D01*
X194930973Y-74981807D01*
X194716955Y-74893158D01*
X194524344Y-74764459D01*
X194524341Y-74764457D01*
X194360543Y-74600659D01*
X194359674Y-74599358D01*
X194231842Y-74408045D01*
X194143193Y-74194027D01*
X194098000Y-73966826D01*
X194098000Y-73735174D01*
X194143193Y-73507973D01*
X194231842Y-73293955D01*
X194360541Y-73101344D01*
X194360543Y-73101341D01*
X194524341Y-72937543D01*
X194525642Y-72936674D01*
X194716955Y-72808842D01*
X194930973Y-72720193D01*
X195044574Y-72697596D01*
X195158173Y-72675000D01*
X195389827Y-72675000D01*
X195503426Y-72697596D01*
X195503426Y-72697596D01*
G37*
G36*
X190423426Y-72697596D02*
G01*
X190537027Y-72720193D01*
X190751045Y-72808842D01*
X190942358Y-72936674D01*
X190943659Y-72937543D01*
X191107457Y-73101341D01*
X191107459Y-73101344D01*
X191236158Y-73293955D01*
X191324807Y-73507973D01*
X191370000Y-73735174D01*
X191370000Y-73966826D01*
X191324807Y-74194027D01*
X191236158Y-74408045D01*
X191108326Y-74599358D01*
X191107457Y-74600659D01*
X190943659Y-74764457D01*
X190943656Y-74764459D01*
X190751045Y-74893158D01*
X190537027Y-74981807D01*
X190423426Y-75004404D01*
X190309827Y-75027000D01*
X190078173Y-75027000D01*
X189964574Y-75004404D01*
X189850973Y-74981807D01*
X189636955Y-74893158D01*
X189444344Y-74764459D01*
X189444341Y-74764457D01*
X189280543Y-74600659D01*
X189279674Y-74599358D01*
X189151842Y-74408045D01*
X189063193Y-74194027D01*
X189018000Y-73966826D01*
X189018000Y-73735174D01*
X189063193Y-73507973D01*
X189151842Y-73293955D01*
X189280541Y-73101344D01*
X189280543Y-73101341D01*
X189444341Y-72937543D01*
X189445642Y-72936674D01*
X189636955Y-72808842D01*
X189850973Y-72720193D01*
X189964574Y-72697596D01*
X190078173Y-72675000D01*
X190309827Y-72675000D01*
X190423426Y-72697596D01*
X190423426Y-72697596D01*
G37*
G36*
X127755000Y-74604000D02*
G01*
X119653000Y-74604000D01*
X119653000Y-66502000D01*
X127755000Y-66502000D01*
X127755000Y-74604000D01*
X127755000Y-74604000D01*
G37*
G36*
X149755000Y-74604000D02*
G01*
X141653000Y-74604000D01*
X141653000Y-66502000D01*
X149755000Y-66502000D01*
X149755000Y-74604000D01*
X149755000Y-74604000D01*
G37*
G36*
X107672589Y-71036876D02*
G01*
X107771893Y-71056629D01*
X107912206Y-71114748D01*
X108038484Y-71199125D01*
X108145875Y-71306516D01*
X108230252Y-71432794D01*
X108288371Y-71573107D01*
X108318000Y-71722063D01*
X108318000Y-71873937D01*
X108288371Y-72022893D01*
X108230252Y-72163206D01*
X108145875Y-72289484D01*
X108038484Y-72396875D01*
X107912206Y-72481252D01*
X107771893Y-72539371D01*
X107672589Y-72559124D01*
X107622938Y-72569000D01*
X107471062Y-72569000D01*
X107421411Y-72559124D01*
X107322107Y-72539371D01*
X107181794Y-72481252D01*
X107055516Y-72396875D01*
X106948125Y-72289484D01*
X106863748Y-72163206D01*
X106805629Y-72022893D01*
X106776000Y-71873937D01*
X106776000Y-71722063D01*
X106805629Y-71573107D01*
X106863748Y-71432794D01*
X106948125Y-71306516D01*
X107055516Y-71199125D01*
X107181794Y-71114748D01*
X107322107Y-71056629D01*
X107421411Y-71036876D01*
X107471062Y-71027000D01*
X107622938Y-71027000D01*
X107672589Y-71036876D01*
X107672589Y-71036876D01*
G37*
G36*
X192891947Y-70245338D02*
G01*
X193047858Y-70276350D01*
X193243677Y-70357461D01*
X193243678Y-70357462D01*
X193419913Y-70475218D01*
X193569782Y-70625087D01*
X193569784Y-70625090D01*
X193687539Y-70801323D01*
X193768650Y-70997142D01*
X193810000Y-71205023D01*
X193810000Y-71416977D01*
X193768650Y-71624858D01*
X193687539Y-71820677D01*
X193687538Y-71820678D01*
X193569782Y-71996913D01*
X193419913Y-72146782D01*
X193419910Y-72146784D01*
X193243677Y-72264539D01*
X193047858Y-72345650D01*
X192891947Y-72376662D01*
X192839978Y-72387000D01*
X192628022Y-72387000D01*
X192576053Y-72376662D01*
X192420142Y-72345650D01*
X192224323Y-72264539D01*
X192048090Y-72146784D01*
X192048087Y-72146782D01*
X191898218Y-71996913D01*
X191780462Y-71820678D01*
X191780461Y-71820677D01*
X191699350Y-71624858D01*
X191658000Y-71416977D01*
X191658000Y-71205023D01*
X191699350Y-70997142D01*
X191780461Y-70801323D01*
X191898216Y-70625090D01*
X191898218Y-70625087D01*
X192048087Y-70475218D01*
X192224322Y-70357462D01*
X192224323Y-70357461D01*
X192420142Y-70276350D01*
X192576053Y-70245338D01*
X192628022Y-70235000D01*
X192839978Y-70235000D01*
X192891947Y-70245338D01*
X192891947Y-70245338D01*
G37*
G36*
X105132589Y-68496876D02*
G01*
X105231893Y-68516629D01*
X105372206Y-68574748D01*
X105498484Y-68659125D01*
X105605875Y-68766516D01*
X105690252Y-68892794D01*
X105748371Y-69033107D01*
X105778000Y-69182063D01*
X105778000Y-69333937D01*
X105748371Y-69482893D01*
X105690252Y-69623206D01*
X105605875Y-69749484D01*
X105498484Y-69856875D01*
X105372206Y-69941252D01*
X105231893Y-69999371D01*
X105132589Y-70019124D01*
X105082938Y-70029000D01*
X104931062Y-70029000D01*
X104881411Y-70019124D01*
X104782107Y-69999371D01*
X104641794Y-69941252D01*
X104515516Y-69856875D01*
X104408125Y-69749484D01*
X104323748Y-69623206D01*
X104265629Y-69482893D01*
X104236000Y-69333937D01*
X104236000Y-69182063D01*
X104265629Y-69033107D01*
X104323748Y-68892794D01*
X104408125Y-68766516D01*
X104515516Y-68659125D01*
X104641794Y-68574748D01*
X104782107Y-68516629D01*
X104881411Y-68496876D01*
X104931062Y-68487000D01*
X105082938Y-68487000D01*
X105132589Y-68496876D01*
X105132589Y-68496876D01*
G37*
G36*
X110212589Y-68496876D02*
G01*
X110311893Y-68516629D01*
X110452206Y-68574748D01*
X110578484Y-68659125D01*
X110685875Y-68766516D01*
X110770252Y-68892794D01*
X110828371Y-69033107D01*
X110858000Y-69182063D01*
X110858000Y-69333937D01*
X110828371Y-69482893D01*
X110770252Y-69623206D01*
X110685875Y-69749484D01*
X110578484Y-69856875D01*
X110452206Y-69941252D01*
X110311893Y-69999371D01*
X110212589Y-70019124D01*
X110162938Y-70029000D01*
X110011062Y-70029000D01*
X109961411Y-70019124D01*
X109862107Y-69999371D01*
X109721794Y-69941252D01*
X109595516Y-69856875D01*
X109488125Y-69749484D01*
X109403748Y-69623206D01*
X109345629Y-69482893D01*
X109316000Y-69333937D01*
X109316000Y-69182063D01*
X109345629Y-69033107D01*
X109403748Y-68892794D01*
X109488125Y-68766516D01*
X109595516Y-68659125D01*
X109721794Y-68574748D01*
X109862107Y-68516629D01*
X109961411Y-68496876D01*
X110011062Y-68487000D01*
X110162938Y-68487000D01*
X110212589Y-68496876D01*
X110212589Y-68496876D01*
G37*
G36*
X195503427Y-67617597D02*
G01*
X195617027Y-67640193D01*
X195831045Y-67728842D01*
X196022358Y-67856674D01*
X196023659Y-67857543D01*
X196187457Y-68021341D01*
X196187459Y-68021344D01*
X196316158Y-68213955D01*
X196404807Y-68427973D01*
X196450000Y-68655174D01*
X196450000Y-68886826D01*
X196404807Y-69114027D01*
X196316158Y-69328045D01*
X196188326Y-69519358D01*
X196187457Y-69520659D01*
X196023659Y-69684457D01*
X196023656Y-69684459D01*
X195831045Y-69813158D01*
X195617027Y-69901807D01*
X195503426Y-69924404D01*
X195389827Y-69947000D01*
X195158173Y-69947000D01*
X195044573Y-69924403D01*
X194930973Y-69901807D01*
X194716955Y-69813158D01*
X194524344Y-69684459D01*
X194524341Y-69684457D01*
X194360543Y-69520659D01*
X194359674Y-69519358D01*
X194231842Y-69328045D01*
X194143193Y-69114027D01*
X194098000Y-68886826D01*
X194098000Y-68655174D01*
X194143193Y-68427973D01*
X194231842Y-68213955D01*
X194360541Y-68021344D01*
X194360543Y-68021341D01*
X194524341Y-67857543D01*
X194525642Y-67856674D01*
X194716955Y-67728842D01*
X194930973Y-67640193D01*
X195044573Y-67617597D01*
X195158173Y-67595000D01*
X195389827Y-67595000D01*
X195503427Y-67617597D01*
X195503427Y-67617597D01*
G37*
G36*
X190423427Y-67617597D02*
G01*
X190537027Y-67640193D01*
X190751045Y-67728842D01*
X190942358Y-67856674D01*
X190943659Y-67857543D01*
X191107457Y-68021341D01*
X191107459Y-68021344D01*
X191236158Y-68213955D01*
X191324807Y-68427973D01*
X191370000Y-68655174D01*
X191370000Y-68886826D01*
X191324807Y-69114027D01*
X191236158Y-69328045D01*
X191108326Y-69519358D01*
X191107457Y-69520659D01*
X190943659Y-69684457D01*
X190943656Y-69684459D01*
X190751045Y-69813158D01*
X190537027Y-69901807D01*
X190423426Y-69924404D01*
X190309827Y-69947000D01*
X190078173Y-69947000D01*
X189964573Y-69924403D01*
X189850973Y-69901807D01*
X189636955Y-69813158D01*
X189444344Y-69684459D01*
X189444341Y-69684457D01*
X189280543Y-69520659D01*
X189279674Y-69519358D01*
X189151842Y-69328045D01*
X189063193Y-69114027D01*
X189018000Y-68886826D01*
X189018000Y-68655174D01*
X189063193Y-68427973D01*
X189151842Y-68213955D01*
X189280541Y-68021344D01*
X189280543Y-68021341D01*
X189444341Y-67857543D01*
X189445642Y-67856674D01*
X189636955Y-67728842D01*
X189850973Y-67640193D01*
X189964573Y-67617597D01*
X190078173Y-67595000D01*
X190309827Y-67595000D01*
X190423427Y-67617597D01*
X190423427Y-67617597D01*
G37*
G36*
X184403158Y-51662722D02*
G01*
X184911991Y-51817075D01*
X185380927Y-52067727D01*
X185791953Y-52405047D01*
X186129273Y-52816073D01*
X186379925Y-53285009D01*
X186534278Y-53793842D01*
X186587000Y-54329140D01*
X186587000Y-59992860D01*
X186534278Y-60528158D01*
X186379925Y-61036991D01*
X186129273Y-61505927D01*
X185791953Y-61916953D01*
X185380927Y-62254273D01*
X184911991Y-62504925D01*
X184403158Y-62659278D01*
X183867860Y-62712000D01*
X178204140Y-62712000D01*
X177668842Y-62659278D01*
X177160009Y-62504925D01*
X176691073Y-62254273D01*
X176280047Y-61916953D01*
X175942727Y-61505927D01*
X175692075Y-61036991D01*
X175537722Y-60528158D01*
X175485000Y-59992860D01*
X175485000Y-54329140D01*
X175537722Y-53793842D01*
X175692075Y-53285009D01*
X175942727Y-52816073D01*
X176280047Y-52405047D01*
X176691073Y-52067727D01*
X177160009Y-51817075D01*
X177668842Y-51662722D01*
X178204140Y-51610000D01*
X183867860Y-51610000D01*
X184403158Y-51662722D01*
X184403158Y-51662722D01*
G37*
G36*
X195598252Y-53027818D02*
G01*
X195598254Y-53027819D01*
X195598255Y-53027819D01*
X195971513Y-53182427D01*
X196157547Y-53306731D01*
X196307439Y-53406886D01*
X196593114Y-53692561D01*
X196593116Y-53692564D01*
X196817573Y-54028487D01*
X196972181Y-54401745D01*
X197051000Y-54797994D01*
X197051000Y-55202006D01*
X196972181Y-55598255D01*
X196817573Y-55971513D01*
X196817572Y-55971514D01*
X196593114Y-56307439D01*
X196307439Y-56593114D01*
X196307436Y-56593116D01*
X195971513Y-56817573D01*
X195598255Y-56972181D01*
X195598254Y-56972181D01*
X195598252Y-56972182D01*
X195202007Y-57051000D01*
X194797993Y-57051000D01*
X194401748Y-56972182D01*
X194401746Y-56972181D01*
X194401745Y-56972181D01*
X194028487Y-56817573D01*
X193692564Y-56593116D01*
X193692561Y-56593114D01*
X193406886Y-56307439D01*
X193182428Y-55971514D01*
X193182427Y-55971513D01*
X193027819Y-55598255D01*
X192949000Y-55202006D01*
X192949000Y-54797994D01*
X193027819Y-54401745D01*
X193182427Y-54028487D01*
X193406884Y-53692564D01*
X193406886Y-53692561D01*
X193692561Y-53406886D01*
X193842453Y-53306731D01*
X194028487Y-53182427D01*
X194401745Y-53027819D01*
X194401746Y-53027819D01*
X194401748Y-53027818D01*
X194797993Y-52949000D01*
X195202007Y-52949000D01*
X195598252Y-53027818D01*
X195598252Y-53027818D01*
G37*
G36*
X105598252Y-53027818D02*
G01*
X105598254Y-53027819D01*
X105598255Y-53027819D01*
X105971513Y-53182427D01*
X106157547Y-53306731D01*
X106307439Y-53406886D01*
X106593114Y-53692561D01*
X106593116Y-53692564D01*
X106817573Y-54028487D01*
X106972181Y-54401745D01*
X107051000Y-54797994D01*
X107051000Y-55202006D01*
X106972181Y-55598255D01*
X106817573Y-55971513D01*
X106817572Y-55971514D01*
X106593114Y-56307439D01*
X106307439Y-56593114D01*
X106307436Y-56593116D01*
X105971513Y-56817573D01*
X105598255Y-56972181D01*
X105598254Y-56972181D01*
X105598252Y-56972182D01*
X105202007Y-57051000D01*
X104797993Y-57051000D01*
X104401748Y-56972182D01*
X104401746Y-56972181D01*
X104401745Y-56972181D01*
X104028487Y-56817573D01*
X103692564Y-56593116D01*
X103692561Y-56593114D01*
X103406886Y-56307439D01*
X103182428Y-55971514D01*
X103182427Y-55971513D01*
X103027819Y-55598255D01*
X102949000Y-55202006D01*
X102949000Y-54797994D01*
X103027819Y-54401745D01*
X103182427Y-54028487D01*
X103406884Y-53692564D01*
X103406886Y-53692561D01*
X103692561Y-53406886D01*
X103842453Y-53306731D01*
X104028487Y-53182427D01*
X104401745Y-53027819D01*
X104401746Y-53027819D01*
X104401748Y-53027818D01*
X104797993Y-52949000D01*
X105202007Y-52949000D01*
X105598252Y-53027818D01*
X105598252Y-53027818D01*
G37*
M02*
